<svg width="21" height="20" viewBox="0 0 21 20" fill="none" xmlns="http://www.w3.org/2000/svg">
<path fill-rule="evenodd" clip-rule="evenodd" d="M9.36486 1.01072C8.41418 1.08401 7.51638 1.29098 6.64802 1.63709C4.76412 2.38793 3.16348 3.78584 2.1602 5.55652C1.5479 6.6372 1.17273 7.81414 1.03381 9.09019C0.988729 9.50437 0.988729 10.4872 1.03381 10.9014C1.1517 11.9843 1.42754 12.9563 1.88816 13.912C2.57913 15.3456 3.65618 16.5864 4.97885 17.4726C5.47586 17.8055 6.11487 18.1438 6.64802 18.356C8.41407 19.0591 10.3246 19.1894 12.1705 18.7325C14.1755 18.2362 15.9466 17.0624 17.1943 15.4028C17.7794 14.6245 18.2524 13.7176 18.5516 12.8002C19.4133 10.1578 19.0158 7.28063 17.4705 4.97569C16.8151 3.99813 15.9306 3.12108 14.9495 2.47586C13.7417 1.68162 12.3801 1.19538 10.9186 1.0364C10.6188 1.00378 9.66032 0.987942 9.36486 1.01072ZM9.60458 4.31353V6.49765L9.56463 6.49758C9.47595 6.49742 9.01284 6.4599 8.78775 6.43465C8.15155 6.36325 7.35889 6.20123 6.86569 6.04177L6.71046 5.99157L6.81414 5.76073C7.3406 4.58871 8.08162 3.52421 9.0038 2.61518C9.34424 2.27961 9.51764 2.1294 9.56457 2.1294H9.60458V4.31353ZM10.6705 2.31298C11.7043 3.24469 12.5929 4.46546 13.167 5.74274C13.2454 5.9171 13.2723 5.99445 13.2573 6.00235C13.2116 6.02641 12.6361 6.18086 12.3747 6.2392C11.7906 6.36955 11.2463 6.44496 10.5679 6.48952L10.3859 6.50149V4.31544V2.1294H10.4264C10.4527 2.1294 10.5377 2.19331 10.6705 2.31298ZM7.9935 2.54226C7.17768 3.45907 6.55174 4.42486 6.0802 5.49437C6.02423 5.62134 5.97659 5.72722 5.97434 5.72969C5.9645 5.74042 5.51642 5.53912 5.17418 5.37025C4.83525 5.203 4.47111 5.00053 4.20195 4.82967L4.09981 4.76484L4.28157 4.57186C5.1452 3.65486 6.28901 2.92656 7.5028 2.52079C7.69305 2.45718 8.1353 2.32835 8.17222 2.32576C8.18039 2.32519 8.09997 2.42263 7.9935 2.54226ZM12.1705 2.42293C13.487 2.79755 14.7173 3.53845 15.6658 4.5278L15.892 4.76376L15.7544 4.85153C15.5012 5.01305 15.0858 5.24181 14.7453 5.40724C14.4346 5.55816 14.0247 5.73916 14.0158 5.72935C14.0137 5.72708 13.9663 5.62134 13.9105 5.49437C13.4297 4.4018 12.7888 3.42406 11.9147 2.44948C11.7829 2.3025 11.7568 2.30522 12.1705 2.42293ZM3.85128 5.52987C4.2959 5.80816 4.93833 6.14189 5.42289 6.34627C5.55957 6.40393 5.67706 6.45565 5.68401 6.46125C5.69095 6.46682 5.66096 6.58718 5.61736 6.72869C5.3549 7.5808 5.18365 8.52549 5.13698 9.37874L5.1246 9.60514H3.62443H2.12426L2.13665 9.42313C2.22793 8.08233 2.69886 6.72247 3.46497 5.58753C3.55209 5.45847 3.61372 5.38325 3.62647 5.39044C3.6378 5.39683 3.73897 5.45957 3.85128 5.52987ZM16.5255 5.5876C16.9288 6.18495 17.2789 6.90319 17.4973 7.58083C17.6776 8.14015 17.8147 8.84908 17.8538 9.42313L17.8662 9.60514H16.366H14.8659L14.8537 9.37874C14.8084 8.53748 14.6339 7.57529 14.3731 6.72869C14.3295 6.58718 14.2995 6.46682 14.3065 6.46125C14.3134 6.45565 14.431 6.40391 14.5677 6.34627C15.0669 6.13578 15.7236 5.79246 16.1925 5.4969C16.295 5.43224 16.3802 5.37927 16.3818 5.37915C16.3834 5.37904 16.4481 5.47285 16.5255 5.5876ZM6.77232 6.82685C7.59726 7.06348 8.4208 7.20525 9.29353 7.26087C9.44963 7.27083 9.58347 7.27896 9.59096 7.27896C9.59845 7.27896 9.60458 7.80235 9.60458 8.44205V9.60514H7.75525H5.90592L5.91845 9.37874C5.96002 8.62758 6.11293 7.7836 6.3496 6.99893C6.41581 6.77938 6.43678 6.72945 6.4598 6.73657C6.47542 6.7414 6.61606 6.78203 6.77232 6.82685ZM13.5644 6.73749C13.5644 6.74247 13.5999 6.86432 13.6433 7.00829C13.8775 7.78577 14.0307 8.63296 14.072 9.37874L14.0846 9.60514H12.2352H10.3859V8.44365V7.28216L10.5324 7.27188C11.2134 7.22407 11.5393 7.18785 12.0018 7.10853C12.4482 7.03198 13.0817 6.87792 13.4934 6.74579C13.5491 6.72791 13.5644 6.72613 13.5644 6.73749ZM5.13609 10.6573C5.17161 11.4717 5.36417 12.5577 5.60786 13.3182C5.63791 13.412 5.6625 13.5004 5.6625 13.5147C5.6625 13.5312 5.56717 13.5816 5.40059 13.6532C4.90371 13.8668 4.21079 14.2299 3.82564 14.4783C3.58593 14.633 3.62347 14.6382 3.48243 14.4304C3.07105 13.8244 2.7134 13.0942 2.49316 12.4108C2.31176 11.8478 2.17599 11.1462 2.13665 10.5685L2.12426 10.3865H3.62427H5.12427L5.13609 10.6573ZM9.60458 11.5495C9.60458 12.4765 9.60002 12.7126 9.58208 12.7126C9.5697 12.7126 9.43187 12.7209 9.27577 12.731C8.41375 12.7868 7.60243 12.9277 6.76559 13.1672C6.57632 13.2213 6.41514 13.2591 6.40741 13.251C6.39967 13.243 6.36126 13.1246 6.32206 12.9879C6.08661 12.1669 5.955 11.4051 5.9148 10.6306L5.90214 10.3865H7.75335H9.60458V11.5495ZM14.0739 10.6395C14.0493 11.2046 13.942 11.9249 13.7928 12.5262C13.7218 12.8124 13.5994 13.2328 13.5816 13.252C13.5735 13.2606 13.4708 13.2384 13.3483 13.2014C12.4716 12.9368 11.6036 12.7871 10.559 12.7204L10.3859 12.7093V11.5479V10.3865H12.2354H14.0849L14.0739 10.6395ZM17.8616 10.4484C17.8616 10.5657 17.8057 11.0527 17.7633 11.305C17.5781 12.4059 17.1756 13.422 16.5531 14.3598C16.4455 14.5218 16.3775 14.6086 16.3642 14.6007C16.3528 14.5939 16.2515 14.5313 16.1392 14.4616C15.8477 14.2806 15.5343 14.1061 15.2069 13.9424C14.9611 13.8195 14.8026 13.7465 14.3961 13.569L14.3133 13.5328L14.375 13.3403C14.4713 13.0392 14.6045 12.5025 14.6743 12.1342C14.7742 11.6073 14.8607 10.8562 14.8607 10.5161V10.3865H16.3612H17.8616V10.4484ZM9.60458 15.6781V17.8622H9.51526C9.42694 17.8622 9.42385 17.8603 9.23559 17.6872C8.35835 16.8807 7.55308 15.813 7.01506 14.7429C6.90568 14.5254 6.69242 14.0496 6.69242 14.0231C6.69242 13.9814 7.44553 13.7777 7.95317 13.682C8.44373 13.5896 9.09555 13.5127 9.52023 13.4971L9.60458 13.4939V15.6781ZM11.0416 13.5401C11.5214 13.5858 12.0319 13.6697 12.499 13.7798C12.8618 13.8652 13.2981 13.9957 13.2981 14.0188C13.2981 14.0877 12.9085 14.8899 12.7036 15.243C12.1728 16.1579 11.4679 17.0403 10.7369 17.7051C10.5678 17.8589 10.5623 17.8622 10.475 17.8622H10.3859V15.6764V13.4905L10.5768 13.5023C10.6818 13.5087 10.8909 13.5257 11.0416 13.5401ZM6.03833 14.4892C6.15844 14.7709 6.43389 15.3234 6.58676 15.5893C6.98754 16.2864 7.57681 17.1002 8.00431 17.547C8.0487 17.5934 8.07408 17.6313 8.06071 17.6313C8.01885 17.6313 7.56301 17.4948 7.3498 17.4184C6.55299 17.1329 5.76718 16.6972 5.11374 16.1785C4.7923 15.9234 4.41141 15.5714 4.20479 15.3387L4.10057 15.2213L4.43316 15.0224C4.87961 14.7553 5.8741 14.265 5.9358 14.2816C5.94449 14.2839 5.99064 14.3773 6.03833 14.4892ZM14.3717 14.4085C14.8505 14.621 15.3814 14.9022 15.7588 15.1429L15.8905 15.2269L15.7088 15.4198C14.8895 16.2897 13.8135 16.9937 12.6688 17.4086C12.4388 17.492 11.9804 17.6313 11.9362 17.6313C11.9226 17.6313 11.978 17.5566 12.0594 17.4653C12.8533 16.5735 13.5724 15.4248 14.0154 14.3405C14.0485 14.2595 14.0266 14.2553 14.3717 14.4085Z" fill="black"/>
</svg>
