<svg width="21" height="20" viewBox="0 0 21 20" fill="none" xmlns="http://www.w3.org/2000/svg">
<g clip-path="url(#clip0)">
<path fill-rule="evenodd" clip-rule="evenodd" d="M18.6392 0.0947935C19.5591 0.419989 20.1376 1.02163 20.3894 1.91504C20.4522 2.13775 20.4642 3.4346 20.4642 10.0052C20.4642 18.5355 20.4822 18.0232 20.1589 18.6741C19.8691 19.2574 19.2657 19.7298 18.5544 19.9303C18.3317 19.9931 17.0348 20.0051 10.4643 20.0051C3.89371 20.0051 2.59686 19.9931 2.37415 19.9303C1.44726 19.669 0.800373 19.0222 0.539103 18.0953C0.476345 17.8726 0.464355 16.5757 0.464355 10.0052C0.464355 3.4346 0.476345 2.13775 0.539103 1.91504C0.838676 0.852134 1.68976 0.127419 2.77203 0.0136799C2.87415 0.0029638 6.43114 -0.00260598 10.6765 0.00131971C17.6566 0.00784485 18.4186 0.016757 18.6392 0.0947935ZM14.7445 2.28369C14.4802 2.37796 14.3439 2.50379 14.2245 2.76384C14.1389 2.95021 14.127 3.12458 14.127 4.19619C14.127 5.54132 14.1621 5.72206 14.4701 5.96429C14.7327 6.17086 14.9356 6.19431 16.304 6.17628L17.608 6.15904L17.8084 6.00604C18.1754 5.72599 18.2072 5.58153 18.2072 4.19619C18.2072 3.12458 18.1953 2.95021 18.1098 2.76384C17.8797 2.26294 17.6988 2.21148 16.1671 2.21148C15.2724 2.21148 14.893 2.23074 14.7445 2.28369ZM9.72554 6.13357C8.87637 6.31314 8.23426 6.66062 7.62397 7.27096C6.84165 8.05329 6.48552 8.89195 6.48552 9.9521C6.48552 12.7296 9.31038 14.5722 12.0163 13.5598C12.834 13.2538 13.702 12.4484 14.0983 11.6278C15.1447 9.46123 14.0225 6.98359 11.6579 6.23999C11.2373 6.10774 10.1348 6.04699 9.72554 6.13357ZM2.67797 12.8035L2.69245 17.1404L2.81266 17.3337C3.05595 17.7249 2.47548 17.6974 10.4777 17.6974H17.6633L17.8436 17.577C18.2296 17.3191 18.2094 17.5838 18.2094 12.777L18.2096 8.46671H17.3342C16.8528 8.46671 16.4589 8.47673 16.4589 8.48893C16.4589 8.50119 16.4949 8.65159 16.5388 8.82326C16.7346 9.58744 16.7322 10.7842 16.5333 11.5701C16.0295 13.5606 14.4935 15.2055 12.5261 15.8614C10.9045 16.4021 9.20788 16.2888 7.66068 15.5367C5.21837 14.3495 3.84109 11.6055 4.38665 9.0136C4.42846 8.81493 4.47875 8.61063 4.49838 8.55954C4.53148 8.47328 4.46771 8.46671 3.59876 8.46671H2.66354L2.67797 12.8035Z" fill="black"/>
</g>
<defs>
<clipPath id="clip0">
<rect width="20" height="20" fill="white" transform="translate(0.464355)"/>
</clipPath>
</defs>
</svg>
