<svg width="25" height="25" viewBox="0 0 25 25" fill="none" xmlns="http://www.w3.org/2000/svg">
<path fill-rule="evenodd" clip-rule="evenodd" d="M11.3289 0.0293377C8.89656 0.264667 6.48559 1.25368 4.59508 2.79169C4.039 3.2441 3.15855 4.13155 2.71504 4.6868C1.59363 6.09065 0.674675 7.98958 0.29355 9.69035C0.0542088 10.7587 0 11.278 0 12.5035C0 13.7291 0.0542088 14.2484 0.29355 15.3167C0.682992 17.0546 1.62592 18.9807 2.78461 20.4049C3.23702 20.961 4.12447 21.8415 4.67972 22.285C6.08357 23.4064 7.9825 24.3253 9.68328 24.7065C10.7516 24.9458 11.2709 25 12.4965 25C13.722 25 14.2413 24.9458 15.3096 24.7065C16.5884 24.4199 18.2604 23.7054 19.3592 22.976C21.2648 21.7108 22.7284 20.0463 23.7277 18.0076C24.3398 16.7588 24.6874 15.6404 24.9064 14.2159C25.0276 13.4277 25.0276 11.5793 24.9064 10.7912C24.6874 9.36672 24.3398 8.24829 23.7277 6.99948C23.0745 5.66686 22.3464 4.65304 21.2952 3.61255C20.2632 2.591 19.3178 1.9197 18.0005 1.27301C16.7666 0.667221 15.6242 0.309971 14.2578 0.102481C13.6433 0.00918066 11.9692 -0.0326502 11.3289 0.0293377ZM20.0357 3.36377C20.8842 3.66368 21.4176 4.21854 21.6499 5.04248C21.7078 5.24787 21.7188 6.44389 21.7188 12.5035C21.7188 20.3706 21.7354 19.8982 21.4373 20.4984C21.17 21.0363 20.6135 21.4721 19.9575 21.657C19.7521 21.7148 18.5561 21.7259 12.4965 21.7259C6.43681 21.7259 5.24079 21.7148 5.03541 21.657C4.18059 21.416 3.584 20.8194 3.34304 19.9646C3.28516 19.7592 3.27411 18.5632 3.27411 12.5035C3.27411 6.44389 3.28516 5.24787 3.34304 5.04248C3.61932 4.06222 4.40422 3.39386 5.40234 3.28896C5.49652 3.27908 8.77694 3.27394 12.6922 3.27756C19.1295 3.28358 19.8323 3.2918 20.0357 3.36377ZM16.4439 5.38246C16.2001 5.4694 16.0744 5.58545 15.9643 5.82528C15.8854 5.99716 15.8744 6.15797 15.8744 7.14626C15.8744 8.3868 15.9068 8.55348 16.1908 8.77688C16.433 8.96739 16.6201 8.98901 17.8821 8.97238L19.0847 8.95648L19.2696 8.81538C19.608 8.5571 19.6374 8.42388 19.6374 7.14626C19.6374 6.15797 19.6264 5.99716 19.5475 5.82528C19.3353 5.36333 19.1685 5.31588 17.7559 5.31588C16.9308 5.31588 16.5808 5.33364 16.4439 5.38246ZM11.8152 8.933C11.032 9.09861 10.4399 9.41907 9.87702 9.98195C9.15552 10.7034 8.82709 11.4769 8.82709 12.4546C8.82709 15.0161 11.4323 16.7154 13.9279 15.7818C14.6819 15.4996 15.4824 14.7568 15.8479 14.0001C16.813 12.0019 15.778 9.71692 13.5973 9.03114C13.2094 8.90917 12.1926 8.85315 11.8152 8.933ZM5.3156 15.0843L5.32896 19.0839L5.43982 19.2622C5.66419 19.6231 5.12885 19.5977 12.5088 19.5977H19.1358L19.302 19.4866C19.6579 19.2488 19.6394 19.4929 19.6394 15.0599L19.6395 11.0847H18.8322C18.3882 11.0847 18.025 11.094 18.025 11.1052C18.025 11.1165 18.0582 11.2552 18.0987 11.4135C18.2792 12.1183 18.277 13.222 18.0936 13.9468C17.629 15.7825 16.2124 17.2996 14.398 17.9045C12.9025 18.4031 11.3378 18.2986 9.91088 17.6049C7.65847 16.5101 6.38828 13.9794 6.89142 11.5891C6.92998 11.4059 6.97636 11.2174 6.99446 11.1703C7.02499 11.0908 6.96618 11.0847 6.16479 11.0847H5.30229L5.3156 15.0843Z" fill="black"/>
</svg>
