<svg width="21" height="20" viewBox="0 0 21 20" fill="none" xmlns="http://www.w3.org/2000/svg">
<path fill-rule="evenodd" clip-rule="evenodd" d="M17.3574 1.08526C18.1853 1.37794 18.7059 1.91941 18.9326 2.72348C18.989 2.92392 18.9998 4.09109 18.9998 10.0046C18.9998 17.6819 19.0161 17.2208 18.7251 17.8066C18.4643 18.3316 17.9212 18.7568 17.281 18.9372C17.0806 18.9937 15.9134 19.0045 9.99992 19.0045C4.08642 19.0045 2.91925 18.9937 2.71882 18.9372C1.88462 18.7021 1.30242 18.1199 1.06727 17.2857C1.01079 17.0853 1 15.9181 1 10.0046C1 4.09109 1.01079 2.92392 1.06727 2.72348C1.33689 1.76687 2.10286 1.11462 3.0769 1.01226C3.16881 1.00261 6.37011 0.9976 10.1909 1.00113C16.473 1.00701 17.1588 1.01503 17.3574 1.08526ZM13.8522 3.05526C13.6143 3.1401 13.4916 3.25336 13.3841 3.4874C13.3071 3.65513 13.2964 3.81207 13.2964 4.77651C13.2964 5.98713 13.328 6.1498 13.6051 6.3678C13.8415 6.55372 14.0241 6.57483 15.2557 6.55859L16.4293 6.54308L16.6097 6.40538C16.9399 6.15333 16.9686 6.02333 16.9686 4.77651C16.9686 3.81207 16.9579 3.65513 16.8809 3.4874C16.6738 3.03659 16.511 2.99028 15.1325 2.99028C14.3273 2.99028 13.9858 3.00761 13.8522 3.05526ZM9.33507 6.52016C8.57082 6.68178 7.99291 6.9945 7.44366 7.54381C6.73956 8.2479 6.41905 9.0027 6.41905 9.95684C6.41905 12.4566 8.96142 14.1149 11.3968 13.2037C12.1327 12.9284 12.9139 12.2035 13.2705 11.465C14.2123 9.51506 13.2023 7.28518 11.0742 6.61594C10.6957 6.49691 9.70342 6.44224 9.33507 6.52016ZM2.99225 12.5231L3.00529 16.4263L3.11348 16.6003C3.33243 16.9524 2.81001 16.9276 10.012 16.9276H16.4791L16.6413 16.8192C16.9887 16.5872 16.9705 16.8253 16.9706 12.4993L16.9707 8.61998H16.1829C15.7496 8.61998 15.3951 8.629 15.3951 8.63999C15.3951 8.65101 15.4275 8.78637 15.467 8.94088C15.6432 9.62864 15.6411 10.7057 15.462 11.4131C15.0086 13.2045 13.6262 14.6849 11.8556 15.2752C10.3962 15.7618 8.86917 15.6599 7.47669 14.9829C5.27861 13.9145 4.03906 11.4449 4.53007 9.11218C4.56769 8.93338 4.61295 8.74951 4.63062 8.70353C4.66041 8.6259 4.60302 8.61998 3.82096 8.61998H2.97927L2.99225 12.5231Z" fill="black"/>
</svg>
