<svg width="25" height="25" viewBox="0 0 25 25" fill="none" xmlns="http://www.w3.org/2000/svg">
<g clip-path="url(#clip0)">
<path fill-rule="evenodd" clip-rule="evenodd" d="M22.7186 0.118416C23.8685 0.524911 24.5916 1.27696 24.9063 2.39373C24.9848 2.67211 24.9998 4.29318 24.9998 12.5064C24.9998 23.1693 25.0223 22.529 24.6181 23.3425C24.2559 24.0716 23.5016 24.6622 22.6125 24.9128C22.3341 24.9913 20.7131 25.0063 12.4999 25.0063C4.2867 25.0063 2.66563 24.9913 2.38725 24.9128C1.22864 24.5862 0.420023 23.7776 0.093434 22.619C0.0149865 22.3406 0 20.7196 0 12.5064C0 4.29318 0.0149865 2.67211 0.093434 2.39373C0.4679 1.06509 1.53175 0.159197 2.88459 0.0170236C3.01224 0.00362845 7.45849 -0.00333377 12.7651 0.00157335C21.4903 0.00972977 22.4428 0.02087 22.7186 0.118416ZM17.8502 2.85453C17.5198 2.97237 17.3494 3.12966 17.2002 3.45472C17.0932 3.68768 17.0784 3.90565 17.0784 5.24516C17.0784 6.92658 17.1222 7.1525 17.5071 7.45528C17.8354 7.7135 18.0891 7.74281 19.7996 7.72027L21.4296 7.69872L21.6801 7.50747C22.1388 7.15741 22.1786 6.97684 22.1786 5.24516C22.1786 3.90565 22.1637 3.68768 22.0568 3.45472C21.7692 2.8286 21.543 2.76428 19.6285 2.76428C18.5101 2.76428 18.0358 2.78835 17.8502 2.85453ZM11.5765 7.66689C10.515 7.89135 9.71238 8.3257 8.94952 9.08863C7.97161 10.0665 7.52646 11.1149 7.52646 12.4401C7.52646 15.9119 11.0575 18.2151 14.44 16.9496C15.4621 16.5672 16.5471 15.5604 17.0424 14.5347C18.3504 11.8265 16.9477 8.72941 13.9919 7.79991C13.4662 7.63459 12.0881 7.55867 11.5765 7.66689ZM2.76702 16.0043L2.78512 21.4254L2.93538 21.667C3.23949 22.1561 2.5139 22.1217 12.5167 22.1217H21.4987L21.7241 21.9711C22.2065 21.6489 22.1813 21.9796 22.1814 15.9712L22.1815 10.5833H21.0873C20.4856 10.5833 19.9932 10.5958 19.9932 10.6111C19.9932 10.6264 20.0381 10.8144 20.0931 11.029C20.3378 11.9842 20.3348 13.4802 20.0862 14.4626C19.4565 16.9507 17.5364 19.0068 15.0772 19.8267C13.0502 20.5025 10.9294 20.3609 8.99541 19.4208C5.94252 17.9368 4.22092 14.5067 4.90287 11.2669C4.95513 11.0186 5.01799 10.7632 5.04253 10.6994C5.08391 10.5915 5.0042 10.5833 3.918 10.5833H2.74898L2.76702 16.0043Z" fill="black"/>
</g>
<defs>
<clipPath id="clip0">
<rect width="25" height="25" fill="white"/>
</clipPath>
</defs>
</svg>
