<svg width="21" height="20" viewBox="0 0 21 20" fill="none" xmlns="http://www.w3.org/2000/svg">
<g clip-path="url(#clip0)">
<path fill-rule="evenodd" clip-rule="evenodd" d="M9.52749 0.0234702C7.58161 0.211733 5.65283 1.00295 4.14042 2.23335C3.69556 2.59528 2.99119 3.30524 2.63639 3.74944C1.73926 4.87252 1.0041 6.39166 0.699195 7.75228C0.507723 8.60694 0.464355 9.02241 0.464355 10.0028C0.464355 10.9832 0.507723 11.3987 0.699195 12.2534C1.01075 13.6437 1.76509 15.1845 2.69205 16.3239C3.05397 16.7688 3.76393 17.4732 4.20813 17.828C5.33121 18.7251 6.85035 19.4603 8.21098 19.7652C9.06564 19.9566 9.48111 20 10.4615 20C11.4419 20 11.8574 19.9566 12.7121 19.7652C13.7351 19.5359 15.0727 18.9643 15.9517 18.3808C17.4762 17.3687 18.6471 16.037 19.4465 14.4061C19.9362 13.407 20.2143 12.5123 20.3895 11.3727C20.4864 10.7422 20.4864 9.26348 20.3895 8.63293C20.2143 7.49337 19.9362 6.59863 19.4465 5.59958C18.9239 4.53349 18.3415 3.72243 17.5005 2.89004C16.6749 2.0728 15.9186 1.53576 14.8648 1.01841C13.8776 0.533777 12.9637 0.247977 11.8706 0.0819844C11.379 0.00734452 10.0397 -0.0261202 9.52749 0.0234702ZM16.493 2.69102C17.1717 2.93094 17.5985 3.37483 17.7843 4.03399C17.8306 4.1983 17.8394 5.15511 17.8394 10.0028C17.8394 16.2965 17.8527 15.9185 17.6142 16.3987C17.4004 16.8291 16.9552 17.1777 16.4304 17.3256C16.2661 17.3719 15.3092 17.3807 10.4615 17.3807C5.61381 17.3807 4.65699 17.3719 4.49268 17.3256C3.80883 17.1328 3.33155 16.6555 3.13879 15.9717C3.09249 15.8074 3.08364 14.8506 3.08364 10.0028C3.08364 5.15511 3.09249 4.1983 3.13879 4.03399C3.35981 3.24978 3.98774 2.71509 4.78623 2.63117C4.86157 2.62326 7.48591 2.61915 10.6181 2.62205C15.768 2.62687 16.3302 2.63344 16.493 2.69102ZM13.6195 4.30597C13.4245 4.37552 13.3239 4.46836 13.2358 4.66023C13.1727 4.79772 13.1639 4.92638 13.1639 5.717C13.1639 6.70944 13.1898 6.84279 13.417 7.0215C13.6107 7.17391 13.7605 7.19121 14.7701 7.1779L15.7322 7.16518L15.88 7.0523C16.1508 6.84568 16.1742 6.73911 16.1742 5.717C16.1742 4.92638 16.1655 4.79772 16.1023 4.66023C15.9326 4.29067 15.7991 4.2527 14.6691 4.2527C14.009 4.2527 13.729 4.26691 13.6195 4.30597ZM9.9165 7.1464C9.28999 7.27889 8.81624 7.53525 8.36597 7.98556C7.78877 8.56275 7.52603 9.18152 7.52603 9.96369C7.52603 12.0129 9.61019 13.3724 11.6066 12.6254C12.2099 12.3997 12.8503 11.8055 13.1427 11.2C13.9147 9.60153 13.0868 7.77354 11.3422 7.22491C11.0319 7.12734 10.2185 7.08252 9.9165 7.1464ZM4.71683 12.0675L4.72752 15.2672L4.81621 15.4098C4.99571 15.6984 4.56744 15.6781 10.4714 15.6781H15.773L15.906 15.5893C16.1907 15.3991 16.1758 15.5943 16.1759 12.0479L16.176 8.86777H15.5302C15.175 8.86777 14.8843 8.87517 14.8843 8.88417C14.8843 8.89321 14.9109 9.00417 14.9433 9.13083C15.0878 9.69464 15.086 10.5776 14.9392 11.1575C14.5675 12.626 13.4343 13.8396 11.9827 14.3236C10.7863 14.7224 9.53457 14.6389 8.39306 14.084C6.59113 13.208 5.57498 11.1835 5.97749 9.27127C6.00834 9.12469 6.04544 8.97396 6.05992 8.93627C6.08435 8.87263 6.0373 8.86777 5.39619 8.86777H4.70619L4.71683 12.0675Z" fill="black"/>
</g>
<defs>
<clipPath id="clip0">
<rect width="20" height="20" fill="white" transform="translate(0.464355)"/>
</clipPath>
</defs>
</svg>
