<svg width="21" height="20" viewBox="0 0 21 20" fill="none" xmlns="http://www.w3.org/2000/svg">
<path d="M18.8041 12.9105L17.3963 14.3183C17.1992 14.5155 16.9327 14.6277 16.654 14.6311H9.77192C9.40577 14.618 9.05781 14.4682 8.79666 14.2112L6.30526 11.7199C6.10581 11.5172 5.83382 11.4023 5.54947 11.4007L1 11.4002V6.00004H6.37532H6.37913C7.54889 5.99525 8.67274 6.45497 9.50379 7.27823L11.438 9.2125L9.90414 10.7465L8.00666 8.84919C7.57884 8.41458 6.99452 8.16982 6.38468 8.16974L3.16944 8.16948V9.23099H6.27379H6.27772C6.65619 9.23215 7.01993 9.37781 7.29459 9.6382L9.83838 12.1819C10.0201 12.3616 10.2653 12.4627 10.5209 12.4632H16.1899L12.1886 8.46201L13.7226 6.92797L18.8049 12.0102C18.9255 12.1264 18.9956 12.2854 19 12.4528C18.9999 12.6254 18.9286 12.7903 18.803 12.9087L18.8041 12.9105Z" fill="black"/>
</svg>
