<svg width="21" height="20" viewBox="0 0 21 20" fill="none" xmlns="http://www.w3.org/2000/svg">
<path d="M10 1C5.02944 1 1 5.02944 1 10C1 14.9706 5.02944 19 10 19C14.9706 19 19 14.9706 19 10C19 5.02944 14.9706 1 10 1ZM16.3541 11.8728L15.3381 12.8889C15.1958 13.0312 15.0035 13.1122 14.8023 13.1146H9.83539C9.57113 13.1052 9.32001 12.9971 9.13153 12.8116L7.33344 11.0135C7.18949 10.8672 6.99319 10.7843 6.78797 10.7832L3.50452 10.7828V6.8854H7.384H7.38675C8.23099 6.88194 9.04209 7.21374 9.64188 7.8079L11.0379 9.2039L9.93082 10.311L8.56137 8.94169C8.2526 8.62803 7.83089 8.45137 7.39075 8.45132L5.07025 8.45113V9.21725H7.31073H7.31356C7.58671 9.21808 7.84922 9.32321 8.04745 9.51113L9.88336 11.3469C10.0145 11.4767 10.1914 11.5496 10.3759 11.55H14.4674L11.5796 8.66226L12.6867 7.5551L16.3547 11.2231C16.4417 11.3069 16.4923 11.4217 16.4955 11.5425C16.4954 11.6671 16.444 11.7861 16.3533 11.8715L16.3541 11.8728Z" fill="#313131"/>
</svg>
