<svg width="25" height="25" viewBox="0 0 25 25" fill="none" xmlns="http://www.w3.org/2000/svg">
<path d="M12.5 0C5.59667 0 0 5.59642 0 12.5C0 19.4036 5.59667 25 12.5 25C19.4033 25 25 19.4036 25 12.5C25 5.59642 19.4033 0 12.5 0ZM1.97928 15.9005C1.97238 15.9499 1.93683 15.9847 1.89233 15.9847C1.84757 15.9847 1.81176 15.9499 1.80563 15.9L1.6468 14.7151L1.80563 13.5097C1.81151 13.4596 1.84757 13.4246 1.89233 13.4246C1.93683 13.4246 1.97238 13.4593 1.97928 13.509L2.16752 14.7153L1.97928 15.9005ZM2.78593 16.6217C2.77826 16.6729 2.74092 16.7092 2.6954 16.7092C2.64936 16.7092 2.61151 16.6724 2.60512 16.6215L2.39182 14.7151L2.60512 12.7657C2.61125 12.7148 2.64936 12.6777 2.6954 12.6777C2.74118 12.6777 2.77826 12.7138 2.78593 12.7657L3.02839 14.7151L2.78593 16.6217ZM3.65678 16.9442C3.65013 17.0059 3.60435 17.0504 3.54783 17.0504C3.49054 17.0504 3.44501 17.0059 3.43913 16.9437L3.23657 14.7156C3.23657 14.7156 3.43913 12.4028 3.43913 12.4026C3.44476 12.3409 3.49054 12.2962 3.54783 12.2962C3.60435 12.2962 3.64987 12.3409 3.65678 12.4026L3.8867 14.7156L3.65678 16.9442ZM4.53504 17.0151C4.5289 17.0859 4.47417 17.1399 4.40793 17.1399C4.34041 17.1399 4.28542 17.0859 4.28005 17.0151L4.08875 14.7161L4.28005 12.3396C4.28542 12.268 4.34041 12.2143 4.40793 12.2143C4.47417 12.2143 4.5289 12.268 4.53504 12.3389L4.75243 14.7159L4.53504 17.0151ZM5.4202 17.0343C5.41483 17.1156 5.35166 17.178 5.27442 17.178C5.19642 17.178 5.1335 17.1159 5.12839 17.0343L4.94783 14.7164L5.12839 12.512C5.13376 12.4299 5.19667 12.368 5.27442 12.368C5.35192 12.368 5.41483 12.4299 5.4202 12.5113L5.62506 14.7166L5.4202 17.0343ZM6.31253 17.035V17.034C6.30716 17.1248 6.23529 17.1967 6.14808 17.1967C6.0601 17.1967 5.98824 17.1251 5.98338 17.0345L5.81432 14.7169L5.98338 11.1302C5.98824 11.0389 6.0601 10.9675 6.14808 10.9675C6.23529 10.9675 6.30716 11.0389 6.31253 11.1299L6.50435 14.7169L6.31253 17.035ZM7.19821 17.0332V17.032C7.19361 17.1338 7.11304 17.213 7.01509 17.213C6.91688 17.213 6.83657 17.1338 6.83274 17.0327L6.67366 14.7292C6.67366 14.7292 6.83197 10.3228 6.83197 10.3225C6.83657 10.221 6.91688 10.1414 7.01509 10.1414C7.11304 10.1414 7.19361 10.221 7.19821 10.3225L7.37749 14.7292L7.19821 17.0332ZM8.11765 16.998V16.9967C8.11304 17.1087 8.02506 17.1959 7.91662 17.1959C7.80742 17.1959 7.71893 17.1084 7.71509 16.9977L7.56752 14.7179C7.56752 14.7179 7.71509 9.94373 7.71509 9.94322C7.71893 9.8312 7.80742 9.74348 7.91662 9.74348C8.02506 9.74348 8.1133 9.8312 8.11765 9.94322L8.2844 14.7179L8.11765 16.998ZM9.03095 16.9826C9.02737 17.1049 8.93043 17.2008 8.81125 17.2008C8.69105 17.2008 8.59489 17.1049 8.59182 16.9836L8.45473 14.7182L8.5913 9.78286C8.59514 9.66036 8.6913 9.56419 8.81125 9.56419C8.93069 9.56419 9.02762 9.6601 9.03095 9.78286L9.18517 14.7184L9.03095 16.9826ZM9.9509 16.9629V16.9611C9.94731 17.0939 9.84271 17.1987 9.71253 17.1987C9.58184 17.1987 9.47724 17.0939 9.47442 16.9624L9.34834 14.7187L9.47366 9.90921C9.47724 9.77621 9.58184 9.67212 9.71253 9.67212C9.84271 9.67212 9.94731 9.77596 9.9509 9.9087L10.0928 14.7187L9.9509 16.9629ZM10.8783 16.9488V16.9473C10.8754 17.0908 10.7624 17.2031 10.6212 17.2031C10.4803 17.2031 10.367 17.0908 10.3642 16.9488L10.2494 14.7189L10.3642 10.0849C10.367 9.94143 10.4803 9.82916 10.6212 9.82916C10.7624 9.82916 10.8754 9.94169 10.8783 10.0849L11.0069 14.7194L10.8783 16.9488ZM11.824 16.7146L11.8125 16.933C11.8113 17.0084 11.7793 17.077 11.7297 17.1269C11.6798 17.1762 11.6118 17.2072 11.5371 17.2072C11.4529 17.2072 11.3772 17.1683 11.3263 17.1074C11.289 17.0624 11.2652 17.0054 11.2624 16.9435C11.2619 16.9404 11.2616 16.9376 11.2616 16.934C11.2616 16.934 11.1573 14.7207 11.1573 14.7174L11.2606 9.25652L11.2616 9.2046C11.2629 9.10818 11.3133 9.02353 11.3887 8.97468C11.4315 8.94655 11.4821 8.92992 11.5371 8.92992C11.5928 8.92992 11.6455 8.94731 11.6893 8.97698C11.7621 9.02634 11.811 9.10972 11.8125 9.20435L11.9281 14.7189L11.824 16.7146ZM12.743 16.9033V16.9028V16.9008C12.7396 17.0621 12.6087 17.1939 12.4488 17.1939C12.2885 17.1939 12.1565 17.0621 12.1545 16.9028L12.0951 15.8263L12.0343 14.7202L12.1542 8.73632L12.1547 8.70614C12.1558 8.61509 12.1982 8.53376 12.2639 8.47979C12.3143 8.43785 12.379 8.41279 12.4494 8.41279C12.5041 8.41279 12.5552 8.42839 12.599 8.45499C12.6834 8.50639 12.7419 8.59949 12.7435 8.70563L12.8737 14.7205L12.743 16.9033ZM20.6834 17.1995C20.6834 17.1995 13.2898 17.2003 13.2826 17.1995C13.1228 17.1836 12.9959 17.0565 12.9944 16.8931C12.9944 16.8931 12.9944 8.41969 12.9944 8.41944C12.9959 8.26368 13.0494 8.18363 13.2512 8.10563C13.7691 7.90486 14.3565 7.78644 14.9586 7.78644C17.4207 7.78644 19.4381 9.67391 19.6509 12.0798C19.9685 11.9468 20.3174 11.8726 20.6834 11.8726C22.1583 11.8726 23.3529 13.068 23.3529 14.5425C23.3532 16.0169 22.1583 17.1995 20.6834 17.1995Z" fill="black"/>
</svg>
