<svg width="21" height="20" viewBox="0 0 21 20" fill="none" xmlns="http://www.w3.org/2000/svg">
<g clip-path="url(#clip0)">
<path d="M10.4644 0C4.9417 0 0.464355 4.47714 0.464355 10C0.464355 15.5229 4.9417 20 10.4644 20C15.987 20 20.4644 15.5229 20.4644 10C20.4644 4.47714 15.987 0 10.4644 0ZM2.04778 12.7204C2.04226 12.7599 2.01382 12.7877 1.97822 12.7877C1.94241 12.7877 1.91377 12.7599 1.90886 12.72L1.7818 11.7721L1.90886 10.8078C1.91356 10.7677 1.94241 10.7396 1.97822 10.7396C2.01382 10.7396 2.04226 10.7675 2.04778 10.8072L2.19837 11.7723L2.04778 12.7204ZM2.6931 13.2974C2.68696 13.3383 2.65709 13.3674 2.62067 13.3674C2.58384 13.3674 2.55356 13.3379 2.54845 13.2972L2.37781 11.7721L2.54845 10.2126C2.55336 10.1719 2.58384 10.1422 2.62067 10.1422C2.6573 10.1422 2.68696 10.171 2.6931 10.2126L2.88707 11.7721L2.6931 13.2974ZM3.38978 13.5554C3.38446 13.6047 3.34783 13.6403 3.30262 13.6403C3.25679 13.6403 3.22037 13.6047 3.21566 13.555L3.05361 11.7725C3.05361 11.7725 3.21566 9.92225 3.21566 9.92205C3.22016 9.87274 3.25679 9.83693 3.30262 9.83693C3.34783 9.83693 3.38425 9.87274 3.38978 9.92205L3.57372 11.7725L3.38978 13.5554ZM4.09239 13.6121C4.08748 13.6687 4.04369 13.7119 3.9907 13.7119C3.93668 13.7119 3.89269 13.6687 3.8884 13.6121L3.73535 11.7729L3.8884 9.87171C3.89269 9.81442 3.93668 9.77146 3.9907 9.77146C4.04369 9.77146 4.08748 9.81442 4.09239 9.8711L4.2663 11.7727L4.09239 13.6121ZM4.80052 13.6274C4.79622 13.6925 4.74569 13.7424 4.68389 13.7424C4.62149 13.7424 4.57116 13.6927 4.56707 13.6274L4.42262 11.7731L4.56707 10.0096C4.57136 9.94394 4.6217 9.89442 4.68389 9.89442C4.74589 9.89442 4.79622 9.94394 4.80052 10.009L4.96441 11.7733L4.80052 13.6274ZM5.51438 13.628V13.6272C5.51008 13.6998 5.45259 13.7573 5.38282 13.7573C5.31244 13.7573 5.25494 13.7001 5.25106 13.6276L5.11581 11.7735L5.25106 8.90414C5.25494 8.8311 5.31244 8.77402 5.38282 8.77402C5.45259 8.77402 5.51008 8.8311 5.51438 8.90394L5.66783 11.7735L5.51438 13.628ZM6.22292 13.6266V13.6256C6.21924 13.707 6.15479 13.7704 6.07643 13.7704C5.99786 13.7704 5.93361 13.707 5.93054 13.6262L5.80328 11.7833C5.80328 11.7833 5.92993 8.25821 5.92993 8.25801C5.93361 8.17678 5.99786 8.11315 6.07643 8.11315C6.15479 8.11315 6.21924 8.17678 6.22292 8.25801L6.36635 11.7833L6.22292 13.6266ZM6.95847 13.5984V13.5973C6.95479 13.687 6.88441 13.7567 6.79765 13.7567C6.71029 13.7567 6.6395 13.6868 6.63643 13.5982L6.51837 11.7743C6.51837 11.7743 6.63643 7.95499 6.63643 7.95458C6.6395 7.86496 6.71029 7.79478 6.79765 7.79478C6.88441 7.79478 6.95499 7.86496 6.95847 7.95458L7.09187 11.7743L6.95847 13.5984ZM7.68911 13.5861C7.68625 13.6839 7.6087 13.7606 7.51336 13.7606C7.41719 13.7606 7.34026 13.6839 7.33781 13.5869L7.22814 11.7745L7.3374 7.82629C7.34047 7.72829 7.4174 7.65136 7.51336 7.65136C7.60891 7.65136 7.68645 7.72808 7.68911 7.82629L7.81249 11.7747L7.68911 13.5861ZM8.42507 13.5703V13.5689C8.42221 13.6751 8.33852 13.759 8.23438 13.759C8.12983 13.759 8.04615 13.6751 8.04389 13.5699L7.94303 11.7749L8.04328 7.92737C8.04615 7.82097 8.12983 7.7377 8.23438 7.7377C8.33852 7.7377 8.42221 7.82077 8.42507 7.92696L8.53863 11.7749L8.42507 13.5703ZM9.16696 13.5591V13.5579C9.16471 13.6726 9.07428 13.7625 8.96134 13.7625C8.8486 13.7625 8.75796 13.6726 8.75571 13.5591L8.66384 11.7751L8.75571 8.06793C8.75796 7.95315 8.8486 7.86332 8.96134 7.86332C9.07428 7.86332 9.16471 7.95335 9.16696 8.06793L9.26988 11.7756L9.16696 13.5591ZM9.92359 13.3717L9.91438 13.5464C9.91336 13.6068 9.88778 13.6616 9.84809 13.7015C9.80819 13.741 9.75377 13.7657 9.69402 13.7657C9.62671 13.7657 9.56615 13.7346 9.52543 13.6859C9.49556 13.6499 9.47653 13.6043 9.47428 13.5548C9.47387 13.5523 9.47367 13.5501 9.47367 13.5472C9.47367 13.5472 9.39019 11.7766 9.39019 11.7739L9.47285 7.40522L9.47367 7.36368C9.47469 7.28655 9.51499 7.21882 9.57535 7.17974C9.60952 7.15724 9.65003 7.14394 9.69402 7.14394C9.73863 7.14394 9.78078 7.15785 9.81576 7.18159C9.87407 7.22107 9.91315 7.28777 9.91438 7.36348L10.0069 11.7751L9.92359 13.3717ZM10.6587 13.5227V13.5223V13.5206C10.6561 13.6497 10.5513 13.7551 10.4234 13.7551C10.2951 13.7551 10.1896 13.6497 10.1879 13.5223L10.1405 12.6611L10.0918 11.7762L10.1877 6.98905L10.1881 6.96491C10.189 6.89207 10.2229 6.82701 10.2755 6.78384C10.3158 6.75028 10.3676 6.73023 10.4238 6.73023C10.4676 6.73023 10.5086 6.74271 10.5435 6.76399C10.6111 6.80511 10.6579 6.87959 10.6591 6.9645L10.7633 11.7764L10.6587 13.5227ZM17.0111 13.7596C17.0111 13.7596 11.0962 13.7602 11.0904 13.7596C10.9626 13.7469 10.8611 13.6452 10.8599 13.5145C10.8599 13.5145 10.8599 6.73575 10.8599 6.73555C10.8611 6.61095 10.9038 6.54691 11.0653 6.4845C11.4796 6.32389 11.9496 6.22916 12.4312 6.22916C14.4009 6.22916 16.0148 7.73913 16.1851 9.66384C16.4392 9.55744 16.7183 9.49811 17.0111 9.49811C18.191 9.49811 19.1467 10.4544 19.1467 11.634C19.1469 12.8135 18.191 13.7596 17.0111 13.7596Z" fill="black"/>
</g>
<defs>
<clipPath id="clip0">
<rect width="20" height="20" fill="white" transform="translate(0.464355)"/>
</clipPath>
</defs>
</svg>
