<svg width="21" height="20" viewBox="0 0 21 20" fill="none" xmlns="http://www.w3.org/2000/svg">
<g clip-path="url(#clip0)">
<path d="M0.770703 12.9763C0.76434 13.0218 0.731585 13.0538 0.690581 13.0538C0.649342 13.0538 0.616351 13.0218 0.610695 12.9758L0.464355 11.884L0.610695 10.7734C0.616115 10.7272 0.649342 10.6949 0.690581 10.6949C0.731585 10.6949 0.76434 10.727 0.770703 10.7727L0.944143 11.8843L0.770703 12.9763ZM1.51395 13.6408C1.50688 13.688 1.47247 13.7214 1.43053 13.7214C1.38811 13.7214 1.35323 13.6875 1.34734 13.6406L1.15081 11.884L1.34734 10.0879C1.353 10.041 1.38811 10.0068 1.43053 10.0068C1.47271 10.0068 1.50688 10.0401 1.51395 10.0879L1.73735 11.884L1.51395 13.6408ZM2.31634 13.938C2.31022 13.9948 2.26803 14.0358 2.21596 14.0358C2.16317 14.0358 2.12122 13.9948 2.1158 13.9375L1.92917 11.8845L2.1158 9.75328C2.12099 9.69649 2.16317 9.65525 2.21596 9.65525C2.26803 9.65525 2.30998 9.69649 2.31634 9.75328L2.52819 11.8845L2.31634 13.938ZM3.12557 14.0033C3.11992 14.0685 3.06949 14.1183 3.00845 14.1183C2.94624 14.1183 2.89557 14.0685 2.89063 14.0033L2.71436 11.885L2.89063 9.69531C2.89557 9.62933 2.94624 9.57984 3.00845 9.57984C3.06949 9.57984 3.11992 9.62933 3.12557 9.6946L3.32588 11.8847L3.12557 14.0033ZM3.94116 14.0209C3.93621 14.0959 3.87801 14.1534 3.80684 14.1534C3.73497 14.1534 3.677 14.0961 3.67228 14.0209L3.50591 11.8852L3.67228 9.85414C3.67723 9.77849 3.7352 9.72147 3.80684 9.72147C3.87824 9.72147 3.93621 9.77849 3.94116 9.85343L4.12992 11.8855L3.94116 14.0209ZM4.76335 14.0216V14.0207C4.7584 14.1044 4.69218 14.1706 4.61183 14.1706C4.53076 14.1706 4.46454 14.1046 4.46007 14.0212L4.3043 11.8857L4.46007 8.58091C4.46454 8.49678 4.53076 8.43104 4.61183 8.43104C4.69218 8.43104 4.7584 8.49678 4.76335 8.58068L4.94009 11.8857L4.76335 14.0216ZM5.57941 14.02V14.0188C5.57517 14.1126 5.50094 14.1857 5.41069 14.1857C5.3202 14.1857 5.2462 14.1126 5.24267 14.0195L5.09609 11.897L5.24196 7.83672C5.2462 7.74317 5.3202 7.66988 5.41069 7.66988C5.50094 7.66988 5.57517 7.74317 5.57941 7.83672L5.74461 11.897L5.57941 14.02ZM6.42658 13.9875V13.9863C6.42234 14.0895 6.34127 14.1699 6.24136 14.1699C6.14074 14.1699 6.0592 14.0893 6.05567 13.9872L5.91969 11.8866C5.91969 11.8866 6.05567 7.48772 6.05567 7.48725C6.0592 7.38404 6.14074 7.30321 6.24136 7.30321C6.34127 7.30321 6.42257 7.38404 6.42658 7.48725L6.58023 11.8866L6.42658 13.9875ZM7.26809 13.9733C7.26479 14.086 7.17548 14.1743 7.06567 14.1743C6.95491 14.1743 6.86631 14.086 6.86348 13.9743L6.73717 11.8869L6.86301 7.3395C6.86654 7.22662 6.95515 7.13802 7.06567 7.13802C7.17572 7.13802 7.26503 7.22638 7.26809 7.3395L7.41019 11.8871L7.26809 13.9733ZM8.11573 13.9552V13.9535C8.11243 14.0758 8.01605 14.1725 7.89611 14.1725C7.77569 14.1725 7.67931 14.0758 7.67671 13.9547L7.56054 11.8873L7.67601 7.45591C7.67931 7.33337 7.77569 7.23746 7.89611 7.23746C8.01605 7.23746 8.11243 7.33314 8.11573 7.45544L8.24652 11.8873L8.11573 13.9552ZM8.97021 13.9422V13.9408C8.96761 14.073 8.86346 14.1765 8.73338 14.1765C8.60353 14.1765 8.49914 14.073 8.49655 13.9422L8.39074 11.8876L8.49655 7.6178C8.49914 7.4856 8.60353 7.38215 8.73338 7.38215C8.86346 7.38215 8.96761 7.48584 8.97021 7.6178L9.08874 11.888L8.97021 13.9422ZM9.84165 13.7264L9.83104 13.9276C9.82986 13.9971 9.80041 14.0603 9.75469 14.1062C9.70874 14.1517 9.64606 14.1802 9.57725 14.1802C9.49972 14.1802 9.42996 14.1444 9.38307 14.0883C9.34866 14.0469 9.32675 13.9943 9.32416 13.9373C9.32368 13.9344 9.32345 13.9319 9.32345 13.9286C9.32345 13.9286 9.2273 11.8892 9.2273 11.8862L9.32251 6.85453L9.32345 6.80669C9.32463 6.71785 9.37105 6.63985 9.44057 6.59484C9.47992 6.56892 9.52658 6.5536 9.57725 6.5536C9.62862 6.5536 9.67716 6.56962 9.71746 6.59696C9.78462 6.64244 9.82963 6.71926 9.83104 6.80645L9.93756 11.8876L9.84165 13.7264ZM10.6883 13.9003V13.8998V13.8979C10.6853 14.0466 10.5646 14.168 10.4173 14.168C10.2696 14.168 10.148 14.0466 10.1461 13.8998L10.0914 12.9079L10.0354 11.8888L10.1459 6.37521L10.1463 6.3474C10.1473 6.26351 10.1864 6.18857 10.247 6.13885C10.2934 6.1002 10.353 6.07711 10.4178 6.07711C10.4682 6.07711 10.5154 6.09149 10.5557 6.11599C10.6334 6.16336 10.6874 6.24914 10.6888 6.34693L10.8088 11.889L10.6883 13.9003ZM18.0046 14.1732C18.0046 14.1732 11.1922 14.1739 11.1856 14.1732C11.0383 14.1586 10.9214 14.0414 10.92 13.8909V6.08324C10.9214 5.93973 10.9707 5.86597 11.1566 5.79409C11.6338 5.60911 12.1751 5.5 12.7298 5.5C14.9984 5.5 16.8572 7.23911 17.0533 9.45589C17.346 9.33335 17.6674 9.26501 18.0046 9.26501C19.3636 9.26501 20.4644 10.3664 20.4644 11.725C20.4646 13.0835 19.3636 14.1732 18.0046 14.1732Z" fill="black"/>
</g>
<defs>
<clipPath id="clip0">
<rect width="20" height="20" fill="white" transform="translate(0.464355)"/>
</clipPath>
</defs>
</svg>
