<svg width="21" height="20" viewBox="0 0 21 20" fill="none" xmlns="http://www.w3.org/2000/svg">
<path d="M10 1C5.02961 1 1 5.02942 1 10C1 14.9706 5.02961 19 10 19C14.9704 19 19 14.9706 19 10C19 5.02942 14.9704 1 10 1ZM2.42508 12.4484C2.42011 12.4839 2.39452 12.509 2.36248 12.509C2.33025 12.509 2.30447 12.4839 2.30005 12.448L2.1857 11.5949L2.30005 10.727C2.30429 10.6909 2.33025 10.6657 2.36248 10.6657C2.39452 10.6657 2.42011 10.6907 2.42508 10.7264L2.56061 11.595L2.42508 12.4484ZM3.00587 12.9677C3.00035 13.0045 2.97346 13.0306 2.94069 13.0306C2.90754 13.0306 2.88029 13.0041 2.87568 12.9675L2.72211 11.5949L2.87568 10.1913C2.8801 10.1547 2.90754 10.128 2.94069 10.128C2.97365 10.128 3.00035 10.1539 3.00587 10.1913L3.18044 11.5949L3.00587 12.9677ZM3.63288 13.1999C3.62809 13.2442 3.59513 13.2763 3.55443 13.2763C3.51319 13.2763 3.48041 13.2442 3.47617 13.1995L3.33033 11.5952C3.33033 11.5952 3.47617 9.93003 3.47617 9.92984C3.48022 9.88546 3.51319 9.85324 3.55443 9.85324C3.59513 9.85324 3.62791 9.88546 3.63288 9.92984L3.79842 11.5952L3.63288 13.1999ZM4.26523 13.2509C4.26081 13.3019 4.2214 13.3407 4.17371 13.3407C4.12509 13.3407 4.0855 13.3019 4.08164 13.2509L3.9439 11.5956L4.08164 9.88454C4.0855 9.83298 4.12509 9.79431 4.17371 9.79431C4.2214 9.79431 4.26081 9.83298 4.26523 9.88399L4.42175 11.5954L4.26523 13.2509ZM4.90255 13.2647C4.89868 13.3232 4.8532 13.3682 4.79759 13.3682C4.74142 13.3682 4.69612 13.3234 4.69244 13.2647L4.56243 11.5958L4.69244 10.0087C4.69631 9.94954 4.74161 9.90498 4.79759 9.90498C4.85338 9.90498 4.89868 9.94954 4.90255 10.0081L5.05005 11.596L4.90255 13.2647ZM5.54502 13.2652V13.2645C5.54116 13.3299 5.48941 13.3816 5.42662 13.3816C5.36327 13.3816 5.31153 13.33 5.30803 13.2649L5.18631 11.5962L5.30803 9.01373C5.31153 8.94799 5.36327 8.89661 5.42662 8.89661C5.48941 8.89661 5.54116 8.94799 5.54502 9.01354L5.68313 11.5962L5.54502 13.2652ZM6.18271 13.2639V13.263C6.1794 13.3363 6.12139 13.3934 6.05086 13.3934C5.98015 13.3934 5.92233 13.3363 5.91957 13.2636L5.80503 11.605C5.80503 11.605 5.91902 8.43239 5.91902 8.4322C5.92233 8.3591 5.98015 8.30183 6.05086 8.30183C6.12139 8.30183 6.1794 8.3591 6.18271 8.4322L6.3118 11.605L6.18271 13.2639ZM6.84471 13.2385V13.2376C6.84139 13.3183 6.77805 13.3811 6.69997 13.3811C6.62134 13.3811 6.55763 13.3181 6.55486 13.2383L6.44861 11.5969C6.44861 11.5969 6.55486 8.15949 6.55486 8.15912C6.55763 8.07846 6.62134 8.0153 6.69997 8.0153C6.77805 8.0153 6.84158 8.07846 6.84471 8.15912L6.96477 11.5969L6.84471 13.2385ZM7.50228 13.2275C7.4997 13.3155 7.42991 13.3846 7.3441 13.3846C7.25755 13.3846 7.18832 13.3155 7.18611 13.2282L7.08741 11.5971L7.18574 8.04366C7.1885 7.95546 7.25774 7.88622 7.3441 7.88622C7.4301 7.88622 7.49989 7.95527 7.50228 8.04366L7.61332 11.5973L7.50228 13.2275ZM8.16464 13.2133V13.212C8.16207 13.3076 8.08675 13.3831 7.99302 13.3831C7.89893 13.3831 7.82361 13.3076 7.82159 13.2129L7.7308 11.5974L7.82103 8.13463C7.82361 8.03887 7.89893 7.96393 7.99302 7.96393C8.08675 7.96393 8.16207 8.03869 8.16464 8.13426L8.26684 11.5974L8.16464 13.2133ZM8.83235 13.2032V13.2021C8.83032 13.3054 8.74893 13.3862 8.64728 13.3862C8.54582 13.3862 8.46424 13.3054 8.46222 13.2032L8.37954 11.5976L8.46222 8.26114C8.46424 8.15783 8.54582 8.07699 8.64728 8.07699C8.74893 8.07699 8.83032 8.15801 8.83235 8.26114L8.92497 11.598L8.83235 13.2032ZM9.51331 13.0345L9.50502 13.1918C9.5041 13.2461 9.48108 13.2954 9.44536 13.3313C9.40945 13.3669 9.36047 13.3892 9.3067 13.3892C9.24612 13.3892 9.19161 13.3612 9.15497 13.3173C9.12808 13.2849 9.11096 13.2439 9.10893 13.1993C9.10856 13.1971 9.10838 13.1951 9.10838 13.1925C9.10838 13.1925 9.03325 11.5989 9.03325 11.5965L9.10764 7.6647L9.10838 7.62731C9.1093 7.55789 9.14557 7.49694 9.1999 7.46177C9.23065 7.44151 9.26711 7.42954 9.3067 7.42954C9.34684 7.42954 9.38478 7.44207 9.41627 7.46343C9.46875 7.49897 9.50392 7.559 9.50502 7.62713L9.58826 11.5976L9.51331 13.0345ZM10.1749 13.1704V13.17V13.1686C10.1725 13.2847 10.0783 13.3796 9.96317 13.3796C9.84771 13.3796 9.75269 13.2847 9.75122 13.17L9.7085 12.395L9.66468 11.5985L9.75104 7.29015L9.75141 7.26842C9.75214 7.20286 9.78271 7.14431 9.83004 7.10545C9.86631 7.07525 9.9129 7.05721 9.96354 7.05721C10.0029 7.05721 10.0398 7.06844 10.0713 7.08759C10.132 7.1246 10.1742 7.19163 10.1753 7.26805L10.269 11.5987L10.1749 13.1704ZM15.892 13.3836C15.892 13.3836 10.5686 13.3842 10.5635 13.3836C10.4484 13.3722 10.3571 13.2807 10.3559 13.163C10.3559 13.163 10.3559 7.06218 10.3559 7.06199C10.3571 6.94985 10.3955 6.89221 10.5408 6.83605C10.9137 6.6915 11.3367 6.60624 11.7702 6.60624C13.5429 6.60624 14.9954 7.96522 15.1486 9.69745C15.3773 9.6017 15.6285 9.5483 15.892 9.5483C16.954 9.5483 17.8141 10.409 17.8141 11.4706C17.8143 12.5322 16.954 13.3836 15.892 13.3836Z" fill="black"/>
</svg>
