<svg width="25" height="25" viewBox="0 0 25 25" fill="none" xmlns="http://www.w3.org/2000/svg">
<path d="M0.382934 16.2204C0.374981 16.2772 0.334036 16.3173 0.282782 16.3173C0.231233 16.3173 0.189994 16.2772 0.182925 16.2198L0 14.8551L0.182925 13.4668C0.1897 13.409 0.231233 13.3687 0.282782 13.3687C0.334036 13.3687 0.374981 13.4087 0.382934 13.4659L0.599734 14.8553L0.382934 16.2204ZM1.31199 17.051C1.30315 17.1099 1.26015 17.1518 1.20772 17.1518C1.15469 17.1518 1.1111 17.1094 1.10373 17.0507L0.858067 14.8551L1.10373 12.6099C1.1108 12.5513 1.15469 12.5086 1.20772 12.5086C1.26044 12.5086 1.30315 12.5501 1.31199 12.6099L1.59124 14.8551L1.31199 17.051ZM2.31498 17.4225C2.30733 17.4935 2.2546 17.5447 2.1895 17.5447C2.12352 17.5447 2.07108 17.4935 2.06431 17.4219L1.83101 14.8556L2.06431 12.1916C2.07079 12.1206 2.12352 12.0691 2.1895 12.0691C2.2546 12.0691 2.30703 12.1206 2.31498 12.1916L2.5798 14.8556L2.31498 17.4225ZM3.32652 17.5041C3.31945 17.5857 3.25641 17.6478 3.18012 17.6478C3.10236 17.6478 3.03902 17.5857 3.03284 17.5041L2.8125 14.8562L3.03284 12.1191C3.03902 12.0367 3.10236 11.9748 3.18012 11.9748C3.25641 11.9748 3.31945 12.0367 3.32652 12.1183L3.5769 14.8559L3.32652 17.5041ZM4.34601 17.5262C4.33982 17.6198 4.26706 17.6917 4.17811 17.6917C4.08826 17.6917 4.0158 17.6201 4.00991 17.5262L3.80195 14.8565L4.00991 12.3177C4.0161 12.2231 4.08856 12.1518 4.17811 12.1518C4.26736 12.1518 4.33982 12.2231 4.34601 12.3168L4.58195 14.8568L4.34601 17.5262ZM5.37374 17.5271V17.5259C5.36756 17.6304 5.28479 17.7132 5.18434 17.7132C5.08301 17.7132 5.00024 17.6307 4.99464 17.5265L4.79993 14.8571L4.99464 10.7261C5.00024 10.621 5.08301 10.5388 5.18434 10.5388C5.28479 10.5388 5.36756 10.621 5.37374 10.7258L5.59467 14.8571L5.37374 17.5271ZM6.39382 17.525V17.5235C6.38852 17.6408 6.29573 17.7321 6.18291 17.7321C6.0698 17.7321 5.97731 17.6408 5.97289 17.5244L5.78967 14.8713L5.972 9.7959C5.97731 9.67896 6.0698 9.58735 6.18291 9.58735C6.29573 9.58735 6.38852 9.67896 6.39382 9.7959L6.60031 14.8713L6.39382 17.525ZM7.45278 17.4843V17.4829C7.44748 17.6119 7.34615 17.7123 7.22125 17.7123C7.09547 17.7123 6.99356 17.6116 6.98914 17.484L6.81917 14.8583C6.81917 14.8583 6.98914 9.35965 6.98914 9.35906C6.99356 9.23004 7.09547 9.12901 7.22125 9.12901C7.34615 9.12901 7.44777 9.23004 7.45278 9.35906L7.64484 14.8583L7.45278 17.4843ZM8.50467 17.4667C8.50055 17.6075 8.38891 17.7179 8.25164 17.7179C8.1132 17.7179 8.00244 17.6075 7.99891 17.4678L7.84102 14.8586L7.99832 9.17437C8.00273 9.03328 8.11349 8.92252 8.25164 8.92252C8.3892 8.92252 8.50084 9.03298 8.50467 9.17437L8.6823 14.8589L8.50467 17.4667ZM9.56422 17.444V17.4419C9.5601 17.5948 9.43962 17.7156 9.28969 17.7156C9.13917 17.7156 9.01869 17.5948 9.01545 17.4434L8.87023 14.8592L9.01456 9.31989C9.01869 9.16671 9.13917 9.04683 9.28969 9.04683C9.43962 9.04683 9.5601 9.16642 9.56422 9.3193L9.72771 14.8592L9.56422 17.444ZM10.6323 17.4278V17.426C10.6291 17.5913 10.4989 17.7206 10.3363 17.7206C10.174 17.7206 10.0435 17.5913 10.0402 17.4278L9.90798 14.8595L10.0402 9.52225C10.0435 9.357 10.174 9.22769 10.3363 9.22769C10.4989 9.22769 10.6291 9.3573 10.6323 9.52225L10.7805 14.8601L10.6323 17.4278ZM11.7216 17.158L11.7084 17.4095C11.7069 17.4964 11.6701 17.5754 11.6129 17.6328C11.5555 17.6897 11.4771 17.7253 11.3911 17.7253C11.2942 17.7253 11.207 17.6805 11.1484 17.6104C11.1054 17.5586 11.078 17.4929 11.0747 17.4216C11.0742 17.4181 11.0739 17.4148 11.0739 17.4107C11.0739 17.4107 10.9537 14.8615 10.9537 14.8577L11.0727 8.56816L11.0739 8.50836C11.0753 8.39731 11.1334 8.29981 11.2203 8.24355C11.2695 8.21115 11.3278 8.192 11.3911 8.192C11.4553 8.192 11.516 8.21203 11.5664 8.2462C11.6503 8.30305 11.7066 8.39908 11.7084 8.50807L11.8415 14.8595L11.7216 17.158ZM12.78 17.3753V17.3748V17.3724C12.7762 17.5583 12.6253 17.71 12.4412 17.71C12.2565 17.71 12.1045 17.5583 12.1022 17.3748L12.0339 16.1349L11.9637 14.8609L12.1019 7.96901L12.1025 7.93425C12.1037 7.82939 12.1526 7.73572 12.2283 7.67356C12.2863 7.62526 12.3608 7.59639 12.4418 7.59639C12.5049 7.59639 12.5638 7.61436 12.6141 7.64499C12.7114 7.7042 12.7788 7.81142 12.7806 7.93367L12.9305 14.8612L12.78 17.3753ZM21.9253 17.7165C21.9253 17.7165 13.4098 17.7173 13.4015 17.7165C13.2174 17.6982 13.0713 17.5518 13.0695 17.3636V7.60405C13.0713 7.42466 13.1329 7.33246 13.3653 7.24262C13.9618 7.01138 14.6384 6.875 15.3318 6.875C18.1676 6.875 20.4911 9.04889 20.7362 11.8199C21.102 11.6667 21.5038 11.5813 21.9253 11.5813C23.6241 11.5813 25 12.9581 25 14.6562C25.0003 16.3544 23.6241 17.7165 21.9253 17.7165Z" fill="black"/>
</svg>
