<svg width="21" height="40" viewBox="0 0 21 40" fill="none" xmlns="http://www.w3.org/2000/svg">
<path fill-rule="evenodd" clip-rule="evenodd" d="M8.90417 1.08698C7.78924 1.3373 6.92901 1.75268 6.08836 2.44671C5.41495 3.00259 4.96337 3.58303 4.55835 4.41341C3.39362 6.80107 3.99061 9.25374 6.92213 14.1252C8.27997 16.3815 9.9535 19 10.0378 19C10.1222 19 11.7957 16.3815 13.1536 14.1252C16.0851 9.25374 16.6821 6.80107 15.5173 4.41341C15.3349 4.0393 15.031 3.53874 14.842 3.30112C14.0977 2.36463 12.8414 1.54378 11.625 1.19914C10.8813 0.98843 9.58181 0.934921 8.90417 1.08698ZM10.9607 4.96279C11.4022 5.15808 11.8968 5.65153 12.1034 6.10266C12.3269 6.59074 12.3269 7.45097 12.1034 7.93906C11.8977 8.38822 11.4052 8.88076 10.956 9.08641C10.468 9.30989 9.60773 9.30989 9.11965 9.08641C8.14877 8.64193 7.59788 7.52655 7.84351 6.50262C8.17054 5.13934 9.67719 4.39504 10.9607 4.96279Z" fill="#800080"/>
<path fill-rule="evenodd" clip-rule="evenodd" d="M8.90417 21.087C7.78924 21.3373 6.92901 21.7527 6.08836 22.4467C5.41495 23.0026 4.96337 23.583 4.55835 24.4134C3.39362 26.8011 3.99061 29.2537 6.92213 34.1252C8.27997 36.3815 9.9535 39 10.0378 39C10.1222 39 11.7957 36.3815 13.1536 34.1252C16.0851 29.2537 16.6821 26.8011 15.5173 24.4134C15.3349 24.0393 15.031 23.5387 14.842 23.3011C14.0977 22.3646 12.8414 21.5438 11.625 21.1991C10.8813 20.9884 9.58181 20.9349 8.90417 21.087ZM10.9607 24.9628C11.4022 25.1581 11.8968 25.6515 12.1034 26.1027C12.3269 26.5907 12.3269 27.451 12.1034 27.9391C11.8977 28.3882 11.4052 28.8808 10.956 29.0864C10.468 29.3099 9.60773 29.3099 9.11965 29.0864C8.14877 28.6419 7.59788 27.5265 7.84351 26.5026C8.17054 25.1393 9.67719 24.395 10.9607 24.9628Z" fill="black"/>
</svg>
