<svg width="90" height="90" viewBox="0 0 90 90" fill="none" xmlns="http://www.w3.org/2000/svg">
<rect x="2.5" y="2.5" width="85" height="85" fill="black"/>
<path fill-rule="evenodd" clip-rule="evenodd" d="M85 5H15V75H85V5ZM53.0678 14.9907C51.6504 14.6311 50.1732 14.4513 48.636 14.4513H28.3369L28.3369 14.4513L28.3369 52.0229H38.6952V37.9858H48.636C49.7665 37.9858 50.8798 37.8553 51.9757 37.5944C53.0889 37.3335 54.1412 36.9595 55.1327 36.4724C56.1241 35.9854 57.0374 35.3853 57.8723 34.6721C58.7072 33.959 59.4291 33.1589 60.0379 32.2717C60.664 31.3847 61.1511 30.4105 61.499 29.3495C61.8469 28.271 62.0208 27.123 62.0208 25.9054C62.0208 25.7848 62.0194 25.6651 62.0164 25.5464C61.9726 23.7659 61.6001 22.207 60.8989 20.8698C60.8532 20.7796 60.8066 20.6903 60.759 20.6021C60.0445 19.2781 59.1084 18.1759 57.9506 17.2953C57.7962 17.1757 57.6388 17.0599 57.4785 16.948C56.356 16.1641 55.087 15.5668 53.6716 15.1558C53.4715 15.0971 53.2703 15.0421 53.0678 14.9907ZM44.1482 18.1302C46.6182 18.1302 48.462 18.826 49.6796 20.2175C50.9146 21.5917 51.5321 23.4876 51.5321 25.9054C51.5321 27.1404 51.3929 28.2798 51.1146 29.3234C51.0972 29.3875 51.0792 29.4512 51.0606 29.5143C50.7813 30.4611 50.3645 31.2933 49.81 32.0108C49.7361 32.1065 49.6595 32.1996 49.5801 32.2901C49.0246 32.9236 48.3359 33.4306 47.514 33.8111C47.3988 33.8633 47.2804 33.9122 47.1589 33.9579C46.3085 34.2775 45.305 34.4373 44.1482 34.4373H38.6952V18.1302H44.1482ZM60.4449 52.0855L69.7127 65.3817H62.6574L56.7504 56.9281L50.7181 65.3817H45.8337L54.9135 54.2772L45.8337 41.2733H52.8888L58.6081 49.4555L64.8282 41.2733H69.7127L60.4449 52.0855Z" fill="white"/>
<rect x="2.5" y="2.5" width="85" height="85" stroke="black" stroke-width="5"/>
</svg>
