<svg width="37" height="37" viewBox="0 0 37 37" fill="none" xmlns="http://www.w3.org/2000/svg">
<rect x="1" y="1" width="35" height="35" fill="black"/>
<path fill-rule="evenodd" clip-rule="evenodd" d="M35 2H5V32H35V2ZM21.3148 6.28173C20.7073 6.12763 20.0742 6.05057 19.4154 6.05057H10.7158V22.1527H15.1551V16.1368H19.4154C19.8999 16.1368 20.3771 16.0808 20.8467 15.969C21.3238 15.8572 21.7748 15.6969 22.1997 15.4882C22.2263 15.4751 22.2527 15.4619 22.279 15.4485C22.6734 15.2471 23.0384 15.0032 23.3738 14.7166C23.4186 14.6784 23.4625 14.6396 23.5057 14.6003C23.8082 14.3247 24.0736 14.0206 24.302 13.6879C24.3355 13.6404 24.3681 13.5923 24.3998 13.5436C24.6216 13.2028 24.7977 12.8334 24.9281 12.4355C24.9468 12.3777 24.9642 12.3195 24.9805 12.2608C25.0947 11.8498 25.1518 11.4161 25.1518 10.9595C25.1518 10.9078 25.1512 10.8565 25.1499 10.8056C25.1311 10.0425 24.9715 9.37443 24.671 8.80134C24.6514 8.76267 24.6314 8.72442 24.611 8.6866C24.3048 8.1192 23.9036 7.64681 23.4074 7.26942C23.3412 7.21817 23.2738 7.16855 23.2051 7.12056C22.724 6.78463 22.1801 6.52861 21.5735 6.3525C21.4878 6.32734 21.4016 6.30375 21.3148 6.28173ZM19.8627 8.52179C20.392 9.11071 20.6566 9.92327 20.6566 10.9595C20.6566 11.4887 20.597 11.977 20.4777 12.4243C20.3584 12.8641 20.1721 13.2481 19.9186 13.5761C19.6651 13.9041 19.3371 14.1613 18.9346 14.3476C18.5395 14.5265 18.0587 14.616 17.4921 14.616H15.1551V7.62724H17.4921C18.5507 7.62724 19.3408 7.92541 19.8627 8.52179ZM24.4764 22.1795L28.4483 27.8779H25.4246L22.893 24.2549L20.3077 27.8779H18.2144L22.1058 23.1188L18.2144 17.5457H21.2381L23.6892 21.0524L26.355 17.5457H28.4483L24.4764 22.1795Z" fill="white"/>
<rect x="1" y="1" width="35" height="35" stroke="black" stroke-width="2"/>
</svg>
