<svg width="50" height="50" viewBox="0 0 50 50" fill="none" xmlns="http://www.w3.org/2000/svg">
<g id="logo-reverse">
<rect id="background" width="50" height="50" fill="white"/>
<rect id="border" x="8.33337" y="2.77777" width="38.8889" height="38.8889" fill="black"/>
<path id="logo" fill-rule="evenodd" clip-rule="evenodd" d="M29.8505 8.633C29.0631 8.43324 28.2424 8.33334 27.3884 8.33334H16.1111V29.2064H21.8657V21.408H27.3884C28.0165 21.408 28.6349 21.3355 29.2437 21.1906C29.8622 21.0456 30.4468 20.8379 30.9977 20.5673C31.5485 20.2967 32.0558 19.9633 32.5196 19.5671C32.9835 19.1709 33.3845 18.7264 33.7228 18.2336C34.0706 17.7407 34.3412 17.1996 34.5345 16.6101C34.7278 16.011 34.8244 15.3732 34.8244 14.6967C34.8244 14.6297 34.8236 14.5632 34.822 14.4973C34.7976 13.5081 34.5906 12.642 34.2011 11.8992C34.1757 11.849 34.1498 11.7994 34.1234 11.7504C33.7264 11.0149 33.2064 10.4025 32.5631 9.91333C32.4774 9.84689 32.3899 9.78257 32.3009 9.72036C31.6773 9.2849 30.9723 8.95302 30.1859 8.72473C30.0748 8.69211 29.963 8.66154 29.8505 8.633ZM24.8952 10.3772C26.2674 10.3772 27.2917 10.7637 27.9682 11.5368C28.6543 12.3002 28.9973 13.3535 28.9973 14.6967C28.9973 15.3828 28.92 16.0158 28.7654 16.5956C28.7557 16.6312 28.7457 16.6666 28.7354 16.7017C28.5802 17.2277 28.3487 17.69 28.0406 18.0886C27.9996 18.1418 27.957 18.1935 27.9129 18.2438C27.6043 18.5957 27.2217 18.8774 26.7651 19.0888C26.701 19.1178 26.6353 19.145 26.5678 19.1703C26.0953 19.3479 25.5378 19.4367 24.8952 19.4367H21.8657V10.3772H24.8952ZM33.9489 29.2412L39.0977 36.628H35.1781L31.8964 31.9315L28.5451 36.628H25.8316L30.8759 30.4588L25.8316 23.2344H29.7511L32.9284 27.7801L36.3841 23.2344H39.0977L33.9489 29.2412Z" fill="white"/>
</g>
</svg>
