<svg width="21" height="40" viewBox="0 0 21 40" fill="none" xmlns="http://www.w3.org/2000/svg">
<path d="M18.8041 12.9105L17.3963 14.3183C17.1992 14.5155 16.9327 14.6277 16.654 14.6311H9.77192C9.40577 14.618 9.05781 14.4682 8.79666 14.2112L6.30526 11.7199C6.10581 11.5172 5.83382 11.4023 5.54947 11.4007L1 11.4002V6.00004H6.37532H6.37913C7.54889 5.99525 8.67274 6.45497 9.50379 7.27823L11.438 9.2125L9.90414 10.7465L8.00666 8.84919C7.57884 8.41458 6.99452 8.16982 6.38468 8.16974L3.16944 8.16948V9.23099H6.27379H6.27772C6.65619 9.23215 7.01993 9.37781 7.29459 9.6382L9.83838 12.1819C10.0201 12.3616 10.2653 12.4627 10.5209 12.4632H16.1899L12.1886 8.46201L13.7226 6.92797L18.8049 12.0102C18.9255 12.1264 18.9956 12.2854 19 12.4528C18.9999 12.6254 18.9286 12.7903 18.803 12.9087L18.8041 12.9105Z" fill="#800080"/>
<path d="M18.8041 32.9105L17.3963 34.3183C17.1992 34.5155 16.9327 34.6277 16.654 34.6311H9.77192C9.40577 34.618 9.05781 34.4682 8.79666 34.2112L6.30526 31.7199C6.10581 31.5172 5.83382 31.4023 5.54947 31.4007L1 31.4002V26H6.37532H6.37913C7.54889 25.9952 8.67274 26.455 9.50379 27.2782L11.438 29.2125L9.90414 30.7465L8.00666 28.8492C7.57884 28.4146 6.99452 28.1698 6.38468 28.1697L3.16944 28.1695V29.231H6.27379H6.27772C6.65619 29.2322 7.01993 29.3778 7.29459 29.6382L9.83838 32.1819C10.0201 32.3616 10.2653 32.4627 10.5209 32.4632H16.1899L12.1886 28.462L13.7226 26.928L18.8049 32.0102C18.9255 32.1264 18.9956 32.2854 19 32.4528C18.9999 32.6254 18.9286 32.7903 18.803 32.9087L18.8041 32.9105Z" fill="black"/>
</svg>
