<svg width="21" height="40" viewBox="0 0 21 40" fill="none" xmlns="http://www.w3.org/2000/svg">
<rect x="3" y="6" width="14" height="8" fill="white"/>
<path d="M10 1C5.02944 1 1 5.02944 1 10C1 14.9706 5.02944 19 10 19C14.9706 19 19 14.9706 19 10C19 5.02944 14.9706 1 10 1ZM16.3541 11.8728L15.3381 12.8889C15.1958 13.0312 15.0035 13.1122 14.8023 13.1146H9.83539C9.57113 13.1052 9.32001 12.9971 9.13153 12.8116L7.33344 11.0135C7.18949 10.8672 6.99319 10.7843 6.78797 10.7832L3.50452 10.7828V6.8854H7.384H7.38675C8.23099 6.88194 9.04209 7.21374 9.64188 7.8079L11.0379 9.2039L9.93082 10.311L8.56137 8.94169C8.2526 8.62803 7.83089 8.45137 7.39075 8.45132L5.07025 8.45113V9.21725H7.31073H7.31356C7.58671 9.21808 7.84922 9.32321 8.04745 9.51114L9.88336 11.3469C10.0145 11.4767 10.1914 11.5496 10.3759 11.55H14.4674L11.5796 8.66226L12.6867 7.55511L16.3547 11.2231C16.4417 11.3069 16.4923 11.4217 16.4955 11.5425C16.4954 11.6671 16.444 11.7861 16.3533 11.8715L16.3541 11.8728Z" fill="#800080"/>
<rect x="3" y="26" width="14" height="8" fill="white"/>
<path d="M10 21C5.02944 21 1 25.0294 1 30C1 34.9706 5.02944 39 10 39C14.9706 39 19 34.9706 19 30C19 25.0294 14.9706 21 10 21ZM16.3541 31.8728L15.3381 32.8889C15.1958 33.0312 15.0035 33.1122 14.8023 33.1146H9.83539C9.57113 33.1052 9.32001 32.9971 9.13153 32.8116L7.33344 31.0135C7.18949 30.8672 6.99319 30.7843 6.78797 30.7832L3.50452 30.7828V26.8854H7.384H7.38675C8.23099 26.8819 9.04209 27.2137 9.64188 27.8079L11.0379 29.2039L9.93082 30.311L8.56137 28.9417C8.2526 28.628 7.83089 28.4514 7.39075 28.4513L5.07025 28.4511V29.2172H7.31073H7.31356C7.58671 29.2181 7.84922 29.3232 8.04745 29.5111L9.88336 31.3469C10.0145 31.4767 10.1914 31.5496 10.3759 31.55H14.4674L11.5796 28.6623L12.6867 27.5551L16.3547 31.2231C16.4417 31.3069 16.4923 31.4217 16.4955 31.5425C16.4954 31.6671 16.444 31.7861 16.3533 31.8715L16.3541 31.8728Z" fill="#313131"/>
</svg>
