<svg width="306" height="792" viewBox="0 0 306 792" fill="none" xmlns="http://www.w3.org/2000/svg">
<g clip-path="url(#clip0)">
<rect width="306" height="792" fill="white"/>
<g clip-path="url(#clip1)">
<rect x="23" y="20" width="2" height="2" rx="1" fill="black"/>
<rect x="40" y="20" width="2" height="2" rx="1" fill="black"/>
<rect x="57" y="20" width="2" height="2" rx="1" fill="black"/>
<rect x="74" y="20" width="2" height="2" rx="1" fill="black"/>
<rect x="91" y="20" width="2" height="2" rx="1" fill="black"/>
<rect x="108" y="20" width="2" height="2" rx="1" fill="black"/>
<rect x="125" y="20" width="2" height="2" rx="1" fill="black"/>
<rect x="142" y="20" width="2" height="2" rx="1" fill="black"/>
<rect x="159" y="20" width="2" height="2" rx="1" fill="black"/>
<rect x="176" y="20" width="2" height="2" rx="1" fill="black"/>
<rect x="193" y="20" width="2" height="2" rx="1" fill="black"/>
<rect x="210" y="20" width="2" height="2" rx="1" fill="black"/>
<rect x="227" y="20" width="2" height="2" rx="1" fill="black"/>
<rect x="244" y="20" width="2" height="2" rx="1" fill="black"/>
<rect x="261" y="20" width="2" height="2" rx="1" fill="black"/>
<rect x="278" y="20" width="2" height="2" rx="1" fill="black"/>
<rect x="295" y="20" width="2" height="2" rx="1" fill="black"/>
<rect x="23" y="37" width="2" height="2" rx="1" fill="black"/>
<rect x="40" y="37" width="2" height="2" rx="1" fill="black"/>
<rect x="57" y="37" width="2" height="2" rx="1" fill="black"/>
<rect x="74" y="37" width="2" height="2" rx="1" fill="black"/>
<rect x="91" y="37" width="2" height="2" rx="1" fill="black"/>
<rect x="108" y="37" width="2" height="2" rx="1" fill="black"/>
<rect x="125" y="37" width="2" height="2" rx="1" fill="black"/>
<rect x="142" y="37" width="2" height="2" rx="1" fill="black"/>
<rect x="159" y="37" width="2" height="2" rx="1" fill="black"/>
<rect x="176" y="37" width="2" height="2" rx="1" fill="black"/>
<rect x="193" y="37" width="2" height="2" rx="1" fill="black"/>
<rect x="210" y="37" width="2" height="2" rx="1" fill="black"/>
<rect x="227" y="37" width="2" height="2" rx="1" fill="black"/>
<rect x="244" y="37" width="2" height="2" rx="1" fill="black"/>
<rect x="261" y="37" width="2" height="2" rx="1" fill="black"/>
<rect x="278" y="37" width="2" height="2" rx="1" fill="black"/>
<rect x="295" y="37" width="2" height="2" rx="1" fill="black"/>
<rect x="23" y="54" width="2" height="2" rx="1" fill="black"/>
<rect x="40" y="54" width="2" height="2" rx="1" fill="black"/>
<rect x="57" y="54" width="2" height="2" rx="1" fill="black"/>
<rect x="74" y="54" width="2" height="2" rx="1" fill="black"/>
<rect x="91" y="54" width="2" height="2" rx="1" fill="black"/>
<rect x="108" y="54" width="2" height="2" rx="1" fill="black"/>
<rect x="125" y="54" width="2" height="2" rx="1" fill="black"/>
<rect x="142" y="54" width="2" height="2" rx="1" fill="black"/>
<rect x="159" y="54" width="2" height="2" rx="1" fill="black"/>
<rect x="176" y="54" width="2" height="2" rx="1" fill="black"/>
<rect x="193" y="54" width="2" height="2" rx="1" fill="black"/>
<rect x="210" y="54" width="2" height="2" rx="1" fill="black"/>
<rect x="227" y="54" width="2" height="2" rx="1" fill="black"/>
<rect x="244" y="54" width="2" height="2" rx="1" fill="black"/>
<rect x="261" y="54" width="2" height="2" rx="1" fill="black"/>
<rect x="278" y="54" width="2" height="2" rx="1" fill="black"/>
<rect x="295" y="54" width="2" height="2" rx="1" fill="black"/>
<rect x="23" y="71" width="2" height="2" rx="1" fill="black"/>
<rect x="40" y="71" width="2" height="2" rx="1" fill="black"/>
<rect x="57" y="71" width="2" height="2" rx="1" fill="black"/>
<rect x="74" y="71" width="2" height="2" rx="1" fill="black"/>
<rect x="91" y="71" width="2" height="2" rx="1" fill="black"/>
<rect x="108" y="71" width="2" height="2" rx="1" fill="black"/>
<rect x="125" y="71" width="2" height="2" rx="1" fill="black"/>
<rect x="142" y="71" width="2" height="2" rx="1" fill="black"/>
<rect x="159" y="71" width="2" height="2" rx="1" fill="black"/>
<rect x="176" y="71" width="2" height="2" rx="1" fill="black"/>
<rect x="193" y="71" width="2" height="2" rx="1" fill="black"/>
<rect x="210" y="71" width="2" height="2" rx="1" fill="black"/>
<rect x="227" y="71" width="2" height="2" rx="1" fill="black"/>
<rect x="244" y="71" width="2" height="2" rx="1" fill="black"/>
<rect x="261" y="71" width="2" height="2" rx="1" fill="black"/>
<rect x="278" y="71" width="2" height="2" rx="1" fill="black"/>
<rect x="295" y="71" width="2" height="2" rx="1" fill="black"/>
<rect x="23" y="88" width="2" height="2" rx="1" fill="black"/>
<rect x="40" y="88" width="2" height="2" rx="1" fill="black"/>
<rect x="57" y="88" width="2" height="2" rx="1" fill="black"/>
<rect x="74" y="88" width="2" height="2" rx="1" fill="black"/>
<rect x="91" y="88" width="2" height="2" rx="1" fill="black"/>
<rect x="108" y="88" width="2" height="2" rx="1" fill="black"/>
<rect x="125" y="88" width="2" height="2" rx="1" fill="black"/>
<rect x="142" y="88" width="2" height="2" rx="1" fill="black"/>
<rect x="159" y="88" width="2" height="2" rx="1" fill="black"/>
<rect x="176" y="88" width="2" height="2" rx="1" fill="black"/>
<rect x="193" y="88" width="2" height="2" rx="1" fill="black"/>
<rect x="210" y="88" width="2" height="2" rx="1" fill="black"/>
<rect x="227" y="88" width="2" height="2" rx="1" fill="black"/>
<rect x="244" y="88" width="2" height="2" rx="1" fill="black"/>
<rect x="261" y="88" width="2" height="2" rx="1" fill="black"/>
<rect x="278" y="88" width="2" height="2" rx="1" fill="black"/>
<rect x="295" y="88" width="2" height="2" rx="1" fill="black"/>
<rect x="23" y="105" width="2" height="2" rx="1" fill="black"/>
<rect x="40" y="105" width="2" height="2" rx="1" fill="black"/>
<rect x="57" y="105" width="2" height="2" rx="1" fill="black"/>
<rect x="74" y="105" width="2" height="2" rx="1" fill="black"/>
<rect x="91" y="105" width="2" height="2" rx="1" fill="black"/>
<rect x="108" y="105" width="2" height="2" rx="1" fill="black"/>
<rect x="125" y="105" width="2" height="2" rx="1" fill="black"/>
<rect x="142" y="105" width="2" height="2" rx="1" fill="black"/>
<rect x="159" y="105" width="2" height="2" rx="1" fill="black"/>
<rect x="176" y="105" width="2" height="2" rx="1" fill="black"/>
<rect x="193" y="105" width="2" height="2" rx="1" fill="black"/>
<rect x="210" y="105" width="2" height="2" rx="1" fill="black"/>
<rect x="227" y="105" width="2" height="2" rx="1" fill="black"/>
<rect x="244" y="105" width="2" height="2" rx="1" fill="black"/>
<rect x="261" y="105" width="2" height="2" rx="1" fill="black"/>
<rect x="278" y="105" width="2" height="2" rx="1" fill="black"/>
<rect x="295" y="105" width="2" height="2" rx="1" fill="black"/>
<rect x="23" y="122" width="2" height="2" rx="1" fill="black"/>
<rect x="40" y="122" width="2" height="2" rx="1" fill="black"/>
<rect x="57" y="122" width="2" height="2" rx="1" fill="black"/>
<rect x="74" y="122" width="2" height="2" rx="1" fill="black"/>
<rect x="91" y="122" width="2" height="2" rx="1" fill="black"/>
<rect x="108" y="122" width="2" height="2" rx="1" fill="black"/>
<rect x="125" y="122" width="2" height="2" rx="1" fill="black"/>
<rect x="142" y="122" width="2" height="2" rx="1" fill="black"/>
<rect x="159" y="122" width="2" height="2" rx="1" fill="black"/>
<rect x="176" y="122" width="2" height="2" rx="1" fill="black"/>
<rect x="193" y="122" width="2" height="2" rx="1" fill="black"/>
<rect x="210" y="122" width="2" height="2" rx="1" fill="black"/>
<rect x="227" y="122" width="2" height="2" rx="1" fill="black"/>
<rect x="244" y="122" width="2" height="2" rx="1" fill="black"/>
<rect x="261" y="122" width="2" height="2" rx="1" fill="black"/>
<rect x="278" y="122" width="2" height="2" rx="1" fill="black"/>
<rect x="295" y="122" width="2" height="2" rx="1" fill="black"/>
<rect x="23" y="139" width="2" height="2" rx="1" fill="black"/>
<rect x="40" y="139" width="2" height="2" rx="1" fill="black"/>
<rect x="57" y="139" width="2" height="2" rx="1" fill="black"/>
<rect x="74" y="139" width="2" height="2" rx="1" fill="black"/>
<rect x="91" y="139" width="2" height="2" rx="1" fill="black"/>
<rect x="108" y="139" width="2" height="2" rx="1" fill="black"/>
<rect x="125" y="139" width="2" height="2" rx="1" fill="black"/>
<rect x="142" y="139" width="2" height="2" rx="1" fill="black"/>
<rect x="159" y="139" width="2" height="2" rx="1" fill="black"/>
<rect x="176" y="139" width="2" height="2" rx="1" fill="black"/>
<rect x="193" y="139" width="2" height="2" rx="1" fill="black"/>
<rect x="210" y="139" width="2" height="2" rx="1" fill="black"/>
<rect x="227" y="139" width="2" height="2" rx="1" fill="black"/>
<rect x="244" y="139" width="2" height="2" rx="1" fill="black"/>
<rect x="261" y="139" width="2" height="2" rx="1" fill="black"/>
<rect x="278" y="139" width="2" height="2" rx="1" fill="black"/>
<rect x="295" y="139" width="2" height="2" rx="1" fill="black"/>
<rect x="23" y="156" width="2" height="2" rx="1" fill="black"/>
<rect x="40" y="156" width="2" height="2" rx="1" fill="black"/>
<rect x="57" y="156" width="2" height="2" rx="1" fill="black"/>
<rect x="74" y="156" width="2" height="2" rx="1" fill="black"/>
<rect x="91" y="156" width="2" height="2" rx="1" fill="black"/>
<rect x="108" y="156" width="2" height="2" rx="1" fill="black"/>
<rect x="125" y="156" width="2" height="2" rx="1" fill="black"/>
<rect x="142" y="156" width="2" height="2" rx="1" fill="black"/>
<rect x="159" y="156" width="2" height="2" rx="1" fill="black"/>
<rect x="176" y="156" width="2" height="2" rx="1" fill="black"/>
<rect x="193" y="156" width="2" height="2" rx="1" fill="black"/>
<rect x="210" y="156" width="2" height="2" rx="1" fill="black"/>
<rect x="227" y="156" width="2" height="2" rx="1" fill="black"/>
<rect x="244" y="156" width="2" height="2" rx="1" fill="black"/>
<rect x="261" y="156" width="2" height="2" rx="1" fill="black"/>
<rect x="278" y="156" width="2" height="2" rx="1" fill="black"/>
<rect x="295" y="156" width="2" height="2" rx="1" fill="black"/>
<rect x="23" y="173" width="2" height="2" rx="1" fill="black"/>
<rect x="40" y="173" width="2" height="2" rx="1" fill="black"/>
<rect x="57" y="173" width="2" height="2" rx="1" fill="black"/>
<rect x="74" y="173" width="2" height="2" rx="1" fill="black"/>
<rect x="91" y="173" width="2" height="2" rx="1" fill="black"/>
<rect x="108" y="173" width="2" height="2" rx="1" fill="black"/>
<rect x="125" y="173" width="2" height="2" rx="1" fill="black"/>
<rect x="142" y="173" width="2" height="2" rx="1" fill="black"/>
<rect x="159" y="173" width="2" height="2" rx="1" fill="black"/>
<rect x="176" y="173" width="2" height="2" rx="1" fill="black"/>
<rect x="193" y="173" width="2" height="2" rx="1" fill="black"/>
<rect x="210" y="173" width="2" height="2" rx="1" fill="black"/>
<rect x="227" y="173" width="2" height="2" rx="1" fill="black"/>
<rect x="244" y="173" width="2" height="2" rx="1" fill="black"/>
<rect x="261" y="173" width="2" height="2" rx="1" fill="black"/>
<rect x="278" y="173" width="2" height="2" rx="1" fill="black"/>
<rect x="295" y="173" width="2" height="2" rx="1" fill="black"/>
<rect x="23" y="190" width="2" height="2" rx="1" fill="black"/>
<rect x="40" y="190" width="2" height="2" rx="1" fill="black"/>
<rect x="57" y="190" width="2" height="2" rx="1" fill="black"/>
<rect x="74" y="190" width="2" height="2" rx="1" fill="black"/>
<rect x="91" y="190" width="2" height="2" rx="1" fill="black"/>
<rect x="108" y="190" width="2" height="2" rx="1" fill="black"/>
<rect x="125" y="190" width="2" height="2" rx="1" fill="black"/>
<rect x="142" y="190" width="2" height="2" rx="1" fill="black"/>
<rect x="159" y="190" width="2" height="2" rx="1" fill="black"/>
<rect x="176" y="190" width="2" height="2" rx="1" fill="black"/>
<rect x="193" y="190" width="2" height="2" rx="1" fill="black"/>
<rect x="210" y="190" width="2" height="2" rx="1" fill="black"/>
<rect x="227" y="190" width="2" height="2" rx="1" fill="black"/>
<rect x="244" y="190" width="2" height="2" rx="1" fill="black"/>
<rect x="261" y="190" width="2" height="2" rx="1" fill="black"/>
<rect x="278" y="190" width="2" height="2" rx="1" fill="black"/>
<rect x="295" y="190" width="2" height="2" rx="1" fill="black"/>
<rect x="23" y="207" width="2" height="2" rx="1" fill="black"/>
<rect x="40" y="207" width="2" height="2" rx="1" fill="black"/>
<rect x="57" y="207" width="2" height="2" rx="1" fill="black"/>
<rect x="74" y="207" width="2" height="2" rx="1" fill="black"/>
<rect x="91" y="207" width="2" height="2" rx="1" fill="black"/>
<rect x="108" y="207" width="2" height="2" rx="1" fill="black"/>
<rect x="125" y="207" width="2" height="2" rx="1" fill="black"/>
<rect x="142" y="207" width="2" height="2" rx="1" fill="black"/>
<rect x="159" y="207" width="2" height="2" rx="1" fill="black"/>
<rect x="176" y="207" width="2" height="2" rx="1" fill="black"/>
<rect x="193" y="207" width="2" height="2" rx="1" fill="black"/>
<rect x="210" y="207" width="2" height="2" rx="1" fill="black"/>
<rect x="227" y="207" width="2" height="2" rx="1" fill="black"/>
<rect x="244" y="207" width="2" height="2" rx="1" fill="black"/>
<rect x="261" y="207" width="2" height="2" rx="1" fill="black"/>
<rect x="278" y="207" width="2" height="2" rx="1" fill="black"/>
<rect x="295" y="207" width="2" height="2" rx="1" fill="black"/>
<rect x="23" y="224" width="2" height="2" rx="1" fill="black"/>
<rect x="40" y="224" width="2" height="2" rx="1" fill="black"/>
<rect x="57" y="224" width="2" height="2" rx="1" fill="black"/>
<rect x="74" y="224" width="2" height="2" rx="1" fill="black"/>
<rect x="91" y="224" width="2" height="2" rx="1" fill="black"/>
<rect x="108" y="224" width="2" height="2" rx="1" fill="black"/>
<rect x="125" y="224" width="2" height="2" rx="1" fill="black"/>
<rect x="142" y="224" width="2" height="2" rx="1" fill="black"/>
<rect x="159" y="224" width="2" height="2" rx="1" fill="black"/>
<rect x="176" y="224" width="2" height="2" rx="1" fill="black"/>
<rect x="193" y="224" width="2" height="2" rx="1" fill="black"/>
<rect x="210" y="224" width="2" height="2" rx="1" fill="black"/>
<rect x="227" y="224" width="2" height="2" rx="1" fill="black"/>
<rect x="244" y="224" width="2" height="2" rx="1" fill="black"/>
<rect x="261" y="224" width="2" height="2" rx="1" fill="black"/>
<rect x="278" y="224" width="2" height="2" rx="1" fill="black"/>
<rect x="295" y="224" width="2" height="2" rx="1" fill="black"/>
<rect x="23" y="241" width="2" height="2" rx="1" fill="black"/>
<rect x="40" y="241" width="2" height="2" rx="1" fill="black"/>
<rect x="57" y="241" width="2" height="2" rx="1" fill="black"/>
<rect x="74" y="241" width="2" height="2" rx="1" fill="black"/>
<rect x="91" y="241" width="2" height="2" rx="1" fill="black"/>
<rect x="108" y="241" width="2" height="2" rx="1" fill="black"/>
<rect x="125" y="241" width="2" height="2" rx="1" fill="black"/>
<rect x="142" y="241" width="2" height="2" rx="1" fill="black"/>
<rect x="159" y="241" width="2" height="2" rx="1" fill="black"/>
<rect x="176" y="241" width="2" height="2" rx="1" fill="black"/>
<rect x="193" y="241" width="2" height="2" rx="1" fill="black"/>
<rect x="210" y="241" width="2" height="2" rx="1" fill="black"/>
<rect x="227" y="241" width="2" height="2" rx="1" fill="black"/>
<rect x="244" y="241" width="2" height="2" rx="1" fill="black"/>
<rect x="261" y="241" width="2" height="2" rx="1" fill="black"/>
<rect x="278" y="241" width="2" height="2" rx="1" fill="black"/>
<rect x="295" y="241" width="2" height="2" rx="1" fill="black"/>
<rect x="23" y="258" width="2" height="2" rx="1" fill="black"/>
<rect x="40" y="258" width="2" height="2" rx="1" fill="black"/>
<rect x="57" y="258" width="2" height="2" rx="1" fill="black"/>
<rect x="74" y="258" width="2" height="2" rx="1" fill="black"/>
<rect x="91" y="258" width="2" height="2" rx="1" fill="black"/>
<rect x="108" y="258" width="2" height="2" rx="1" fill="black"/>
<rect x="125" y="258" width="2" height="2" rx="1" fill="black"/>
<rect x="142" y="258" width="2" height="2" rx="1" fill="black"/>
<rect x="159" y="258" width="2" height="2" rx="1" fill="black"/>
<rect x="176" y="258" width="2" height="2" rx="1" fill="black"/>
<rect x="193" y="258" width="2" height="2" rx="1" fill="black"/>
<rect x="210" y="258" width="2" height="2" rx="1" fill="black"/>
<rect x="227" y="258" width="2" height="2" rx="1" fill="black"/>
<rect x="244" y="258" width="2" height="2" rx="1" fill="black"/>
<rect x="261" y="258" width="2" height="2" rx="1" fill="black"/>
<rect x="278" y="258" width="2" height="2" rx="1" fill="black"/>
<rect x="295" y="258" width="2" height="2" rx="1" fill="black"/>
<rect x="23" y="275" width="2" height="2" rx="1" fill="black"/>
<rect x="40" y="275" width="2" height="2" rx="1" fill="black"/>
<rect x="57" y="275" width="2" height="2" rx="1" fill="black"/>
<rect x="74" y="275" width="2" height="2" rx="1" fill="black"/>
<rect x="91" y="275" width="2" height="2" rx="1" fill="black"/>
<rect x="108" y="275" width="2" height="2" rx="1" fill="black"/>
<rect x="125" y="275" width="2" height="2" rx="1" fill="black"/>
<rect x="142" y="275" width="2" height="2" rx="1" fill="black"/>
<rect x="159" y="275" width="2" height="2" rx="1" fill="black"/>
<rect x="176" y="275" width="2" height="2" rx="1" fill="black"/>
<rect x="193" y="275" width="2" height="2" rx="1" fill="black"/>
<rect x="210" y="275" width="2" height="2" rx="1" fill="black"/>
<rect x="227" y="275" width="2" height="2" rx="1" fill="black"/>
<rect x="244" y="275" width="2" height="2" rx="1" fill="black"/>
<rect x="261" y="275" width="2" height="2" rx="1" fill="black"/>
<rect x="278" y="275" width="2" height="2" rx="1" fill="black"/>
<rect x="295" y="275" width="2" height="2" rx="1" fill="black"/>
<rect x="23" y="292" width="2" height="2" rx="1" fill="black"/>
<rect x="40" y="292" width="2" height="2" rx="1" fill="black"/>
<rect x="57" y="292" width="2" height="2" rx="1" fill="black"/>
<rect x="74" y="292" width="2" height="2" rx="1" fill="black"/>
<rect x="91" y="292" width="2" height="2" rx="1" fill="black"/>
<rect x="108" y="292" width="2" height="2" rx="1" fill="black"/>
<rect x="125" y="292" width="2" height="2" rx="1" fill="black"/>
<rect x="142" y="292" width="2" height="2" rx="1" fill="black"/>
<rect x="159" y="292" width="2" height="2" rx="1" fill="black"/>
<rect x="176" y="292" width="2" height="2" rx="1" fill="black"/>
<rect x="193" y="292" width="2" height="2" rx="1" fill="black"/>
<rect x="210" y="292" width="2" height="2" rx="1" fill="black"/>
<rect x="227" y="292" width="2" height="2" rx="1" fill="black"/>
<rect x="244" y="292" width="2" height="2" rx="1" fill="black"/>
<rect x="261" y="292" width="2" height="2" rx="1" fill="black"/>
<rect x="278" y="292" width="2" height="2" rx="1" fill="black"/>
<rect x="295" y="292" width="2" height="2" rx="1" fill="black"/>
<rect x="23" y="309" width="2" height="2" rx="1" fill="black"/>
<rect x="40" y="309" width="2" height="2" rx="1" fill="black"/>
<rect x="57" y="309" width="2" height="2" rx="1" fill="black"/>
<rect x="74" y="309" width="2" height="2" rx="1" fill="black"/>
<rect x="91" y="309" width="2" height="2" rx="1" fill="black"/>
<rect x="108" y="309" width="2" height="2" rx="1" fill="black"/>
<rect x="125" y="309" width="2" height="2" rx="1" fill="black"/>
<rect x="142" y="309" width="2" height="2" rx="1" fill="black"/>
<rect x="159" y="309" width="2" height="2" rx="1" fill="black"/>
<rect x="176" y="309" width="2" height="2" rx="1" fill="black"/>
<rect x="193" y="309" width="2" height="2" rx="1" fill="black"/>
<rect x="210" y="309" width="2" height="2" rx="1" fill="black"/>
<rect x="227" y="309" width="2" height="2" rx="1" fill="black"/>
<rect x="244" y="309" width="2" height="2" rx="1" fill="black"/>
<rect x="261" y="309" width="2" height="2" rx="1" fill="black"/>
<rect x="278" y="309" width="2" height="2" rx="1" fill="black"/>
<rect x="295" y="309" width="2" height="2" rx="1" fill="black"/>
<rect x="23" y="326" width="2" height="2" rx="1" fill="black"/>
<rect x="40" y="326" width="2" height="2" rx="1" fill="black"/>
<rect x="57" y="326" width="2" height="2" rx="1" fill="black"/>
<rect x="74" y="326" width="2" height="2" rx="1" fill="black"/>
<rect x="91" y="326" width="2" height="2" rx="1" fill="black"/>
<rect x="108" y="326" width="2" height="2" rx="1" fill="black"/>
<rect x="125" y="326" width="2" height="2" rx="1" fill="black"/>
<rect x="142" y="326" width="2" height="2" rx="1" fill="black"/>
<rect x="159" y="326" width="2" height="2" rx="1" fill="black"/>
<rect x="176" y="326" width="2" height="2" rx="1" fill="black"/>
<rect x="193" y="326" width="2" height="2" rx="1" fill="black"/>
<rect x="210" y="326" width="2" height="2" rx="1" fill="black"/>
<rect x="227" y="326" width="2" height="2" rx="1" fill="black"/>
<rect x="244" y="326" width="2" height="2" rx="1" fill="black"/>
<rect x="261" y="326" width="2" height="2" rx="1" fill="black"/>
<rect x="278" y="326" width="2" height="2" rx="1" fill="black"/>
<rect x="295" y="326" width="2" height="2" rx="1" fill="black"/>
<rect x="23" y="343" width="2" height="2" rx="1" fill="black"/>
<rect x="40" y="343" width="2" height="2" rx="1" fill="black"/>
<rect x="57" y="343" width="2" height="2" rx="1" fill="black"/>
<rect x="74" y="343" width="2" height="2" rx="1" fill="black"/>
<rect x="91" y="343" width="2" height="2" rx="1" fill="black"/>
<rect x="108" y="343" width="2" height="2" rx="1" fill="black"/>
<rect x="125" y="343" width="2" height="2" rx="1" fill="black"/>
<rect x="142" y="343" width="2" height="2" rx="1" fill="black"/>
<rect x="159" y="343" width="2" height="2" rx="1" fill="black"/>
<rect x="176" y="343" width="2" height="2" rx="1" fill="black"/>
<rect x="193" y="343" width="2" height="2" rx="1" fill="black"/>
<rect x="210" y="343" width="2" height="2" rx="1" fill="black"/>
<rect x="227" y="343" width="2" height="2" rx="1" fill="black"/>
<rect x="244" y="343" width="2" height="2" rx="1" fill="black"/>
<rect x="261" y="343" width="2" height="2" rx="1" fill="black"/>
<rect x="278" y="343" width="2" height="2" rx="1" fill="black"/>
<rect x="295" y="343" width="2" height="2" rx="1" fill="black"/>
<rect x="23" y="360" width="2" height="2" rx="1" fill="black"/>
<rect x="40" y="360" width="2" height="2" rx="1" fill="black"/>
<rect x="57" y="360" width="2" height="2" rx="1" fill="black"/>
<rect x="74" y="360" width="2" height="2" rx="1" fill="black"/>
<rect x="91" y="360" width="2" height="2" rx="1" fill="black"/>
<rect x="108" y="360" width="2" height="2" rx="1" fill="black"/>
<rect x="125" y="360" width="2" height="2" rx="1" fill="black"/>
<rect x="142" y="360" width="2" height="2" rx="1" fill="black"/>
<rect x="159" y="360" width="2" height="2" rx="1" fill="black"/>
<rect x="176" y="360" width="2" height="2" rx="1" fill="black"/>
<rect x="193" y="360" width="2" height="2" rx="1" fill="black"/>
<rect x="210" y="360" width="2" height="2" rx="1" fill="black"/>
<rect x="227" y="360" width="2" height="2" rx="1" fill="black"/>
<rect x="244" y="360" width="2" height="2" rx="1" fill="black"/>
<rect x="261" y="360" width="2" height="2" rx="1" fill="black"/>
<rect x="278" y="360" width="2" height="2" rx="1" fill="black"/>
<rect x="295" y="360" width="2" height="2" rx="1" fill="black"/>
<rect x="23" y="377" width="2" height="2" rx="1" fill="black"/>
<rect x="40" y="377" width="2" height="2" rx="1" fill="black"/>
<rect x="57" y="377" width="2" height="2" rx="1" fill="black"/>
<rect x="74" y="377" width="2" height="2" rx="1" fill="black"/>
<rect x="91" y="377" width="2" height="2" rx="1" fill="black"/>
<rect x="108" y="377" width="2" height="2" rx="1" fill="black"/>
<rect x="125" y="377" width="2" height="2" rx="1" fill="black"/>
<rect x="142" y="377" width="2" height="2" rx="1" fill="black"/>
<rect x="159" y="377" width="2" height="2" rx="1" fill="black"/>
<rect x="176" y="377" width="2" height="2" rx="1" fill="black"/>
<rect x="193" y="377" width="2" height="2" rx="1" fill="black"/>
<rect x="210" y="377" width="2" height="2" rx="1" fill="black"/>
<rect x="227" y="377" width="2" height="2" rx="1" fill="black"/>
<rect x="244" y="377" width="2" height="2" rx="1" fill="black"/>
<rect x="261" y="377" width="2" height="2" rx="1" fill="black"/>
<rect x="278" y="377" width="2" height="2" rx="1" fill="black"/>
<rect x="295" y="377" width="2" height="2" rx="1" fill="black"/>
<rect x="23" y="394" width="2" height="2" rx="1" fill="black"/>
<rect x="40" y="394" width="2" height="2" rx="1" fill="black"/>
<rect x="57" y="394" width="2" height="2" rx="1" fill="black"/>
<rect x="74" y="394" width="2" height="2" rx="1" fill="black"/>
<rect x="91" y="394" width="2" height="2" rx="1" fill="black"/>
<rect x="108" y="394" width="2" height="2" rx="1" fill="black"/>
<rect x="125" y="394" width="2" height="2" rx="1" fill="black"/>
<rect x="142" y="394" width="2" height="2" rx="1" fill="black"/>
<rect x="159" y="394" width="2" height="2" rx="1" fill="black"/>
<rect x="176" y="394" width="2" height="2" rx="1" fill="black"/>
<rect x="193" y="394" width="2" height="2" rx="1" fill="black"/>
<rect x="210" y="394" width="2" height="2" rx="1" fill="black"/>
<rect x="227" y="394" width="2" height="2" rx="1" fill="black"/>
<rect x="244" y="394" width="2" height="2" rx="1" fill="black"/>
<rect x="261" y="394" width="2" height="2" rx="1" fill="black"/>
<rect x="278" y="394" width="2" height="2" rx="1" fill="black"/>
<rect x="295" y="394" width="2" height="2" rx="1" fill="black"/>
<rect x="23" y="411" width="2" height="2" rx="1" fill="black"/>
<rect x="40" y="411" width="2" height="2" rx="1" fill="black"/>
<rect x="57" y="411" width="2" height="2" rx="1" fill="black"/>
<rect x="74" y="411" width="2" height="2" rx="1" fill="black"/>
<rect x="91" y="411" width="2" height="2" rx="1" fill="black"/>
<rect x="108" y="411" width="2" height="2" rx="1" fill="black"/>
<rect x="125" y="411" width="2" height="2" rx="1" fill="black"/>
<rect x="142" y="411" width="2" height="2" rx="1" fill="black"/>
<rect x="159" y="411" width="2" height="2" rx="1" fill="black"/>
<rect x="176" y="411" width="2" height="2" rx="1" fill="black"/>
<rect x="193" y="411" width="2" height="2" rx="1" fill="black"/>
<rect x="210" y="411" width="2" height="2" rx="1" fill="black"/>
<rect x="227" y="411" width="2" height="2" rx="1" fill="black"/>
<rect x="244" y="411" width="2" height="2" rx="1" fill="black"/>
<rect x="261" y="411" width="2" height="2" rx="1" fill="black"/>
<rect x="278" y="411" width="2" height="2" rx="1" fill="black"/>
<rect x="295" y="411" width="2" height="2" rx="1" fill="black"/>
<rect x="23" y="428" width="2" height="2" rx="1" fill="black"/>
<rect x="40" y="428" width="2" height="2" rx="1" fill="black"/>
<rect x="57" y="428" width="2" height="2" rx="1" fill="black"/>
<rect x="74" y="428" width="2" height="2" rx="1" fill="black"/>
<rect x="91" y="428" width="2" height="2" rx="1" fill="black"/>
<rect x="108" y="428" width="2" height="2" rx="1" fill="black"/>
<rect x="125" y="428" width="2" height="2" rx="1" fill="black"/>
<rect x="142" y="428" width="2" height="2" rx="1" fill="black"/>
<rect x="159" y="428" width="2" height="2" rx="1" fill="black"/>
<rect x="176" y="428" width="2" height="2" rx="1" fill="black"/>
<rect x="193" y="428" width="2" height="2" rx="1" fill="black"/>
<rect x="210" y="428" width="2" height="2" rx="1" fill="black"/>
<rect x="227" y="428" width="2" height="2" rx="1" fill="black"/>
<rect x="244" y="428" width="2" height="2" rx="1" fill="black"/>
<rect x="261" y="428" width="2" height="2" rx="1" fill="black"/>
<rect x="278" y="428" width="2" height="2" rx="1" fill="black"/>
<rect x="295" y="428" width="2" height="2" rx="1" fill="black"/>
<rect x="23" y="445" width="2" height="2" rx="1" fill="black"/>
<rect x="40" y="445" width="2" height="2" rx="1" fill="black"/>
<rect x="57" y="445" width="2" height="2" rx="1" fill="black"/>
<rect x="74" y="445" width="2" height="2" rx="1" fill="black"/>
<rect x="91" y="445" width="2" height="2" rx="1" fill="black"/>
<rect x="108" y="445" width="2" height="2" rx="1" fill="black"/>
<rect x="125" y="445" width="2" height="2" rx="1" fill="black"/>
<rect x="142" y="445" width="2" height="2" rx="1" fill="black"/>
<rect x="159" y="445" width="2" height="2" rx="1" fill="black"/>
<rect x="176" y="445" width="2" height="2" rx="1" fill="black"/>
<rect x="193" y="445" width="2" height="2" rx="1" fill="black"/>
<rect x="210" y="445" width="2" height="2" rx="1" fill="black"/>
<rect x="227" y="445" width="2" height="2" rx="1" fill="black"/>
<rect x="244" y="445" width="2" height="2" rx="1" fill="black"/>
<rect x="261" y="445" width="2" height="2" rx="1" fill="black"/>
<rect x="278" y="445" width="2" height="2" rx="1" fill="black"/>
<rect x="295" y="445" width="2" height="2" rx="1" fill="black"/>
<rect x="23" y="462" width="2" height="2" rx="1" fill="black"/>
<rect x="40" y="462" width="2" height="2" rx="1" fill="black"/>
<rect x="57" y="462" width="2" height="2" rx="1" fill="black"/>
<rect x="74" y="462" width="2" height="2" rx="1" fill="black"/>
<rect x="91" y="462" width="2" height="2" rx="1" fill="black"/>
<rect x="108" y="462" width="2" height="2" rx="1" fill="black"/>
<rect x="125" y="462" width="2" height="2" rx="1" fill="black"/>
<rect x="142" y="462" width="2" height="2" rx="1" fill="black"/>
<rect x="159" y="462" width="2" height="2" rx="1" fill="black"/>
<rect x="176" y="462" width="2" height="2" rx="1" fill="black"/>
<rect x="193" y="462" width="2" height="2" rx="1" fill="black"/>
<rect x="210" y="462" width="2" height="2" rx="1" fill="black"/>
<rect x="227" y="462" width="2" height="2" rx="1" fill="black"/>
<rect x="244" y="462" width="2" height="2" rx="1" fill="black"/>
<rect x="261" y="462" width="2" height="2" rx="1" fill="black"/>
<rect x="278" y="462" width="2" height="2" rx="1" fill="black"/>
<rect x="295" y="462" width="2" height="2" rx="1" fill="black"/>
<rect x="23" y="479" width="2" height="2" rx="1" fill="black"/>
<rect x="40" y="479" width="2" height="2" rx="1" fill="black"/>
<rect x="57" y="479" width="2" height="2" rx="1" fill="black"/>
<rect x="74" y="479" width="2" height="2" rx="1" fill="black"/>
<rect x="91" y="479" width="2" height="2" rx="1" fill="black"/>
<rect x="108" y="479" width="2" height="2" rx="1" fill="black"/>
<rect x="125" y="479" width="2" height="2" rx="1" fill="black"/>
<rect x="142" y="479" width="2" height="2" rx="1" fill="black"/>
<rect x="159" y="479" width="2" height="2" rx="1" fill="black"/>
<rect x="176" y="479" width="2" height="2" rx="1" fill="black"/>
<rect x="193" y="479" width="2" height="2" rx="1" fill="black"/>
<rect x="210" y="479" width="2" height="2" rx="1" fill="black"/>
<rect x="227" y="479" width="2" height="2" rx="1" fill="black"/>
<rect x="244" y="479" width="2" height="2" rx="1" fill="black"/>
<rect x="261" y="479" width="2" height="2" rx="1" fill="black"/>
<rect x="278" y="479" width="2" height="2" rx="1" fill="black"/>
<rect x="295" y="479" width="2" height="2" rx="1" fill="black"/>
<rect x="23" y="496" width="2" height="2" rx="1" fill="black"/>
<rect x="40" y="496" width="2" height="2" rx="1" fill="black"/>
<rect x="57" y="496" width="2" height="2" rx="1" fill="black"/>
<rect x="74" y="496" width="2" height="2" rx="1" fill="black"/>
<rect x="91" y="496" width="2" height="2" rx="1" fill="black"/>
<rect x="108" y="496" width="2" height="2" rx="1" fill="black"/>
<rect x="125" y="496" width="2" height="2" rx="1" fill="black"/>
<rect x="142" y="496" width="2" height="2" rx="1" fill="black"/>
<rect x="159" y="496" width="2" height="2" rx="1" fill="black"/>
<rect x="176" y="496" width="2" height="2" rx="1" fill="black"/>
<rect x="193" y="496" width="2" height="2" rx="1" fill="black"/>
<rect x="210" y="496" width="2" height="2" rx="1" fill="black"/>
<rect x="227" y="496" width="2" height="2" rx="1" fill="black"/>
<rect x="244" y="496" width="2" height="2" rx="1" fill="black"/>
<rect x="261" y="496" width="2" height="2" rx="1" fill="black"/>
<rect x="278" y="496" width="2" height="2" rx="1" fill="black"/>
<rect x="295" y="496" width="2" height="2" rx="1" fill="black"/>
<rect x="23" y="513" width="2" height="2" rx="1" fill="black"/>
<rect x="40" y="513" width="2" height="2" rx="1" fill="black"/>
<rect x="57" y="513" width="2" height="2" rx="1" fill="black"/>
<rect x="74" y="513" width="2" height="2" rx="1" fill="black"/>
<rect x="91" y="513" width="2" height="2" rx="1" fill="black"/>
<rect x="108" y="513" width="2" height="2" rx="1" fill="black"/>
<rect x="125" y="513" width="2" height="2" rx="1" fill="black"/>
<rect x="142" y="513" width="2" height="2" rx="1" fill="black"/>
<rect x="159" y="513" width="2" height="2" rx="1" fill="black"/>
<rect x="176" y="513" width="2" height="2" rx="1" fill="black"/>
<rect x="193" y="513" width="2" height="2" rx="1" fill="black"/>
<rect x="210" y="513" width="2" height="2" rx="1" fill="black"/>
<rect x="227" y="513" width="2" height="2" rx="1" fill="black"/>
<rect x="244" y="513" width="2" height="2" rx="1" fill="black"/>
<rect x="261" y="513" width="2" height="2" rx="1" fill="black"/>
<rect x="278" y="513" width="2" height="2" rx="1" fill="black"/>
<rect x="295" y="513" width="2" height="2" rx="1" fill="black"/>
<rect x="23" y="530" width="2" height="2" rx="1" fill="black"/>
<rect x="40" y="530" width="2" height="2" rx="1" fill="black"/>
<rect x="57" y="530" width="2" height="2" rx="1" fill="black"/>
<rect x="74" y="530" width="2" height="2" rx="1" fill="black"/>
<rect x="91" y="530" width="2" height="2" rx="1" fill="black"/>
<rect x="108" y="530" width="2" height="2" rx="1" fill="black"/>
<rect x="125" y="530" width="2" height="2" rx="1" fill="black"/>
<rect x="142" y="530" width="2" height="2" rx="1" fill="black"/>
<rect x="159" y="530" width="2" height="2" rx="1" fill="black"/>
<rect x="176" y="530" width="2" height="2" rx="1" fill="black"/>
<rect x="193" y="530" width="2" height="2" rx="1" fill="black"/>
<rect x="210" y="530" width="2" height="2" rx="1" fill="black"/>
<rect x="227" y="530" width="2" height="2" rx="1" fill="black"/>
<rect x="244" y="530" width="2" height="2" rx="1" fill="black"/>
<rect x="261" y="530" width="2" height="2" rx="1" fill="black"/>
<rect x="278" y="530" width="2" height="2" rx="1" fill="black"/>
<rect x="295" y="530" width="2" height="2" rx="1" fill="black"/>
<rect x="23" y="547" width="2" height="2" rx="1" fill="black"/>
<rect x="40" y="547" width="2" height="2" rx="1" fill="black"/>
<rect x="57" y="547" width="2" height="2" rx="1" fill="black"/>
<rect x="74" y="547" width="2" height="2" rx="1" fill="black"/>
<rect x="91" y="547" width="2" height="2" rx="1" fill="black"/>
<rect x="108" y="547" width="2" height="2" rx="1" fill="black"/>
<rect x="125" y="547" width="2" height="2" rx="1" fill="black"/>
<rect x="142" y="547" width="2" height="2" rx="1" fill="black"/>
<rect x="159" y="547" width="2" height="2" rx="1" fill="black"/>
<rect x="176" y="547" width="2" height="2" rx="1" fill="black"/>
<rect x="193" y="547" width="2" height="2" rx="1" fill="black"/>
<rect x="210" y="547" width="2" height="2" rx="1" fill="black"/>
<rect x="227" y="547" width="2" height="2" rx="1" fill="black"/>
<rect x="244" y="547" width="2" height="2" rx="1" fill="black"/>
<rect x="261" y="547" width="2" height="2" rx="1" fill="black"/>
<rect x="278" y="547" width="2" height="2" rx="1" fill="black"/>
<rect x="295" y="547" width="2" height="2" rx="1" fill="black"/>
<rect x="23" y="564" width="2" height="2" rx="1" fill="black"/>
<rect x="40" y="564" width="2" height="2" rx="1" fill="black"/>
<rect x="57" y="564" width="2" height="2" rx="1" fill="black"/>
<rect x="74" y="564" width="2" height="2" rx="1" fill="black"/>
<rect x="91" y="564" width="2" height="2" rx="1" fill="black"/>
<rect x="108" y="564" width="2" height="2" rx="1" fill="black"/>
<rect x="125" y="564" width="2" height="2" rx="1" fill="black"/>
<rect x="142" y="564" width="2" height="2" rx="1" fill="black"/>
<rect x="159" y="564" width="2" height="2" rx="1" fill="black"/>
<rect x="176" y="564" width="2" height="2" rx="1" fill="black"/>
<rect x="193" y="564" width="2" height="2" rx="1" fill="black"/>
<rect x="210" y="564" width="2" height="2" rx="1" fill="black"/>
<rect x="227" y="564" width="2" height="2" rx="1" fill="black"/>
<rect x="244" y="564" width="2" height="2" rx="1" fill="black"/>
<rect x="261" y="564" width="2" height="2" rx="1" fill="black"/>
<rect x="278" y="564" width="2" height="2" rx="1" fill="black"/>
<rect x="295" y="564" width="2" height="2" rx="1" fill="black"/>
<rect x="23" y="581" width="2" height="2" rx="1" fill="black"/>
<rect x="40" y="581" width="2" height="2" rx="1" fill="black"/>
<rect x="57" y="581" width="2" height="2" rx="1" fill="black"/>
<rect x="74" y="581" width="2" height="2" rx="1" fill="black"/>
<rect x="91" y="581" width="2" height="2" rx="1" fill="black"/>
<rect x="108" y="581" width="2" height="2" rx="1" fill="black"/>
<rect x="125" y="581" width="2" height="2" rx="1" fill="black"/>
<rect x="142" y="581" width="2" height="2" rx="1" fill="black"/>
<rect x="159" y="581" width="2" height="2" rx="1" fill="black"/>
<rect x="176" y="581" width="2" height="2" rx="1" fill="black"/>
<rect x="193" y="581" width="2" height="2" rx="1" fill="black"/>
<rect x="210" y="581" width="2" height="2" rx="1" fill="black"/>
<rect x="227" y="581" width="2" height="2" rx="1" fill="black"/>
<rect x="244" y="581" width="2" height="2" rx="1" fill="black"/>
<rect x="261" y="581" width="2" height="2" rx="1" fill="black"/>
<rect x="278" y="581" width="2" height="2" rx="1" fill="black"/>
<rect x="295" y="581" width="2" height="2" rx="1" fill="black"/>
<rect x="23" y="598" width="2" height="2" rx="1" fill="black"/>
<rect x="40" y="598" width="2" height="2" rx="1" fill="black"/>
<rect x="57" y="598" width="2" height="2" rx="1" fill="black"/>
<rect x="74" y="598" width="2" height="2" rx="1" fill="black"/>
<rect x="91" y="598" width="2" height="2" rx="1" fill="black"/>
<rect x="108" y="598" width="2" height="2" rx="1" fill="black"/>
<rect x="125" y="598" width="2" height="2" rx="1" fill="black"/>
<rect x="142" y="598" width="2" height="2" rx="1" fill="black"/>
<rect x="159" y="598" width="2" height="2" rx="1" fill="black"/>
<rect x="176" y="598" width="2" height="2" rx="1" fill="black"/>
<rect x="193" y="598" width="2" height="2" rx="1" fill="black"/>
<rect x="210" y="598" width="2" height="2" rx="1" fill="black"/>
<rect x="227" y="598" width="2" height="2" rx="1" fill="black"/>
<rect x="244" y="598" width="2" height="2" rx="1" fill="black"/>
<rect x="261" y="598" width="2" height="2" rx="1" fill="black"/>
<rect x="278" y="598" width="2" height="2" rx="1" fill="black"/>
<rect x="295" y="598" width="2" height="2" rx="1" fill="black"/>
<rect x="23" y="615" width="2" height="2" rx="1" fill="black"/>
<rect x="40" y="615" width="2" height="2" rx="1" fill="black"/>
<rect x="57" y="615" width="2" height="2" rx="1" fill="black"/>
<rect x="74" y="615" width="2" height="2" rx="1" fill="black"/>
<rect x="91" y="615" width="2" height="2" rx="1" fill="black"/>
<rect x="108" y="615" width="2" height="2" rx="1" fill="black"/>
<rect x="125" y="615" width="2" height="2" rx="1" fill="black"/>
<rect x="142" y="615" width="2" height="2" rx="1" fill="black"/>
<rect x="159" y="615" width="2" height="2" rx="1" fill="black"/>
<rect x="176" y="615" width="2" height="2" rx="1" fill="black"/>
<rect x="193" y="615" width="2" height="2" rx="1" fill="black"/>
<rect x="210" y="615" width="2" height="2" rx="1" fill="black"/>
<rect x="227" y="615" width="2" height="2" rx="1" fill="black"/>
<rect x="244" y="615" width="2" height="2" rx="1" fill="black"/>
<rect x="261" y="615" width="2" height="2" rx="1" fill="black"/>
<rect x="278" y="615" width="2" height="2" rx="1" fill="black"/>
<rect x="295" y="615" width="2" height="2" rx="1" fill="black"/>
<rect x="23" y="632" width="2" height="2" rx="1" fill="black"/>
<rect x="40" y="632" width="2" height="2" rx="1" fill="black"/>
<rect x="57" y="632" width="2" height="2" rx="1" fill="black"/>
<rect x="74" y="632" width="2" height="2" rx="1" fill="black"/>
<rect x="91" y="632" width="2" height="2" rx="1" fill="black"/>
<rect x="108" y="632" width="2" height="2" rx="1" fill="black"/>
<rect x="125" y="632" width="2" height="2" rx="1" fill="black"/>
<rect x="142" y="632" width="2" height="2" rx="1" fill="black"/>
<rect x="159" y="632" width="2" height="2" rx="1" fill="black"/>
<rect x="176" y="632" width="2" height="2" rx="1" fill="black"/>
<rect x="193" y="632" width="2" height="2" rx="1" fill="black"/>
<rect x="210" y="632" width="2" height="2" rx="1" fill="black"/>
<rect x="227" y="632" width="2" height="2" rx="1" fill="black"/>
<rect x="244" y="632" width="2" height="2" rx="1" fill="black"/>
<rect x="261" y="632" width="2" height="2" rx="1" fill="black"/>
<rect x="278" y="632" width="2" height="2" rx="1" fill="black"/>
<rect x="295" y="632" width="2" height="2" rx="1" fill="black"/>
<rect x="23" y="649" width="2" height="2" rx="1" fill="black"/>
<rect x="40" y="649" width="2" height="2" rx="1" fill="black"/>
<rect x="57" y="649" width="2" height="2" rx="1" fill="black"/>
<rect x="74" y="649" width="2" height="2" rx="1" fill="black"/>
<rect x="91" y="649" width="2" height="2" rx="1" fill="black"/>
<rect x="108" y="649" width="2" height="2" rx="1" fill="black"/>
<rect x="125" y="649" width="2" height="2" rx="1" fill="black"/>
<rect x="142" y="649" width="2" height="2" rx="1" fill="black"/>
<rect x="159" y="649" width="2" height="2" rx="1" fill="black"/>
<rect x="176" y="649" width="2" height="2" rx="1" fill="black"/>
<rect x="193" y="649" width="2" height="2" rx="1" fill="black"/>
<rect x="210" y="649" width="2" height="2" rx="1" fill="black"/>
<rect x="227" y="649" width="2" height="2" rx="1" fill="black"/>
<rect x="244" y="649" width="2" height="2" rx="1" fill="black"/>
<rect x="261" y="649" width="2" height="2" rx="1" fill="black"/>
<rect x="278" y="649" width="2" height="2" rx="1" fill="black"/>
<rect x="295" y="649" width="2" height="2" rx="1" fill="black"/>
<rect x="23" y="666" width="2" height="2" rx="1" fill="black"/>
<rect x="40" y="666" width="2" height="2" rx="1" fill="black"/>
<rect x="57" y="666" width="2" height="2" rx="1" fill="black"/>
<rect x="74" y="666" width="2" height="2" rx="1" fill="black"/>
<rect x="91" y="666" width="2" height="2" rx="1" fill="black"/>
<rect x="108" y="666" width="2" height="2" rx="1" fill="black"/>
<rect x="125" y="666" width="2" height="2" rx="1" fill="black"/>
<rect x="142" y="666" width="2" height="2" rx="1" fill="black"/>
<rect x="159" y="666" width="2" height="2" rx="1" fill="black"/>
<rect x="176" y="666" width="2" height="2" rx="1" fill="black"/>
<rect x="193" y="666" width="2" height="2" rx="1" fill="black"/>
<rect x="210" y="666" width="2" height="2" rx="1" fill="black"/>
<rect x="227" y="666" width="2" height="2" rx="1" fill="black"/>
<rect x="244" y="666" width="2" height="2" rx="1" fill="black"/>
<rect x="261" y="666" width="2" height="2" rx="1" fill="black"/>
<rect x="278" y="666" width="2" height="2" rx="1" fill="black"/>
<rect x="295" y="666" width="2" height="2" rx="1" fill="black"/>
<rect x="23" y="683" width="2" height="2" rx="1" fill="black"/>
<rect x="40" y="683" width="2" height="2" rx="1" fill="black"/>
<rect x="57" y="683" width="2" height="2" rx="1" fill="black"/>
<rect x="74" y="683" width="2" height="2" rx="1" fill="black"/>
<rect x="91" y="683" width="2" height="2" rx="1" fill="black"/>
<rect x="108" y="683" width="2" height="2" rx="1" fill="black"/>
<rect x="125" y="683" width="2" height="2" rx="1" fill="black"/>
<rect x="142" y="683" width="2" height="2" rx="1" fill="black"/>
<rect x="159" y="683" width="2" height="2" rx="1" fill="black"/>
<rect x="176" y="683" width="2" height="2" rx="1" fill="black"/>
<rect x="193" y="683" width="2" height="2" rx="1" fill="black"/>
<rect x="210" y="683" width="2" height="2" rx="1" fill="black"/>
<rect x="227" y="683" width="2" height="2" rx="1" fill="black"/>
<rect x="244" y="683" width="2" height="2" rx="1" fill="black"/>
<rect x="261" y="683" width="2" height="2" rx="1" fill="black"/>
<rect x="278" y="683" width="2" height="2" rx="1" fill="black"/>
<rect x="295" y="683" width="2" height="2" rx="1" fill="black"/>
<rect x="23" y="700" width="2" height="2" rx="1" fill="black"/>
<rect x="40" y="700" width="2" height="2" rx="1" fill="black"/>
<rect x="57" y="700" width="2" height="2" rx="1" fill="black"/>
<rect x="74" y="700" width="2" height="2" rx="1" fill="black"/>
<rect x="91" y="700" width="2" height="2" rx="1" fill="black"/>
<rect x="108" y="700" width="2" height="2" rx="1" fill="black"/>
<rect x="125" y="700" width="2" height="2" rx="1" fill="black"/>
<rect x="142" y="700" width="2" height="2" rx="1" fill="black"/>
<rect x="159" y="700" width="2" height="2" rx="1" fill="black"/>
<rect x="176" y="700" width="2" height="2" rx="1" fill="black"/>
<rect x="193" y="700" width="2" height="2" rx="1" fill="black"/>
<rect x="210" y="700" width="2" height="2" rx="1" fill="black"/>
<rect x="227" y="700" width="2" height="2" rx="1" fill="black"/>
<rect x="244" y="700" width="2" height="2" rx="1" fill="black"/>
<rect x="261" y="700" width="2" height="2" rx="1" fill="black"/>
<rect x="278" y="700" width="2" height="2" rx="1" fill="black"/>
<rect x="295" y="700" width="2" height="2" rx="1" fill="black"/>
<rect x="23" y="717" width="2" height="2" rx="1" fill="black"/>
<rect x="40" y="717" width="2" height="2" rx="1" fill="black"/>
<rect x="57" y="717" width="2" height="2" rx="1" fill="black"/>
<rect x="74" y="717" width="2" height="2" rx="1" fill="black"/>
<rect x="91" y="717" width="2" height="2" rx="1" fill="black"/>
<rect x="108" y="717" width="2" height="2" rx="1" fill="black"/>
<rect x="125" y="717" width="2" height="2" rx="1" fill="black"/>
<rect x="142" y="717" width="2" height="2" rx="1" fill="black"/>
<rect x="159" y="717" width="2" height="2" rx="1" fill="black"/>
<rect x="176" y="717" width="2" height="2" rx="1" fill="black"/>
<rect x="193" y="717" width="2" height="2" rx="1" fill="black"/>
<rect x="210" y="717" width="2" height="2" rx="1" fill="black"/>
<rect x="227" y="717" width="2" height="2" rx="1" fill="black"/>
<rect x="244" y="717" width="2" height="2" rx="1" fill="black"/>
<rect x="261" y="717" width="2" height="2" rx="1" fill="black"/>
<rect x="278" y="717" width="2" height="2" rx="1" fill="black"/>
<rect x="295" y="717" width="2" height="2" rx="1" fill="black"/>
<rect x="23" y="734" width="2" height="2" rx="1" fill="black"/>
<rect x="40" y="734" width="2" height="2" rx="1" fill="black"/>
<rect x="57" y="734" width="2" height="2" rx="1" fill="black"/>
<rect x="74" y="734" width="2" height="2" rx="1" fill="black"/>
<rect x="91" y="734" width="2" height="2" rx="1" fill="black"/>
<rect x="108" y="734" width="2" height="2" rx="1" fill="black"/>
<rect x="125" y="734" width="2" height="2" rx="1" fill="black"/>
<rect x="142" y="734" width="2" height="2" rx="1" fill="black"/>
<rect x="159" y="734" width="2" height="2" rx="1" fill="black"/>
<rect x="176" y="734" width="2" height="2" rx="1" fill="black"/>
<rect x="193" y="734" width="2" height="2" rx="1" fill="black"/>
<rect x="210" y="734" width="2" height="2" rx="1" fill="black"/>
<rect x="227" y="734" width="2" height="2" rx="1" fill="black"/>
<rect x="244" y="734" width="2" height="2" rx="1" fill="black"/>
<rect x="261" y="734" width="2" height="2" rx="1" fill="black"/>
<rect x="278" y="734" width="2" height="2" rx="1" fill="black"/>
<rect x="295" y="734" width="2" height="2" rx="1" fill="black"/>
<rect x="23" y="751" width="2" height="2" rx="1" fill="black"/>
<rect x="40" y="751" width="2" height="2" rx="1" fill="black"/>
<rect x="57" y="751" width="2" height="2" rx="1" fill="black"/>
<rect x="74" y="751" width="2" height="2" rx="1" fill="black"/>
<rect x="91" y="751" width="2" height="2" rx="1" fill="black"/>
<rect x="108" y="751" width="2" height="2" rx="1" fill="black"/>
<rect x="125" y="751" width="2" height="2" rx="1" fill="black"/>
<rect x="142" y="751" width="2" height="2" rx="1" fill="black"/>
<rect x="159" y="751" width="2" height="2" rx="1" fill="black"/>
<rect x="176" y="751" width="2" height="2" rx="1" fill="black"/>
<rect x="193" y="751" width="2" height="2" rx="1" fill="black"/>
<rect x="210" y="751" width="2" height="2" rx="1" fill="black"/>
<rect x="227" y="751" width="2" height="2" rx="1" fill="black"/>
<rect x="244" y="751" width="2" height="2" rx="1" fill="black"/>
<rect x="261" y="751" width="2" height="2" rx="1" fill="black"/>
<rect x="278" y="751" width="2" height="2" rx="1" fill="black"/>
<rect x="295" y="751" width="2" height="2" rx="1" fill="black"/>
<rect x="23" y="768" width="2" height="2" rx="1" fill="black"/>
<rect x="40" y="768" width="2" height="2" rx="1" fill="black"/>
<rect x="57" y="768" width="2" height="2" rx="1" fill="black"/>
<rect x="74" y="768" width="2" height="2" rx="1" fill="black"/>
<rect x="91" y="768" width="2" height="2" rx="1" fill="black"/>
<rect x="108" y="768" width="2" height="2" rx="1" fill="black"/>
<rect x="125" y="768" width="2" height="2" rx="1" fill="black"/>
<rect x="142" y="768" width="2" height="2" rx="1" fill="black"/>
<rect x="159" y="768" width="2" height="2" rx="1" fill="black"/>
<rect x="176" y="768" width="2" height="2" rx="1" fill="black"/>
<rect x="193" y="768" width="2" height="2" rx="1" fill="black"/>
<rect x="210" y="768" width="2" height="2" rx="1" fill="black"/>
<rect x="227" y="768" width="2" height="2" rx="1" fill="black"/>
<rect x="244" y="768" width="2" height="2" rx="1" fill="black"/>
<rect x="261" y="768" width="2" height="2" rx="1" fill="black"/>
<rect x="278" y="768" width="2" height="2" rx="1" fill="black"/>
<rect x="295" y="768" width="2" height="2" rx="1" fill="black"/>
</g>
<path d="M306 680H186V770H306V680Z" fill="white"/>
<path d="M202.759 690H200V692.759H202.759V690Z" fill="black"/>
<path d="M205.517 690H202.759V692.759H205.517V690Z" fill="black"/>
<path d="M208.276 690H205.517V692.759H208.276V690Z" fill="black"/>
<path d="M211.034 690H208.276V692.759H211.034V690Z" fill="black"/>
<path d="M213.793 690H211.034V692.759H213.793V690Z" fill="black"/>
<path d="M216.552 690H213.793V692.759H216.552V690Z" fill="black"/>
<path d="M219.31 690H216.552V692.759H219.31V690Z" fill="black"/>
<path d="M224.828 690H222.069V692.759H224.828V690Z" fill="black"/>
<path d="M230.345 690H227.586V692.759H230.345V690Z" fill="black"/>
<path d="M235.862 690H233.103V692.759H235.862V690Z" fill="black"/>
<path d="M246.897 690H244.138V692.759H246.897V690Z" fill="black"/>
<path d="M252.414 690H249.655V692.759H252.414V690Z" fill="black"/>
<path d="M257.931 690H255.172V692.759H257.931V690Z" fill="black"/>
<path d="M263.448 690H260.69V692.759H263.448V690Z" fill="black"/>
<path d="M266.207 690H263.448V692.759H266.207V690Z" fill="black"/>
<path d="M268.966 690H266.207V692.759H268.966V690Z" fill="black"/>
<path d="M271.724 690H268.966V692.759H271.724V690Z" fill="black"/>
<path d="M274.483 690H271.724V692.759H274.483V690Z" fill="black"/>
<path d="M277.241 690H274.483V692.759H277.241V690Z" fill="black"/>
<path d="M280 690H277.241V692.759H280V690Z" fill="black"/>
<path d="M202.759 692.759H200V695.517H202.759V692.759Z" fill="black"/>
<path d="M219.31 692.759H216.552V695.517H219.31V692.759Z" fill="black"/>
<path d="M233.103 692.759H230.345V695.517H233.103V692.759Z" fill="black"/>
<path d="M263.448 692.759H260.69V695.517H263.448V692.759Z" fill="black"/>
<path d="M280 692.759H277.241V695.517H280V692.759Z" fill="black"/>
<path d="M202.759 695.517H200V698.276H202.759V695.517Z" fill="black"/>
<path d="M208.276 695.517H205.517V698.276H208.276V695.517Z" fill="black"/>
<path d="M211.034 695.517H208.276V698.276H211.034V695.517Z" fill="black"/>
<path d="M213.793 695.517H211.034V698.276H213.793V695.517Z" fill="black"/>
<path d="M219.31 695.517H216.552V698.276H219.31V695.517Z" fill="black"/>
<path d="M230.345 695.517H227.586V698.276H230.345V695.517Z" fill="black"/>
<path d="M235.862 695.517H233.103V698.276H235.862V695.517Z" fill="black"/>
<path d="M238.621 695.517H235.862V698.276H238.621V695.517Z" fill="black"/>
<path d="M244.138 695.517H241.379V698.276H244.138V695.517Z" fill="black"/>
<path d="M246.897 695.517H244.138V698.276H246.897V695.517Z" fill="black"/>
<path d="M255.172 695.517H252.414V698.276H255.172V695.517Z" fill="black"/>
<path d="M263.448 695.517H260.69V698.276H263.448V695.517Z" fill="black"/>
<path d="M268.966 695.517H266.207V698.276H268.966V695.517Z" fill="black"/>
<path d="M271.724 695.517H268.966V698.276H271.724V695.517Z" fill="black"/>
<path d="M274.483 695.517H271.724V698.276H274.483V695.517Z" fill="black"/>
<path d="M280 695.517H277.241V698.276H280V695.517Z" fill="black"/>
<path d="M202.759 698.276H200V701.034H202.759V698.276Z" fill="black"/>
<path d="M208.276 698.276H205.517V701.034H208.276V698.276Z" fill="black"/>
<path d="M211.034 698.276H208.276V701.034H211.034V698.276Z" fill="black"/>
<path d="M213.793 698.276H211.034V701.034H213.793V698.276Z" fill="black"/>
<path d="M219.31 698.276H216.552V701.034H219.31V698.276Z" fill="black"/>
<path d="M224.828 698.276H222.069V701.034H224.828V698.276Z" fill="black"/>
<path d="M233.103 698.276H230.345V701.034H233.103V698.276Z" fill="black"/>
<path d="M246.897 698.276H244.138V701.034H246.897V698.276Z" fill="black"/>
<path d="M249.655 698.276H246.897V701.034H249.655V698.276Z" fill="black"/>
<path d="M263.448 698.276H260.69V701.034H263.448V698.276Z" fill="black"/>
<path d="M268.966 698.276H266.207V701.034H268.966V698.276Z" fill="black"/>
<path d="M271.724 698.276H268.966V701.034H271.724V698.276Z" fill="black"/>
<path d="M274.483 698.276H271.724V701.034H274.483V698.276Z" fill="black"/>
<path d="M280 698.276H277.241V701.034H280V698.276Z" fill="black"/>
<path d="M202.759 701.034H200V703.793H202.759V701.034Z" fill="black"/>
<path d="M208.276 701.034H205.517V703.793H208.276V701.034Z" fill="black"/>
<path d="M211.034 701.034H208.276V703.793H211.034V701.034Z" fill="black"/>
<path d="M213.793 701.034H211.034V703.793H213.793V701.034Z" fill="black"/>
<path d="M219.31 701.034H216.552V703.793H219.31V701.034Z" fill="black"/>
<path d="M241.379 701.034H238.621V703.793H241.379V701.034Z" fill="black"/>
<path d="M244.138 701.034H241.379V703.793H244.138V701.034Z" fill="black"/>
<path d="M246.897 701.034H244.138V703.793H246.897V701.034Z" fill="black"/>
<path d="M249.655 701.034H246.897V703.793H249.655V701.034Z" fill="black"/>
<path d="M263.448 701.034H260.69V703.793H263.448V701.034Z" fill="black"/>
<path d="M268.966 701.034H266.207V703.793H268.966V701.034Z" fill="black"/>
<path d="M271.724 701.034H268.966V703.793H271.724V701.034Z" fill="black"/>
<path d="M274.483 701.034H271.724V703.793H274.483V701.034Z" fill="black"/>
<path d="M280 701.034H277.241V703.793H280V701.034Z" fill="black"/>
<path d="M202.759 703.793H200V706.552H202.759V703.793Z" fill="black"/>
<path d="M219.31 703.793H216.552V706.552H219.31V703.793Z" fill="black"/>
<path d="M224.828 703.793H222.069V706.552H224.828V703.793Z" fill="black"/>
<path d="M241.379 703.793H238.621V706.552H241.379V703.793Z" fill="black"/>
<path d="M244.138 703.793H241.379V706.552H244.138V703.793Z" fill="black"/>
<path d="M246.897 703.793H244.138V706.552H246.897V703.793Z" fill="black"/>
<path d="M249.655 703.793H246.897V706.552H249.655V703.793Z" fill="black"/>
<path d="M255.172 703.793H252.414V706.552H255.172V703.793Z" fill="black"/>
<path d="M263.448 703.793H260.69V706.552H263.448V703.793Z" fill="black"/>
<path d="M280 703.793H277.241V706.552H280V703.793Z" fill="black"/>
<path d="M202.759 706.552H200V709.31H202.759V706.552Z" fill="black"/>
<path d="M205.517 706.552H202.759V709.31H205.517V706.552Z" fill="black"/>
<path d="M208.276 706.552H205.517V709.31H208.276V706.552Z" fill="black"/>
<path d="M211.034 706.552H208.276V709.31H211.034V706.552Z" fill="black"/>
<path d="M213.793 706.552H211.034V709.31H213.793V706.552Z" fill="black"/>
<path d="M216.552 706.552H213.793V709.31H216.552V706.552Z" fill="black"/>
<path d="M219.31 706.552H216.552V709.31H219.31V706.552Z" fill="black"/>
<path d="M224.828 706.552H222.069V709.31H224.828V706.552Z" fill="black"/>
<path d="M230.345 706.552H227.586V709.31H230.345V706.552Z" fill="black"/>
<path d="M235.862 706.552H233.103V709.31H235.862V706.552Z" fill="black"/>
<path d="M241.379 706.552H238.621V709.31H241.379V706.552Z" fill="black"/>
<path d="M246.897 706.552H244.138V709.31H246.897V706.552Z" fill="black"/>
<path d="M252.414 706.552H249.655V709.31H252.414V706.552Z" fill="black"/>
<path d="M257.931 706.552H255.172V709.31H257.931V706.552Z" fill="black"/>
<path d="M263.448 706.552H260.69V709.31H263.448V706.552Z" fill="black"/>
<path d="M266.207 706.552H263.448V709.31H266.207V706.552Z" fill="black"/>
<path d="M268.966 706.552H266.207V709.31H268.966V706.552Z" fill="black"/>
<path d="M271.724 706.552H268.966V709.31H271.724V706.552Z" fill="black"/>
<path d="M274.483 706.552H271.724V709.31H274.483V706.552Z" fill="black"/>
<path d="M277.241 706.552H274.483V709.31H277.241V706.552Z" fill="black"/>
<path d="M280 706.552H277.241V709.31H280V706.552Z" fill="black"/>
<path d="M227.586 709.31H224.828V712.069H227.586V709.31Z" fill="black"/>
<path d="M230.345 709.31H227.586V712.069H230.345V709.31Z" fill="black"/>
<path d="M233.103 709.31H230.345V712.069H233.103V709.31Z" fill="black"/>
<path d="M241.379 709.31H238.621V712.069H241.379V709.31Z" fill="black"/>
<path d="M246.897 709.31H244.138V712.069H246.897V709.31Z" fill="black"/>
<path d="M249.655 709.31H246.897V712.069H249.655V709.31Z" fill="black"/>
<path d="M252.414 709.31H249.655V712.069H252.414V709.31Z" fill="black"/>
<path d="M255.172 709.31H252.414V712.069H255.172V709.31Z" fill="black"/>
<path d="M257.931 709.31H255.172V712.069H257.931V709.31Z" fill="black"/>
<path d="M216.552 712.069H213.793V714.828H216.552V712.069Z" fill="black"/>
<path d="M219.31 712.069H216.552V714.828H219.31V712.069Z" fill="black"/>
<path d="M224.828 712.069H222.069V714.828H224.828V712.069Z" fill="black"/>
<path d="M230.345 712.069H227.586V714.828H230.345V712.069Z" fill="black"/>
<path d="M233.103 712.069H230.345V714.828H233.103V712.069Z" fill="black"/>
<path d="M241.379 712.069H238.621V714.828H241.379V712.069Z" fill="black"/>
<path d="M244.138 712.069H241.379V714.828H244.138V712.069Z" fill="black"/>
<path d="M246.897 712.069H244.138V714.828H246.897V712.069Z" fill="black"/>
<path d="M252.414 712.069H249.655V714.828H252.414V712.069Z" fill="black"/>
<path d="M260.69 712.069H257.931V714.828H260.69V712.069Z" fill="black"/>
<path d="M266.207 712.069H263.448V714.828H266.207V712.069Z" fill="black"/>
<path d="M271.724 712.069H268.966V714.828H271.724V712.069Z" fill="black"/>
<path d="M280 712.069H277.241V714.828H280V712.069Z" fill="black"/>
<path d="M205.517 714.828H202.759V717.586H205.517V714.828Z" fill="black"/>
<path d="M208.276 714.828H205.517V717.586H208.276V714.828Z" fill="black"/>
<path d="M213.793 714.828H211.034V717.586H213.793V714.828Z" fill="black"/>
<path d="M216.552 714.828H213.793V717.586H216.552V714.828Z" fill="black"/>
<path d="M222.069 714.828H219.31V717.586H222.069V714.828Z" fill="black"/>
<path d="M224.828 714.828H222.069V717.586H224.828V714.828Z" fill="black"/>
<path d="M227.586 714.828H224.828V717.586H227.586V714.828Z" fill="black"/>
<path d="M230.345 714.828H227.586V717.586H230.345V714.828Z" fill="black"/>
<path d="M235.862 714.828H233.103V717.586H235.862V714.828Z" fill="black"/>
<path d="M238.621 714.828H235.862V717.586H238.621V714.828Z" fill="black"/>
<path d="M241.379 714.828H238.621V717.586H241.379V714.828Z" fill="black"/>
<path d="M252.414 714.828H249.655V717.586H252.414V714.828Z" fill="black"/>
<path d="M260.69 714.828H257.931V717.586H260.69V714.828Z" fill="black"/>
<path d="M266.207 714.828H263.448V717.586H266.207V714.828Z" fill="black"/>
<path d="M268.966 714.828H266.207V717.586H268.966V714.828Z" fill="black"/>
<path d="M271.724 714.828H268.966V717.586H271.724V714.828Z" fill="black"/>
<path d="M211.034 717.586H208.276V720.345H211.034V717.586Z" fill="black"/>
<path d="M213.793 717.586H211.034V720.345H213.793V717.586Z" fill="black"/>
<path d="M216.552 717.586H213.793V720.345H216.552V717.586Z" fill="black"/>
<path d="M219.31 717.586H216.552V720.345H219.31V717.586Z" fill="black"/>
<path d="M224.828 717.586H222.069V720.345H224.828V717.586Z" fill="black"/>
<path d="M230.345 717.586H227.586V720.345H230.345V717.586Z" fill="black"/>
<path d="M233.103 717.586H230.345V720.345H233.103V717.586Z" fill="black"/>
<path d="M235.862 717.586H233.103V720.345H235.862V717.586Z" fill="black"/>
<path d="M246.897 717.586H244.138V720.345H246.897V717.586Z" fill="black"/>
<path d="M252.414 717.586H249.655V720.345H252.414V717.586Z" fill="black"/>
<path d="M255.172 717.586H252.414V720.345H255.172V717.586Z" fill="black"/>
<path d="M266.207 717.586H263.448V720.345H266.207V717.586Z" fill="black"/>
<path d="M268.966 717.586H266.207V720.345H268.966V717.586Z" fill="black"/>
<path d="M271.724 717.586H268.966V720.345H271.724V717.586Z" fill="black"/>
<path d="M274.483 717.586H271.724V720.345H274.483V717.586Z" fill="black"/>
<path d="M202.759 720.345H200V723.103H202.759V720.345Z" fill="black"/>
<path d="M216.552 720.345H213.793V723.103H216.552V720.345Z" fill="black"/>
<path d="M227.586 720.345H224.828V723.103H227.586V720.345Z" fill="black"/>
<path d="M244.138 720.345H241.379V723.103H244.138V720.345Z" fill="black"/>
<path d="M257.931 720.345H255.172V723.103H257.931V720.345Z" fill="black"/>
<path d="M263.448 720.345H260.69V723.103H263.448V720.345Z" fill="black"/>
<path d="M277.241 720.345H274.483V723.103H277.241V720.345Z" fill="black"/>
<path d="M280 720.345H277.241V723.103H280V720.345Z" fill="black"/>
<path d="M202.759 723.103H200V725.862H202.759V723.103Z" fill="black"/>
<path d="M208.276 723.103H205.517V725.862H208.276V723.103Z" fill="black"/>
<path d="M211.034 723.103H208.276V725.862H211.034V723.103Z" fill="black"/>
<path d="M213.793 723.103H211.034V725.862H213.793V723.103Z" fill="black"/>
<path d="M216.552 723.103H213.793V725.862H216.552V723.103Z" fill="black"/>
<path d="M219.31 723.103H216.552V725.862H219.31V723.103Z" fill="black"/>
<path d="M222.069 723.103H219.31V725.862H222.069V723.103Z" fill="black"/>
<path d="M227.586 723.103H224.828V725.862H227.586V723.103Z" fill="black"/>
<path d="M230.345 723.103H227.586V725.862H230.345V723.103Z" fill="black"/>
<path d="M238.621 723.103H235.862V725.862H238.621V723.103Z" fill="black"/>
<path d="M244.138 723.103H241.379V725.862H244.138V723.103Z" fill="black"/>
<path d="M260.69 723.103H257.931V725.862H260.69V723.103Z" fill="black"/>
<path d="M263.448 723.103H260.69V725.862H263.448V723.103Z" fill="black"/>
<path d="M266.207 723.103H263.448V725.862H266.207V723.103Z" fill="black"/>
<path d="M271.724 723.103H268.966V725.862H271.724V723.103Z" fill="black"/>
<path d="M277.241 723.103H274.483V725.862H277.241V723.103Z" fill="black"/>
<path d="M280 723.103H277.241V725.862H280V723.103Z" fill="black"/>
<path d="M202.759 725.862H200V728.621H202.759V725.862Z" fill="black"/>
<path d="M205.517 725.862H202.759V728.621H205.517V725.862Z" fill="black"/>
<path d="M208.276 725.862H205.517V728.621H208.276V725.862Z" fill="black"/>
<path d="M211.034 725.862H208.276V728.621H211.034V725.862Z" fill="black"/>
<path d="M213.793 725.862H211.034V728.621H213.793V725.862Z" fill="black"/>
<path d="M216.552 725.862H213.793V728.621H216.552V725.862Z" fill="black"/>
<path d="M244.138 725.862H241.379V728.621H244.138V725.862Z" fill="black"/>
<path d="M246.897 725.862H244.138V728.621H246.897V725.862Z" fill="black"/>
<path d="M252.414 725.862H249.655V728.621H252.414V725.862Z" fill="black"/>
<path d="M255.172 725.862H252.414V728.621H255.172V725.862Z" fill="black"/>
<path d="M260.69 725.862H257.931V728.621H260.69V725.862Z" fill="black"/>
<path d="M263.448 725.862H260.69V728.621H263.448V725.862Z" fill="black"/>
<path d="M266.207 725.862H263.448V728.621H266.207V725.862Z" fill="black"/>
<path d="M271.724 725.862H268.966V728.621H271.724V725.862Z" fill="black"/>
<path d="M277.241 725.862H274.483V728.621H277.241V725.862Z" fill="black"/>
<path d="M280 725.862H277.241V728.621H280V725.862Z" fill="black"/>
<path d="M202.759 728.621H200V731.379H202.759V728.621Z" fill="black"/>
<path d="M205.517 728.621H202.759V731.379H205.517V728.621Z" fill="black"/>
<path d="M211.034 728.621H208.276V731.379H211.034V728.621Z" fill="black"/>
<path d="M213.793 728.621H211.034V731.379H213.793V728.621Z" fill="black"/>
<path d="M216.552 728.621H213.793V731.379H216.552V728.621Z" fill="black"/>
<path d="M219.31 728.621H216.552V731.379H219.31V728.621Z" fill="black"/>
<path d="M222.069 728.621H219.31V731.379H222.069V728.621Z" fill="black"/>
<path d="M227.586 728.621H224.828V731.379H227.586V728.621Z" fill="black"/>
<path d="M233.103 728.621H230.345V731.379H233.103V728.621Z" fill="black"/>
<path d="M244.138 728.621H241.379V731.379H244.138V728.621Z" fill="black"/>
<path d="M246.897 728.621H244.138V731.379H246.897V728.621Z" fill="black"/>
<path d="M257.931 728.621H255.172V731.379H257.931V728.621Z" fill="black"/>
<path d="M263.448 728.621H260.69V731.379H263.448V728.621Z" fill="black"/>
<path d="M268.966 728.621H266.207V731.379H268.966V728.621Z" fill="black"/>
<path d="M271.724 728.621H268.966V731.379H271.724V728.621Z" fill="black"/>
<path d="M205.517 731.379H202.759V734.138H205.517V731.379Z" fill="black"/>
<path d="M208.276 731.379H205.517V734.138H208.276V731.379Z" fill="black"/>
<path d="M213.793 731.379H211.034V734.138H213.793V731.379Z" fill="black"/>
<path d="M216.552 731.379H213.793V734.138H216.552V731.379Z" fill="black"/>
<path d="M224.828 731.379H222.069V734.138H224.828V731.379Z" fill="black"/>
<path d="M235.862 731.379H233.103V734.138H235.862V731.379Z" fill="black"/>
<path d="M255.172 731.379H252.414V734.138H255.172V731.379Z" fill="black"/>
<path d="M257.931 731.379H255.172V734.138H257.931V731.379Z" fill="black"/>
<path d="M266.207 731.379H263.448V734.138H266.207V731.379Z" fill="black"/>
<path d="M277.241 731.379H274.483V734.138H277.241V731.379Z" fill="black"/>
<path d="M202.759 734.138H200V736.897H202.759V734.138Z" fill="black"/>
<path d="M219.31 734.138H216.552V736.897H219.31V734.138Z" fill="black"/>
<path d="M224.828 734.138H222.069V736.897H224.828V734.138Z" fill="black"/>
<path d="M227.586 734.138H224.828V736.897H227.586V734.138Z" fill="black"/>
<path d="M230.345 734.138H227.586V736.897H230.345V734.138Z" fill="black"/>
<path d="M233.103 734.138H230.345V736.897H233.103V734.138Z" fill="black"/>
<path d="M235.862 734.138H233.103V736.897H235.862V734.138Z" fill="black"/>
<path d="M249.655 734.138H246.897V736.897H249.655V734.138Z" fill="black"/>
<path d="M255.172 734.138H252.414V736.897H255.172V734.138Z" fill="black"/>
<path d="M257.931 734.138H255.172V736.897H257.931V734.138Z" fill="black"/>
<path d="M260.69 734.138H257.931V736.897H260.69V734.138Z" fill="black"/>
<path d="M266.207 734.138H263.448V736.897H266.207V734.138Z" fill="black"/>
<path d="M274.483 734.138H271.724V736.897H274.483V734.138Z" fill="black"/>
<path d="M280 734.138H277.241V736.897H280V734.138Z" fill="black"/>
<path d="M205.517 736.897H202.759V739.655H205.517V736.897Z" fill="black"/>
<path d="M208.276 736.897H205.517V739.655H208.276V736.897Z" fill="black"/>
<path d="M213.793 736.897H211.034V739.655H213.793V736.897Z" fill="black"/>
<path d="M222.069 736.897H219.31V739.655H222.069V736.897Z" fill="black"/>
<path d="M230.345 736.897H227.586V739.655H230.345V736.897Z" fill="black"/>
<path d="M235.862 736.897H233.103V739.655H235.862V736.897Z" fill="black"/>
<path d="M238.621 736.897H235.862V739.655H238.621V736.897Z" fill="black"/>
<path d="M241.379 736.897H238.621V739.655H241.379V736.897Z" fill="black"/>
<path d="M244.138 736.897H241.379V739.655H244.138V736.897Z" fill="black"/>
<path d="M246.897 736.897H244.138V739.655H246.897V736.897Z" fill="black"/>
<path d="M255.172 736.897H252.414V739.655H255.172V736.897Z" fill="black"/>
<path d="M263.448 736.897H260.69V739.655H263.448V736.897Z" fill="black"/>
<path d="M268.966 736.897H266.207V739.655H268.966V736.897Z" fill="black"/>
<path d="M277.241 736.897H274.483V739.655H277.241V736.897Z" fill="black"/>
<path d="M280 736.897H277.241V739.655H280V736.897Z" fill="black"/>
<path d="M202.759 739.655H200V742.414H202.759V739.655Z" fill="black"/>
<path d="M205.517 739.655H202.759V742.414H205.517V739.655Z" fill="black"/>
<path d="M208.276 739.655H205.517V742.414H208.276V739.655Z" fill="black"/>
<path d="M211.034 739.655H208.276V742.414H211.034V739.655Z" fill="black"/>
<path d="M219.31 739.655H216.552V742.414H219.31V739.655Z" fill="black"/>
<path d="M222.069 739.655H219.31V742.414H222.069V739.655Z" fill="black"/>
<path d="M224.828 739.655H222.069V742.414H224.828V739.655Z" fill="black"/>
<path d="M233.103 739.655H230.345V742.414H233.103V739.655Z" fill="black"/>
<path d="M238.621 739.655H235.862V742.414H238.621V739.655Z" fill="black"/>
<path d="M241.379 739.655H238.621V742.414H241.379V739.655Z" fill="black"/>
<path d="M252.414 739.655H249.655V742.414H252.414V739.655Z" fill="black"/>
<path d="M255.172 739.655H252.414V742.414H255.172V739.655Z" fill="black"/>
<path d="M277.241 739.655H274.483V742.414H277.241V739.655Z" fill="black"/>
<path d="M202.759 742.414H200V745.172H202.759V742.414Z" fill="black"/>
<path d="M211.034 742.414H208.276V745.172H211.034V742.414Z" fill="black"/>
<path d="M216.552 742.414H213.793V745.172H216.552V742.414Z" fill="black"/>
<path d="M230.345 742.414H227.586V745.172H230.345V742.414Z" fill="black"/>
<path d="M238.621 742.414H235.862V745.172H238.621V742.414Z" fill="black"/>
<path d="M255.172 742.414H252.414V745.172H255.172V742.414Z" fill="black"/>
<path d="M260.69 742.414H257.931V745.172H260.69V742.414Z" fill="black"/>
<path d="M271.724 742.414H268.966V745.172H271.724V742.414Z" fill="black"/>
<path d="M205.517 745.172H202.759V747.931H205.517V745.172Z" fill="black"/>
<path d="M208.276 745.172H205.517V747.931H208.276V745.172Z" fill="black"/>
<path d="M211.034 745.172H208.276V747.931H211.034V745.172Z" fill="black"/>
<path d="M216.552 745.172H213.793V747.931H216.552V745.172Z" fill="black"/>
<path d="M219.31 745.172H216.552V747.931H219.31V745.172Z" fill="black"/>
<path d="M222.069 745.172H219.31V747.931H222.069V745.172Z" fill="black"/>
<path d="M224.828 745.172H222.069V747.931H224.828V745.172Z" fill="black"/>
<path d="M227.586 745.172H224.828V747.931H227.586V745.172Z" fill="black"/>
<path d="M233.103 745.172H230.345V747.931H233.103V745.172Z" fill="black"/>
<path d="M238.621 745.172H235.862V747.931H238.621V745.172Z" fill="black"/>
<path d="M241.379 745.172H238.621V747.931H241.379V745.172Z" fill="black"/>
<path d="M244.138 745.172H241.379V747.931H244.138V745.172Z" fill="black"/>
<path d="M246.897 745.172H244.138V747.931H246.897V745.172Z" fill="black"/>
<path d="M249.655 745.172H246.897V747.931H249.655V745.172Z" fill="black"/>
<path d="M257.931 745.172H255.172V747.931H257.931V745.172Z" fill="black"/>
<path d="M260.69 745.172H257.931V747.931H260.69V745.172Z" fill="black"/>
<path d="M263.448 745.172H260.69V747.931H263.448V745.172Z" fill="black"/>
<path d="M266.207 745.172H263.448V747.931H266.207V745.172Z" fill="black"/>
<path d="M268.966 745.172H266.207V747.931H268.966V745.172Z" fill="black"/>
<path d="M274.483 745.172H271.724V747.931H274.483V745.172Z" fill="black"/>
<path d="M277.241 745.172H274.483V747.931H277.241V745.172Z" fill="black"/>
<path d="M280 745.172H277.241V747.931H280V745.172Z" fill="black"/>
<path d="M224.828 747.931H222.069V750.69H224.828V747.931Z" fill="black"/>
<path d="M227.586 747.931H224.828V750.69H227.586V747.931Z" fill="black"/>
<path d="M235.862 747.931H233.103V750.69H235.862V747.931Z" fill="black"/>
<path d="M249.655 747.931H246.897V750.69H249.655V747.931Z" fill="black"/>
<path d="M252.414 747.931H249.655V750.69H252.414V747.931Z" fill="black"/>
<path d="M255.172 747.931H252.414V750.69H255.172V747.931Z" fill="black"/>
<path d="M257.931 747.931H255.172V750.69H257.931V747.931Z" fill="black"/>
<path d="M268.966 747.931H266.207V750.69H268.966V747.931Z" fill="black"/>
<path d="M202.759 750.69H200V753.448H202.759V750.69Z" fill="black"/>
<path d="M205.517 750.69H202.759V753.448H205.517V750.69Z" fill="black"/>
<path d="M208.276 750.69H205.517V753.448H208.276V750.69Z" fill="black"/>
<path d="M211.034 750.69H208.276V753.448H211.034V750.69Z" fill="black"/>
<path d="M213.793 750.69H211.034V753.448H213.793V750.69Z" fill="black"/>
<path d="M216.552 750.69H213.793V753.448H216.552V750.69Z" fill="black"/>
<path d="M219.31 750.69H216.552V753.448H219.31V750.69Z" fill="black"/>
<path d="M227.586 750.69H224.828V753.448H227.586V750.69Z" fill="black"/>
<path d="M230.345 750.69H227.586V753.448H230.345V750.69Z" fill="black"/>
<path d="M235.862 750.69H233.103V753.448H235.862V750.69Z" fill="black"/>
<path d="M241.379 750.69H238.621V753.448H241.379V750.69Z" fill="black"/>
<path d="M244.138 750.69H241.379V753.448H244.138V750.69Z" fill="black"/>
<path d="M249.655 750.69H246.897V753.448H249.655V750.69Z" fill="black"/>
<path d="M257.931 750.69H255.172V753.448H257.931V750.69Z" fill="black"/>
<path d="M263.448 750.69H260.69V753.448H263.448V750.69Z" fill="black"/>
<path d="M268.966 750.69H266.207V753.448H268.966V750.69Z" fill="black"/>
<path d="M271.724 750.69H268.966V753.448H271.724V750.69Z" fill="black"/>
<path d="M277.241 750.69H274.483V753.448H277.241V750.69Z" fill="black"/>
<path d="M280 750.69H277.241V753.448H280V750.69Z" fill="black"/>
<path d="M202.759 753.448H200V756.207H202.759V753.448Z" fill="black"/>
<path d="M219.31 753.448H216.552V756.207H219.31V753.448Z" fill="black"/>
<path d="M224.828 753.448H222.069V756.207H224.828V753.448Z" fill="black"/>
<path d="M235.862 753.448H233.103V756.207H235.862V753.448Z" fill="black"/>
<path d="M244.138 753.448H241.379V756.207H244.138V753.448Z" fill="black"/>
<path d="M249.655 753.448H246.897V756.207H249.655V753.448Z" fill="black"/>
<path d="M255.172 753.448H252.414V756.207H255.172V753.448Z" fill="black"/>
<path d="M257.931 753.448H255.172V756.207H257.931V753.448Z" fill="black"/>
<path d="M268.966 753.448H266.207V756.207H268.966V753.448Z" fill="black"/>
<path d="M277.241 753.448H274.483V756.207H277.241V753.448Z" fill="black"/>
<path d="M202.759 756.207H200V758.966H202.759V756.207Z" fill="black"/>
<path d="M208.276 756.207H205.517V758.966H208.276V756.207Z" fill="black"/>
<path d="M211.034 756.207H208.276V758.966H211.034V756.207Z" fill="black"/>
<path d="M213.793 756.207H211.034V758.966H213.793V756.207Z" fill="black"/>
<path d="M219.31 756.207H216.552V758.966H219.31V756.207Z" fill="black"/>
<path d="M230.345 756.207H227.586V758.966H230.345V756.207Z" fill="black"/>
<path d="M233.103 756.207H230.345V758.966H233.103V756.207Z" fill="black"/>
<path d="M241.379 756.207H238.621V758.966H241.379V756.207Z" fill="black"/>
<path d="M257.931 756.207H255.172V758.966H257.931V756.207Z" fill="black"/>
<path d="M260.69 756.207H257.931V758.966H260.69V756.207Z" fill="black"/>
<path d="M263.448 756.207H260.69V758.966H263.448V756.207Z" fill="black"/>
<path d="M266.207 756.207H263.448V758.966H266.207V756.207Z" fill="black"/>
<path d="M268.966 756.207H266.207V758.966H268.966V756.207Z" fill="black"/>
<path d="M271.724 756.207H268.966V758.966H271.724V756.207Z" fill="black"/>
<path d="M274.483 756.207H271.724V758.966H274.483V756.207Z" fill="black"/>
<path d="M280 756.207H277.241V758.966H280V756.207Z" fill="black"/>
<path d="M202.759 758.966H200V761.724H202.759V758.966Z" fill="black"/>
<path d="M208.276 758.966H205.517V761.724H208.276V758.966Z" fill="black"/>
<path d="M211.034 758.966H208.276V761.724H211.034V758.966Z" fill="black"/>
<path d="M213.793 758.966H211.034V761.724H213.793V758.966Z" fill="black"/>
<path d="M219.31 758.966H216.552V761.724H219.31V758.966Z" fill="black"/>
<path d="M227.586 758.966H224.828V761.724H227.586V758.966Z" fill="black"/>
<path d="M230.345 758.966H227.586V761.724H230.345V758.966Z" fill="black"/>
<path d="M235.862 758.966H233.103V761.724H235.862V758.966Z" fill="black"/>
<path d="M241.379 758.966H238.621V761.724H241.379V758.966Z" fill="black"/>
<path d="M244.138 758.966H241.379V761.724H244.138V758.966Z" fill="black"/>
<path d="M249.655 758.966H246.897V761.724H249.655V758.966Z" fill="black"/>
<path d="M266.207 758.966H263.448V761.724H266.207V758.966Z" fill="black"/>
<path d="M271.724 758.966H268.966V761.724H271.724V758.966Z" fill="black"/>
<path d="M274.483 758.966H271.724V761.724H274.483V758.966Z" fill="black"/>
<path d="M202.759 761.724H200V764.483H202.759V761.724Z" fill="black"/>
<path d="M208.276 761.724H205.517V764.483H208.276V761.724Z" fill="black"/>
<path d="M211.034 761.724H208.276V764.483H211.034V761.724Z" fill="black"/>
<path d="M213.793 761.724H211.034V764.483H213.793V761.724Z" fill="black"/>
<path d="M219.31 761.724H216.552V764.483H219.31V761.724Z" fill="black"/>
<path d="M230.345 761.724H227.586V764.483H230.345V761.724Z" fill="black"/>
<path d="M233.103 761.724H230.345V764.483H233.103V761.724Z" fill="black"/>
<path d="M241.379 761.724H238.621V764.483H241.379V761.724Z" fill="black"/>
<path d="M257.931 761.724H255.172V764.483H257.931V761.724Z" fill="black"/>
<path d="M260.69 761.724H257.931V764.483H260.69V761.724Z" fill="black"/>
<path d="M266.207 761.724H263.448V764.483H266.207V761.724Z" fill="black"/>
<path d="M271.724 761.724H268.966V764.483H271.724V761.724Z" fill="black"/>
<path d="M274.483 761.724H271.724V764.483H274.483V761.724Z" fill="black"/>
<path d="M202.759 764.483H200V767.241H202.759V764.483Z" fill="black"/>
<path d="M219.31 764.483H216.552V767.241H219.31V764.483Z" fill="black"/>
<path d="M230.345 764.483H227.586V767.241H230.345V764.483Z" fill="black"/>
<path d="M233.103 764.483H230.345V767.241H233.103V764.483Z" fill="black"/>
<path d="M235.862 764.483H233.103V767.241H235.862V764.483Z" fill="black"/>
<path d="M241.379 764.483H238.621V767.241H241.379V764.483Z" fill="black"/>
<path d="M244.138 764.483H241.379V767.241H244.138V764.483Z" fill="black"/>
<path d="M246.897 764.483H244.138V767.241H246.897V764.483Z" fill="black"/>
<path d="M252.414 764.483H249.655V767.241H252.414V764.483Z" fill="black"/>
<path d="M255.172 764.483H252.414V767.241H255.172V764.483Z" fill="black"/>
<path d="M260.69 764.483H257.931V767.241H260.69V764.483Z" fill="black"/>
<path d="M263.448 764.483H260.69V767.241H263.448V764.483Z" fill="black"/>
<path d="M266.207 764.483H263.448V767.241H266.207V764.483Z" fill="black"/>
<path d="M268.966 764.483H266.207V767.241H268.966V764.483Z" fill="black"/>
<path d="M271.724 764.483H268.966V767.241H271.724V764.483Z" fill="black"/>
<path d="M277.241 764.483H274.483V767.241H277.241V764.483Z" fill="black"/>
<path d="M280 764.483H277.241V767.241H280V764.483Z" fill="black"/>
<path d="M202.759 767.241H200V770H202.759V767.241Z" fill="black"/>
<path d="M205.517 767.241H202.759V770H205.517V767.241Z" fill="black"/>
<path d="M208.276 767.241H205.517V770H208.276V767.241Z" fill="black"/>
<path d="M211.034 767.241H208.276V770H211.034V767.241Z" fill="black"/>
<path d="M213.793 767.241H211.034V770H213.793V767.241Z" fill="black"/>
<path d="M216.552 767.241H213.793V770H216.552V767.241Z" fill="black"/>
<path d="M219.31 767.241H216.552V770H219.31V767.241Z" fill="black"/>
<path d="M227.586 767.241H224.828V770H227.586V767.241Z" fill="black"/>
<path d="M235.862 767.241H233.103V770H235.862V767.241Z" fill="black"/>
<path d="M241.379 767.241H238.621V770H241.379V767.241Z" fill="black"/>
<path d="M249.655 767.241H246.897V770H249.655V767.241Z" fill="black"/>
<path d="M252.414 767.241H249.655V770H252.414V767.241Z" fill="black"/>
<path d="M255.172 767.241H252.414V770H255.172V767.241Z" fill="black"/>
<path d="M260.69 767.241H257.931V770H260.69V767.241Z" fill="black"/>
<path d="M268.966 767.241H266.207V770H268.966V767.241Z" fill="black"/>
<path d="M274.483 767.241H271.724V770H274.483V767.241Z" fill="black"/>
<path d="M231.484 758.352H205.801L200.918 773H185.342L211.807 701.906H225.381L251.992 773H236.416L231.484 758.352ZM209.756 746.486H227.529L218.594 719.875L209.756 746.486ZM303.77 758.352H278.086L273.203 773H257.627L284.092 701.906H297.666L324.277 773H308.701L303.77 758.352ZM282.041 746.486H299.814L290.879 719.875L282.041 746.486Z" fill="black" fill-opacity="0.01"/>
<path d="M185 782.766H324.57V787.648H185V782.766Z" fill="black" fill-opacity="0.01"/>
<a href="https://praxis.nyc/v4/study/redux-1">
<rect fill="black" fill-opacity="0" y="-0.09375" width="139.57" height="117.188"/>
</a>
<path d="M159 751C158.448 751 158 751.448 158 752C158 752.552 158.448 753 159 753V751ZM177.707 752.707C178.098 752.317 178.098 751.683 177.707 751.293L171.343 744.929C170.953 744.538 170.319 744.538 169.929 744.929C169.538 745.319 169.538 745.953 169.929 746.343L175.586 752L169.929 757.657C169.538 758.047 169.538 758.681 169.929 759.071C170.319 759.462 170.953 759.462 171.343 759.071L177.707 752.707ZM159 753H177V751H159V753Z" fill="black"/>
<path d="M159 683C158.448 683 158 683.448 158 684C158 684.552 158.448 685 159 685V683ZM177.707 684.707C178.098 684.317 178.098 683.683 177.707 683.293L171.343 676.929C170.953 676.538 170.319 676.538 169.929 676.929C169.538 677.319 169.538 677.953 169.929 678.343L175.586 684L169.929 689.657C169.538 690.047 169.538 690.681 169.929 691.071C170.319 691.462 170.953 691.462 171.343 691.071L177.707 684.707ZM159 685H177V683H159V685Z" fill="black"/>
<path d="M159 717C158.448 717 158 717.448 158 718C158 718.552 158.448 719 159 719V717ZM177.707 718.707C178.098 718.317 178.098 717.683 177.707 717.293L171.343 710.929C170.953 710.538 170.319 710.538 169.929 710.929C169.538 711.319 169.538 711.953 169.929 712.343L175.586 718L169.929 723.657C169.538 724.047 169.538 724.681 169.929 725.071C170.319 725.462 170.953 725.462 171.343 725.071L177.707 718.707ZM159 719H177V717H159V719Z" fill="black"/>
<path d="M126 751C125.448 751 125 751.448 125 752C125 752.552 125.448 753 126 753V751ZM144.707 752.707C145.098 752.317 145.098 751.683 144.707 751.293L138.343 744.929C137.953 744.538 137.319 744.538 136.929 744.929C136.538 745.319 136.538 745.953 136.929 746.343L142.586 752L136.929 757.657C136.538 758.047 136.538 758.681 136.929 759.071C137.319 759.462 137.953 759.462 138.343 759.071L144.707 752.707ZM126 753H144V751H126V753Z" fill="black"/>
<path d="M126 683C125.448 683 125 683.448 125 684C125 684.552 125.448 685 126 685V683ZM144.707 684.707C145.098 684.317 145.098 683.683 144.707 683.293L138.343 676.929C137.953 676.538 137.319 676.538 136.929 676.929C136.538 677.319 136.538 677.953 136.929 678.343L142.586 684L136.929 689.657C136.538 690.047 136.538 690.681 136.929 691.071C137.319 691.462 137.953 691.462 138.343 691.071L144.707 684.707ZM126 685H144V683H126V685Z" fill="black"/>
<rect width="122" height="48" transform="translate(34 693)" fill="white"/>
<path d="M51.86 696.6V704.124H56.204V705H50.888V696.6H51.86ZM58.8819 696.6V705H57.9099V696.6H58.8819ZM62.9081 696.6L66.2081 703.956H66.3281V696.6H67.3001V705H65.6321L62.3441 697.644H62.2241V705H61.2521V696.6H62.9081ZM76.3765 696.6L72.7165 700.032L76.2805 705H75.0565L72.0325 700.68L70.6405 701.988V705H69.6685V696.6H70.6405V700.656H70.7605L74.9845 696.6H76.3765ZM87.9987 696.6V697.476H85.2028V705H84.2308V697.476H81.4228V696.6H87.9987ZM89.2513 699.84C89.2513 698.744 89.5433 697.904 90.1273 697.32C90.7193 696.728 91.5233 696.432 92.5393 696.432C93.5553 696.432 94.3553 696.728 94.9393 697.32C95.5313 697.904 95.8273 698.744 95.8273 699.84V701.76C95.8273 702.856 95.5313 703.7 94.9393 704.292C94.3553 704.876 93.5553 705.168 92.5393 705.168C91.5233 705.168 90.7193 704.876 90.1273 704.292C89.5433 703.7 89.2513 702.856 89.2513 701.76V699.84ZM90.2233 701.808C90.2233 702.584 90.4273 703.192 90.8353 703.632C91.2433 704.072 91.8113 704.292 92.5393 704.292C93.2673 704.292 93.8313 704.072 94.2313 703.632C94.6393 703.192 94.8433 702.584 94.8433 701.808V699.792C94.8433 699.016 94.6393 698.408 94.2313 697.968C93.8233 697.52 93.2593 697.296 92.5393 697.296C91.8113 697.296 91.2433 697.52 90.8353 697.968C90.4273 698.408 90.2233 699.016 90.2233 699.792V701.808ZM105.439 696.6C105.943 696.6 106.395 696.7 106.795 696.9C107.195 697.1 107.507 697.392 107.731 697.776C107.963 698.152 108.079 698.592 108.079 699.096C108.079 699.6 107.963 700.044 107.731 700.428C107.499 700.804 107.183 701.096 106.783 701.304C106.383 701.504 105.935 701.604 105.439 701.604H103.219V705H102.247V696.6H105.439ZM105.331 700.716C105.883 700.716 106.315 700.576 106.627 700.296C106.939 700.008 107.095 699.608 107.095 699.096C107.095 698.592 106.939 698.196 106.627 697.908C106.315 697.62 105.883 697.476 105.331 697.476H103.219V700.716H105.331ZM112.374 696.6C113.502 696.6 114.362 696.888 114.954 697.464C115.554 698.032 115.854 698.888 115.854 700.032V701.568C115.854 702.712 115.554 703.572 114.954 704.148C114.362 704.716 113.502 705 112.374 705H109.878V696.6H112.374ZM112.386 704.124C113.218 704.124 113.838 703.92 114.246 703.512C114.662 703.096 114.87 702.46 114.87 701.604V699.996C114.87 698.316 114.042 697.476 112.386 697.476H110.85V704.124H112.386ZM123.114 696.6V697.476H118.938V700.344H122.874V701.232H118.938V705H117.966V696.6H123.114ZM124.713 704.34C124.713 704.1 124.789 703.904 124.941 703.752C125.101 703.592 125.301 703.512 125.541 703.512C125.773 703.512 125.969 703.592 126.129 703.752C126.289 703.904 126.369 704.1 126.369 704.34C126.369 704.58 126.289 704.78 126.129 704.94C125.969 705.092 125.773 705.168 125.541 705.168C125.301 705.168 125.101 705.092 124.941 704.94C124.789 704.78 124.713 704.58 124.713 704.34ZM124.713 699.708C124.713 699.468 124.789 699.272 124.941 699.12C125.101 698.96 125.301 698.88 125.541 698.88C125.773 698.88 125.969 698.96 126.129 699.12C126.289 699.272 126.369 699.468 126.369 699.708C126.369 699.948 126.289 700.148 126.129 700.308C125.969 700.46 125.773 700.536 125.541 700.536C125.301 700.536 125.101 700.46 124.941 700.308C124.789 700.148 124.713 699.948 124.713 699.708ZM56.96 715.06C56.96 715.716 56.764 716.26 56.372 716.692C55.988 717.116 55.48 717.38 54.848 717.484L56.768 721H55.64L53.828 717.52H51.86V721H50.888V712.6H54.32C54.824 712.6 55.276 712.7 55.676 712.9C56.076 713.1 56.388 713.384 56.612 713.752C56.844 714.12 56.96 714.556 56.96 715.06ZM51.86 716.644H54.212C54.764 716.644 55.196 716.504 55.508 716.224C55.82 715.944 55.976 715.556 55.976 715.06C55.976 714.564 55.82 714.176 55.508 713.896C55.196 713.616 54.764 713.476 54.212 713.476H51.86V716.644ZM64.1388 712.6V713.476H59.8428V716.344H63.8028V717.22H59.8428V720.124H64.1988V721H58.8708V712.6H64.1388ZM69.3659 712.6C69.8699 712.6 70.3219 712.7 70.7219 712.9C71.1219 713.1 71.4339 713.392 71.6579 713.776C71.8899 714.152 72.0059 714.592 72.0059 715.096C72.0059 715.6 71.8899 716.044 71.6579 716.428C71.4259 716.804 71.1099 717.096 70.7099 717.304C70.3099 717.504 69.8619 717.604 69.3659 717.604H67.1459V721H66.1739V712.6H69.3659ZM69.2579 716.716C69.8099 716.716 70.2419 716.576 70.5539 716.296C70.8659 716.008 71.0219 715.608 71.0219 715.096C71.0219 714.592 70.8659 714.196 70.5539 713.908C70.2419 713.62 69.8099 713.476 69.2579 713.476H67.1459V716.716H69.2579ZM79.8772 715.06C79.8772 715.716 79.6812 716.26 79.2892 716.692C78.9052 717.116 78.3972 717.38 77.7652 717.484L79.6852 721H78.5572L76.7452 717.52H74.7772V721H73.8052V712.6H77.2372C77.7412 712.6 78.1932 712.7 78.5932 712.9C78.9932 713.1 79.3052 713.384 79.5292 713.752C79.7612 714.12 79.8772 714.556 79.8772 715.06ZM74.7772 716.644H77.1292C77.6812 716.644 78.1132 716.504 78.4252 716.224C78.7372 715.944 78.8932 715.556 78.8932 715.06C78.8932 714.564 78.7372 714.176 78.4252 713.896C78.1132 713.616 77.6812 713.476 77.1292 713.476H74.7772V716.644ZM82.76 712.6V721H81.788V712.6H82.76ZM86.7862 712.6L90.0862 719.956H90.2062V712.6H91.1782V721H89.5102L86.2222 713.644H86.1022V721H85.1302V712.6H86.7862ZM99.4386 712.6V713.476H96.6426V721H95.6706V713.476H92.8626V712.6H99.4386ZM56.036 728.6V729.476H51.86V732.344H55.796V733.232H51.86V737H50.888V728.6H56.036ZM63.9584 731.06C63.9584 731.716 63.7624 732.26 63.3704 732.692C62.9864 733.116 62.4784 733.38 61.8464 733.484L63.7664 737H62.6384L60.8264 733.52H58.8584V737H57.8864V728.6H61.3184C61.8224 728.6 62.2744 728.7 62.6744 728.9C63.0744 729.1 63.3864 729.384 63.6104 729.752C63.8424 730.12 63.9584 730.556 63.9584 731.06ZM58.8584 732.644H61.2104C61.7624 732.644 62.1944 732.504 62.5064 732.224C62.8184 731.944 62.9744 731.556 62.9744 731.06C62.9744 730.564 62.8184 730.176 62.5064 729.896C62.1944 729.616 61.7624 729.476 61.2104 729.476H58.8584V732.644ZM71.1372 728.6V729.476H66.8412V732.344H70.8012V733.22H66.8412V736.124H71.1972V737H65.8692V728.6H71.1372ZM78.4404 728.6V729.476H74.1444V732.344H78.1044V733.22H74.1444V736.124H78.5004V737H73.1724V728.6H78.4404ZM81.4475 728.6V736.124H85.7915V737H80.4755V728.6H81.4475ZM86.2536 728.6L88.5816 732.704H88.7016L91.0176 728.6H92.1456L89.1216 733.772V737H88.1496V733.772L85.1256 728.6H86.2536Z" fill="black"/>
</g>
<defs>
<clipPath id="clip0">
<rect width="306" height="792" fill="white"/>
</clipPath>
<clipPath id="clip1">
<rect width="580" height="760" fill="white" transform="translate(16 16)"/>
</clipPath>
</defs>
</svg>
