<svg width="21" height="40" viewBox="0 0 21 40" fill="none" xmlns="http://www.w3.org/2000/svg">
<path d="M1.27571 12.7287C1.26999 12.7696 1.24051 12.7984 1.2036 12.7984C1.16649 12.7984 1.1368 12.7696 1.13171 12.7282L1 11.7456L1.13171 10.7461C1.13658 10.7045 1.16649 10.6754 1.2036 10.6754C1.24051 10.6754 1.26999 10.7043 1.27571 10.7454L1.43181 11.7459L1.27571 12.7287ZM1.94463 13.3267C1.93827 13.3692 1.90731 13.3993 1.86955 13.3993C1.83138 13.3993 1.79999 13.3687 1.79469 13.3265L1.61781 11.7456L1.79469 10.1291C1.79978 10.0869 1.83138 10.0562 1.86955 10.0562C1.90752 10.0562 1.93827 10.0861 1.94463 10.1291L2.14569 11.7456L1.94463 13.3267ZM2.66679 13.5942C2.66127 13.6453 2.62331 13.6822 2.57644 13.6822C2.52893 13.6822 2.49118 13.6453 2.4863 13.5938L2.31833 11.7461L2.4863 9.82795C2.49097 9.77684 2.52893 9.73972 2.57644 9.73972C2.62331 9.73972 2.66106 9.77684 2.66679 9.82795L2.85745 11.7461L2.66679 13.5942ZM3.39509 13.6529C3.39 13.7117 3.34462 13.7564 3.28969 13.7564C3.2337 13.7564 3.1881 13.7117 3.18364 13.6529L3.025 11.7465L3.18364 9.77578C3.1881 9.71639 3.2337 9.67186 3.28969 9.67186C3.34462 9.67186 3.39 9.71639 3.39509 9.77514L3.57537 11.7463L3.39509 13.6529ZM4.12913 13.6688C4.12467 13.7363 4.07229 13.788 4.00824 13.788C3.94355 13.788 3.89138 13.7365 3.88713 13.6688L3.7374 11.7467L3.88713 9.91872C3.89159 9.85064 3.94376 9.79932 4.00824 9.79932C4.0725 9.79932 4.12467 9.85064 4.12913 9.91809L4.29901 11.7469L4.12913 13.6688ZM4.8691 13.6695V13.6686C4.86464 13.7439 4.80505 13.8035 4.73272 13.8035C4.65977 13.8035 4.60017 13.7441 4.59614 13.6691L4.45595 11.7471L4.59614 8.77282C4.60017 8.69711 4.65977 8.63793 4.73272 8.63793C4.80505 8.63793 4.86464 8.69711 4.8691 8.77261L5.02816 11.7471L4.8691 13.6695ZM5.60355 13.668V13.6669C5.59973 13.7513 5.53293 13.8171 5.4517 13.8171C5.37026 13.8171 5.30366 13.7513 5.30048 13.6676L5.16856 11.7573L5.29984 8.10305C5.30366 8.01885 5.37026 7.95289 5.4517 7.95289C5.53293 7.95289 5.59973 8.01885 5.60355 8.10305L5.75222 11.7573L5.60355 13.668ZM6.366 13.6387V13.6377C6.36219 13.7306 6.28923 13.8029 6.1993 13.8029C6.10874 13.8029 6.03536 13.7303 6.03218 13.6385L5.9098 11.748C5.9098 11.748 6.03218 7.78895 6.03218 7.78853C6.03536 7.69563 6.10874 7.62289 6.1993 7.62289C6.28923 7.62289 6.3624 7.69563 6.366 7.78853L6.50428 11.748L6.366 13.6387ZM7.12336 13.626C7.1204 13.7274 7.04001 13.8069 6.94118 13.8069C6.8415 13.8069 6.76176 13.7274 6.75921 13.6268L6.64553 11.7482L6.75879 7.65555C6.76197 7.55396 6.84171 7.47421 6.94118 7.47421C7.04023 7.47421 7.12061 7.55375 7.12336 7.65555L7.25125 11.7484L7.12336 13.626ZM7.88624 13.6097V13.6082C7.88327 13.7183 7.79653 13.8052 7.68858 13.8052C7.5802 13.8052 7.49345 13.7183 7.49112 13.6092L7.38656 11.7486L7.49049 7.76032C7.49346 7.65003 7.5802 7.56371 7.68858 7.56371C7.79653 7.56371 7.88327 7.64982 7.88624 7.75989L8.00395 11.7486L7.88624 13.6097ZM8.65527 13.598V13.5967C8.65293 13.7157 8.55919 13.8088 8.44212 13.8088C8.32526 13.8088 8.2313 13.7157 8.22897 13.598L8.13374 11.7488L8.22897 7.90602C8.2313 7.78704 8.32526 7.69394 8.44212 7.69394C8.55919 7.69394 8.65293 7.78725 8.65527 7.90602L8.76194 11.7492L8.65527 13.598ZM9.43956 13.4037L9.43002 13.5849C9.42896 13.6474 9.40245 13.7043 9.3613 13.7456C9.31994 13.7865 9.26353 13.8122 9.2016 13.8122C9.13182 13.8122 9.06905 13.78 9.02684 13.7295C8.99588 13.6922 8.97615 13.6449 8.97382 13.5935C8.9734 13.591 8.97318 13.5887 8.97318 13.5857C8.97318 13.5857 8.88665 11.7503 8.88665 11.7475L8.97233 7.21907L8.97318 7.17602C8.97424 7.09606 9.01602 7.02586 9.07859 6.98535C9.11401 6.96202 9.156 6.94824 9.2016 6.94824C9.24784 6.94824 9.29153 6.96266 9.32779 6.98726C9.38824 7.0282 9.42875 7.09734 9.43002 7.17581L9.52588 11.7488L9.43956 13.4037ZM10.2016 13.5603V13.5598V13.5581C10.1988 13.692 10.0902 13.8012 9.95769 13.8012C9.82471 13.8012 9.71527 13.692 9.71358 13.5598L9.66437 12.6672L9.6139 11.7499L9.71337 6.78769L9.71379 6.76266C9.71464 6.68716 9.74984 6.61972 9.80435 6.57497C9.84613 6.54018 9.89979 6.5194 9.95811 6.5194C10.0035 6.5194 10.0459 6.53234 10.0822 6.55439C10.1522 6.59702 10.2007 6.67422 10.202 6.76224L10.31 11.7501L10.2016 13.5603ZM16.7862 13.8058C16.7862 13.8058 10.655 13.8065 10.6491 13.8058C10.5165 13.7927 10.4113 13.6873 10.4101 13.5518V6.52491C10.4113 6.39575 10.4557 6.32937 10.623 6.26468C11.0525 6.0982 11.5396 6 12.0389 6C14.0807 6 15.7536 7.5652 15.93 9.5603C16.1935 9.45001 16.4827 9.38851 16.7862 9.38851C18.0093 9.38851 19 10.3798 19 11.6025C19.0002 12.8252 18.0093 13.8058 16.7862 13.8058Z" fill="#800080"/>
<path d="M1.27571 32.7287C1.26999 32.7696 1.24051 32.7984 1.2036 32.7984C1.16649 32.7984 1.1368 32.7696 1.13171 32.7282L1 31.7456L1.13171 30.7461C1.13658 30.7045 1.16649 30.6754 1.2036 30.6754C1.24051 30.6754 1.26999 30.7043 1.27571 30.7454L1.43181 31.7459L1.27571 32.7287ZM1.94463 33.3267C1.93827 33.3692 1.90731 33.3993 1.86955 33.3993C1.83138 33.3993 1.79999 33.3687 1.79469 33.3265L1.61781 31.7456L1.79469 30.1291C1.79978 30.0869 1.83138 30.0562 1.86955 30.0562C1.90752 30.0562 1.93827 30.0861 1.94463 30.1291L2.14569 31.7456L1.94463 33.3267ZM2.66679 33.5942C2.66127 33.6453 2.62331 33.6822 2.57644 33.6822C2.52893 33.6822 2.49118 33.6453 2.4863 33.5938L2.31833 31.7461L2.4863 29.828C2.49097 29.7768 2.52893 29.7397 2.57644 29.7397C2.62331 29.7397 2.66106 29.7768 2.66679 29.828L2.85745 31.7461L2.66679 33.5942ZM3.39509 33.6529C3.39 33.7117 3.34462 33.7564 3.28969 33.7564C3.2337 33.7564 3.1881 33.7117 3.18364 33.6529L3.025 31.7465L3.18364 29.7758C3.1881 29.7164 3.2337 29.6719 3.28969 29.6719C3.34462 29.6719 3.39 29.7164 3.39509 29.7751L3.57537 31.7463L3.39509 33.6529ZM4.12913 33.6688C4.12467 33.7363 4.07229 33.788 4.00824 33.788C3.94355 33.788 3.89138 33.7365 3.88713 33.6688L3.7374 31.7467L3.88713 29.9187C3.89159 29.8506 3.94376 29.7993 4.00824 29.7993C4.0725 29.7993 4.12467 29.8506 4.12913 29.9181L4.29901 31.7469L4.12913 33.6688ZM4.8691 33.6695V33.6686C4.86464 33.7439 4.80505 33.8035 4.73272 33.8035C4.65977 33.8035 4.60017 33.7441 4.59614 33.6691L4.45595 31.7471L4.59614 28.7728C4.60017 28.6971 4.65977 28.6379 4.73272 28.6379C4.80505 28.6379 4.86464 28.6971 4.8691 28.7726L5.02816 31.7471L4.8691 33.6695ZM5.60355 33.668V33.6669C5.59973 33.7513 5.53293 33.8171 5.4517 33.8171C5.37026 33.8171 5.30366 33.7513 5.30048 33.6676L5.16856 31.7573L5.29984 28.1031C5.30366 28.0189 5.37026 27.9529 5.4517 27.9529C5.53293 27.9529 5.59973 28.0189 5.60355 28.1031L5.75222 31.7573L5.60355 33.668ZM6.366 33.6387V33.6377C6.36219 33.7306 6.28923 33.8029 6.1993 33.8029C6.10874 33.8029 6.03536 33.7303 6.03218 33.6385L5.9098 31.748C5.9098 31.748 6.03218 27.789 6.03218 27.7885C6.03536 27.6956 6.10874 27.6229 6.1993 27.6229C6.28923 27.6229 6.3624 27.6956 6.366 27.7885L6.50428 31.748L6.366 33.6387ZM7.12336 33.626C7.1204 33.7274 7.04001 33.8069 6.94118 33.8069C6.8415 33.8069 6.76176 33.7274 6.75921 33.6268L6.64553 31.7482L6.75879 27.6555C6.76197 27.554 6.84171 27.4742 6.94118 27.4742C7.04023 27.4742 7.12061 27.5537 7.12336 27.6555L7.25125 31.7484L7.12336 33.626ZM7.88624 33.6097V33.6082C7.88327 33.7183 7.79653 33.8052 7.68858 33.8052C7.5802 33.8052 7.49345 33.7183 7.49112 33.6092L7.38656 31.7486L7.49049 27.7603C7.49346 27.65 7.5802 27.5637 7.68858 27.5637C7.79653 27.5637 7.88327 27.6498 7.88624 27.7599L8.00395 31.7486L7.88624 33.6097ZM8.65527 33.598V33.5967C8.65293 33.7157 8.55919 33.8088 8.44212 33.8088C8.32526 33.8088 8.2313 33.7157 8.22897 33.598L8.13374 31.7488L8.22897 27.906C8.2313 27.787 8.32526 27.6939 8.44212 27.6939C8.55919 27.6939 8.65293 27.7873 8.65527 27.906L8.76194 31.7492L8.65527 33.598ZM9.43956 33.4037L9.43002 33.5849C9.42896 33.6474 9.40245 33.7043 9.3613 33.7456C9.31994 33.7865 9.26353 33.8122 9.2016 33.8122C9.13182 33.8122 9.06905 33.78 9.02684 33.7295C8.99588 33.6922 8.97615 33.6449 8.97382 33.5935C8.9734 33.591 8.97318 33.5887 8.97318 33.5857C8.97318 33.5857 8.88665 31.7503 8.88665 31.7475L8.97233 27.2191L8.97318 27.176C8.97424 27.0961 9.01602 27.0259 9.07859 26.9854C9.11401 26.962 9.156 26.9482 9.2016 26.9482C9.24784 26.9482 9.29153 26.9627 9.32779 26.9873C9.38824 27.0282 9.42875 27.0973 9.43002 27.1758L9.52588 31.7488L9.43956 33.4037ZM10.2016 33.5603V33.5598V33.5581C10.1988 33.692 10.0902 33.8012 9.95769 33.8012C9.82471 33.8012 9.71527 33.692 9.71358 33.5598L9.66437 32.6672L9.6139 31.7499L9.71337 26.7877L9.71379 26.7627C9.71464 26.6872 9.74984 26.6197 9.80435 26.575C9.84613 26.5402 9.89979 26.5194 9.95811 26.5194C10.0035 26.5194 10.0459 26.5323 10.0822 26.5544C10.1522 26.597 10.2007 26.6742 10.202 26.7622L10.31 31.7501L10.2016 33.5603ZM16.7862 33.8058C16.7862 33.8058 10.655 33.8065 10.6491 33.8058C10.5165 33.7927 10.4113 33.6873 10.4101 33.5518V26.5249C10.4113 26.3958 10.4557 26.3294 10.623 26.2647C11.0525 26.0982 11.5396 26 12.0389 26C14.0807 26 15.7536 27.5652 15.93 29.5603C16.1935 29.45 16.4827 29.3885 16.7862 29.3885C18.0093 29.3885 19 30.3798 19 31.6025C19.0002 32.8252 18.0093 33.8058 16.7862 33.8058Z" fill="black"/>
</svg>
