<svg width="286" height="58" viewBox="0 0 286 58" fill="none" xmlns="http://www.w3.org/2000/svg">
<path d="M32.499 0L20.2648 0C20.2648 2.00766 20.453 7.34051 20.2021 9.78734C20.1393 11.4813 18.0689 11.544 15.9358 11.544H15.3084C13.6772 11.4813 12.2969 11.1676 12.2969 9.85008C11.9832 7.40325 12.2342 2.00766 12.1714 0L0 0L0 24.6566H12.046C12.1714 22.0843 12.046 17.5043 12.4224 15.8103C12.7361 14.7438 13.489 14.4301 14.4928 14.3046C14.8692 14.3046 15.3712 14.3046 15.9358 14.3046C16.124 14.3046 16.3122 14.3046 16.5005 14.3673H18.0062C18.0062 14.3673 18.0062 14.3046 17.9435 14.3046C19.01 14.3673 19.7002 14.7438 20.0139 15.8103C20.453 17.5043 20.2648 22.0843 20.453 24.6566L32.499 24.6566V0Z" fill="black"/>
<path d="M70.2005 0.0627386C68.4438 0.0627386 68.2556 1.38027 67.3145 2.82327C65.9969 5.08189 64.303 8.03064 63.2364 8.97173C62.2326 9.85008 61.2915 9.28543 60.4131 7.90516C58.7192 5.45833 56.9625 2.63505 55.5822 0.250957L42.0932 0.376436C44.7283 4.20354 47.1124 8.09338 49.6847 11.9205V11.9832C50.8767 14.1791 51.1277 14.932 51.0022 16.5005V24.8448H63.9893V16.4377C64.1775 15.3711 64.7422 14.4928 64.7422 14.4928C64.7422 14.4928 66.0597 12.4851 66.8753 11.3558C69.0084 8.2816 71.3925 4.83093 73.2747 2.00766C73.8394 1.443 73.7139 0.376436 72.8983 0.188218C72.5846 0.0627386 72.4591 0.0627386 72.0827 0.0627386C72.0827 0.0627386 70.8279 0.125478 70.2005 0.0627386Z" fill="black"/>
<path d="M81.0588 24.9703L91.3481 24.9703C95.0497 24.9075 101.198 24.9075 101.198 24.9075C108.35 24.5311 111.111 22.0215 111.362 17.2533C111.613 14.1791 109.605 11.6068 107.598 10.9167C107.158 10.7284 106.782 10.5402 106.406 10.4147C107.598 9.59913 108.601 8.46982 108.852 6.96407C109.166 3.19971 107.221 1.12931 103.457 0.501914C100.006 0.0627385 94.6105 0.313697 91.2226 0.188218L81.498 0.188218V0.250957L80.9333 0.250957C80.9333 8.40708 80.9961 16.5632 81.0588 24.7193V24.9703ZM96.6809 10.7912C93.7322 10.5402 93.6067 7.90516 93.5439 5.8975C93.6067 5.77202 93.6067 5.77202 93.6067 5.64654C93.9204 4.07806 94.3596 2.94875 95.9908 2.76053L96.5554 2.63505C98.6886 2.63505 99.8179 3.51341 100.445 5.27011C101.198 7.40325 100.069 11.0421 96.8064 10.7912H96.6809ZM96.6182 22.147C94.1713 22.0215 93.4185 20.2648 93.3557 17.818C93.4185 15.6221 94.9869 13.8654 96.8691 13.6144C100.257 13.489 101.01 17.0024 101.01 17.0024C101.512 19.3865 100.508 22.147 97.1201 22.2097C97.1201 22.2097 97.1201 22.147 96.6182 22.147Z" fill="black"/>
<path d="M143.457 20.704C142.83 19.8256 143.457 19.3237 143.771 19.0728C144.586 18.5709 145.026 18.1317 145.59 17.7552C147.033 16.3122 150.107 13.3007 149.292 8.15612C148.664 4.26628 144.022 0.125478 138.752 0.250957C131.85 0.250957 125.514 0.188218 118.612 0.125478V24.7821H126.204L126.266 24.7193C126.266 24.7193 126.266 24.7821 126.204 24.7821H131.662L131.599 23.3391C131.976 20.3276 135.991 20.5158 135.991 20.5158C138.124 20.3903 139.63 21.5823 140.257 22.3352C140.383 22.5234 141.01 23.1508 141.198 23.4018C141.512 23.7782 142.14 24.7193 142.14 24.7193H144.586C145.527 24.7193 146.97 24.9075 146.531 24.2801L143.457 20.704ZM134.611 18.4454C132.352 18.2572 131.725 15.9358 131.725 14.4928C131.599 12.8616 131.85 6.83859 131.85 6.83859C132.038 5.14463 132.917 3.70162 135.113 3.51341C137.936 3.63888 140.195 8.09338 140.006 10.4147C140.069 13.6772 137.622 18.3199 134.611 18.4454Z" fill="black"/>
<path d="M168.285 0.0627386L156.176 0.0627386V24.5938H168.285V0.0627386Z" fill="black"/>
<path d="M181.199 0.188218C180.948 0.250957 180.635 0.250957 180.321 0.250957L177.309 0.250957V24.5938H184.273C190.736 24.4056 197.511 25.284 203.534 22.5862C208.491 20.453 212.506 15.3084 211.314 9.97556C210.248 4.57998 204.538 1.00383 199.017 0.376436C193.057 0.125478 187.159 0.250957 181.199 0.188218ZM179.568 0.188218H179.631C179.631 0.188218 179.631 0.188218 179.568 0.250957V0.188218ZM199.707 10.9167C199.958 14.3046 198.578 20.704 193.998 21.2059C191.426 21.2687 189.92 18.5709 189.669 15.7476C189.544 12.1714 189.544 9.22269 189.732 7.90516C189.983 5.45833 190.045 3.26245 192.931 2.57231C195.002 2.19588 199.268 4.89367 199.707 10.9167Z" fill="black"/>
<path d="M12.4695 33.2179H0.36084L0.36084 57.749H12.4695L12.4695 33.2179Z" fill="black"/>
<path d="M25.3841 33.3434C25.1331 33.4061 24.8194 33.4061 24.5057 33.4061H21.4942V57.749H28.4583C34.9205 57.5608 41.6963 58.4391 47.7193 55.7413C52.6757 53.6082 56.691 48.4636 55.499 43.1307C54.4324 37.7351 48.7231 34.159 43.2021 33.5316C37.2418 33.2806 31.3443 33.4061 25.3841 33.3434ZM23.7528 33.3434H23.8156C23.8156 33.3434 23.8156 33.3434 23.7528 33.4061V33.3434ZM43.8922 44.0718C44.1431 47.4597 42.7629 53.8592 38.1829 54.3611C35.6106 54.4238 34.1048 51.726 33.8539 48.9028C33.7284 45.3266 33.7284 42.3779 33.9166 41.0603C34.1676 38.6135 34.2303 36.4176 37.1163 35.7275C39.1867 35.351 43.453 38.0488 43.8922 44.0718Z" fill="black"/>
<path d="M60.5255 33.2179V38.488H60.4627V51.4123H60.5255V57.8117H87.4407C87.3779 56.9334 87.5034 56.8079 87.4407 55.2394C86.1232 55.2394 78.9081 55.1767 75.9594 55.114C74.5791 55.0512 74.0772 54.4866 73.9517 53.5455V47.8989C74.0145 47.2088 74.5791 46.6441 75.2692 46.5814C76.3358 46.4559 77.4651 46.5187 78.5317 46.4559C81.4177 46.4559 84.3665 46.3932 87.2525 46.3932C87.3152 45.5148 87.2525 44.511 87.2525 43.5699C87.127 43.3817 86.6878 43.5699 86.4996 43.5072C82.8607 43.5072 79.2218 43.4444 75.5829 43.3817C74.8928 43.3817 74.1399 42.9425 74.0145 42.1896C73.9517 42.1269 73.9517 42.0014 73.9517 41.9387V38.739C73.889 37.1705 74.1399 35.9784 76.0221 35.9157C78.9709 35.853 86.1859 35.7902 87.5034 35.7902C87.5662 34.2217 87.4407 34.0963 87.5034 33.2179L60.5255 33.2179Z" fill="black"/>
<path d="M123.559 32.9042H119.042V49.0282C118.916 49.5301 118.414 49.2792 118.101 49.0282C114.211 42.9425 110.07 36.2921 108.125 33.2179H95.3262V57.4353L95.389 57.749L99.8435 57.749V43.2562C99.969 42.8798 100.283 42.0014 101.036 43.0052C103.169 46.7696 105.553 50.7849 110.195 57.8117L123.559 57.749C123.496 57.6863 123.622 57.4353 123.559 57.3098V42.2524C123.496 41.9387 123.622 39.6173 123.559 39.5546V32.9042Z" fill="black"/>
<path d="M131.783 33.0924C131.783 34.0335 131.783 34.41 131.72 35.853C133.038 35.853 135.61 35.7902 138.559 35.853C140.002 35.9157 140.441 36.6058 140.566 37.6097V57.749H142.135V57.8117H154.243V43.3189C154.306 43.3189 154.306 43.3189 154.369 43.2562L154.243 43.1307L154.306 42.2524C154.243 42.1896 154.243 42.1896 154.243 42.1269V37.6724C154.369 36.6686 154.871 35.9784 156.314 35.9157C159.263 35.853 161.772 35.853 163.09 35.9157C163.09 34.41 163.027 34.0335 163.09 33.1552C158.823 33.1552 155.561 33.1552 152.361 33.1552C144.456 33.1552 140.19 33.0924 131.783 33.0924Z" fill="black"/>
<path d="M182.675 33.2179H170.566V57.749H182.675V33.2179Z" fill="black"/>
<path d="M191.888 33.0924C191.888 34.0335 191.888 34.41 191.825 35.853C193.142 35.853 195.715 35.7902 198.663 35.853C200.106 35.9157 200.546 36.6058 200.671 37.6097V57.749H202.24V57.8117H214.348V43.3189C214.411 43.3189 214.411 43.3189 214.474 43.2562L214.348 43.1307L214.411 42.2524C214.348 42.1896 214.348 42.1896 214.348 42.1269V37.6724C214.474 36.6686 214.976 35.9784 216.419 35.9157C219.367 35.853 221.877 35.853 223.195 35.9157C223.195 34.41 223.132 34.0335 223.195 33.1552C218.928 33.1552 215.666 33.1552 212.466 33.1552C204.561 33.1552 200.295 33.0924 191.888 33.0924Z" fill="black"/>
<path d="M258.778 33.2179C257.021 33.2179 256.833 34.5354 255.892 35.9784C254.575 38.2371 252.881 41.1858 251.814 42.1269C250.81 43.0053 249.869 42.4406 248.991 41.0603C247.297 38.6135 245.54 35.7902 244.16 33.4061L230.671 33.5316C233.306 37.3587 235.69 41.2485 238.262 45.0757V45.1384C239.454 47.3343 239.705 48.0871 239.58 49.6556V58H252.567V49.5929C252.755 48.5263 253.32 47.648 253.32 47.648C253.32 47.648 254.637 45.6403 255.453 44.511C257.586 41.4368 259.97 37.9861 261.852 35.1628C262.417 34.5982 262.291 33.5316 261.476 33.3434C261.162 33.2179 261.037 33.2179 260.66 33.2179C260.66 33.2179 259.405 33.2806 258.778 33.2179Z" fill="black"/>
<path d="M285.779 19.6473C285.779 15.3325 282.281 11.8347 277.966 11.8347C273.651 11.8347 270.153 15.3325 270.153 19.6473L270.153 21.499C270.153 22.7906 269.913 24.0709 269.445 25.2746L268.696 27.2006C268.368 28.0453 269.2 28.8775 270.044 28.549L271.023 28.1683C272.227 27.7002 273.507 27.46 274.799 27.46L277.966 27.46C282.281 27.46 285.779 23.9622 285.779 19.6473Z" fill="black"/>
</svg>
