<svg width="22" height="184" viewBox="0 0 22 184" fill="none" xmlns="http://www.w3.org/2000/svg">
<g id="hybrid">
<path d="M0.108887 155.797L0.108887 166.409C1.85031 166.409 6.47595 166.246 8.59831 166.463C10.0676 166.518 10.1221 168.314 10.1221 170.164L10.1221 170.708C10.0676 172.123 9.79554 173.32 8.65273 173.32C6.53037 173.592 1.85031 173.375 0.108887 173.429L0.108887 183.986L21.4957 183.986L21.4957 173.538C19.2645 173.429 15.2919 173.538 13.8226 173.211C12.8974 172.939 12.6253 172.286 12.5165 171.416C12.5165 171.089 12.5165 170.654 12.5165 170.164C12.5165 170.001 12.5165 169.837 12.5709 169.674L12.5709 168.368C12.5709 168.368 12.5165 168.368 12.5165 168.423C12.5709 167.497 12.8974 166.899 13.8226 166.627C15.2919 166.246 19.2645 166.409 21.4957 166.246L21.4957 155.797L0.108887 155.797Z" fill="black"/>
<path d="M0.163306 123.095C0.163306 124.619 1.30611 124.782 2.55776 125.599C4.51686 126.742 7.07457 128.211 7.89086 129.136C8.65273 130.007 8.16296 130.823 6.96573 131.585C4.84337 133.054 2.3945 134.578 0.326564 135.775L0.435403 147.475C3.75499 145.19 7.12899 143.122 10.4486 140.891L10.503 140.891C12.4077 139.857 13.0607 139.639 14.4212 139.748L21.659 139.748L21.659 128.483L14.3668 128.483C13.4416 128.32 12.6798 127.83 12.6798 127.83C12.6798 127.83 10.9383 126.687 9.9588 125.98C7.29225 124.129 4.29918 122.061 1.85031 120.429C1.36053 119.939 0.435404 120.048 0.272145 120.755C0.163306 121.028 0.163306 121.136 0.163306 121.463C0.163306 121.463 0.217726 122.551 0.163306 123.095Z" fill="black"/>
<path d="M21.7678 113.677L21.7678 104.752C21.7134 101.542 21.7134 96.2085 21.7134 96.2085C21.3869 90.0046 19.2101 87.6102 15.0742 87.3925C12.4077 87.1748 10.1765 88.9163 9.57786 90.6577C9.4146 91.0386 9.25134 91.3651 9.1425 91.6916C8.43505 90.6577 7.4555 89.787 6.14944 89.5693C2.88428 89.2972 1.08844 90.9842 0.544242 94.2494C0.163306 97.2424 0.380984 101.922 0.272145 104.861L0.272145 113.296L0.326565 113.296L0.326565 113.786C7.40108 113.786 14.4756 113.731 21.5501 113.677L21.7678 113.677ZM9.46902 100.127C9.25134 102.684 6.96573 102.793 5.22431 102.848C5.11547 102.793 5.11547 102.793 5.00663 102.793C3.64615 102.521 2.6666 102.14 2.50334 100.725L2.3945 100.235C2.3945 98.3852 3.15637 97.4057 4.68012 96.8615C6.53038 96.2085 9.6867 97.188 9.46902 100.018L9.46902 100.127ZM19.3189 100.181C19.2101 102.303 17.6863 102.956 15.564 103.011C13.6593 102.956 12.1356 101.596 11.9179 99.9634C11.8091 97.0247 14.8565 96.3717 14.8565 96.3717C16.9245 95.9363 19.3189 96.8071 19.3733 99.7457C19.3733 99.7457 19.3189 99.7457 19.3189 100.181Z" fill="black"/>
<path d="M18.0673 59.5536C17.3054 60.0978 16.8701 59.5536 16.6524 59.2815C16.217 58.574 15.8361 58.1931 15.5096 57.7033C14.2579 56.4517 11.6458 53.7851 7.18341 54.4926C3.80941 55.0368 0.217726 59.0638 0.326565 63.6351C0.326565 69.6212 0.272146 75.1175 0.217726 81.1037L21.6045 81.1037L21.6045 74.5189L21.5501 74.4645C21.5501 74.4645 21.6045 74.4645 21.6045 74.5189L21.6045 69.7844L20.3529 69.8389C17.7408 69.5123 17.904 66.0295 17.904 66.0295C17.7952 64.1792 18.8292 62.8732 19.4822 62.329C19.6454 62.2201 20.1896 61.6759 20.4073 61.5127C20.7338 61.2406 21.5501 60.6964 21.5501 60.6964L21.5501 58.574C21.5501 57.7577 21.7134 56.5061 21.1692 56.887L18.0673 59.5536ZM16.1082 67.2267C15.9449 69.1858 13.9314 69.73 12.6798 69.73C11.2649 69.8389 6.0406 69.6212 6.0406 69.6212C4.57128 69.4579 3.31963 68.6961 3.15637 66.7914C3.26521 64.3425 7.12899 62.3834 9.14251 62.5467C11.9723 62.4922 15.9993 64.6146 16.1082 67.2267Z" fill="black"/>
<path d="M0.163307 38.0184L0.163307 48.5213L21.4413 48.5213L21.4413 38.0184L0.163307 38.0184Z" fill="black"/>
<path d="M0.272146 26.8165C0.326566 27.0342 0.326566 27.3063 0.326566 27.5784L0.326566 30.1905L21.4413 30.1905L21.4413 24.1499C21.278 18.5448 22.0399 12.6675 19.6999 7.44321C17.8496 3.14407 13.3872 -0.338775 8.76157 0.695206C4.0815 1.62033 0.979598 6.57249 0.435405 11.3614C0.217727 16.5312 0.326566 21.6467 0.272146 26.8165ZM0.272146 28.2314L0.272146 28.177C0.272146 28.177 0.272146 28.177 0.326566 28.2314L0.272146 28.2314ZM9.57786 10.7628C12.5165 10.5451 18.0673 11.7423 18.5026 15.715C18.5571 17.9462 16.217 19.2522 13.7682 19.4699C10.6662 19.5787 8.10854 19.5787 6.96573 19.4155C4.84337 19.1978 2.9387 19.1434 2.34008 16.6401C2.01357 14.8443 4.3536 11.1437 9.57786 10.7628Z" fill="black"/>
</g>
</svg>
