<svg width="178" height="22" viewBox="0 0 178 22" fill="none" xmlns="http://www.w3.org/2000/svg">
<path d="M27.3317 0.934692L17.0427 0.934692C17.0427 2.62313 17.201 7.10806 16.99 9.16585C16.9372 10.5905 15.196 10.6432 13.402 10.6432H12.8744C11.5025 10.5905 10.3417 10.3267 10.3417 9.21861C10.0779 7.16082 10.2889 2.62313 10.2362 0.934692L0 0.934692L0 21.6709H10.1307C10.2362 19.5076 10.1307 15.6558 10.4472 14.2312C10.7111 13.3342 11.3442 13.0704 12.1884 12.9648C12.505 12.9648 12.9271 12.9648 13.402 12.9648C13.5603 12.9648 13.7186 12.9648 13.8769 13.0176L15.1432 13.0176C15.1432 13.0176 15.1432 12.9648 15.0905 12.9648C15.9874 13.0176 16.5678 13.3342 16.8317 14.2312C17.201 15.6558 17.0427 19.5076 17.201 21.6709H27.3317V0.934692Z" fill="black"/>
<path d="M59.0386 0.987456C57.5612 0.987456 57.4029 2.0955 56.6115 3.30906C55.5034 5.20856 54.0788 7.68846 53.1818 8.47992C52.3376 9.21861 51.5461 8.74374 50.8074 7.58293C49.3828 5.52514 47.9054 3.15077 46.7446 1.14575L35.4004 1.25128C37.6165 4.46987 39.6215 7.74122 41.7848 10.9598V11.0126C42.7873 12.8593 42.9984 13.4925 42.8929 14.8116V21.8292H53.815V14.7588C53.9733 13.8618 54.4481 13.1231 54.4481 13.1231C54.4481 13.1231 55.5562 11.4347 56.2421 10.4849C58.0361 7.89952 60.0411 4.99751 61.624 2.62313C62.0989 2.14826 61.9934 1.25128 61.3074 1.09298C61.0436 0.987456 60.9381 0.987456 60.6215 0.987456C60.6215 0.987456 59.5662 1.04022 59.0386 0.987456Z" fill="black"/>
<path d="M68.1704 21.9347H76.8237C79.9368 21.8819 85.1076 21.8819 85.1076 21.8819C91.1227 21.5653 93.4443 19.4548 93.6554 15.4447C93.8664 12.8593 92.178 10.696 90.4895 10.1156C90.1202 9.95731 89.8036 9.79901 89.487 9.69349C90.4895 9.00756 91.3338 8.05781 91.5448 6.79148C91.8086 3.62565 90.173 1.88444 87.0071 1.3568C84.1051 0.987456 79.5674 1.19851 76.7182 1.09298L68.5398 1.09298V1.14575H68.0649C68.0649 8.00504 68.1177 14.8643 68.1704 21.7236V21.9347ZM81.3086 10.0101C78.8287 9.79901 78.7232 7.58293 78.6704 5.89449C78.7232 5.78896 78.7232 5.78896 78.7232 5.68344C78.987 4.36434 79.3564 3.41459 80.7282 3.2563L81.2031 3.15077C82.9971 3.15077 83.9468 3.88947 84.4745 5.36685C85.1076 7.16082 84.1579 10.2211 81.4142 10.0101H81.3086ZM81.2559 19.5603C79.1981 19.4548 78.5649 17.9774 78.5122 15.9196C78.5649 14.0729 79.884 12.5955 81.4669 12.3844C84.3162 12.2789 84.9493 15.2337 84.9493 15.2337C85.3714 17.2387 84.5272 19.5603 81.678 19.6131C81.678 19.6131 81.678 19.5603 81.2559 19.5603Z" fill="black"/>
<path d="M120.647 18.3468C120.12 17.6081 120.647 17.1859 120.911 16.9749C121.597 16.5528 121.966 16.1834 122.441 15.8669C123.655 14.6533 126.24 12.1206 125.554 7.79399C125.027 4.52263 121.122 1.04022 116.69 1.14575C110.886 1.14575 105.557 1.09298 99.7529 1.04022V21.7764H106.137L106.19 21.7236C106.19 21.7236 106.19 21.7764 106.137 21.7764H110.728L110.675 20.5628C110.992 18.0302 114.368 18.1885 114.368 18.1885C116.162 18.0829 117.429 19.0854 117.956 19.7186C118.062 19.8769 118.59 20.4045 118.748 20.6156C119.012 20.9322 119.539 21.7236 119.539 21.7236H121.597C122.389 21.7236 123.602 21.8819 123.233 21.3543L120.647 18.3468ZM113.208 16.4473C111.308 16.289 110.781 14.3367 110.781 13.1231C110.675 11.7513 110.886 6.68595 110.886 6.68595C111.044 5.26132 111.783 4.04776 113.63 3.88947C116.004 3.99499 117.904 7.74122 117.745 9.69349C117.798 12.4372 115.74 16.3417 113.208 16.4473Z" fill="black"/>
<path d="M141.527 0.987456L131.344 0.987456V21.6181H141.527V0.987456Z" fill="black"/>
<path d="M152.389 1.09298C152.177 1.14575 151.914 1.14575 151.65 1.14575L149.117 1.14575V21.6181H154.974C160.409 21.4598 166.107 22.1985 171.172 19.9297C175.341 18.1357 178.718 13.8091 177.715 9.32414C176.818 4.78645 172.017 1.77891 167.373 1.25128C162.361 1.04022 157.401 1.14575 152.389 1.09298ZM151.017 1.09298H151.069C151.069 1.09298 151.069 1.09298 151.017 1.14575V1.09298ZM167.954 10.1156C168.165 12.9648 167.004 18.3468 163.152 18.7689C160.989 18.8216 159.723 16.5528 159.512 14.1784C159.406 11.1709 159.406 8.69097 159.564 7.58293C159.775 5.52514 159.828 3.67841 162.255 3.09801C163.997 2.78143 167.584 5.05027 167.954 10.1156Z" fill="black"/>
</svg>
