<svg width="220" height="22" viewBox="0 0 220 22" fill="none" xmlns="http://www.w3.org/2000/svg">
<path d="M10.1325 1.07793H0V21.6054H10.1325V1.07793Z" fill="black"/>
<path d="M20.9393 1.18293C20.7293 1.23543 20.4668 1.23543 20.2043 1.23543H17.6843V21.6054H23.5118C28.9193 21.4479 34.5893 22.1829 39.6293 19.9254C43.7768 18.1404 47.1368 13.8354 46.1393 9.37293C45.2468 4.85793 40.4693 1.86543 35.8493 1.34043C30.8618 1.13043 25.9268 1.23543 20.9393 1.18293ZM19.5743 1.18293H19.6268C19.6268 1.18293 19.6268 1.18293 19.5743 1.23543V1.18293ZM36.4268 10.1604C36.6368 12.9954 35.4818 18.3504 31.6493 18.7704C29.4968 18.8229 28.2368 16.5654 28.0268 14.2029C27.9218 11.2104 27.9218 8.74293 28.0793 7.64043C28.2893 5.59293 28.3418 3.75543 30.7568 3.17793C32.4893 2.86293 36.0593 5.12043 36.4268 10.1604Z" fill="black"/>
<path d="M50.3454 1.07793V5.48793H50.2929V16.3029H50.3454V21.6579H72.8679C72.8154 20.9229 72.9204 20.8179 72.8679 19.5054C71.7654 19.5054 65.728 19.4529 63.2605 19.4004C62.1055 19.3479 61.6855 18.8754 61.5805 18.0879V13.3629C61.633 12.7854 62.1054 12.3129 62.6829 12.2604C63.5754 12.1554 64.5204 12.2079 65.4129 12.1554C67.8279 12.1554 70.2954 12.1029 72.7104 12.1029C72.7629 11.3679 72.7104 10.5279 72.7104 9.74043C72.6054 9.58293 72.238 9.74043 72.0805 9.68793C69.0355 9.68793 65.9905 9.63543 62.9455 9.58293C62.368 9.58293 61.738 9.21543 61.633 8.58543C61.5805 8.53293 61.5805 8.42793 61.5805 8.37543V5.69793C61.528 4.38543 61.738 3.38793 63.313 3.33543C65.7804 3.28293 71.8179 3.23043 72.9204 3.23043C72.9729 1.91793 72.8679 1.81293 72.9204 1.07793H50.3454Z" fill="black"/>
<path d="M103.092 0.81543H99.3115V14.3079C99.2065 14.7279 98.7865 14.5179 98.524 14.3079C95.269 9.21543 91.804 3.65043 90.1765 1.07793H79.4665V21.3429L79.519 21.6054H83.2465V9.47793C83.3515 9.16293 83.614 8.42793 84.244 9.26793C86.029 12.4179 88.024 15.7779 91.909 21.6579L103.092 21.6054C103.039 21.5529 103.144 21.3429 103.092 21.2379V8.63793C103.039 8.37543 103.144 6.43293 103.092 6.38043V0.81543Z" fill="black"/>
<path d="M109.973 0.97293C109.973 1.76043 109.973 2.07543 109.921 3.28293C111.023 3.28293 113.176 3.23043 115.643 3.28293C116.851 3.33543 117.218 3.91293 117.323 4.75293V21.6054H118.636V21.6579H128.768V9.53043C128.821 9.53043 128.821 9.53043 128.873 9.47793L128.768 9.37293L128.821 8.63793C128.768 8.58543 128.768 8.58543 128.768 8.53293V4.80543C128.873 3.96543 129.293 3.38793 130.501 3.33543C132.968 3.28293 135.068 3.28293 136.171 3.33543C136.171 2.07543 136.118 1.76043 136.171 1.02543C132.601 1.02543 129.871 1.02543 127.193 1.02543C120.578 1.02543 117.008 0.97293 109.973 0.97293Z" fill="black"/>
<path d="M152.559 1.07793H142.427V21.6054H152.559V1.07793Z" fill="black"/>
<path d="M160.269 0.97293C160.269 1.76043 160.269 2.07543 160.216 3.28293C161.319 3.28293 163.471 3.23043 165.939 3.28293C167.146 3.33543 167.514 3.91293 167.619 4.75293V21.6054H168.931V21.6579H179.064V9.53043C179.116 9.53043 179.116 9.53043 179.169 9.47793L179.064 9.37293L179.116 8.63793C179.064 8.58543 179.064 8.58543 179.064 8.53293V4.80543C179.169 3.96543 179.589 3.38793 180.796 3.33543C183.264 3.28293 185.364 3.28293 186.466 3.33543C186.466 2.07543 186.414 1.76043 186.466 1.02543C182.896 1.02543 180.166 1.02543 177.489 1.02543C170.874 1.02543 167.304 0.97293 160.269 0.97293Z" fill="black"/>
<path d="M216.242 1.07793C214.772 1.07793 214.615 2.18043 213.827 3.38793C212.725 5.27793 211.307 7.74543 210.415 8.53293C209.575 9.26793 208.787 8.79543 208.052 7.64043C206.635 5.59293 205.165 3.23043 204.01 1.23543L192.722 1.34043C194.927 4.54293 196.922 7.79793 199.075 11.0004V11.0529C200.072 12.8904 200.282 13.5204 200.177 14.8329V21.8154H211.045V14.7804C211.202 13.8879 211.675 13.1529 211.675 13.1529C211.675 13.1529 212.777 11.4729 213.46 10.5279C215.245 7.95543 217.24 5.06793 218.815 2.70543C219.287 2.23293 219.182 1.34043 218.5 1.18293C218.237 1.07793 218.132 1.07793 217.817 1.07793C217.817 1.07793 216.767 1.13043 216.242 1.07793Z" fill="black"/>
</svg>
