<svg width="260" height="24" viewBox="0 0 260 24" fill="none" xmlns="http://www.w3.org/2000/svg">
<g id="identity">
<g id="identity_2">
<path d="M42.9248 1.54761L32.4219 1.54761V22.8256H42.9248V1.54761Z" fill="black"/>
<path d="M54.1267 1.65645C53.909 1.71087 53.6369 1.71087 53.3648 1.71087L50.7527 1.71087V22.8256H56.7933C62.3985 22.6623 68.2758 23.4242 73.5 21.0842C77.7992 19.2339 81.282 14.7715 80.248 10.1459C79.3229 5.46581 74.3707 2.3639 69.5818 1.81971C64.412 1.60203 59.2966 1.71087 54.1267 1.65645ZM52.7118 1.65645H52.7662C52.7662 1.65645 52.7662 1.65645 52.7118 1.71087V1.65645ZM70.1804 10.9622C70.3981 13.9008 69.2009 19.4516 65.2283 19.8869C62.9971 19.9414 61.691 17.6013 61.4733 15.1525C61.3645 12.0506 61.3645 9.49284 61.5278 8.35003C61.7454 6.22768 61.7998 4.323 64.3031 3.72439C66.099 3.39787 69.7995 5.7379 70.1804 10.9622Z" fill="black"/>
<path d="M84.608 1.54761V6.11884H84.5535V17.3292H84.608V22.88H107.954C107.899 22.1181 108.008 22.0093 107.954 20.6488C106.811 20.6488 100.553 20.5944 97.9951 20.54C96.7979 20.4856 96.3625 19.9958 96.2537 19.1795V14.2817C96.3081 13.6831 96.7979 13.1934 97.3965 13.1389C98.3216 13.0301 99.3012 13.0845 100.226 13.0301C102.73 13.0301 105.287 12.9757 107.791 12.9757C107.845 12.2138 107.791 11.3431 107.791 10.5268C107.682 10.3636 107.301 10.5268 107.138 10.4724C103.981 10.4724 100.825 10.418 97.6686 10.3636C97.07 10.3636 96.417 9.98262 96.3081 9.32958C96.2537 9.27516 96.2537 9.16633 96.2537 9.11191V6.33652C96.1993 4.97603 96.417 3.94206 98.0495 3.88764C100.607 3.83322 106.865 3.77881 108.008 3.77881C108.063 2.41832 107.954 2.30948 108.008 1.54761L84.608 1.54761Z" fill="black"/>
<path d="M139.282 1.27551L135.364 1.27551V15.2613C135.255 15.6967 134.82 15.479 134.548 15.2613C131.174 9.98262 127.582 4.21416 125.895 1.54761L114.794 1.54761V22.5535L114.848 22.8256H118.712V10.2547C118.821 9.9282 119.093 9.16633 119.746 10.037C121.596 13.3022 123.664 16.785 127.691 22.88L139.282 22.8256C139.228 22.7712 139.337 22.5535 139.282 22.4447V9.384C139.228 9.11191 139.337 7.09839 139.282 7.04397V1.27551Z" fill="black"/>
<path d="M146.416 1.43877C146.416 2.25506 146.416 2.58158 146.361 3.83322C147.504 3.83322 149.735 3.77881 152.293 3.83322C153.545 3.88764 153.926 4.48626 154.034 5.35697V22.8256H155.395V22.88H165.898V10.3091C165.952 10.3091 165.952 10.3091 166.007 10.2547L165.898 10.1459L165.952 9.384C165.898 9.32958 165.898 9.32958 165.898 9.27517V5.41139C166.007 4.54068 166.442 3.94206 167.694 3.88764C170.251 3.83322 172.428 3.83322 173.571 3.88764C173.571 2.58158 173.516 2.25506 173.571 1.49319C169.87 1.49319 167.041 1.49319 164.265 1.49319C157.408 1.49319 153.708 1.43877 146.416 1.43877Z" fill="black"/>
<path d="M190.559 1.54761L180.056 1.54761V22.8256H190.559V1.54761Z" fill="black"/>
<path d="M198.55 1.43877C198.55 2.25506 198.55 2.58158 198.495 3.83322C199.638 3.83322 201.869 3.77881 204.427 3.83322C205.679 3.88764 206.06 4.48626 206.169 5.35697V22.8256H207.529V22.88H218.032V10.3091C218.086 10.3091 218.086 10.3091 218.141 10.2547L218.032 10.1459L218.086 9.384C218.032 9.32958 218.032 9.32958 218.032 9.27517V5.41139C218.141 4.54068 218.576 3.94206 219.828 3.88764C222.386 3.83322 224.562 3.83322 225.705 3.88764C225.705 2.58158 225.651 2.25506 225.705 1.49319C222.005 1.49319 219.175 1.49319 216.399 1.49319C209.543 1.49319 205.842 1.43877 198.55 1.43877Z" fill="black"/>
<path d="M256.57 1.54761C255.046 1.54761 254.883 2.69042 254.067 3.94206C252.924 5.90116 251.454 8.45887 250.529 9.27517C249.659 10.037 248.842 9.54726 248.08 8.35003C246.611 6.22768 245.087 3.77881 243.89 1.71087L232.19 1.81971C234.476 5.13929 236.544 8.51329 238.775 11.8329V11.8873C239.809 13.792 240.026 14.445 239.918 15.8055V23.0433H251.182V15.7511C251.346 14.8259 251.835 14.0641 251.835 14.0641C251.835 14.0641 252.978 12.3227 253.686 11.3431C255.536 8.67655 257.604 5.68348 259.236 3.23461C259.726 2.74484 259.617 1.81971 258.91 1.65645C258.638 1.54761 258.529 1.54761 258.202 1.54761C258.202 1.54761 257.114 1.60203 256.57 1.54761Z" fill="black"/>
</g>
<path id="drop" d="M6.88552 0C3.14289 -2.43724e-06 0.108887 3.034 0.108887 6.77663C0.108888 10.5193 3.14289 13.5533 6.88552 13.5533H8.49167C9.61194 13.5533 10.7224 13.7616 11.7666 14.1676L13.4371 14.8173C14.1698 15.1022 14.8917 14.3804 14.6068 13.6477L14.2765 12.7986C13.8705 11.7545 13.6622 10.644 13.6622 9.52368L13.6622 6.77663C13.6622 3.034 10.6282 -1.21862e-06 6.88552 0Z" fill="black"/>
</g>
</svg>
