<svg width="36" height="36" viewBox="0 0 36 36" fill="none" xmlns="http://www.w3.org/2000/svg">
<rect width="36" height="36" rx="18" fill="black"/>
<path fill-rule="evenodd" clip-rule="evenodd" d="M13.5062 23.345H9V7H17.8308C18.5951 7 19.3253 7.10217 20.0215 7.30648C20.7252 7.51079 21.3458 7.82103 21.883 8.23723C22.4203 8.64585 22.8478 9.1642 23.1657 9.79226C23.491 10.4128 23.6537 11.143 23.6537 11.9829C23.6537 12.5127 23.5781 13.0121 23.4267 13.4813C23.2754 13.9428 23.0635 14.3666 22.7911 14.7525C22.5262 15.1385 22.2122 15.4865 21.849 15.7968C21.4857 16.107 21.0885 16.3681 20.6572 16.58C20.2258 16.7919 19.768 16.9546 19.2837 17.068C18.807 17.1816 18.3227 17.2383 17.8308 17.2383H13.5062V23.345ZM19.0908 11.9829C19.0908 10.9311 18.8221 10.1063 18.2849 9.5085C17.7551 8.90312 16.953 8.60045 15.8785 8.60045H13.5062V15.6946H15.8785C16.4536 15.6946 16.9417 15.6038 17.3428 15.4222C17.7514 15.233 18.0843 14.972 18.3416 14.639C18.5989 14.3061 18.7881 13.9164 18.9091 13.4699C19.0302 13.0159 19.0908 12.5202 19.0908 11.9829ZM23.9307 29.1565H27L22.9682 23.3722L27 18.6685H24.8751L22.1691 22.2281L19.681 18.6685H16.6118L20.5618 24.3257L16.6118 29.1565H18.7366L21.3609 25.4789L23.9307 29.1565Z" fill="white"/>
</svg>
