<svg width="90" height="90" viewBox="0 0 90 90" fill="none" xmlns="http://www.w3.org/2000/svg">
<g id="logo-big">
<rect id="background" width="90" height="90" fill="black"/>
<rect id="border" x="15" y="5" width="70" height="70" fill="white"/>
<path id="logo" fill-rule="evenodd" clip-rule="evenodd" d="M53.7309 15.5394C52.3136 15.1798 50.8363 15 49.2991 15H29V52.5716H39.3583V38.5344H49.2991C50.4297 38.5344 51.5429 38.4039 52.6388 38.143C53.752 37.8821 54.8044 37.5082 55.7958 37.0211C56.7873 36.5341 57.7005 35.934 58.5354 35.2208C59.3703 34.5077 60.0922 33.7075 60.701 32.8204C61.3272 31.9333 61.8142 30.9592 62.1621 29.8982C62.51 28.8197 62.684 27.6717 62.684 26.4541C62.684 26.3334 62.6825 26.2137 62.6796 26.095C62.6357 24.3145 62.2632 22.7557 61.562 21.4185C61.5164 21.3282 61.4697 21.239 61.4221 21.1507C60.7076 19.8268 59.7715 18.7246 58.6137 17.844C58.4593 17.7244 58.302 17.6086 58.1416 17.4966C57.0191 16.7128 55.7501 16.1154 54.3347 15.7045C54.1347 15.6458 53.9334 15.5907 53.7309 15.5394ZM44.8113 18.6789C47.2813 18.6789 49.1251 19.3746 50.3427 20.7662C51.5777 22.1403 52.1952 24.0363 52.1952 26.4541C52.1952 27.6891 52.0561 28.8284 51.7777 29.8721C51.7603 29.9362 51.7423 29.9998 51.7237 30.063C51.4445 31.0098 51.0276 31.842 50.4732 32.5595C50.3992 32.6551 50.3226 32.7482 50.2432 32.8387C49.6877 33.4723 48.999 33.9793 48.1772 34.3598C48.0619 34.412 47.9436 34.4609 47.8221 34.5066C46.9716 34.8262 45.9681 34.986 44.8113 34.986H39.3583V18.6789H44.8113ZM61.108 52.6342L70.3759 65.9303H63.3206L57.4135 57.4768L51.3812 65.9303H46.4968L55.5767 54.8259L46.4968 41.8219H53.5519L59.2712 50.0042L65.4914 41.8219H70.3759L61.108 52.6342Z" fill="black"/>
</g>
</svg>
