<svg width="355" height="355" viewBox="0 0 355 355" fill="none" xmlns="http://www.w3.org/2000/svg">
<path fill-rule="evenodd" clip-rule="evenodd" d="M0 30V60H30H60V30V0H30H0V30ZM86 4V8H82H78V12.5V17H73.5H69V43V69H73.5H78V73.5V78H69H60V73.5V69H38.5H17V73.5V78H12.5H8V73.5V69H4H0V73.5V78H4H8V86.5V95H4H0V99.5V104H4H8V99.5V95H12.5H17V103.5V112H8.5H0V121V130H8.5H17V121V112H21.5H26V116.5V121H30H34V125.5V130H30H26V134V138H21.5H17V147V156H21.5H26V160V164H21.5H17V168.5V173H21.5H26V177.5V182H21.5H17V186.5V191H12.5H8V195V199H12.5H17V208V217H8.5H0V225.5V234H8.5H17V225.5V217H25.5H34V212.5V208H38.5H43V199.5V191H47.5H52V195V199H56H60V195V191H64.5H69V199.5V208H60.5H52V212.5V217H47.5H43V225.5V234H38.5H34V242.5V251H30H26V247V243H21.5H17V247V251H8.5H0V268.5V286H4H8V273V260H12.5H17V255.5V251H21.5H26V260V269H21.5H17V273V277H21.5H26V281.5V286H30H34V281.5V277H30H26V273V269H30H34V264.5V260H38.5H43V264.5V269H51.5H60V264.5V260H64.5H69V268.5V277H73.5H78V268.5V260H82H86V273V286H77.5H69V290.5V295H73.5H78V299V303H73.5H69V320.5V338H73.5H78V342.5V347H73.5H69V351V355H77.5H86V351V347H95H104V351V355H112.5H121V351V347H125.5H130V338V329H125.5H121V338V347H112.5H104V342.5V338H95H86V333.5V329H95H104V325V321H108H112V316.5V312H108H104V307.5V303H99.5H95V299V295H103.5H112V299V303H116.5H121V312V321H125.5H130V316.5V312H134H138V316.5V321H142.5H147V316.5V312H142.5H138V303.5V295H142.5H147V290.5V286H138.5H130V281.5V277H134H138V273V269H142.5H147V260V251H151.5H156V255.5V260H160H164V255.5V251H160H156V247V243H151.5H147V247V251H142.5H138V260V269H134H130V273V277H125.5H121V281.5V286H112.5H104V281.5V277H108H112V273V269H116.5H121V264.5V260H125.5H130V247V234H134H138V225.5V217H142.5H147V221V225H151.5H156V229.5V234H160H164V238.5V243H168.5H173V247V251H177.5H182V255.5V260H177.5H173V264.5V269H177.5H182V273V277H186.5H191V281.5V286H217H243V290.5V295H238.5H234V299V303H229.5H225V307.5V312H229.5H234V316.5V321H229.5H225V325V329H216.5H208V325V321H203.5H199V316.5V312H190.5H182V299V286H169H156V294.5V303H160H164V299V295H168.5H173V303.5V312H177.5H182V316.5V321H173H164V316.5V312H160H156V316.5V321H160H164V325V329H151H138V338V347H142.5H147V351V355H160H173V351V347H195H217V351V355H230H243V346.5V338H251.5H260V333.5V329H255.5H251V320.5V312H247H243V303.5V295H251.5H260V303.5V312H268.5H277V316.5V321H273H269V325V329H273H277V325V321H281.5H286V338V355H290.5H295V351V347H299H303V351V355H320.5H338V351V347H342.5H347V342.5V338H342.5H338V329.5V321H346.5H355V312V303H351H347V307.5V312H334H321V303.5V295H325H329V290.5V286H333.5H338V290.5V295H342.5H347V290.5V286H351H355V277.5V269H351H347V273V277H338H329V264V251H338H347V255.5V260H351H355V247V234H351H347V229.5V225H351H355V212V199H346.5H338V195V191H346.5H355V182V173H346.5H338V182V191H333.5H329V177.5V164H325H321V155.5V147H316.5H312V142.5V138H320.5H329V142.5V147H333.5H338V142.5V138H333.5H329V134V130H312H295V121V112H290.5H286V103.5V95H290.5H295V90.5V86H290.5H286V77.5V69H281.5H277V73.5V78H268.5H260V73.5V69H255.5H251V60.5V52H255.5H260V56V60H264.5H269V51.5V43H273H277V51.5V60H281.5H286V34V8H281.5H277V4V0H273H269V4V8H251.5H234V4V0H225.5H217V4V8H212.5H208V17V26H195H182V30V34H177.5H173V51.5V69H182H191V73.5V78H177.5H164V82V86H160H156V82V78H151.5H147V73.5V69H142.5H138V64.5V60H142.5H147V56V52H151.5H156V60.5V69H160H164V56V43H160H156V38.5V34H160H164V30V26H160H156V30V34H151.5H147V25.5V17H142.5H138V12.5V8H142.5H147V4V0H129.5H112V8.5V17H108H104V12.5V8H99.5H95V4V0H90.5H86V4ZM156 8.5V17H160H164V12.5V8H173H182V4V0H169H156V8.5ZM295 30V60H325H355V30V0H325H295V30ZM52 30V52H30H8V30V8H30H52V30ZM130 12.5V17H125.5H121V21.5V26H129.5H138V43V60H134H130V56V52H125.5H121V56V60H116.5H112V56V52H108H104V56V60H99.5H95V64.5V69H116.5H138V73.5V78H142.5H147V82V86H151.5H156V95V104H143H130V108V112H134H138V116.5V121H134H130V138.5V156H134H138V147V138H142.5H147V125V112H155.5H164V108V104H168.5H173V99.5V95H168.5H164V90.5V86H168.5H173V90.5V95H177.5H182V90.5V86H195H208V82V78H203.5H199V60.5V43H195H191V38.5V34H204H217V21V8H225.5H234V25.5V43H229.5H225V51.5V60H229.5H234V56V52H238.5H243V47.5V43H247H251V38.5V34H247H243V30V26H247H251V21.5V17H255.5H260V21.5V26H264.5H269V34.5V43H260H251V47.5V52H247H243V60.5V69H247H251V73.5V78H247H243V82V86H238.5H234V90.5V95H229.5H225V103.5V112H229.5H234V121V130H238.5H243V125.5V121H251.5H260V112.5V104H251.5H243V99.5V95H247H251V90.5V86H255.5H260V90.5V95H264.5H269V90.5V86H273H277V90.5V95H273H269V103.5V112H273H277V116.5V121H281.5H286V125.5V130H290.5H295V134V138H299H303V142.5V147H299H295V151.5V156H303.5H312V164.5V173H316.5H321V177.5V182H316.5H312V177.5V173H307.5H303V177.5V182H294.5H286V177.5V173H281.5H277V190.5V208H281.5H286V203.5V199H290.5H295V195V191H303.5H312V195V199H316.5H321V195V191H325H329V195V199H333.5H338V203.5V208H342.5H347V216.5V225H342.5H338V229.5V234H342.5H347V238.5V243H338H329V238.5V234H320.5H312V238.5V243H316.5H321V247V251H316.5H312V247V243H307.5H303V247V251H294.5H286V242.5V234H299H312V229.5V225H320.5H329V221V217H333.5H338V212.5V208H333.5H329V203.5V199H325H321V203.5V208H312H303V212.5V217H299H295V221V225H286H277V229.5V234H273H269V242.5V251H273H277V255.5V260H281.5H286V264.5V269H277.5H269V273V277H260H251V273V269H247H243V264.5V260H247H251V247V234H247H243V242.5V251H238.5H234V247V243H225.5H217V234V225H212.5H208V229.5V234H199.5H191V229.5V225H186.5H182V221V217H177.5H173V225.5V234H177.5H182V238.5V243H186.5H191V247V251H195H199V247V243H203.5H208V247V251H216.5H225V255.5V260H229.5H234V268.5V277H221H208V273V269H216.5H225V264.5V260H208H191V264.5V269H186.5H182V264.5V260H186.5H191V255.5V251H186.5H182V247V243H177.5H173V238.5V234H168.5H164V225.5V217H155.5H147V212.5V208H138.5H130V212.5V217H125.5H121V212.5V208H116.5H112V212.5V217H103.5H95V212.5V208H90.5H86V212.5V217H77.5H69V212.5V208H77.5H86V203.5V199H82H78V195V191H82H86V186.5V182H77.5H69V177.5V173H73.5H78V168.5V164H69H60V168.5V173H56H52V177.5V182H56H60V186.5V191H56H52V186.5V182H47.5H43V173V164H38.5H34V160V156H30H26V151.5V147H30H34V138.5V130H47H60V134V138H51.5H43V151V164H51.5H60V160V156H56H52V151.5V147H56H60V151.5V156H64.5H69V151.5V147H77.5H86V142.5V138H77.5H69V129.5V121H60.5H52V116.5V112H39H26V108V104H30H34V99.5V95H38.5H43V86.5V78H51.5H60V82V86H56H52V90.5V95H60.5H69V99.5V104H60.5H52V108V112H65H78V95V78H82H86V69V60H82H78V56V52H82H86V47.5V43H99H112V30V17H116.5H121V12.5V8H125.5H130V12.5ZM191 12.5V17H195H199V12.5V8H195H191V12.5ZM277 12.5V17H273H269V12.5V8H273H277V12.5ZM347 30V52H325H303V30V8H325H347V30ZM17 30V43H30H43V30V17H30H17V30ZM312 30V43H325H338V30V17H325H312V30ZM251 30V34H255.5H260V30V26H255.5H251V30ZM121 38.5V43H116.5H112V47.5V52H116.5H121V47.5V43H125.5H130V38.5V34H125.5H121V38.5ZM217 38.5V43H221H225V38.5V34H221H217V38.5ZM86 56V60H90.5H95V56V52H90.5H86V56ZM191 56V60H186.5H182V56V52H186.5H191V56ZM208 56V60H212.5H217V56V52H212.5H208V56ZM217 82V95H221H225V82V69H221H217V82ZM295 73.5V78H299H303V86.5V95H307.5H312V99.5V104H316.5H321V108V112H312H303V116.5V121H312H321V116.5V112H334H347V116.5V121H342.5H338V125.5V130H342.5H347V134V138H351H355V134V130H351H347V125.5V121H351H355V112.5V104H351H347V99.5V95H342.5H338V99.5V104H333.5H329V99.5V95H325H321V86.5V78H325H329V82V86H333.5H338V77.5V69H316.5H295V73.5ZM34 82V86H30H26V90.5V95H21.5H17V90.5V86H21.5H26V82V78H30H34V82ZM86 86.5V95H90.5H95V99.5V104H90.5H86V112.5V121H95H104V125.5V130H95H86V134V138H95H104V142.5V147H99.5H95V160V173H90.5H86V177.5V182H90.5H95V186.5V191H90.5H86V195V199H99H112V190.5V182H103.5H95V177.5V173H99.5H104V168.5V164H112.5H121V151V138H116.5H112V129.5V121H116.5H121V112.5V104H125.5H130V99.5V95H125.5H121V90.5V86H116.5H112V82V78H99H86V86.5ZM347 82V86H351H355V82V78H351H347V82ZM104 90.5V95H112.5H121V99.5V104H116.5H112V108V112H108H104V103.5V95H99.5H95V90.5V86H99.5H104V90.5ZM182 103.5V112H177.5H173V116.5V121H168.5H164V138.5V156H173H182V164.5V173H173H164V168.5V164H160H156V155.5V147H151.5H147V155.5V164H142.5H138V168.5V173H129.5H121V182V191H129.5H138V182V173H151H164V177.5V182H160H156V190.5V199H160H164V195V191H168.5H173V195V199H177.5H182V203.5V208H186.5H191V199.5V191H195H199V186.5V182H195H191V177.5V173H195H199V168.5V164H195H191V160V156H199.5H208V151.5V147H212.5H217V160V173H221H225V177.5V182H221H217V190.5V199H225.5H234V203.5V208H221H208V203.5V199H203.5H199V203.5V208H203.5H208V212.5V217H203.5H199V221V225H203.5H208V221V217H221H234V212.5V208H238.5H243V199.5V191H251.5H260V195V199H264.5H269V195V191H264.5H260V182V173H264.5H269V164.5V156H273H277V160V164H286H295V168.5V173H299H303V168.5V164H299H295V160V156H290.5H286V151.5V147H290.5H295V142.5V138H290.5H286V142.5V147H277.5H269V151.5V156H264.5H260V147V138H264.5H269V129.5V121H264.5H260V129.5V138H247H234V134V130H229.5H225V134V138H221H217V134V130H212.5H208V138.5V147H195H182V142.5V138H190.5H199V134V130H195H191V125.5V121H195H199V116.5V112H203.5H208V116.5V121H212.5H217V116.5V112H212.5H208V103.5V95H203.5H199V99.5V104H195H191V99.5V95H186.5H182V103.5ZM182 125.5V130H177.5H173V125.5V121H177.5H182V125.5ZM0 147V156H4H8V147V138H4H0V147ZM112 151.5V156H108H104V151.5V147H108H112V151.5ZM78 160V164H82H86V160V156H82H78V160ZM234 168.5V173H229.5H225V168.5V164H229.5H234V168.5ZM260 168.5V173H255.5H251V177.5V182H247H243V186.5V191H234H225V186.5V182H234H243V177.5V173H247H251V168.5V164H255.5H260V168.5ZM0 177.5V182H4H8V177.5V173H4H0V177.5ZM34 186.5V191H30H26V186.5V182H30H34V186.5ZM295 203.5V208H290.5H286V212.5V217H290.5H295V212.5V208H299H303V203.5V199H299H295V203.5ZM164 212.5V217H168.5H173V212.5V208H168.5H164V212.5ZM251 212.5V217H247H243V221V225H234H225V229.5V234H234H243V229.5V225H247H251V221V217H255.5H260V221V225H268.5H277V221V217H268.5H260V212.5V208H255.5H251V212.5ZM60 221V225H64.5H69V229.5V234H77.5H86V229.5V225H95H104V229.5V234H108H112V238.5V243H116.5H121V247V251H116.5H112V260V269H108H104V273V277H99.5H95V273V269H99.5H104V264.5V260H99.5H95V255.5V251H90.5H86V247V243H69H52V247V251H56H60V255.5V260H56H52V255.5V251H47.5H43V247V243H47.5H52V238.5V234H56H60V229.5V225H56H52V221V217H56H60V221ZM130 229.5V234H125.5H121V229.5V225H125.5H130V229.5ZM86 238.5V243H90.5H95V247V251H103.5H112V247V243H108H104V238.5V234H95H86V238.5ZM78 255.5V260H73.5H69V255.5V251H73.5H78V255.5ZM251 264.5V269H260H269V264.5V260H260H251V264.5ZM321 264.5V269H316.5H312V264.5V260H316.5H321V264.5ZM52 281.5V286H56H60V281.5V277H56H52V281.5ZM329 281.5V286H325H321V281.5V277H325H329V281.5ZM95 290.5V295H90.5H86V290.5V286H90.5H95V290.5ZM277 294.5V303H273H269V299V295H264.5H260V290.5V286H268.5H277V294.5ZM312 299V312H299H286V299V286H299H312V299ZM0 325V355H30H60V325V295H30H0V325ZM130 299V303H125.5H121V299V295H125.5H130V299ZM191 299V303H195H199V299V295H195H191V299ZM295 299V303H299H303V299V295H299H295V299ZM52 325V347H30H8V325V303H30H52V325ZM208 307.5V312H212.5H217V307.5V303H212.5H208V307.5ZM17 325V338H30H43V325V312H30H17V325ZM95 316.5V321H86.5H78V316.5V312H86.5H95V316.5ZM199 325V329H203.5H208V333.5V338H203.5H199V333.5V329H195H191V333.5V338H177.5H164V342.5V347H160H156V342.5V338H160H164V333.5V329H173H182V325V321H190.5H199V325ZM303 325V329H299H295V325V321H299H303V325ZM329 329.5V338H333.5H338V342.5V347H333.5H329V342.5V338H325H321V333.5V329H316.5H312V325V321H320.5H329V329.5ZM225 342.5V347H221H217V342.5V338H221H225V342.5ZM312 342.5V347H307.5H303V342.5V338H307.5H312V342.5ZM251 351V355H255.5H260V351V347H255.5H251V351ZM269 351V355H273H277V351V347H273H269V351Z" fill="black"/>
</svg>
