<svg xmlns="http://www.w3.org/2000/svg" viewBox="0 0 512 640" x="0px" y="0px"><title>checklist-check-list-document-coronavirus</title><g><path d="M464,16H240a32,32,0,0,0-32,32V60.89C145.47,23.74,63.29,70.86,64,144v80.57A56.09,56.09,0,0,0,16,280v88c.5,27,37.36,33.06,46.63,8H64v48a16,16,0,0,0,8,13.83V448a24,24,0,0,0-24,24v16a8,8,0,0,0,8,8h80a8,8,0,0,0,8-8V437.83A16,16,0,0,0,152,424v-8c.4-10.6,15.6-10.6,16,0v8a16,16,0,0,0,8,13.83V488a8,8,0,0,0,8,8H464a32,32,0,0,0,32-32V48A32,32,0,0,0,464,16ZM296,288h32a24,24,0,0,0,23-17c26-8.47,20.73-46.31-7-47H296V208h96v96H296Zm48-48c10.6.4,10.6,15.6,0,16a8,8,0,0,0-8,8,8,8,0,0,1-8,8h-8V240Zm-40,0v32H248a8,8,0,0,0-8,8v24H168V240h16a8,8,0,0,0,8,8h32a8,8,0,0,0,8-8V192a6.68,6.68,0,0,0,0-.78,56.35,56.35,0,0,0,8-10.34V232a8,8,0,0,0,8,8ZM192,112c38.3.2,54.54,48.93,24,72V152a32,32,0,0,0-32-32H136a32,32,0,0,0-32,32v32c-19.27-13.95-21.46-43.73-4.28-60.29A39.73,39.73,0,0,1,128,112Zm-40,80v-8a8,8,0,0,1,16,0v8Zm8-32a24,24,0,0,0-24,24v8a8,8,0,0,0-8-8h-8V152a16,16,0,0,1,16-16h48a16,16,0,0,1,16,16v32h-8a8,8,0,0,0-8,8v-8A24,24,0,0,0,160,160Zm40,40h16v32H200Zm-96,0h16v32H104Zm32,8h48v16H136ZM192,96H168V64.4a80.21,80.21,0,0,1,67,51.77A55.89,55.89,0,0,0,192,96ZM152,64.4V96H128a55.71,55.71,0,0,0-43,20.1A80.18,80.18,0,0,1,152,64.4ZM32,280a40,40,0,0,1,40-40,8,8,0,0,0,8-8V180.84a56.17,56.17,0,0,0,8,10.37,6.85,6.85,0,0,0,0,.79v48a8,8,0,0,0,8,8h32a8,8,0,0,0,8-8h16v64H80V280a8,8,0,0,0-16,0v48H32Zm24,80a8,8,0,0,0-8,8,8,8,0,0,1-16,0V344H64v16Zm72,120H64v-8a8,8,0,0,1,8-8h8a8,8,0,0,0,8-8V440h40Zm8-64v8H80V320h72v73.38A24,24,0,0,0,136,416Zm32-22.62V320h72V424H184v-8A24,24,0,0,0,168,393.38ZM240,480H192V440h40v16a8,8,0,0,0,8,8h8a8,8,0,0,1,8,8v8Zm240-16a16,16,0,0,1-16,16H272v-8a24,24,0,0,0-24-24V437.83A16,16,0,0,0,256,424V288h24v24a8,8,0,0,0,8,8H400a8,8,0,0,0,8-8V200a8,8,0,0,0-8-8H288a8,8,0,0,0-8,8v24H256V144a95.77,95.77,0,0,0-32-71.49V48a16,16,0,0,1,16-16H464a16,16,0,0,1,16,16ZM400,48H288a8,8,0,0,0-8,8V168a8,8,0,0,0,8,8H400a8,8,0,0,0,8-8V56A8,8,0,0,0,400,48Zm-8,112H296V64h96Zm8,176H288a8,8,0,0,0-8,8V456a8,8,0,0,0,8,8H400a8,8,0,0,0,8-8V344A8,8,0,0,0,400,336Zm-8,112H296V352h96ZM144,152a8,8,0,0,1-8,8c-10.6-.39-10.6-15.61,0-16A8,8,0,0,1,144,152Zm40,8a8,8,0,0,1-8-8c.39-10.6,15.61-10.6,16,0A8,8,0,0,1,184,160Zm130.34-42.34c-7.23-7.75,3.57-18.54,11.32-11.32L336,116.69l26.34-26.35c7.73-7.22,18.55,3.56,11.32,11.32l-32,32a8,8,0,0,1-11.32,0Zm0,288c-7.23-7.75,3.57-18.54,11.32-11.32L336,404.69l26.34-26.35c7.73-7.22,18.55,3.56,11.32,11.32l-32,32a8,8,0,0,1-11.32,0ZM464,112a8,8,0,0,1-8,8H432c-10.59-.39-10.6-15.61,0-16h24A8,8,0,0,1,464,112Zm0,32a8,8,0,0,1-8,8H432c-10.59-.39-10.6-15.61,0-16h24A8,8,0,0,1,464,144Zm0-64a8,8,0,0,1-8,8H432c-10.59-.39-10.6-15.61,0-16h24A8,8,0,0,1,464,80Zm0,176a8,8,0,0,1-8,8H432c-10.59-.39-10.6-15.61,0-16h24A8,8,0,0,1,464,256Zm0,32a8,8,0,0,1-8,8H432c-10.59-.39-10.6-15.61,0-16h24A8,8,0,0,1,464,288Zm0-64a8,8,0,0,1-8,8H432c-10.59-.39-10.6-15.61,0-16h24A8,8,0,0,1,464,224Zm0,176a8,8,0,0,1-8,8H432c-10.59-.39-10.6-15.61,0-16h24A8,8,0,0,1,464,400Zm0,32a8,8,0,0,1-8,8H432c-10.59-.39-10.6-15.61,0-16h24A8,8,0,0,1,464,432Zm0-64a8,8,0,0,1-8,8H432c-10.59-.39-10.6-15.61,0-16h24A8,8,0,0,1,464,368Z"/></g><!-- <text x="0" y="527" fill="#000000" font-size="5px" font-weight="bold" font-family="'Helvetica Neue', Helvetica, Arial-Unicode, Arial, Sans-serif">Created by Chaowalit  Koetchuea</text><text x="0" y="532" fill="#000000" font-size="5px" font-weight="bold" font-family="'Helvetica Neue', Helvetica, Arial-Unicode, Arial, Sans-serif">from the Noun Project</text> --></svg>