<svg width="21" height="40" viewBox="0 0 21 40" fill="none" xmlns="http://www.w3.org/2000/svg">
<path fill-rule="evenodd" clip-rule="evenodd" d="M9.20034 1.02051C6.26413 1.30219 3.71578 2.9235 2.21258 5.46621C1.62011 6.46837 1.24886 7.55879 1.05565 8.86425C0.981451 9.36566 0.981451 10.6381 1.05565 11.1395C1.17916 11.9739 1.36144 12.6758 1.6274 13.3408C2.54136 15.626 4.37397 17.4586 6.65919 18.3726C7.32424 18.6386 8.02606 18.8208 8.86053 18.9444C9.36194 19.0185 10.6343 19.0185 11.1357 18.9444C12.6564 18.7193 13.8329 18.2745 15.0361 17.4698C16.959 16.1838 18.367 14.0905 18.817 11.8486C18.9675 11.0988 18.9931 10.8302 18.9931 10.0019C18.9931 9.17354 18.9675 8.90491 18.817 8.1551C18.367 5.91325 16.959 3.81991 15.0361 2.53391C13.8506 1.74101 12.6939 1.29812 11.2244 1.07441C10.78 1.00674 9.65579 0.976809 9.20034 1.02051ZM16.676 5.96581C16.676 5.97243 16.6149 6.10871 16.5402 6.26868C16.4127 6.5415 16.3213 6.73909 16.1596 7.09136C16.0486 7.33321 15.9508 7.54499 14.4157 10.8661L12.9441 14.05H8.1322C5.48563 14.05 3.32025 14.0446 3.32025 14.0381C3.32025 14.0316 3.37196 13.9153 3.43519 13.7796C3.4984 13.6439 3.59886 13.4265 3.65843 13.2965C3.71797 13.1665 4.50584 11.4612 5.40928 9.50693L7.05183 5.95376H11.8639C14.5106 5.95376 16.676 5.95917 16.676 5.96581Z" fill="#800080"/>
<path fill-rule="evenodd" clip-rule="evenodd" d="M9.20034 21.0205C6.26413 21.3022 3.71578 22.9235 2.21258 25.4662C1.62011 26.4684 1.24886 27.5588 1.05565 28.8643C0.981451 29.3657 0.981451 30.6381 1.05565 31.1395C1.17916 31.9739 1.36144 32.6758 1.6274 33.3408C2.54136 35.626 4.37397 37.4586 6.65919 38.3726C7.32424 38.6386 8.02606 38.8208 8.86053 38.9444C9.36194 39.0185 10.6343 39.0185 11.1357 38.9444C12.6564 38.7193 13.8329 38.2745 15.0361 37.4698C16.959 36.1838 18.367 34.0905 18.817 31.8486C18.9675 31.0988 18.9931 30.8302 18.9931 30.0019C18.9931 29.1735 18.9675 28.9049 18.817 28.1551C18.367 25.9132 16.959 23.8199 15.0361 22.5339C13.8506 21.741 12.6939 21.2981 11.2244 21.0744C10.78 21.0067 9.65579 20.9768 9.20034 21.0205ZM16.676 25.9658C16.676 25.9724 16.6149 26.1087 16.5402 26.2687C16.4127 26.5415 16.3213 26.7391 16.1596 27.0914C16.0486 27.3332 15.9508 27.545 14.4157 30.8661L12.9441 34.05H8.1322C5.48563 34.05 3.32025 34.0446 3.32025 34.0381C3.32025 34.0316 3.37196 33.9153 3.43519 33.7796C3.4984 33.6439 3.59886 33.4265 3.65843 33.2965C3.71797 33.1665 4.50584 31.4612 5.40928 29.5069L7.05183 25.9538H11.8639C14.5106 25.9538 16.676 25.9592 16.676 25.9658Z" fill="black"/>
</svg>
