<svg width="21" height="40" viewBox="0 0 21 40" fill="none" xmlns="http://www.w3.org/2000/svg">
<rect width="20" height="40" transform="translate(0.464355)" fill="white"/>
<path fill-rule="evenodd" clip-rule="evenodd" d="M9.36486 1.01072C8.41418 1.08401 7.51638 1.29098 6.64802 1.63709C4.76412 2.38793 3.16348 3.78584 2.1602 5.55652C1.5479 6.6372 1.17273 7.81414 1.03381 9.09019C0.988729 9.50437 0.988729 10.4872 1.03381 10.9014C1.1517 11.9843 1.42754 12.9563 1.88816 13.912C2.57913 15.3456 3.65618 16.5864 4.97885 17.4726C5.47586 17.8055 6.11487 18.1438 6.64802 18.356C8.41407 19.0591 10.3246 19.1894 12.1705 18.7325C14.1755 18.2362 15.9466 17.0624 17.1943 15.4028C17.7794 14.6245 18.2524 13.7176 18.5516 12.8002C19.4133 10.1578 19.0158 7.28063 17.4705 4.97569C16.8151 3.99813 15.9306 3.12108 14.9495 2.47586C13.7417 1.68162 12.3801 1.19538 10.9186 1.0364C10.6188 1.00378 9.66032 0.987942 9.36486 1.01072ZM9.60458 4.31353V6.49765L9.56463 6.49758C9.47595 6.49742 9.01284 6.4599 8.78775 6.43465C8.15155 6.36325 7.35889 6.20123 6.86569 6.04177L6.71046 5.99157L6.81414 5.76073C7.3406 4.58871 8.08162 3.52421 9.0038 2.61518C9.34424 2.27961 9.51764 2.1294 9.56457 2.1294H9.60458V4.31353ZM10.6705 2.31298C11.7043 3.24469 12.5929 4.46546 13.167 5.74274C13.2454 5.9171 13.2723 5.99445 13.2573 6.00235C13.2116 6.02641 12.6361 6.18086 12.3747 6.2392C11.7906 6.36955 11.2463 6.44496 10.5679 6.48952L10.3859 6.50149V4.31544V2.1294H10.4264C10.4527 2.1294 10.5377 2.19331 10.6705 2.31298ZM7.9935 2.54226C7.17768 3.45907 6.55174 4.42486 6.0802 5.49437C6.02423 5.62134 5.97659 5.72722 5.97434 5.72969C5.9645 5.74042 5.51642 5.53912 5.17418 5.37025C4.83525 5.203 4.47111 5.00053 4.20195 4.82967L4.09981 4.76484L4.28157 4.57186C5.1452 3.65486 6.28901 2.92656 7.5028 2.52079C7.69305 2.45718 8.1353 2.32835 8.17222 2.32576C8.18039 2.32519 8.09997 2.42263 7.9935 2.54226ZM12.1705 2.42293C13.487 2.79755 14.7173 3.53845 15.6658 4.5278L15.892 4.76376L15.7544 4.85153C15.5012 5.01305 15.0858 5.24181 14.7453 5.40724C14.4346 5.55816 14.0247 5.73916 14.0158 5.72935C14.0137 5.72708 13.9663 5.62134 13.9105 5.49437C13.4297 4.4018 12.7888 3.42406 11.9147 2.44948C11.7829 2.3025 11.7568 2.30522 12.1705 2.42293ZM3.85128 5.52987C4.2959 5.80816 4.93833 6.14189 5.42289 6.34627C5.55957 6.40393 5.67706 6.45565 5.68401 6.46125C5.69095 6.46682 5.66096 6.58718 5.61736 6.72869C5.3549 7.5808 5.18365 8.52549 5.13698 9.37874L5.1246 9.60514H3.62443H2.12426L2.13665 9.42313C2.22793 8.08233 2.69886 6.72247 3.46497 5.58753C3.55209 5.45847 3.61372 5.38325 3.62647 5.39044C3.6378 5.39683 3.73897 5.45957 3.85128 5.52987ZM16.5255 5.5876C16.9288 6.18495 17.2789 6.90319 17.4973 7.58083C17.6776 8.14015 17.8147 8.84908 17.8538 9.42313L17.8662 9.60514H16.366H14.8659L14.8537 9.37874C14.8084 8.53748 14.6339 7.57529 14.3731 6.72869C14.3295 6.58718 14.2995 6.46682 14.3065 6.46125C14.3134 6.45565 14.431 6.40391 14.5677 6.34627C15.0669 6.13578 15.7236 5.79246 16.1925 5.4969C16.295 5.43224 16.3802 5.37927 16.3818 5.37915C16.3834 5.37904 16.4481 5.47285 16.5255 5.5876ZM6.77232 6.82685C7.59726 7.06348 8.4208 7.20525 9.29353 7.26087C9.44963 7.27083 9.58347 7.27896 9.59096 7.27896C9.59845 7.27896 9.60458 7.80235 9.60458 8.44205V9.60514H7.75525H5.90592L5.91845 9.37874C5.96002 8.62758 6.11293 7.7836 6.3496 6.99893C6.41581 6.77938 6.43678 6.72945 6.4598 6.73657C6.47542 6.7414 6.61606 6.78203 6.77232 6.82685ZM13.5644 6.73749C13.5644 6.74247 13.5999 6.86432 13.6433 7.00829C13.8775 7.78577 14.0307 8.63296 14.072 9.37874L14.0846 9.60514H12.2352H10.3859V8.44365V7.28216L10.5324 7.27188C11.2134 7.22407 11.5393 7.18785 12.0018 7.10853C12.4482 7.03198 13.0817 6.87792 13.4934 6.74579C13.5491 6.72791 13.5644 6.72613 13.5644 6.73749ZM5.13609 10.6573C5.17161 11.4717 5.36417 12.5577 5.60786 13.3182C5.63791 13.412 5.6625 13.5004 5.6625 13.5147C5.6625 13.5312 5.56717 13.5816 5.40059 13.6532C4.90371 13.8668 4.21079 14.2299 3.82564 14.4783C3.58593 14.633 3.62347 14.6382 3.48243 14.4304C3.07105 13.8244 2.7134 13.0942 2.49316 12.4108C2.31176 11.8478 2.17599 11.1462 2.13665 10.5685L2.12426 10.3865H3.62427H5.12427L5.13609 10.6573ZM9.60458 11.5495C9.60458 12.4765 9.60002 12.7126 9.58208 12.7126C9.5697 12.7126 9.43187 12.7209 9.27577 12.731C8.41375 12.7868 7.60243 12.9277 6.76559 13.1672C6.57632 13.2213 6.41514 13.2591 6.40741 13.251C6.39967 13.243 6.36126 13.1246 6.32206 12.9879C6.08661 12.1669 5.955 11.4051 5.9148 10.6306L5.90214 10.3865H7.75335H9.60458V11.5495ZM14.0739 10.6395C14.0493 11.2046 13.942 11.9249 13.7928 12.5262C13.7218 12.8124 13.5994 13.2328 13.5816 13.252C13.5735 13.2606 13.4708 13.2384 13.3483 13.2014C12.4716 12.9368 11.6036 12.7871 10.559 12.7204L10.3859 12.7093V11.5479V10.3865H12.2354H14.0849L14.0739 10.6395ZM17.8616 10.4484C17.8616 10.5657 17.8057 11.0527 17.7633 11.305C17.5781 12.4059 17.1756 13.422 16.5531 14.3598C16.4455 14.5218 16.3775 14.6086 16.3642 14.6007C16.3528 14.5939 16.2515 14.5313 16.1392 14.4616C15.8477 14.2806 15.5343 14.1061 15.2069 13.9424C14.9611 13.8195 14.8026 13.7465 14.3961 13.569L14.3133 13.5328L14.375 13.3403C14.4713 13.0392 14.6045 12.5025 14.6743 12.1342C14.7742 11.6073 14.8607 10.8562 14.8607 10.5161V10.3865H16.3612H17.8616V10.4484ZM9.60458 15.6781V17.8622H9.51526C9.42694 17.8622 9.42385 17.8603 9.23559 17.6872C8.35835 16.8807 7.55308 15.813 7.01506 14.7429C6.90568 14.5254 6.69242 14.0496 6.69242 14.0231C6.69242 13.9814 7.44553 13.7777 7.95317 13.682C8.44373 13.5896 9.09555 13.5127 9.52023 13.4971L9.60458 13.4939V15.6781ZM11.0416 13.5401C11.5214 13.5858 12.0319 13.6697 12.499 13.7798C12.8618 13.8652 13.2981 13.9957 13.2981 14.0188C13.2981 14.0877 12.9085 14.8899 12.7036 15.243C12.1728 16.1579 11.4679 17.0403 10.7369 17.7051C10.5678 17.8589 10.5623 17.8622 10.475 17.8622H10.3859V15.6764V13.4905L10.5768 13.5023C10.6818 13.5087 10.8909 13.5257 11.0416 13.5401ZM6.03833 14.4892C6.15844 14.7709 6.43389 15.3234 6.58676 15.5893C6.98754 16.2864 7.57681 17.1002 8.00431 17.547C8.0487 17.5934 8.07408 17.6313 8.06071 17.6313C8.01885 17.6313 7.56301 17.4948 7.3498 17.4184C6.55299 17.1329 5.76718 16.6972 5.11374 16.1785C4.7923 15.9234 4.41141 15.5714 4.20479 15.3387L4.10057 15.2213L4.43316 15.0224C4.87961 14.7553 5.8741 14.265 5.9358 14.2816C5.94449 14.2839 5.99064 14.3773 6.03833 14.4892ZM14.3717 14.4085C14.8505 14.621 15.3814 14.9022 15.7588 15.1429L15.8905 15.2269L15.7088 15.4198C14.8895 16.2897 13.8135 16.9937 12.6688 17.4086C12.4388 17.492 11.9804 17.6313 11.9362 17.6313C11.9226 17.6313 11.978 17.5566 12.0594 17.4653C12.8533 16.5735 13.5724 15.4248 14.0154 14.3405C14.0485 14.2595 14.0266 14.2553 14.3717 14.4085Z" fill="#800080"/>
<path fill-rule="evenodd" clip-rule="evenodd" d="M9.36486 21.0107C8.41418 21.084 7.51638 21.291 6.64802 21.6371C4.76412 22.3879 3.16348 23.7858 2.1602 25.5565C1.5479 26.6372 1.17273 27.8141 1.03381 29.0902C0.988729 29.5044 0.988729 30.4872 1.03381 30.9014C1.1517 31.9843 1.42754 32.9563 1.88816 33.912C2.57913 35.3456 3.65618 36.5864 4.97885 37.4726C5.47586 37.8055 6.11487 38.1438 6.64802 38.356C8.41407 39.0591 10.3246 39.1894 12.1705 38.7325C14.1755 38.2362 15.9466 37.0624 17.1943 35.4028C17.7794 34.6245 18.2524 33.7176 18.5516 32.8002C19.4133 30.1578 19.0158 27.2806 17.4705 24.9757C16.8151 23.9981 15.9306 23.1211 14.9495 22.4759C13.7417 21.6816 12.3801 21.1954 10.9186 21.0364C10.6188 21.0038 9.66032 20.9879 9.36486 21.0107ZM9.60458 24.3135V26.4976L9.56463 26.4976C9.47595 26.4974 9.01284 26.4599 8.78775 26.4346C8.15155 26.3632 7.35889 26.2012 6.86569 26.0418L6.71046 25.9916L6.81414 25.7607C7.3406 24.5887 8.08162 23.5242 9.0038 22.6152C9.34424 22.2796 9.51764 22.1294 9.56457 22.1294H9.60458V24.3135ZM10.6705 22.313C11.7043 23.2447 12.5929 24.4655 13.167 25.7427C13.2454 25.9171 13.2723 25.9944 13.2573 26.0024C13.2116 26.0264 12.6361 26.1809 12.3747 26.2392C11.7906 26.3695 11.2463 26.445 10.5679 26.4895L10.3859 26.5015V24.3154V22.1294H10.4264C10.4527 22.1294 10.5377 22.1933 10.6705 22.313ZM7.9935 22.5423C7.17768 23.4591 6.55174 24.4249 6.0802 25.4944C6.02423 25.6213 5.97659 25.7272 5.97434 25.7297C5.9645 25.7404 5.51642 25.5391 5.17418 25.3703C4.83525 25.203 4.47111 25.0005 4.20195 24.8297L4.09981 24.7648L4.28157 24.5719C5.1452 23.6549 6.28901 22.9266 7.5028 22.5208C7.69305 22.4572 8.1353 22.3284 8.17222 22.3258C8.18039 22.3252 8.09997 22.4226 7.9935 22.5423ZM12.1705 22.4229C13.487 22.7975 14.7173 23.5384 15.6658 24.5278L15.892 24.7638L15.7544 24.8515C15.5012 25.013 15.0858 25.2418 14.7453 25.4072C14.4346 25.5582 14.0247 25.7392 14.0158 25.7294C14.0137 25.7271 13.9663 25.6213 13.9105 25.4944C13.4297 24.4018 12.7888 23.4241 11.9147 22.4495C11.7829 22.3025 11.7568 22.3052 12.1705 22.4229ZM3.85128 25.5299C4.2959 25.8082 4.93833 26.1419 5.42289 26.3463C5.55957 26.4039 5.67706 26.4557 5.68401 26.4612C5.69095 26.4668 5.66096 26.5872 5.61736 26.7287C5.3549 27.5808 5.18365 28.5255 5.13698 29.3787L5.1246 29.6051H3.62443H2.12426L2.13665 29.4231C2.22793 28.0823 2.69886 26.7225 3.46497 25.5875C3.55209 25.4585 3.61372 25.3832 3.62647 25.3904C3.6378 25.3968 3.73897 25.4596 3.85128 25.5299ZM16.5255 25.5876C16.9288 26.1849 17.2789 26.9032 17.4973 27.5808C17.6776 28.1401 17.8147 28.8491 17.8538 29.4231L17.8662 29.6051H16.366H14.8659L14.8537 29.3787C14.8084 28.5375 14.6339 27.5753 14.3731 26.7287C14.3295 26.5872 14.2995 26.4668 14.3065 26.4612C14.3134 26.4557 14.431 26.4039 14.5677 26.3463C15.0669 26.1358 15.7236 25.7925 16.1925 25.4969C16.295 25.4322 16.3802 25.3793 16.3818 25.3791C16.3834 25.379 16.4481 25.4729 16.5255 25.5876ZM6.77232 26.8268C7.59726 27.0635 8.4208 27.2053 9.29353 27.2609C9.44963 27.2708 9.58347 27.279 9.59096 27.279C9.59845 27.279 9.60458 27.8024 9.60458 28.4421V29.6051H7.75525H5.90592L5.91845 29.3787C5.96002 28.6276 6.11293 27.7836 6.3496 26.9989C6.41581 26.7794 6.43678 26.7295 6.4598 26.7366C6.47542 26.7414 6.61606 26.782 6.77232 26.8268ZM13.5644 26.7375C13.5644 26.7425 13.5999 26.8643 13.6433 27.0083C13.8775 27.7858 14.0307 28.633 14.072 29.3787L14.0846 29.6051H12.2352H10.3859V28.4436V27.2822L10.5324 27.2719C11.2134 27.2241 11.5393 27.1879 12.0018 27.1085C12.4482 27.032 13.0817 26.8779 13.4934 26.7458C13.5491 26.7279 13.5644 26.7261 13.5644 26.7375ZM5.13609 30.6573C5.17161 31.4717 5.36417 32.5577 5.60786 33.3182C5.63791 33.412 5.6625 33.5004 5.6625 33.5147C5.6625 33.5312 5.56717 33.5816 5.40059 33.6532C4.90371 33.8668 4.21079 34.2299 3.82564 34.4783C3.58593 34.633 3.62347 34.6382 3.48243 34.4304C3.07105 33.8244 2.7134 33.0942 2.49316 32.4108C2.31176 31.8478 2.17599 31.1462 2.13665 30.5685L2.12426 30.3865H3.62427H5.12427L5.13609 30.6573ZM9.60458 31.5495C9.60458 32.4765 9.60002 32.7126 9.58208 32.7126C9.5697 32.7126 9.43187 32.7209 9.27577 32.731C8.41375 32.7868 7.60243 32.9277 6.76559 33.1672C6.57632 33.2213 6.41514 33.2591 6.40741 33.251C6.39967 33.243 6.36126 33.1246 6.32206 32.9879C6.08661 32.1669 5.955 31.4051 5.9148 30.6306L5.90214 30.3865H7.75335H9.60458V31.5495ZM14.0739 30.6395C14.0493 31.2046 13.942 31.9249 13.7928 32.5262C13.7218 32.8124 13.5994 33.2328 13.5816 33.252C13.5735 33.2606 13.4708 33.2384 13.3483 33.2014C12.4716 32.9368 11.6036 32.7871 10.559 32.7204L10.3859 32.7093V31.5479V30.3865H12.2354H14.0849L14.0739 30.6395ZM17.8616 30.4484C17.8616 30.5657 17.8057 31.0527 17.7633 31.305C17.5781 32.4059 17.1756 33.422 16.5531 34.3598C16.4455 34.5218 16.3775 34.6086 16.3642 34.6007C16.3528 34.5939 16.2515 34.5313 16.1392 34.4616C15.8477 34.2806 15.5343 34.1061 15.2069 33.9424C14.9611 33.8195 14.8026 33.7465 14.3961 33.569L14.3133 33.5328L14.375 33.3403C14.4713 33.0392 14.6045 32.5025 14.6743 32.1342C14.7742 31.6073 14.8607 30.8562 14.8607 30.5161V30.3865H16.3612H17.8616V30.4484ZM9.60458 35.6781V37.8622H9.51526C9.42694 37.8622 9.42385 37.8603 9.23559 37.6872C8.35835 36.8807 7.55308 35.813 7.01506 34.7429C6.90568 34.5254 6.69242 34.0496 6.69242 34.0231C6.69242 33.9814 7.44553 33.7777 7.95317 33.682C8.44373 33.5896 9.09555 33.5127 9.52023 33.4971L9.60458 33.4939V35.6781ZM11.0416 33.5401C11.5214 33.5858 12.0319 33.6697 12.499 33.7798C12.8618 33.8652 13.2981 33.9957 13.2981 34.0188C13.2981 34.0877 12.9085 34.8899 12.7036 35.243C12.1728 36.1579 11.4679 37.0403 10.7369 37.7051C10.5678 37.8589 10.5623 37.8622 10.475 37.8622H10.3859V35.6764V33.4905L10.5768 33.5023C10.6818 33.5087 10.8909 33.5257 11.0416 33.5401ZM6.03833 34.4892C6.15844 34.7709 6.43389 35.3234 6.58676 35.5893C6.98754 36.2864 7.57681 37.1002 8.00431 37.547C8.0487 37.5934 8.07408 37.6313 8.06071 37.6313C8.01885 37.6313 7.56301 37.4948 7.3498 37.4184C6.55299 37.1329 5.76718 36.6972 5.11374 36.1785C4.7923 35.9234 4.41141 35.5714 4.20479 35.3387L4.10057 35.2213L4.43316 35.0224C4.87961 34.7553 5.8741 34.265 5.9358 34.2816C5.94449 34.2839 5.99064 34.3773 6.03833 34.4892ZM14.3717 34.4085C14.8505 34.621 15.3814 34.9022 15.7588 35.1429L15.8905 35.2269L15.7088 35.4198C14.8895 36.2897 13.8135 36.9937 12.6688 37.4086C12.4388 37.492 11.9804 37.6313 11.9362 37.6313C11.9226 37.6313 11.978 37.5566 12.0594 37.4653C12.8533 36.5735 13.5724 35.4248 14.0154 34.3405C14.0485 34.2595 14.0266 34.2553 14.3717 34.4085Z" fill="black"/>
</svg>
