<svg width="21" height="40" viewBox="0 0 21 40" fill="none" xmlns="http://www.w3.org/2000/svg">
<rect x="2" y="2" width="16" height="16" fill="white"/>
<path fill-rule="evenodd" clip-rule="evenodd" d="M17.3574 1.08526C18.1853 1.37794 18.7059 1.91941 18.9326 2.72348C18.989 2.92392 18.9998 4.09109 18.9998 10.0046C18.9998 17.6819 19.0161 17.2208 18.7251 17.8066C18.4643 18.3316 17.9212 18.7568 17.281 18.9372C17.0806 18.9937 15.9134 19.0045 9.99992 19.0045C4.08642 19.0045 2.91925 18.9937 2.71882 18.9372C1.88462 18.7021 1.30242 18.1199 1.06727 17.2857C1.01079 17.0853 1 15.9181 1 10.0046C1 4.09109 1.01079 2.92392 1.06727 2.72348C1.33689 1.76687 2.10286 1.11462 3.0769 1.01226C3.16881 1.00261 6.37011 0.9976 10.1909 1.00113C16.473 1.00701 17.1588 1.01503 17.3574 1.08526ZM13.8522 3.05526C13.6143 3.14011 13.4916 3.25336 13.3841 3.4874C13.3071 3.65513 13.2964 3.81207 13.2964 4.77651C13.2964 5.98713 13.328 6.1498 13.6051 6.3678C13.8415 6.55372 14.0241 6.57483 15.2557 6.55859L16.4293 6.54308L16.6097 6.40538C16.9399 6.15333 16.9686 6.02332 16.9686 4.77651C16.9686 3.81207 16.9579 3.65513 16.8809 3.4874C16.6738 3.03659 16.511 2.99028 15.1325 2.99028C14.3273 2.99028 13.9858 3.00761 13.8522 3.05526ZM9.33507 6.52016C8.57082 6.68178 7.99291 6.9945 7.44366 7.54381C6.73956 8.2479 6.41905 9.0027 6.41905 9.95684C6.41905 12.4566 8.96142 14.1149 11.3968 13.2037C12.1327 12.9284 12.9139 12.2035 13.2705 11.465C14.2123 9.51506 13.2023 7.28518 11.0742 6.61594C10.6957 6.49691 9.70342 6.44224 9.33507 6.52016ZM2.99225 12.5231L3.00529 16.4263L3.11348 16.6003C3.33243 16.9524 2.81001 16.9276 10.012 16.9276H16.4791L16.6413 16.8192C16.9887 16.5872 16.9705 16.8253 16.9706 12.4993L16.9707 8.61998H16.1829C15.7496 8.61998 15.3951 8.629 15.3951 8.63999C15.3951 8.65101 15.4275 8.78637 15.467 8.94088C15.6432 9.62864 15.6411 10.7057 15.462 11.4131C15.0086 13.2045 13.6262 14.6849 11.8556 15.2752C10.3962 15.7618 8.86917 15.6599 7.47669 14.9829C5.27861 13.9145 4.03906 11.4449 4.53007 9.11218C4.56769 8.93338 4.61295 8.74951 4.63062 8.70353C4.66041 8.6259 4.60302 8.61998 3.82096 8.61998H2.97927L2.99225 12.5231Z" fill="#800080"/>
<rect x="2" y="22" width="16" height="16" fill="white"/>
<path fill-rule="evenodd" clip-rule="evenodd" d="M17.3574 21.0853C18.1853 21.3779 18.7059 21.9194 18.9326 22.7235C18.989 22.9239 18.9998 24.0911 18.9998 30.0046C18.9998 37.6819 19.0161 37.2208 18.7251 37.8066C18.4643 38.3316 17.9212 38.7568 17.281 38.9372C17.0806 38.9937 15.9134 39.0045 9.99992 39.0045C4.08642 39.0045 2.91925 38.9937 2.71882 38.9372C1.88462 38.7021 1.30242 38.1199 1.06727 37.2857C1.01079 37.0853 1 35.9181 1 30.0046C1 24.0911 1.01079 22.9239 1.06727 22.7235C1.33689 21.7669 2.10286 21.1146 3.0769 21.0123C3.16881 21.0026 6.37011 20.9976 10.1909 21.0011C16.473 21.007 17.1588 21.015 17.3574 21.0853ZM13.8522 23.0553C13.6143 23.1401 13.4916 23.2534 13.3841 23.4874C13.3071 23.6551 13.2964 23.8121 13.2964 24.7765C13.2964 25.9871 13.328 26.1498 13.6051 26.3678C13.8415 26.5537 14.0241 26.5748 15.2557 26.5586L16.4293 26.5431L16.6097 26.4054C16.9399 26.1533 16.9686 26.0233 16.9686 24.7765C16.9686 23.8121 16.9579 23.6551 16.8809 23.4874C16.6738 23.0366 16.511 22.9903 15.1325 22.9903C14.3273 22.9903 13.9858 23.0076 13.8522 23.0553ZM9.33507 26.5202C8.57082 26.6818 7.99291 26.9945 7.44366 27.5438C6.73956 28.2479 6.41905 29.0027 6.41905 29.9568C6.41905 32.4566 8.96142 34.1149 11.3968 33.2037C12.1327 32.9284 12.9139 32.2035 13.2705 31.465C14.2123 29.5151 13.2023 27.2852 11.0742 26.6159C10.6957 26.4969 9.70342 26.4422 9.33507 26.5202ZM2.99225 32.5231L3.00529 36.4263L3.11348 36.6003C3.33243 36.9524 2.81001 36.9276 10.012 36.9276H16.4791L16.6413 36.8192C16.9887 36.5872 16.9705 36.8253 16.9706 32.4993L16.9707 28.62H16.1829C15.7496 28.62 15.3951 28.629 15.3951 28.64C15.3951 28.651 15.4275 28.7864 15.467 28.9409C15.6432 29.6286 15.6411 30.7057 15.462 31.4131C15.0086 33.2045 13.6262 34.6849 11.8556 35.2752C10.3962 35.7618 8.86917 35.6599 7.47669 34.9829C5.27861 33.9145 4.03906 31.4449 4.53007 29.1122C4.56769 28.9334 4.61295 28.7495 4.63062 28.7035C4.66041 28.6259 4.60302 28.62 3.82096 28.62H2.97927L2.99225 32.5231Z" fill="black"/>
</svg>
