<svg width="21" height="40" viewBox="0 0 21 40" fill="none" xmlns="http://www.w3.org/2000/svg">
<path d="M10 1C5.02961 1 1 5.02942 1 10C1 14.9706 5.02961 19 10 19C14.9704 19 19 14.9706 19 10C19 5.02942 14.9704 1 10 1ZM2.42508 12.4484C2.42011 12.4839 2.39452 12.509 2.36248 12.509C2.33025 12.509 2.30447 12.4839 2.30005 12.448L2.1857 11.5949L2.30005 10.727C2.30429 10.6909 2.33025 10.6657 2.36248 10.6657C2.39452 10.6657 2.42011 10.6907 2.42508 10.7264L2.56061 11.595L2.42508 12.4484ZM3.00587 12.9677C3.00035 13.0045 2.97346 13.0306 2.94069 13.0306C2.90754 13.0306 2.88029 13.0041 2.87568 12.9675L2.72211 11.5949L2.87568 10.1913C2.8801 10.1547 2.90754 10.128 2.94069 10.128C2.97365 10.128 3.00035 10.1539 3.00587 10.1913L3.18044 11.5949L3.00587 12.9677ZM3.63288 13.1999C3.62809 13.2442 3.59513 13.2763 3.55443 13.2763C3.51319 13.2763 3.48041 13.2442 3.47617 13.1995L3.33033 11.5952C3.33033 11.5952 3.47617 9.93003 3.47617 9.92984C3.48022 9.88546 3.51319 9.85324 3.55443 9.85324C3.59513 9.85324 3.62791 9.88546 3.63288 9.92984L3.79842 11.5952L3.63288 13.1999ZM4.26523 13.2509C4.26081 13.3019 4.2214 13.3407 4.17371 13.3407C4.12509 13.3407 4.0855 13.3019 4.08164 13.2509L3.9439 11.5956L4.08164 9.88454C4.0855 9.83298 4.12509 9.79431 4.17371 9.79431C4.2214 9.79431 4.26081 9.83298 4.26523 9.88399L4.42175 11.5954L4.26523 13.2509ZM4.90255 13.2647C4.89868 13.3232 4.8532 13.3682 4.79759 13.3682C4.74142 13.3682 4.69612 13.3234 4.69244 13.2647L4.56243 11.5958L4.69244 10.0087C4.69631 9.94954 4.74161 9.90498 4.79759 9.90498C4.85338 9.90498 4.89868 9.94954 4.90255 10.0081L5.05005 11.596L4.90255 13.2647ZM5.54502 13.2652V13.2645C5.54116 13.3299 5.48941 13.3816 5.42662 13.3816C5.36327 13.3816 5.31153 13.33 5.30803 13.2649L5.18631 11.5962L5.30803 9.01373C5.31153 8.94799 5.36327 8.89661 5.42662 8.89661C5.48941 8.89661 5.54116 8.94799 5.54502 9.01354L5.68313 11.5962L5.54502 13.2652ZM6.18271 13.2639V13.263C6.1794 13.3363 6.12139 13.3934 6.05086 13.3934C5.98015 13.3934 5.92233 13.3363 5.91957 13.2636L5.80503 11.605C5.80503 11.605 5.91902 8.43239 5.91902 8.4322C5.92233 8.3591 5.98015 8.30183 6.05086 8.30183C6.12139 8.30183 6.1794 8.3591 6.18271 8.4322L6.3118 11.605L6.18271 13.2639ZM6.84471 13.2385V13.2376C6.84139 13.3183 6.77805 13.3811 6.69997 13.3811C6.62134 13.3811 6.55763 13.3181 6.55486 13.2383L6.44861 11.5969C6.44861 11.5969 6.55486 8.15949 6.55486 8.15912C6.55763 8.07846 6.62134 8.0153 6.69997 8.0153C6.77805 8.0153 6.84158 8.07846 6.84471 8.15912L6.96477 11.5969L6.84471 13.2385ZM7.50228 13.2275C7.4997 13.3155 7.42991 13.3846 7.3441 13.3846C7.25755 13.3846 7.18832 13.3155 7.18611 13.2282L7.08741 11.5971L7.18574 8.04366C7.1885 7.95546 7.25774 7.88622 7.3441 7.88622C7.4301 7.88622 7.49989 7.95527 7.50228 8.04366L7.61332 11.5973L7.50228 13.2275ZM8.16464 13.2133V13.212C8.16207 13.3076 8.08675 13.3831 7.99302 13.3831C7.89893 13.3831 7.82361 13.3076 7.82159 13.2129L7.7308 11.5974L7.82103 8.13463C7.82361 8.03887 7.89893 7.96393 7.99302 7.96393C8.08675 7.96393 8.16207 8.03869 8.16464 8.13426L8.26684 11.5974L8.16464 13.2133ZM8.83235 13.2032V13.2021C8.83032 13.3054 8.74893 13.3862 8.64728 13.3862C8.54582 13.3862 8.46424 13.3054 8.46222 13.2032L8.37954 11.5976L8.46222 8.26114C8.46424 8.15783 8.54582 8.07699 8.64728 8.07699C8.74893 8.07699 8.83032 8.15801 8.83235 8.26114L8.92497 11.598L8.83235 13.2032ZM9.51331 13.0345L9.50502 13.1918C9.5041 13.2461 9.48108 13.2954 9.44536 13.3313C9.40945 13.3669 9.36047 13.3892 9.3067 13.3892C9.24612 13.3892 9.19161 13.3612 9.15497 13.3173C9.12808 13.2849 9.11096 13.2439 9.10893 13.1993C9.10856 13.1971 9.10838 13.1951 9.10838 13.1925C9.10838 13.1925 9.03325 11.5989 9.03325 11.5965L9.10764 7.6647L9.10838 7.62731C9.1093 7.55789 9.14557 7.49694 9.1999 7.46177C9.23065 7.44151 9.26711 7.42954 9.3067 7.42954C9.34684 7.42954 9.38478 7.44207 9.41627 7.46343C9.46875 7.49897 9.50392 7.559 9.50502 7.62713L9.58826 11.5976L9.51331 13.0345ZM10.1749 13.1704V13.17V13.1686C10.1725 13.2847 10.0783 13.3796 9.96317 13.3796C9.84771 13.3796 9.75269 13.2847 9.75122 13.17L9.7085 12.395L9.66468 11.5985L9.75104 7.29015L9.75141 7.26842C9.75214 7.20286 9.78271 7.14431 9.83004 7.10545C9.86631 7.07525 9.9129 7.05721 9.96354 7.05721C10.0029 7.05721 10.0398 7.06844 10.0713 7.08759C10.132 7.1246 10.1742 7.19163 10.1753 7.26805L10.269 11.5987L10.1749 13.1704ZM15.892 13.3836C15.892 13.3836 10.5686 13.3842 10.5635 13.3836C10.4484 13.3722 10.3571 13.2807 10.3559 13.163C10.3559 13.163 10.3559 7.06218 10.3559 7.06199C10.3571 6.94985 10.3955 6.89221 10.5408 6.83605C10.9137 6.6915 11.3367 6.60624 11.7702 6.60624C13.5429 6.60624 14.9954 7.96522 15.1486 9.69745C15.3773 9.6017 15.6285 9.5483 15.892 9.5483C16.954 9.5483 17.8141 10.409 17.8141 11.4706C17.8143 12.5322 16.954 13.3836 15.892 13.3836Z" fill="#800080"/>
<path d="M10 21C5.02961 21 1 25.0294 1 30C1 34.9706 5.02961 39 10 39C14.9704 39 19 34.9706 19 30C19 25.0294 14.9704 21 10 21ZM2.42508 32.4484C2.42011 32.4839 2.39452 32.509 2.36248 32.509C2.33025 32.509 2.30447 32.4839 2.30005 32.448L2.1857 31.5949L2.30005 30.727C2.30429 30.6909 2.33025 30.6657 2.36248 30.6657C2.39452 30.6657 2.42011 30.6907 2.42508 30.7264L2.56061 31.595L2.42508 32.4484ZM3.00587 32.9677C3.00035 33.0045 2.97346 33.0306 2.94069 33.0306C2.90754 33.0306 2.88029 33.0041 2.87568 32.9675L2.72211 31.5949L2.87568 30.1913C2.8801 30.1547 2.90754 30.128 2.94069 30.128C2.97365 30.128 3.00035 30.1539 3.00587 30.1913L3.18044 31.5949L3.00587 32.9677ZM3.63288 33.1999C3.62809 33.2442 3.59513 33.2763 3.55443 33.2763C3.51319 33.2763 3.48041 33.2442 3.47617 33.1995L3.33033 31.5952C3.33033 31.5952 3.47617 29.93 3.47617 29.9298C3.48022 29.8855 3.51319 29.8532 3.55443 29.8532C3.59513 29.8532 3.62791 29.8855 3.63288 29.9298L3.79842 31.5952L3.63288 33.1999ZM4.26523 33.2509C4.26081 33.3019 4.2214 33.3407 4.17371 33.3407C4.12509 33.3407 4.0855 33.3019 4.08164 33.2509L3.9439 31.5956L4.08164 29.8845C4.0855 29.833 4.12509 29.7943 4.17371 29.7943C4.2214 29.7943 4.26081 29.833 4.26523 29.884L4.42175 31.5954L4.26523 33.2509ZM4.90255 33.2647C4.89868 33.3232 4.8532 33.3682 4.79759 33.3682C4.74142 33.3682 4.69612 33.3234 4.69244 33.2647L4.56243 31.5958L4.69244 30.0087C4.69631 29.9495 4.74161 29.905 4.79759 29.905C4.85338 29.905 4.89868 29.9495 4.90255 30.0081L5.05005 31.596L4.90255 33.2647ZM5.54502 33.2652V33.2645C5.54116 33.3299 5.48941 33.3816 5.42662 33.3816C5.36327 33.3816 5.31153 33.33 5.30803 33.2649L5.18631 31.5962L5.30803 29.0137C5.31153 28.948 5.36327 28.8966 5.42662 28.8966C5.48941 28.8966 5.54116 28.948 5.54502 29.0135L5.68313 31.5962L5.54502 33.2652ZM6.18271 33.2639V33.263C6.1794 33.3363 6.12139 33.3934 6.05086 33.3934C5.98015 33.3934 5.92233 33.3363 5.91957 33.2636L5.80503 31.605C5.80503 31.605 5.91902 28.4324 5.91902 28.4322C5.92233 28.3591 5.98015 28.3018 6.05086 28.3018C6.12139 28.3018 6.1794 28.3591 6.18271 28.4322L6.3118 31.605L6.18271 33.2639ZM6.84471 33.2385V33.2376C6.84139 33.3183 6.77805 33.3811 6.69997 33.3811C6.62134 33.3811 6.55763 33.3181 6.55486 33.2383L6.44861 31.5969C6.44861 31.5969 6.55486 28.1595 6.55486 28.1591C6.55763 28.0785 6.62134 28.0153 6.69997 28.0153C6.77805 28.0153 6.84158 28.0785 6.84471 28.1591L6.96477 31.5969L6.84471 33.2385ZM7.50228 33.2275C7.4997 33.3155 7.42991 33.3846 7.3441 33.3846C7.25755 33.3846 7.18832 33.3155 7.18611 33.2282L7.08741 31.5971L7.18574 28.0437C7.1885 27.9555 7.25774 27.8862 7.3441 27.8862C7.4301 27.8862 7.49989 27.9553 7.50228 28.0437L7.61332 31.5973L7.50228 33.2275ZM8.16464 33.2133V33.212C8.16207 33.3076 8.08675 33.3831 7.99302 33.3831C7.89893 33.3831 7.82361 33.3076 7.82159 33.2129L7.7308 31.5974L7.82103 28.1346C7.82361 28.0389 7.89893 27.9639 7.99302 27.9639C8.08675 27.9639 8.16207 28.0387 8.16464 28.1343L8.26684 31.5974L8.16464 33.2133ZM8.83235 33.2032V33.2021C8.83032 33.3054 8.74893 33.3862 8.64728 33.3862C8.54582 33.3862 8.46424 33.3054 8.46222 33.2032L8.37954 31.5976L8.46222 28.2611C8.46424 28.1578 8.54582 28.077 8.64728 28.077C8.74893 28.077 8.83032 28.158 8.83235 28.2611L8.92497 31.598L8.83235 33.2032ZM9.51331 33.0345L9.50502 33.1918C9.5041 33.2461 9.48108 33.2954 9.44536 33.3313C9.40945 33.3669 9.36047 33.3892 9.3067 33.3892C9.24612 33.3892 9.19161 33.3612 9.15497 33.3173C9.12808 33.2849 9.11096 33.2439 9.10893 33.1993C9.10856 33.1971 9.10838 33.1951 9.10838 33.1925C9.10838 33.1925 9.03325 31.5989 9.03325 31.5965L9.10764 27.6647L9.10838 27.6273C9.1093 27.5579 9.14557 27.4969 9.1999 27.4618C9.23065 27.4415 9.26711 27.4295 9.3067 27.4295C9.34684 27.4295 9.38478 27.4421 9.41627 27.4634C9.46875 27.499 9.50392 27.559 9.50502 27.6271L9.58826 31.5976L9.51331 33.0345ZM10.1749 33.1704V33.17V33.1686C10.1725 33.2847 10.0783 33.3796 9.96317 33.3796C9.84771 33.3796 9.75269 33.2847 9.75122 33.17L9.7085 32.395L9.66468 31.5985L9.75104 27.2901L9.75141 27.2684C9.75214 27.2029 9.78271 27.1443 9.83004 27.1055C9.86631 27.0753 9.9129 27.0572 9.96354 27.0572C10.0029 27.0572 10.0398 27.0684 10.0713 27.0876C10.132 27.1246 10.1742 27.1916 10.1753 27.2681L10.269 31.5987L10.1749 33.1704ZM15.892 33.3836C15.892 33.3836 10.5686 33.3842 10.5635 33.3836C10.4484 33.3722 10.3571 33.2807 10.3559 33.163C10.3559 33.163 10.3559 27.0622 10.3559 27.062C10.3571 26.9499 10.3955 26.8922 10.5408 26.8361C10.9137 26.6915 11.3367 26.6062 11.7702 26.6062C13.5429 26.6062 14.9954 27.9652 15.1486 29.6975C15.3773 29.6017 15.6285 29.5483 15.892 29.5483C16.954 29.5483 17.8141 30.409 17.8141 31.4706C17.8143 32.5322 16.954 33.3836 15.892 33.3836Z" fill="black"/>
</svg>
