<svg width="306" height="792" viewBox="0 0 306 792" fill="none" xmlns="http://www.w3.org/2000/svg">
<g clip-path="url(#clip0)">
<rect width="306" height="792" fill="white"/>
<g clip-path="url(#clip1)">
<rect x="6" y="20" width="2" height="2" rx="1" fill="black"/>
<rect x="23" y="20" width="2" height="2" rx="1" fill="black"/>
<rect x="40" y="20" width="2" height="2" rx="1" fill="black"/>
<rect x="57" y="20" width="2" height="2" rx="1" fill="black"/>
<rect x="74" y="20" width="2" height="2" rx="1" fill="black"/>
<rect x="91" y="20" width="2" height="2" rx="1" fill="black"/>
<rect x="108" y="20" width="2" height="2" rx="1" fill="black"/>
<rect x="125" y="20" width="2" height="2" rx="1" fill="black"/>
<rect x="142" y="20" width="2" height="2" rx="1" fill="black"/>
<rect x="159" y="20" width="2" height="2" rx="1" fill="black"/>
<rect x="176" y="20" width="2" height="2" rx="1" fill="black"/>
<rect x="193" y="20" width="2" height="2" rx="1" fill="black"/>
<rect x="210" y="20" width="2" height="2" rx="1" fill="black"/>
<rect x="227" y="20" width="2" height="2" rx="1" fill="black"/>
<rect x="244" y="20" width="2" height="2" rx="1" fill="black"/>
<rect x="261" y="20" width="2" height="2" rx="1" fill="black"/>
<rect x="278" y="20" width="2" height="2" rx="1" fill="black"/>
<rect x="6" y="37" width="2" height="2" rx="1" fill="black"/>
<rect x="23" y="37" width="2" height="2" rx="1" fill="black"/>
<rect x="40" y="37" width="2" height="2" rx="1" fill="black"/>
<rect x="57" y="37" width="2" height="2" rx="1" fill="black"/>
<rect x="74" y="37" width="2" height="2" rx="1" fill="black"/>
<rect x="91" y="37" width="2" height="2" rx="1" fill="black"/>
<rect x="108" y="37" width="2" height="2" rx="1" fill="black"/>
<rect x="125" y="37" width="2" height="2" rx="1" fill="black"/>
<rect x="142" y="37" width="2" height="2" rx="1" fill="black"/>
<rect x="159" y="37" width="2" height="2" rx="1" fill="black"/>
<rect x="176" y="37" width="2" height="2" rx="1" fill="black"/>
<rect x="193" y="37" width="2" height="2" rx="1" fill="black"/>
<rect x="210" y="37" width="2" height="2" rx="1" fill="black"/>
<rect x="227" y="37" width="2" height="2" rx="1" fill="black"/>
<rect x="244" y="37" width="2" height="2" rx="1" fill="black"/>
<rect x="261" y="37" width="2" height="2" rx="1" fill="black"/>
<rect x="278" y="37" width="2" height="2" rx="1" fill="black"/>
<rect x="6" y="54" width="2" height="2" rx="1" fill="black"/>
<rect x="23" y="54" width="2" height="2" rx="1" fill="black"/>
<rect x="40" y="54" width="2" height="2" rx="1" fill="black"/>
<rect x="57" y="54" width="2" height="2" rx="1" fill="black"/>
<rect x="74" y="54" width="2" height="2" rx="1" fill="black"/>
<rect x="91" y="54" width="2" height="2" rx="1" fill="black"/>
<rect x="108" y="54" width="2" height="2" rx="1" fill="black"/>
<rect x="125" y="54" width="2" height="2" rx="1" fill="black"/>
<rect x="142" y="54" width="2" height="2" rx="1" fill="black"/>
<rect x="159" y="54" width="2" height="2" rx="1" fill="black"/>
<rect x="176" y="54" width="2" height="2" rx="1" fill="black"/>
<rect x="193" y="54" width="2" height="2" rx="1" fill="black"/>
<rect x="210" y="54" width="2" height="2" rx="1" fill="black"/>
<rect x="227" y="54" width="2" height="2" rx="1" fill="black"/>
<rect x="244" y="54" width="2" height="2" rx="1" fill="black"/>
<rect x="261" y="54" width="2" height="2" rx="1" fill="black"/>
<rect x="278" y="54" width="2" height="2" rx="1" fill="black"/>
<rect x="6" y="71" width="2" height="2" rx="1" fill="black"/>
<rect x="23" y="71" width="2" height="2" rx="1" fill="black"/>
<rect x="40" y="71" width="2" height="2" rx="1" fill="black"/>
<rect x="57" y="71" width="2" height="2" rx="1" fill="black"/>
<rect x="74" y="71" width="2" height="2" rx="1" fill="black"/>
<rect x="91" y="71" width="2" height="2" rx="1" fill="black"/>
<rect x="108" y="71" width="2" height="2" rx="1" fill="black"/>
<rect x="125" y="71" width="2" height="2" rx="1" fill="black"/>
<rect x="142" y="71" width="2" height="2" rx="1" fill="black"/>
<rect x="159" y="71" width="2" height="2" rx="1" fill="black"/>
<rect x="176" y="71" width="2" height="2" rx="1" fill="black"/>
<rect x="193" y="71" width="2" height="2" rx="1" fill="black"/>
<rect x="210" y="71" width="2" height="2" rx="1" fill="black"/>
<rect x="227" y="71" width="2" height="2" rx="1" fill="black"/>
<rect x="244" y="71" width="2" height="2" rx="1" fill="black"/>
<rect x="261" y="71" width="2" height="2" rx="1" fill="black"/>
<rect x="278" y="71" width="2" height="2" rx="1" fill="black"/>
<rect x="6" y="88" width="2" height="2" rx="1" fill="black"/>
<rect x="23" y="88" width="2" height="2" rx="1" fill="black"/>
<rect x="40" y="88" width="2" height="2" rx="1" fill="black"/>
<rect x="57" y="88" width="2" height="2" rx="1" fill="black"/>
<rect x="74" y="88" width="2" height="2" rx="1" fill="black"/>
<rect x="91" y="88" width="2" height="2" rx="1" fill="black"/>
<rect x="108" y="88" width="2" height="2" rx="1" fill="black"/>
<rect x="125" y="88" width="2" height="2" rx="1" fill="black"/>
<rect x="142" y="88" width="2" height="2" rx="1" fill="black"/>
<rect x="159" y="88" width="2" height="2" rx="1" fill="black"/>
<rect x="176" y="88" width="2" height="2" rx="1" fill="black"/>
<rect x="193" y="88" width="2" height="2" rx="1" fill="black"/>
<rect x="210" y="88" width="2" height="2" rx="1" fill="black"/>
<rect x="227" y="88" width="2" height="2" rx="1" fill="black"/>
<rect x="244" y="88" width="2" height="2" rx="1" fill="black"/>
<rect x="261" y="88" width="2" height="2" rx="1" fill="black"/>
<rect x="278" y="88" width="2" height="2" rx="1" fill="black"/>
<rect x="6" y="105" width="2" height="2" rx="1" fill="black"/>
<rect x="23" y="105" width="2" height="2" rx="1" fill="black"/>
<rect x="40" y="105" width="2" height="2" rx="1" fill="black"/>
<rect x="57" y="105" width="2" height="2" rx="1" fill="black"/>
<rect x="74" y="105" width="2" height="2" rx="1" fill="black"/>
<rect x="91" y="105" width="2" height="2" rx="1" fill="black"/>
<rect x="108" y="105" width="2" height="2" rx="1" fill="black"/>
<rect x="125" y="105" width="2" height="2" rx="1" fill="black"/>
<rect x="142" y="105" width="2" height="2" rx="1" fill="black"/>
<rect x="159" y="105" width="2" height="2" rx="1" fill="black"/>
<rect x="176" y="105" width="2" height="2" rx="1" fill="black"/>
<rect x="193" y="105" width="2" height="2" rx="1" fill="black"/>
<rect x="210" y="105" width="2" height="2" rx="1" fill="black"/>
<rect x="227" y="105" width="2" height="2" rx="1" fill="black"/>
<rect x="244" y="105" width="2" height="2" rx="1" fill="black"/>
<rect x="261" y="105" width="2" height="2" rx="1" fill="black"/>
<rect x="278" y="105" width="2" height="2" rx="1" fill="black"/>
<rect x="6" y="122" width="2" height="2" rx="1" fill="black"/>
<rect x="23" y="122" width="2" height="2" rx="1" fill="black"/>
<rect x="40" y="122" width="2" height="2" rx="1" fill="black"/>
<rect x="57" y="122" width="2" height="2" rx="1" fill="black"/>
<rect x="74" y="122" width="2" height="2" rx="1" fill="black"/>
<rect x="91" y="122" width="2" height="2" rx="1" fill="black"/>
<rect x="108" y="122" width="2" height="2" rx="1" fill="black"/>
<rect x="125" y="122" width="2" height="2" rx="1" fill="black"/>
<rect x="142" y="122" width="2" height="2" rx="1" fill="black"/>
<rect x="159" y="122" width="2" height="2" rx="1" fill="black"/>
<rect x="176" y="122" width="2" height="2" rx="1" fill="black"/>
<rect x="193" y="122" width="2" height="2" rx="1" fill="black"/>
<rect x="210" y="122" width="2" height="2" rx="1" fill="black"/>
<rect x="227" y="122" width="2" height="2" rx="1" fill="black"/>
<rect x="244" y="122" width="2" height="2" rx="1" fill="black"/>
<rect x="261" y="122" width="2" height="2" rx="1" fill="black"/>
<rect x="278" y="122" width="2" height="2" rx="1" fill="black"/>
<rect x="6" y="139" width="2" height="2" rx="1" fill="black"/>
<rect x="23" y="139" width="2" height="2" rx="1" fill="black"/>
<rect x="40" y="139" width="2" height="2" rx="1" fill="black"/>
<rect x="57" y="139" width="2" height="2" rx="1" fill="black"/>
<rect x="74" y="139" width="2" height="2" rx="1" fill="black"/>
<rect x="91" y="139" width="2" height="2" rx="1" fill="black"/>
<rect x="108" y="139" width="2" height="2" rx="1" fill="black"/>
<rect x="125" y="139" width="2" height="2" rx="1" fill="black"/>
<rect x="142" y="139" width="2" height="2" rx="1" fill="black"/>
<rect x="159" y="139" width="2" height="2" rx="1" fill="black"/>
<rect x="176" y="139" width="2" height="2" rx="1" fill="black"/>
<rect x="193" y="139" width="2" height="2" rx="1" fill="black"/>
<rect x="210" y="139" width="2" height="2" rx="1" fill="black"/>
<rect x="227" y="139" width="2" height="2" rx="1" fill="black"/>
<rect x="244" y="139" width="2" height="2" rx="1" fill="black"/>
<rect x="261" y="139" width="2" height="2" rx="1" fill="black"/>
<rect x="278" y="139" width="2" height="2" rx="1" fill="black"/>
<rect x="6" y="156" width="2" height="2" rx="1" fill="black"/>
<rect x="23" y="156" width="2" height="2" rx="1" fill="black"/>
<rect x="40" y="156" width="2" height="2" rx="1" fill="black"/>
<rect x="57" y="156" width="2" height="2" rx="1" fill="black"/>
<rect x="74" y="156" width="2" height="2" rx="1" fill="black"/>
<rect x="91" y="156" width="2" height="2" rx="1" fill="black"/>
<rect x="108" y="156" width="2" height="2" rx="1" fill="black"/>
<rect x="125" y="156" width="2" height="2" rx="1" fill="black"/>
<rect x="142" y="156" width="2" height="2" rx="1" fill="black"/>
<rect x="159" y="156" width="2" height="2" rx="1" fill="black"/>
<rect x="176" y="156" width="2" height="2" rx="1" fill="black"/>
<rect x="193" y="156" width="2" height="2" rx="1" fill="black"/>
<rect x="210" y="156" width="2" height="2" rx="1" fill="black"/>
<rect x="227" y="156" width="2" height="2" rx="1" fill="black"/>
<rect x="244" y="156" width="2" height="2" rx="1" fill="black"/>
<rect x="261" y="156" width="2" height="2" rx="1" fill="black"/>
<rect x="278" y="156" width="2" height="2" rx="1" fill="black"/>
<rect x="6" y="173" width="2" height="2" rx="1" fill="black"/>
<rect x="23" y="173" width="2" height="2" rx="1" fill="black"/>
<rect x="40" y="173" width="2" height="2" rx="1" fill="black"/>
<rect x="57" y="173" width="2" height="2" rx="1" fill="black"/>
<rect x="74" y="173" width="2" height="2" rx="1" fill="black"/>
<rect x="91" y="173" width="2" height="2" rx="1" fill="black"/>
<rect x="108" y="173" width="2" height="2" rx="1" fill="black"/>
<rect x="125" y="173" width="2" height="2" rx="1" fill="black"/>
<rect x="142" y="173" width="2" height="2" rx="1" fill="black"/>
<rect x="159" y="173" width="2" height="2" rx="1" fill="black"/>
<rect x="176" y="173" width="2" height="2" rx="1" fill="black"/>
<rect x="193" y="173" width="2" height="2" rx="1" fill="black"/>
<rect x="210" y="173" width="2" height="2" rx="1" fill="black"/>
<rect x="227" y="173" width="2" height="2" rx="1" fill="black"/>
<rect x="244" y="173" width="2" height="2" rx="1" fill="black"/>
<rect x="261" y="173" width="2" height="2" rx="1" fill="black"/>
<rect x="278" y="173" width="2" height="2" rx="1" fill="black"/>
<rect x="6" y="190" width="2" height="2" rx="1" fill="black"/>
<rect x="23" y="190" width="2" height="2" rx="1" fill="black"/>
<rect x="40" y="190" width="2" height="2" rx="1" fill="black"/>
<rect x="57" y="190" width="2" height="2" rx="1" fill="black"/>
<rect x="74" y="190" width="2" height="2" rx="1" fill="black"/>
<rect x="91" y="190" width="2" height="2" rx="1" fill="black"/>
<rect x="108" y="190" width="2" height="2" rx="1" fill="black"/>
<rect x="125" y="190" width="2" height="2" rx="1" fill="black"/>
<rect x="142" y="190" width="2" height="2" rx="1" fill="black"/>
<rect x="159" y="190" width="2" height="2" rx="1" fill="black"/>
<rect x="176" y="190" width="2" height="2" rx="1" fill="black"/>
<rect x="193" y="190" width="2" height="2" rx="1" fill="black"/>
<rect x="210" y="190" width="2" height="2" rx="1" fill="black"/>
<rect x="227" y="190" width="2" height="2" rx="1" fill="black"/>
<rect x="244" y="190" width="2" height="2" rx="1" fill="black"/>
<rect x="261" y="190" width="2" height="2" rx="1" fill="black"/>
<rect x="278" y="190" width="2" height="2" rx="1" fill="black"/>
<rect x="6" y="207" width="2" height="2" rx="1" fill="black"/>
<rect x="23" y="207" width="2" height="2" rx="1" fill="black"/>
<rect x="40" y="207" width="2" height="2" rx="1" fill="black"/>
<rect x="57" y="207" width="2" height="2" rx="1" fill="black"/>
<rect x="74" y="207" width="2" height="2" rx="1" fill="black"/>
<rect x="91" y="207" width="2" height="2" rx="1" fill="black"/>
<rect x="108" y="207" width="2" height="2" rx="1" fill="black"/>
<rect x="125" y="207" width="2" height="2" rx="1" fill="black"/>
<rect x="142" y="207" width="2" height="2" rx="1" fill="black"/>
<rect x="159" y="207" width="2" height="2" rx="1" fill="black"/>
<rect x="176" y="207" width="2" height="2" rx="1" fill="black"/>
<rect x="193" y="207" width="2" height="2" rx="1" fill="black"/>
<rect x="210" y="207" width="2" height="2" rx="1" fill="black"/>
<rect x="227" y="207" width="2" height="2" rx="1" fill="black"/>
<rect x="244" y="207" width="2" height="2" rx="1" fill="black"/>
<rect x="261" y="207" width="2" height="2" rx="1" fill="black"/>
<rect x="278" y="207" width="2" height="2" rx="1" fill="black"/>
<rect x="6" y="224" width="2" height="2" rx="1" fill="black"/>
<rect x="23" y="224" width="2" height="2" rx="1" fill="black"/>
<rect x="40" y="224" width="2" height="2" rx="1" fill="black"/>
<rect x="57" y="224" width="2" height="2" rx="1" fill="black"/>
<rect x="74" y="224" width="2" height="2" rx="1" fill="black"/>
<rect x="91" y="224" width="2" height="2" rx="1" fill="black"/>
<rect x="108" y="224" width="2" height="2" rx="1" fill="black"/>
<rect x="125" y="224" width="2" height="2" rx="1" fill="black"/>
<rect x="142" y="224" width="2" height="2" rx="1" fill="black"/>
<rect x="159" y="224" width="2" height="2" rx="1" fill="black"/>
<rect x="176" y="224" width="2" height="2" rx="1" fill="black"/>
<rect x="193" y="224" width="2" height="2" rx="1" fill="black"/>
<rect x="210" y="224" width="2" height="2" rx="1" fill="black"/>
<rect x="227" y="224" width="2" height="2" rx="1" fill="black"/>
<rect x="244" y="224" width="2" height="2" rx="1" fill="black"/>
<rect x="261" y="224" width="2" height="2" rx="1" fill="black"/>
<rect x="278" y="224" width="2" height="2" rx="1" fill="black"/>
<rect x="6" y="241" width="2" height="2" rx="1" fill="black"/>
<rect x="23" y="241" width="2" height="2" rx="1" fill="black"/>
<rect x="40" y="241" width="2" height="2" rx="1" fill="black"/>
<rect x="57" y="241" width="2" height="2" rx="1" fill="black"/>
<rect x="74" y="241" width="2" height="2" rx="1" fill="black"/>
<rect x="91" y="241" width="2" height="2" rx="1" fill="black"/>
<rect x="108" y="241" width="2" height="2" rx="1" fill="black"/>
<rect x="125" y="241" width="2" height="2" rx="1" fill="black"/>
<rect x="142" y="241" width="2" height="2" rx="1" fill="black"/>
<rect x="159" y="241" width="2" height="2" rx="1" fill="black"/>
<rect x="176" y="241" width="2" height="2" rx="1" fill="black"/>
<rect x="193" y="241" width="2" height="2" rx="1" fill="black"/>
<rect x="210" y="241" width="2" height="2" rx="1" fill="black"/>
<rect x="227" y="241" width="2" height="2" rx="1" fill="black"/>
<rect x="244" y="241" width="2" height="2" rx="1" fill="black"/>
<rect x="261" y="241" width="2" height="2" rx="1" fill="black"/>
<rect x="278" y="241" width="2" height="2" rx="1" fill="black"/>
<rect x="6" y="258" width="2" height="2" rx="1" fill="black"/>
<rect x="23" y="258" width="2" height="2" rx="1" fill="black"/>
<rect x="40" y="258" width="2" height="2" rx="1" fill="black"/>
<rect x="57" y="258" width="2" height="2" rx="1" fill="black"/>
<rect x="74" y="258" width="2" height="2" rx="1" fill="black"/>
<rect x="91" y="258" width="2" height="2" rx="1" fill="black"/>
<rect x="108" y="258" width="2" height="2" rx="1" fill="black"/>
<rect x="125" y="258" width="2" height="2" rx="1" fill="black"/>
<rect x="142" y="258" width="2" height="2" rx="1" fill="black"/>
<rect x="159" y="258" width="2" height="2" rx="1" fill="black"/>
<rect x="176" y="258" width="2" height="2" rx="1" fill="black"/>
<rect x="193" y="258" width="2" height="2" rx="1" fill="black"/>
<rect x="210" y="258" width="2" height="2" rx="1" fill="black"/>
<rect x="227" y="258" width="2" height="2" rx="1" fill="black"/>
<rect x="244" y="258" width="2" height="2" rx="1" fill="black"/>
<rect x="261" y="258" width="2" height="2" rx="1" fill="black"/>
<rect x="278" y="258" width="2" height="2" rx="1" fill="black"/>
<rect x="6" y="275" width="2" height="2" rx="1" fill="black"/>
<rect x="23" y="275" width="2" height="2" rx="1" fill="black"/>
<rect x="40" y="275" width="2" height="2" rx="1" fill="black"/>
<rect x="57" y="275" width="2" height="2" rx="1" fill="black"/>
<rect x="74" y="275" width="2" height="2" rx="1" fill="black"/>
<rect x="91" y="275" width="2" height="2" rx="1" fill="black"/>
<rect x="108" y="275" width="2" height="2" rx="1" fill="black"/>
<rect x="125" y="275" width="2" height="2" rx="1" fill="black"/>
<rect x="142" y="275" width="2" height="2" rx="1" fill="black"/>
<rect x="159" y="275" width="2" height="2" rx="1" fill="black"/>
<rect x="176" y="275" width="2" height="2" rx="1" fill="black"/>
<rect x="193" y="275" width="2" height="2" rx="1" fill="black"/>
<rect x="210" y="275" width="2" height="2" rx="1" fill="black"/>
<rect x="227" y="275" width="2" height="2" rx="1" fill="black"/>
<rect x="244" y="275" width="2" height="2" rx="1" fill="black"/>
<rect x="261" y="275" width="2" height="2" rx="1" fill="black"/>
<rect x="278" y="275" width="2" height="2" rx="1" fill="black"/>
<rect x="6" y="292" width="2" height="2" rx="1" fill="black"/>
<rect x="23" y="292" width="2" height="2" rx="1" fill="black"/>
<rect x="40" y="292" width="2" height="2" rx="1" fill="black"/>
<rect x="57" y="292" width="2" height="2" rx="1" fill="black"/>
<rect x="74" y="292" width="2" height="2" rx="1" fill="black"/>
<rect x="91" y="292" width="2" height="2" rx="1" fill="black"/>
<rect x="108" y="292" width="2" height="2" rx="1" fill="black"/>
<rect x="125" y="292" width="2" height="2" rx="1" fill="black"/>
<rect x="142" y="292" width="2" height="2" rx="1" fill="black"/>
<rect x="159" y="292" width="2" height="2" rx="1" fill="black"/>
<rect x="176" y="292" width="2" height="2" rx="1" fill="black"/>
<rect x="193" y="292" width="2" height="2" rx="1" fill="black"/>
<rect x="210" y="292" width="2" height="2" rx="1" fill="black"/>
<rect x="227" y="292" width="2" height="2" rx="1" fill="black"/>
<rect x="244" y="292" width="2" height="2" rx="1" fill="black"/>
<rect x="261" y="292" width="2" height="2" rx="1" fill="black"/>
<rect x="278" y="292" width="2" height="2" rx="1" fill="black"/>
<rect x="6" y="309" width="2" height="2" rx="1" fill="black"/>
<rect x="23" y="309" width="2" height="2" rx="1" fill="black"/>
<rect x="40" y="309" width="2" height="2" rx="1" fill="black"/>
<rect x="57" y="309" width="2" height="2" rx="1" fill="black"/>
<rect x="74" y="309" width="2" height="2" rx="1" fill="black"/>
<rect x="91" y="309" width="2" height="2" rx="1" fill="black"/>
<rect x="108" y="309" width="2" height="2" rx="1" fill="black"/>
<rect x="125" y="309" width="2" height="2" rx="1" fill="black"/>
<rect x="142" y="309" width="2" height="2" rx="1" fill="black"/>
<rect x="159" y="309" width="2" height="2" rx="1" fill="black"/>
<rect x="176" y="309" width="2" height="2" rx="1" fill="black"/>
<rect x="193" y="309" width="2" height="2" rx="1" fill="black"/>
<rect x="210" y="309" width="2" height="2" rx="1" fill="black"/>
<rect x="227" y="309" width="2" height="2" rx="1" fill="black"/>
<rect x="244" y="309" width="2" height="2" rx="1" fill="black"/>
<rect x="261" y="309" width="2" height="2" rx="1" fill="black"/>
<rect x="278" y="309" width="2" height="2" rx="1" fill="black"/>
<rect x="6" y="326" width="2" height="2" rx="1" fill="black"/>
<rect x="23" y="326" width="2" height="2" rx="1" fill="black"/>
<rect x="40" y="326" width="2" height="2" rx="1" fill="black"/>
<rect x="57" y="326" width="2" height="2" rx="1" fill="black"/>
<rect x="74" y="326" width="2" height="2" rx="1" fill="black"/>
<rect x="91" y="326" width="2" height="2" rx="1" fill="black"/>
<rect x="108" y="326" width="2" height="2" rx="1" fill="black"/>
<rect x="125" y="326" width="2" height="2" rx="1" fill="black"/>
<rect x="142" y="326" width="2" height="2" rx="1" fill="black"/>
<rect x="159" y="326" width="2" height="2" rx="1" fill="black"/>
<rect x="176" y="326" width="2" height="2" rx="1" fill="black"/>
<rect x="193" y="326" width="2" height="2" rx="1" fill="black"/>
<rect x="210" y="326" width="2" height="2" rx="1" fill="black"/>
<rect x="227" y="326" width="2" height="2" rx="1" fill="black"/>
<rect x="244" y="326" width="2" height="2" rx="1" fill="black"/>
<rect x="261" y="326" width="2" height="2" rx="1" fill="black"/>
<rect x="278" y="326" width="2" height="2" rx="1" fill="black"/>
<rect x="6" y="343" width="2" height="2" rx="1" fill="black"/>
<rect x="23" y="343" width="2" height="2" rx="1" fill="black"/>
<rect x="40" y="343" width="2" height="2" rx="1" fill="black"/>
<rect x="57" y="343" width="2" height="2" rx="1" fill="black"/>
<rect x="74" y="343" width="2" height="2" rx="1" fill="black"/>
<rect x="91" y="343" width="2" height="2" rx="1" fill="black"/>
<rect x="108" y="343" width="2" height="2" rx="1" fill="black"/>
<rect x="125" y="343" width="2" height="2" rx="1" fill="black"/>
<rect x="142" y="343" width="2" height="2" rx="1" fill="black"/>
<rect x="159" y="343" width="2" height="2" rx="1" fill="black"/>
<rect x="176" y="343" width="2" height="2" rx="1" fill="black"/>
<rect x="193" y="343" width="2" height="2" rx="1" fill="black"/>
<rect x="210" y="343" width="2" height="2" rx="1" fill="black"/>
<rect x="227" y="343" width="2" height="2" rx="1" fill="black"/>
<rect x="244" y="343" width="2" height="2" rx="1" fill="black"/>
<rect x="261" y="343" width="2" height="2" rx="1" fill="black"/>
<rect x="278" y="343" width="2" height="2" rx="1" fill="black"/>
<rect x="6" y="360" width="2" height="2" rx="1" fill="black"/>
<rect x="23" y="360" width="2" height="2" rx="1" fill="black"/>
<rect x="40" y="360" width="2" height="2" rx="1" fill="black"/>
<rect x="57" y="360" width="2" height="2" rx="1" fill="black"/>
<rect x="74" y="360" width="2" height="2" rx="1" fill="black"/>
<rect x="91" y="360" width="2" height="2" rx="1" fill="black"/>
<rect x="108" y="360" width="2" height="2" rx="1" fill="black"/>
<rect x="125" y="360" width="2" height="2" rx="1" fill="black"/>
<rect x="142" y="360" width="2" height="2" rx="1" fill="black"/>
<rect x="159" y="360" width="2" height="2" rx="1" fill="black"/>
<rect x="176" y="360" width="2" height="2" rx="1" fill="black"/>
<rect x="193" y="360" width="2" height="2" rx="1" fill="black"/>
<rect x="210" y="360" width="2" height="2" rx="1" fill="black"/>
<rect x="227" y="360" width="2" height="2" rx="1" fill="black"/>
<rect x="244" y="360" width="2" height="2" rx="1" fill="black"/>
<rect x="261" y="360" width="2" height="2" rx="1" fill="black"/>
<rect x="278" y="360" width="2" height="2" rx="1" fill="black"/>
<rect x="6" y="377" width="2" height="2" rx="1" fill="black"/>
<rect x="23" y="377" width="2" height="2" rx="1" fill="black"/>
<rect x="40" y="377" width="2" height="2" rx="1" fill="black"/>
<rect x="57" y="377" width="2" height="2" rx="1" fill="black"/>
<rect x="74" y="377" width="2" height="2" rx="1" fill="black"/>
<rect x="91" y="377" width="2" height="2" rx="1" fill="black"/>
<rect x="108" y="377" width="2" height="2" rx="1" fill="black"/>
<rect x="125" y="377" width="2" height="2" rx="1" fill="black"/>
<rect x="142" y="377" width="2" height="2" rx="1" fill="black"/>
<rect x="159" y="377" width="2" height="2" rx="1" fill="black"/>
<rect x="176" y="377" width="2" height="2" rx="1" fill="black"/>
<rect x="193" y="377" width="2" height="2" rx="1" fill="black"/>
<rect x="210" y="377" width="2" height="2" rx="1" fill="black"/>
<rect x="227" y="377" width="2" height="2" rx="1" fill="black"/>
<rect x="244" y="377" width="2" height="2" rx="1" fill="black"/>
<rect x="261" y="377" width="2" height="2" rx="1" fill="black"/>
<rect x="278" y="377" width="2" height="2" rx="1" fill="black"/>
<rect x="6" y="394" width="2" height="2" rx="1" fill="black"/>
<rect x="23" y="394" width="2" height="2" rx="1" fill="black"/>
<rect x="40" y="394" width="2" height="2" rx="1" fill="black"/>
<rect x="57" y="394" width="2" height="2" rx="1" fill="black"/>
<rect x="74" y="394" width="2" height="2" rx="1" fill="black"/>
<rect x="91" y="394" width="2" height="2" rx="1" fill="black"/>
<rect x="108" y="394" width="2" height="2" rx="1" fill="black"/>
<rect x="125" y="394" width="2" height="2" rx="1" fill="black"/>
<rect x="142" y="394" width="2" height="2" rx="1" fill="black"/>
<rect x="159" y="394" width="2" height="2" rx="1" fill="black"/>
<rect x="176" y="394" width="2" height="2" rx="1" fill="black"/>
<rect x="193" y="394" width="2" height="2" rx="1" fill="black"/>
<rect x="210" y="394" width="2" height="2" rx="1" fill="black"/>
<rect x="227" y="394" width="2" height="2" rx="1" fill="black"/>
<rect x="244" y="394" width="2" height="2" rx="1" fill="black"/>
<rect x="261" y="394" width="2" height="2" rx="1" fill="black"/>
<rect x="278" y="394" width="2" height="2" rx="1" fill="black"/>
<rect x="6" y="411" width="2" height="2" rx="1" fill="black"/>
<rect x="23" y="411" width="2" height="2" rx="1" fill="black"/>
<rect x="40" y="411" width="2" height="2" rx="1" fill="black"/>
<rect x="57" y="411" width="2" height="2" rx="1" fill="black"/>
<rect x="74" y="411" width="2" height="2" rx="1" fill="black"/>
<rect x="91" y="411" width="2" height="2" rx="1" fill="black"/>
<rect x="108" y="411" width="2" height="2" rx="1" fill="black"/>
<rect x="125" y="411" width="2" height="2" rx="1" fill="black"/>
<rect x="142" y="411" width="2" height="2" rx="1" fill="black"/>
<rect x="159" y="411" width="2" height="2" rx="1" fill="black"/>
<rect x="176" y="411" width="2" height="2" rx="1" fill="black"/>
<rect x="193" y="411" width="2" height="2" rx="1" fill="black"/>
<rect x="210" y="411" width="2" height="2" rx="1" fill="black"/>
<rect x="227" y="411" width="2" height="2" rx="1" fill="black"/>
<rect x="244" y="411" width="2" height="2" rx="1" fill="black"/>
<rect x="261" y="411" width="2" height="2" rx="1" fill="black"/>
<rect x="278" y="411" width="2" height="2" rx="1" fill="black"/>
<rect x="6" y="428" width="2" height="2" rx="1" fill="black"/>
<rect x="23" y="428" width="2" height="2" rx="1" fill="black"/>
<rect x="40" y="428" width="2" height="2" rx="1" fill="black"/>
<rect x="57" y="428" width="2" height="2" rx="1" fill="black"/>
<rect x="74" y="428" width="2" height="2" rx="1" fill="black"/>
<rect x="91" y="428" width="2" height="2" rx="1" fill="black"/>
<rect x="108" y="428" width="2" height="2" rx="1" fill="black"/>
<rect x="125" y="428" width="2" height="2" rx="1" fill="black"/>
<rect x="142" y="428" width="2" height="2" rx="1" fill="black"/>
<rect x="159" y="428" width="2" height="2" rx="1" fill="black"/>
<rect x="176" y="428" width="2" height="2" rx="1" fill="black"/>
<rect x="193" y="428" width="2" height="2" rx="1" fill="black"/>
<rect x="210" y="428" width="2" height="2" rx="1" fill="black"/>
<rect x="227" y="428" width="2" height="2" rx="1" fill="black"/>
<rect x="244" y="428" width="2" height="2" rx="1" fill="black"/>
<rect x="261" y="428" width="2" height="2" rx="1" fill="black"/>
<rect x="278" y="428" width="2" height="2" rx="1" fill="black"/>
<rect x="6" y="445" width="2" height="2" rx="1" fill="black"/>
<rect x="23" y="445" width="2" height="2" rx="1" fill="black"/>
<rect x="40" y="445" width="2" height="2" rx="1" fill="black"/>
<rect x="57" y="445" width="2" height="2" rx="1" fill="black"/>
<rect x="74" y="445" width="2" height="2" rx="1" fill="black"/>
<rect x="91" y="445" width="2" height="2" rx="1" fill="black"/>
<rect x="108" y="445" width="2" height="2" rx="1" fill="black"/>
<rect x="125" y="445" width="2" height="2" rx="1" fill="black"/>
<rect x="142" y="445" width="2" height="2" rx="1" fill="black"/>
<rect x="159" y="445" width="2" height="2" rx="1" fill="black"/>
<rect x="176" y="445" width="2" height="2" rx="1" fill="black"/>
<rect x="193" y="445" width="2" height="2" rx="1" fill="black"/>
<rect x="210" y="445" width="2" height="2" rx="1" fill="black"/>
<rect x="227" y="445" width="2" height="2" rx="1" fill="black"/>
<rect x="244" y="445" width="2" height="2" rx="1" fill="black"/>
<rect x="261" y="445" width="2" height="2" rx="1" fill="black"/>
<rect x="278" y="445" width="2" height="2" rx="1" fill="black"/>
<rect x="6" y="462" width="2" height="2" rx="1" fill="black"/>
<rect x="23" y="462" width="2" height="2" rx="1" fill="black"/>
<rect x="40" y="462" width="2" height="2" rx="1" fill="black"/>
<rect x="57" y="462" width="2" height="2" rx="1" fill="black"/>
<rect x="74" y="462" width="2" height="2" rx="1" fill="black"/>
<rect x="91" y="462" width="2" height="2" rx="1" fill="black"/>
<rect x="108" y="462" width="2" height="2" rx="1" fill="black"/>
<rect x="125" y="462" width="2" height="2" rx="1" fill="black"/>
<rect x="142" y="462" width="2" height="2" rx="1" fill="black"/>
<rect x="159" y="462" width="2" height="2" rx="1" fill="black"/>
<rect x="176" y="462" width="2" height="2" rx="1" fill="black"/>
<rect x="193" y="462" width="2" height="2" rx="1" fill="black"/>
<rect x="210" y="462" width="2" height="2" rx="1" fill="black"/>
<rect x="227" y="462" width="2" height="2" rx="1" fill="black"/>
<rect x="244" y="462" width="2" height="2" rx="1" fill="black"/>
<rect x="261" y="462" width="2" height="2" rx="1" fill="black"/>
<rect x="278" y="462" width="2" height="2" rx="1" fill="black"/>
<rect x="6" y="479" width="2" height="2" rx="1" fill="black"/>
<rect x="23" y="479" width="2" height="2" rx="1" fill="black"/>
<rect x="40" y="479" width="2" height="2" rx="1" fill="black"/>
<rect x="57" y="479" width="2" height="2" rx="1" fill="black"/>
<rect x="74" y="479" width="2" height="2" rx="1" fill="black"/>
<rect x="91" y="479" width="2" height="2" rx="1" fill="black"/>
<rect x="108" y="479" width="2" height="2" rx="1" fill="black"/>
<rect x="125" y="479" width="2" height="2" rx="1" fill="black"/>
<rect x="142" y="479" width="2" height="2" rx="1" fill="black"/>
<rect x="159" y="479" width="2" height="2" rx="1" fill="black"/>
<rect x="176" y="479" width="2" height="2" rx="1" fill="black"/>
<rect x="193" y="479" width="2" height="2" rx="1" fill="black"/>
<rect x="210" y="479" width="2" height="2" rx="1" fill="black"/>
<rect x="227" y="479" width="2" height="2" rx="1" fill="black"/>
<rect x="244" y="479" width="2" height="2" rx="1" fill="black"/>
<rect x="261" y="479" width="2" height="2" rx="1" fill="black"/>
<rect x="278" y="479" width="2" height="2" rx="1" fill="black"/>
<rect x="6" y="496" width="2" height="2" rx="1" fill="black"/>
<rect x="23" y="496" width="2" height="2" rx="1" fill="black"/>
<rect x="40" y="496" width="2" height="2" rx="1" fill="black"/>
<rect x="57" y="496" width="2" height="2" rx="1" fill="black"/>
<rect x="74" y="496" width="2" height="2" rx="1" fill="black"/>
<rect x="91" y="496" width="2" height="2" rx="1" fill="black"/>
<rect x="108" y="496" width="2" height="2" rx="1" fill="black"/>
<rect x="125" y="496" width="2" height="2" rx="1" fill="black"/>
<rect x="142" y="496" width="2" height="2" rx="1" fill="black"/>
<rect x="159" y="496" width="2" height="2" rx="1" fill="black"/>
<rect x="176" y="496" width="2" height="2" rx="1" fill="black"/>
<rect x="193" y="496" width="2" height="2" rx="1" fill="black"/>
<rect x="210" y="496" width="2" height="2" rx="1" fill="black"/>
<rect x="227" y="496" width="2" height="2" rx="1" fill="black"/>
<rect x="244" y="496" width="2" height="2" rx="1" fill="black"/>
<rect x="261" y="496" width="2" height="2" rx="1" fill="black"/>
<rect x="278" y="496" width="2" height="2" rx="1" fill="black"/>
<rect x="6" y="513" width="2" height="2" rx="1" fill="black"/>
<rect x="23" y="513" width="2" height="2" rx="1" fill="black"/>
<rect x="40" y="513" width="2" height="2" rx="1" fill="black"/>
<rect x="57" y="513" width="2" height="2" rx="1" fill="black"/>
<rect x="74" y="513" width="2" height="2" rx="1" fill="black"/>
<rect x="91" y="513" width="2" height="2" rx="1" fill="black"/>
<rect x="108" y="513" width="2" height="2" rx="1" fill="black"/>
<rect x="125" y="513" width="2" height="2" rx="1" fill="black"/>
<rect x="142" y="513" width="2" height="2" rx="1" fill="black"/>
<rect x="159" y="513" width="2" height="2" rx="1" fill="black"/>
<rect x="176" y="513" width="2" height="2" rx="1" fill="black"/>
<rect x="193" y="513" width="2" height="2" rx="1" fill="black"/>
<rect x="210" y="513" width="2" height="2" rx="1" fill="black"/>
<rect x="227" y="513" width="2" height="2" rx="1" fill="black"/>
<rect x="244" y="513" width="2" height="2" rx="1" fill="black"/>
<rect x="261" y="513" width="2" height="2" rx="1" fill="black"/>
<rect x="278" y="513" width="2" height="2" rx="1" fill="black"/>
<rect x="6" y="530" width="2" height="2" rx="1" fill="black"/>
<rect x="23" y="530" width="2" height="2" rx="1" fill="black"/>
<rect x="40" y="530" width="2" height="2" rx="1" fill="black"/>
<rect x="57" y="530" width="2" height="2" rx="1" fill="black"/>
<rect x="74" y="530" width="2" height="2" rx="1" fill="black"/>
<rect x="91" y="530" width="2" height="2" rx="1" fill="black"/>
<rect x="108" y="530" width="2" height="2" rx="1" fill="black"/>
<rect x="125" y="530" width="2" height="2" rx="1" fill="black"/>
<rect x="142" y="530" width="2" height="2" rx="1" fill="black"/>
<rect x="159" y="530" width="2" height="2" rx="1" fill="black"/>
<rect x="176" y="530" width="2" height="2" rx="1" fill="black"/>
<rect x="193" y="530" width="2" height="2" rx="1" fill="black"/>
<rect x="210" y="530" width="2" height="2" rx="1" fill="black"/>
<rect x="227" y="530" width="2" height="2" rx="1" fill="black"/>
<rect x="244" y="530" width="2" height="2" rx="1" fill="black"/>
<rect x="261" y="530" width="2" height="2" rx="1" fill="black"/>
<rect x="278" y="530" width="2" height="2" rx="1" fill="black"/>
<rect x="6" y="547" width="2" height="2" rx="1" fill="black"/>
<rect x="23" y="547" width="2" height="2" rx="1" fill="black"/>
<rect x="40" y="547" width="2" height="2" rx="1" fill="black"/>
<rect x="57" y="547" width="2" height="2" rx="1" fill="black"/>
<rect x="74" y="547" width="2" height="2" rx="1" fill="black"/>
<rect x="91" y="547" width="2" height="2" rx="1" fill="black"/>
<rect x="108" y="547" width="2" height="2" rx="1" fill="black"/>
<rect x="125" y="547" width="2" height="2" rx="1" fill="black"/>
<rect x="142" y="547" width="2" height="2" rx="1" fill="black"/>
<rect x="159" y="547" width="2" height="2" rx="1" fill="black"/>
<rect x="176" y="547" width="2" height="2" rx="1" fill="black"/>
<rect x="193" y="547" width="2" height="2" rx="1" fill="black"/>
<rect x="210" y="547" width="2" height="2" rx="1" fill="black"/>
<rect x="227" y="547" width="2" height="2" rx="1" fill="black"/>
<rect x="244" y="547" width="2" height="2" rx="1" fill="black"/>
<rect x="261" y="547" width="2" height="2" rx="1" fill="black"/>
<rect x="278" y="547" width="2" height="2" rx="1" fill="black"/>
<rect x="6" y="564" width="2" height="2" rx="1" fill="black"/>
<rect x="23" y="564" width="2" height="2" rx="1" fill="black"/>
<rect x="40" y="564" width="2" height="2" rx="1" fill="black"/>
<rect x="57" y="564" width="2" height="2" rx="1" fill="black"/>
<rect x="74" y="564" width="2" height="2" rx="1" fill="black"/>
<rect x="91" y="564" width="2" height="2" rx="1" fill="black"/>
<rect x="108" y="564" width="2" height="2" rx="1" fill="black"/>
<rect x="125" y="564" width="2" height="2" rx="1" fill="black"/>
<rect x="142" y="564" width="2" height="2" rx="1" fill="black"/>
<rect x="159" y="564" width="2" height="2" rx="1" fill="black"/>
<rect x="176" y="564" width="2" height="2" rx="1" fill="black"/>
<rect x="193" y="564" width="2" height="2" rx="1" fill="black"/>
<rect x="210" y="564" width="2" height="2" rx="1" fill="black"/>
<rect x="227" y="564" width="2" height="2" rx="1" fill="black"/>
<rect x="244" y="564" width="2" height="2" rx="1" fill="black"/>
<rect x="261" y="564" width="2" height="2" rx="1" fill="black"/>
<rect x="278" y="564" width="2" height="2" rx="1" fill="black"/>
<rect x="6" y="581" width="2" height="2" rx="1" fill="black"/>
<rect x="23" y="581" width="2" height="2" rx="1" fill="black"/>
<rect x="40" y="581" width="2" height="2" rx="1" fill="black"/>
<rect x="57" y="581" width="2" height="2" rx="1" fill="black"/>
<rect x="74" y="581" width="2" height="2" rx="1" fill="black"/>
<rect x="91" y="581" width="2" height="2" rx="1" fill="black"/>
<rect x="108" y="581" width="2" height="2" rx="1" fill="black"/>
<rect x="125" y="581" width="2" height="2" rx="1" fill="black"/>
<rect x="142" y="581" width="2" height="2" rx="1" fill="black"/>
<rect x="159" y="581" width="2" height="2" rx="1" fill="black"/>
<rect x="176" y="581" width="2" height="2" rx="1" fill="black"/>
<rect x="193" y="581" width="2" height="2" rx="1" fill="black"/>
<rect x="210" y="581" width="2" height="2" rx="1" fill="black"/>
<rect x="227" y="581" width="2" height="2" rx="1" fill="black"/>
<rect x="244" y="581" width="2" height="2" rx="1" fill="black"/>
<rect x="261" y="581" width="2" height="2" rx="1" fill="black"/>
<rect x="278" y="581" width="2" height="2" rx="1" fill="black"/>
<rect x="6" y="598" width="2" height="2" rx="1" fill="black"/>
<rect x="23" y="598" width="2" height="2" rx="1" fill="black"/>
<rect x="40" y="598" width="2" height="2" rx="1" fill="black"/>
<rect x="57" y="598" width="2" height="2" rx="1" fill="black"/>
<rect x="74" y="598" width="2" height="2" rx="1" fill="black"/>
<rect x="91" y="598" width="2" height="2" rx="1" fill="black"/>
<rect x="108" y="598" width="2" height="2" rx="1" fill="black"/>
<rect x="125" y="598" width="2" height="2" rx="1" fill="black"/>
<rect x="142" y="598" width="2" height="2" rx="1" fill="black"/>
<rect x="159" y="598" width="2" height="2" rx="1" fill="black"/>
<rect x="176" y="598" width="2" height="2" rx="1" fill="black"/>
<rect x="193" y="598" width="2" height="2" rx="1" fill="black"/>
<rect x="210" y="598" width="2" height="2" rx="1" fill="black"/>
<rect x="227" y="598" width="2" height="2" rx="1" fill="black"/>
<rect x="244" y="598" width="2" height="2" rx="1" fill="black"/>
<rect x="261" y="598" width="2" height="2" rx="1" fill="black"/>
<rect x="278" y="598" width="2" height="2" rx="1" fill="black"/>
<rect x="6" y="615" width="2" height="2" rx="1" fill="black"/>
<rect x="23" y="615" width="2" height="2" rx="1" fill="black"/>
<rect x="40" y="615" width="2" height="2" rx="1" fill="black"/>
<rect x="57" y="615" width="2" height="2" rx="1" fill="black"/>
<rect x="74" y="615" width="2" height="2" rx="1" fill="black"/>
<rect x="91" y="615" width="2" height="2" rx="1" fill="black"/>
<rect x="108" y="615" width="2" height="2" rx="1" fill="black"/>
<rect x="125" y="615" width="2" height="2" rx="1" fill="black"/>
<rect x="142" y="615" width="2" height="2" rx="1" fill="black"/>
<rect x="159" y="615" width="2" height="2" rx="1" fill="black"/>
<rect x="176" y="615" width="2" height="2" rx="1" fill="black"/>
<rect x="193" y="615" width="2" height="2" rx="1" fill="black"/>
<rect x="210" y="615" width="2" height="2" rx="1" fill="black"/>
<rect x="227" y="615" width="2" height="2" rx="1" fill="black"/>
<rect x="244" y="615" width="2" height="2" rx="1" fill="black"/>
<rect x="261" y="615" width="2" height="2" rx="1" fill="black"/>
<rect x="278" y="615" width="2" height="2" rx="1" fill="black"/>
<rect x="6" y="632" width="2" height="2" rx="1" fill="black"/>
<rect x="23" y="632" width="2" height="2" rx="1" fill="black"/>
<rect x="40" y="632" width="2" height="2" rx="1" fill="black"/>
<rect x="57" y="632" width="2" height="2" rx="1" fill="black"/>
<rect x="74" y="632" width="2" height="2" rx="1" fill="black"/>
<rect x="91" y="632" width="2" height="2" rx="1" fill="black"/>
<rect x="108" y="632" width="2" height="2" rx="1" fill="black"/>
<rect x="125" y="632" width="2" height="2" rx="1" fill="black"/>
<rect x="142" y="632" width="2" height="2" rx="1" fill="black"/>
<rect x="159" y="632" width="2" height="2" rx="1" fill="black"/>
<rect x="176" y="632" width="2" height="2" rx="1" fill="black"/>
<rect x="193" y="632" width="2" height="2" rx="1" fill="black"/>
<rect x="210" y="632" width="2" height="2" rx="1" fill="black"/>
<rect x="227" y="632" width="2" height="2" rx="1" fill="black"/>
<rect x="244" y="632" width="2" height="2" rx="1" fill="black"/>
<rect x="261" y="632" width="2" height="2" rx="1" fill="black"/>
<rect x="278" y="632" width="2" height="2" rx="1" fill="black"/>
<rect x="6" y="649" width="2" height="2" rx="1" fill="black"/>
<rect x="23" y="649" width="2" height="2" rx="1" fill="black"/>
<rect x="40" y="649" width="2" height="2" rx="1" fill="black"/>
<rect x="57" y="649" width="2" height="2" rx="1" fill="black"/>
<rect x="74" y="649" width="2" height="2" rx="1" fill="black"/>
<rect x="91" y="649" width="2" height="2" rx="1" fill="black"/>
<rect x="108" y="649" width="2" height="2" rx="1" fill="black"/>
<rect x="125" y="649" width="2" height="2" rx="1" fill="black"/>
<rect x="142" y="649" width="2" height="2" rx="1" fill="black"/>
<rect x="159" y="649" width="2" height="2" rx="1" fill="black"/>
<rect x="176" y="649" width="2" height="2" rx="1" fill="black"/>
<rect x="193" y="649" width="2" height="2" rx="1" fill="black"/>
<rect x="210" y="649" width="2" height="2" rx="1" fill="black"/>
<rect x="227" y="649" width="2" height="2" rx="1" fill="black"/>
<rect x="244" y="649" width="2" height="2" rx="1" fill="black"/>
<rect x="261" y="649" width="2" height="2" rx="1" fill="black"/>
<rect x="278" y="649" width="2" height="2" rx="1" fill="black"/>
<rect x="6" y="666" width="2" height="2" rx="1" fill="black"/>
<rect x="23" y="666" width="2" height="2" rx="1" fill="black"/>
<rect x="40" y="666" width="2" height="2" rx="1" fill="black"/>
<rect x="57" y="666" width="2" height="2" rx="1" fill="black"/>
<rect x="74" y="666" width="2" height="2" rx="1" fill="black"/>
<rect x="91" y="666" width="2" height="2" rx="1" fill="black"/>
<rect x="108" y="666" width="2" height="2" rx="1" fill="black"/>
<rect x="125" y="666" width="2" height="2" rx="1" fill="black"/>
<rect x="142" y="666" width="2" height="2" rx="1" fill="black"/>
<rect x="159" y="666" width="2" height="2" rx="1" fill="black"/>
<rect x="176" y="666" width="2" height="2" rx="1" fill="black"/>
<rect x="193" y="666" width="2" height="2" rx="1" fill="black"/>
<rect x="210" y="666" width="2" height="2" rx="1" fill="black"/>
<rect x="227" y="666" width="2" height="2" rx="1" fill="black"/>
<rect x="244" y="666" width="2" height="2" rx="1" fill="black"/>
<rect x="261" y="666" width="2" height="2" rx="1" fill="black"/>
<rect x="278" y="666" width="2" height="2" rx="1" fill="black"/>
<rect x="6" y="683" width="2" height="2" rx="1" fill="black"/>
<rect x="23" y="683" width="2" height="2" rx="1" fill="black"/>
<rect x="40" y="683" width="2" height="2" rx="1" fill="black"/>
<rect x="57" y="683" width="2" height="2" rx="1" fill="black"/>
<rect x="74" y="683" width="2" height="2" rx="1" fill="black"/>
<rect x="91" y="683" width="2" height="2" rx="1" fill="black"/>
<rect x="108" y="683" width="2" height="2" rx="1" fill="black"/>
<rect x="125" y="683" width="2" height="2" rx="1" fill="black"/>
<rect x="142" y="683" width="2" height="2" rx="1" fill="black"/>
<rect x="159" y="683" width="2" height="2" rx="1" fill="black"/>
<rect x="176" y="683" width="2" height="2" rx="1" fill="black"/>
<rect x="193" y="683" width="2" height="2" rx="1" fill="black"/>
<rect x="210" y="683" width="2" height="2" rx="1" fill="black"/>
<rect x="227" y="683" width="2" height="2" rx="1" fill="black"/>
<rect x="244" y="683" width="2" height="2" rx="1" fill="black"/>
<rect x="261" y="683" width="2" height="2" rx="1" fill="black"/>
<rect x="278" y="683" width="2" height="2" rx="1" fill="black"/>
<rect x="6" y="700" width="2" height="2" rx="1" fill="black"/>
<rect x="23" y="700" width="2" height="2" rx="1" fill="black"/>
<rect x="40" y="700" width="2" height="2" rx="1" fill="black"/>
<rect x="57" y="700" width="2" height="2" rx="1" fill="black"/>
<rect x="74" y="700" width="2" height="2" rx="1" fill="black"/>
<rect x="91" y="700" width="2" height="2" rx="1" fill="black"/>
<rect x="108" y="700" width="2" height="2" rx="1" fill="black"/>
<rect x="125" y="700" width="2" height="2" rx="1" fill="black"/>
<rect x="142" y="700" width="2" height="2" rx="1" fill="black"/>
<rect x="159" y="700" width="2" height="2" rx="1" fill="black"/>
<rect x="176" y="700" width="2" height="2" rx="1" fill="black"/>
<rect x="193" y="700" width="2" height="2" rx="1" fill="black"/>
<rect x="210" y="700" width="2" height="2" rx="1" fill="black"/>
<rect x="227" y="700" width="2" height="2" rx="1" fill="black"/>
<rect x="244" y="700" width="2" height="2" rx="1" fill="black"/>
<rect x="261" y="700" width="2" height="2" rx="1" fill="black"/>
<rect x="278" y="700" width="2" height="2" rx="1" fill="black"/>
<rect x="6" y="717" width="2" height="2" rx="1" fill="black"/>
<rect x="23" y="717" width="2" height="2" rx="1" fill="black"/>
<rect x="40" y="717" width="2" height="2" rx="1" fill="black"/>
<rect x="57" y="717" width="2" height="2" rx="1" fill="black"/>
<rect x="74" y="717" width="2" height="2" rx="1" fill="black"/>
<rect x="91" y="717" width="2" height="2" rx="1" fill="black"/>
<rect x="108" y="717" width="2" height="2" rx="1" fill="black"/>
<rect x="125" y="717" width="2" height="2" rx="1" fill="black"/>
<rect x="142" y="717" width="2" height="2" rx="1" fill="black"/>
<rect x="159" y="717" width="2" height="2" rx="1" fill="black"/>
<rect x="176" y="717" width="2" height="2" rx="1" fill="black"/>
<rect x="193" y="717" width="2" height="2" rx="1" fill="black"/>
<rect x="210" y="717" width="2" height="2" rx="1" fill="black"/>
<rect x="227" y="717" width="2" height="2" rx="1" fill="black"/>
<rect x="244" y="717" width="2" height="2" rx="1" fill="black"/>
<rect x="261" y="717" width="2" height="2" rx="1" fill="black"/>
<rect x="278" y="717" width="2" height="2" rx="1" fill="black"/>
<rect x="6" y="734" width="2" height="2" rx="1" fill="black"/>
<rect x="23" y="734" width="2" height="2" rx="1" fill="black"/>
<rect x="40" y="734" width="2" height="2" rx="1" fill="black"/>
<rect x="57" y="734" width="2" height="2" rx="1" fill="black"/>
<rect x="74" y="734" width="2" height="2" rx="1" fill="black"/>
<rect x="91" y="734" width="2" height="2" rx="1" fill="black"/>
<rect x="108" y="734" width="2" height="2" rx="1" fill="black"/>
<rect x="125" y="734" width="2" height="2" rx="1" fill="black"/>
<rect x="142" y="734" width="2" height="2" rx="1" fill="black"/>
<rect x="159" y="734" width="2" height="2" rx="1" fill="black"/>
<rect x="176" y="734" width="2" height="2" rx="1" fill="black"/>
<rect x="193" y="734" width="2" height="2" rx="1" fill="black"/>
<rect x="210" y="734" width="2" height="2" rx="1" fill="black"/>
<rect x="227" y="734" width="2" height="2" rx="1" fill="black"/>
<rect x="244" y="734" width="2" height="2" rx="1" fill="black"/>
<rect x="261" y="734" width="2" height="2" rx="1" fill="black"/>
<rect x="278" y="734" width="2" height="2" rx="1" fill="black"/>
<rect x="6" y="751" width="2" height="2" rx="1" fill="black"/>
<rect x="23" y="751" width="2" height="2" rx="1" fill="black"/>
<rect x="40" y="751" width="2" height="2" rx="1" fill="black"/>
<rect x="57" y="751" width="2" height="2" rx="1" fill="black"/>
<rect x="74" y="751" width="2" height="2" rx="1" fill="black"/>
<rect x="91" y="751" width="2" height="2" rx="1" fill="black"/>
<rect x="108" y="751" width="2" height="2" rx="1" fill="black"/>
<rect x="125" y="751" width="2" height="2" rx="1" fill="black"/>
<rect x="142" y="751" width="2" height="2" rx="1" fill="black"/>
<rect x="159" y="751" width="2" height="2" rx="1" fill="black"/>
<rect x="176" y="751" width="2" height="2" rx="1" fill="black"/>
<rect x="193" y="751" width="2" height="2" rx="1" fill="black"/>
<rect x="210" y="751" width="2" height="2" rx="1" fill="black"/>
<rect x="227" y="751" width="2" height="2" rx="1" fill="black"/>
<rect x="244" y="751" width="2" height="2" rx="1" fill="black"/>
<rect x="261" y="751" width="2" height="2" rx="1" fill="black"/>
<rect x="278" y="751" width="2" height="2" rx="1" fill="black"/>
<rect x="6" y="768" width="2" height="2" rx="1" fill="black"/>
<rect x="23" y="768" width="2" height="2" rx="1" fill="black"/>
<rect x="40" y="768" width="2" height="2" rx="1" fill="black"/>
<rect x="57" y="768" width="2" height="2" rx="1" fill="black"/>
<rect x="74" y="768" width="2" height="2" rx="1" fill="black"/>
<rect x="91" y="768" width="2" height="2" rx="1" fill="black"/>
<rect x="108" y="768" width="2" height="2" rx="1" fill="black"/>
<rect x="125" y="768" width="2" height="2" rx="1" fill="black"/>
<rect x="142" y="768" width="2" height="2" rx="1" fill="black"/>
<rect x="159" y="768" width="2" height="2" rx="1" fill="black"/>
<rect x="176" y="768" width="2" height="2" rx="1" fill="black"/>
<rect x="193" y="768" width="2" height="2" rx="1" fill="black"/>
<rect x="210" y="768" width="2" height="2" rx="1" fill="black"/>
<rect x="227" y="768" width="2" height="2" rx="1" fill="black"/>
<rect x="244" y="768" width="2" height="2" rx="1" fill="black"/>
<rect x="261" y="768" width="2" height="2" rx="1" fill="black"/>
<rect x="278" y="768" width="2" height="2" rx="1" fill="black"/>
</g>
<rect width="206" height="151" transform="translate(30 46)" fill="white"/>
<path d="M68.6 61V63.92H59.28V89H56.04V63.92H46.68V61H68.6ZM75.4813 61V73.48H88.7613V61H92.0013V89H88.7613V76.44H75.4813V89H72.2413V61H75.4813ZM115.426 61V63.92H101.106V73.48H114.306V76.4H101.106V86.08H115.626V89H97.8663V61H115.426ZM48.08 116.8C48.08 113.147 49.0533 110.347 51 108.4C52.9733 106.427 55.6533 105.44 59.04 105.44C62.4267 105.44 65.0933 106.427 67.04 108.4C69.0133 110.347 70 113.147 70 116.8V123.2C70 126.853 69.0133 129.667 67.04 131.64C65.0933 133.587 62.4267 134.56 59.04 134.56C55.6533 134.56 52.9733 133.587 51 131.64C49.0533 129.667 48.08 126.853 48.08 123.2V116.8ZM51.32 123.36C51.32 125.947 52 127.973 53.36 129.44C54.72 130.907 56.6133 131.64 59.04 131.64C61.4667 131.64 63.3467 130.907 64.68 129.44C66.04 127.973 66.72 125.947 66.72 123.36V116.64C66.72 114.053 66.04 112.027 64.68 110.56C63.32 109.067 61.44 108.32 59.04 108.32C56.6133 108.32 54.72 109.067 53.36 110.56C52 112.027 51.32 114.053 51.32 116.64V123.36ZM80.5738 106L91.5738 130.52H91.9738V106H95.2138V134H89.6538L78.6938 109.48H78.2938V134H75.0538V106H80.5738ZM118.668 106V108.92H104.348V118.48H117.548V121.4H104.348V131.08H118.868V134H101.108V106H118.668ZM123.772 122.32H135.612V125.16H123.772V122.32ZM143.371 106L147.731 130.68H148.131L153.971 106H159.051L164.851 130.68H165.251L169.611 106H172.971L167.811 134H162.571L156.691 109.28H156.291L150.451 134H145.211L140.051 106H143.371ZM187.905 106L196.985 134H193.585L191.305 126.88H179.545L177.265 134H173.865L182.945 106H187.905ZM190.425 123.96L185.625 109H185.225L180.425 123.96H190.425ZM198.759 106L206.519 119.68H206.919L214.639 106H218.399L208.319 123.24V134H205.079V123.24L194.999 106H198.759ZM54.64 151L63.2 175.68H63.6L72.16 151H77.84V179H74.64V154.44H74.24L65.72 179H61.08L52.56 154.44H52.16V179H48.96V151H54.64ZM87.0047 151V179H83.7647V151H87.0047ZM113.145 159.2C113.145 161.387 112.492 163.2 111.185 164.64C109.905 166.053 108.212 166.933 106.105 167.28L112.505 179H108.745L102.705 167.4H96.1453V179H92.9053V151H104.345C106.025 151 107.532 151.333 108.865 152C110.199 152.667 111.239 153.613 111.985 154.84C112.759 156.067 113.145 157.52 113.145 159.2ZM96.1453 164.48H103.985C105.825 164.48 107.265 164.013 108.305 163.08C109.345 162.147 109.865 160.853 109.865 159.2C109.865 157.547 109.345 156.253 108.305 155.32C107.265 154.387 105.825 153.92 103.985 153.92H96.1453V164.48ZM137.755 159.2C137.755 161.387 137.101 163.2 135.795 164.64C134.515 166.053 132.821 166.933 130.715 167.28L137.115 179H133.355L127.315 167.4H120.755V179H117.515V151H128.955C130.635 151 132.141 151.333 133.475 152C134.808 152.667 135.848 153.613 136.595 154.84C137.368 156.067 137.755 157.52 137.755 159.2ZM120.755 164.48H128.595C130.435 164.48 131.875 164.013 132.915 163.08C133.955 162.147 134.475 160.853 134.475 159.2C134.475 157.547 133.955 156.253 132.915 155.32C131.875 154.387 130.435 153.92 128.595 153.92H120.755V164.48ZM141.244 161.8C141.244 158.147 142.217 155.347 144.164 153.4C146.137 151.427 148.817 150.44 152.204 150.44C155.591 150.44 158.257 151.427 160.204 153.4C162.177 155.347 163.164 158.147 163.164 161.8V168.2C163.164 171.853 162.177 174.667 160.204 176.64C158.257 178.587 155.591 179.56 152.204 179.56C148.817 179.56 146.137 178.587 144.164 176.64C142.217 174.667 141.244 171.853 141.244 168.2V161.8ZM144.484 168.36C144.484 170.947 145.164 172.973 146.524 174.44C147.884 175.907 149.777 176.64 152.204 176.64C154.631 176.64 156.511 175.907 157.844 174.44C159.204 172.973 159.884 170.947 159.884 168.36V161.64C159.884 159.053 159.204 157.027 157.844 155.56C156.484 154.067 154.604 153.32 152.204 153.32C149.777 153.32 147.884 154.067 146.524 155.56C145.164 157.027 144.484 159.053 144.484 161.64V168.36ZM188.458 159.2C188.458 161.387 187.804 163.2 186.498 164.64C185.218 166.053 183.524 166.933 181.418 167.28L187.818 179H184.058L178.018 167.4H171.458V179H168.218V151H179.658C181.338 151 182.844 151.333 184.178 152C185.511 152.667 186.551 153.613 187.298 154.84C188.071 156.067 188.458 157.52 188.458 159.2ZM171.458 164.48H179.298C181.138 164.48 182.578 164.013 183.618 163.08C184.658 162.147 185.178 160.853 185.178 159.2C185.178 157.547 184.658 156.253 183.618 155.32C182.578 154.387 181.138 153.92 179.298 153.92H171.458V164.48Z" fill="black"/>
<rect width="212" height="233" transform="translate(32 490)" fill="white"/>
<path d="M52.242 510.004C53.2687 510.004 54.104 510.265 54.748 510.788C55.4013 511.311 55.728 512.057 55.728 513.028V513.49H54.594V513.028C54.594 512.347 54.3793 511.843 53.95 511.516C53.53 511.18 52.9607 511.012 52.242 511.012C51.57 511.012 51.0333 511.157 50.632 511.446C50.24 511.735 50.044 512.137 50.044 512.65C50.044 513.154 50.2027 513.532 50.52 513.784C50.8467 514.027 51.3693 514.232 52.088 514.4L52.844 514.582C53.8053 514.806 54.538 515.123 55.042 515.534C55.5553 515.935 55.812 516.537 55.812 517.34C55.812 517.9 55.6627 518.399 55.364 518.838C55.0747 519.267 54.664 519.603 54.132 519.846C53.6 520.079 52.9793 520.196 52.27 520.196C51.1593 520.196 50.2633 519.897 49.582 519.3C48.9007 518.703 48.56 517.839 48.56 516.71V516.612H49.694V516.71C49.694 517.531 49.9227 518.152 50.38 518.572C50.8467 518.983 51.4767 519.188 52.27 519.188C53.026 519.188 53.6187 519.02 54.048 518.684C54.4773 518.348 54.692 517.905 54.692 517.354C54.692 516.85 54.51 516.472 54.146 516.22C53.7913 515.959 53.2453 515.744 52.508 515.576L51.766 515.394C50.8233 515.17 50.1093 514.853 49.624 514.442C49.148 514.031 48.91 513.439 48.91 512.664C48.91 512.123 49.05 511.651 49.33 511.25C49.61 510.849 50.002 510.541 50.506 510.326C51.01 510.111 51.5887 510.004 52.242 510.004ZM59.2632 516.752C59.2632 517.545 59.4732 518.147 59.8932 518.558C60.3226 518.969 60.9339 519.174 61.7272 519.174C62.5112 519.174 63.1179 518.969 63.5472 518.558C63.9766 518.147 64.1912 517.545 64.1912 516.752V510.2H65.3252V516.724C65.3252 517.844 65.0032 518.703 64.3592 519.3C63.7152 519.897 62.8379 520.196 61.7272 520.196C60.6166 520.196 59.7392 519.897 59.0952 519.3C58.4512 518.703 58.1292 517.844 58.1292 516.724V510.2H59.2632V516.752ZM75.1157 513.07C75.1157 513.835 74.887 514.47 74.4297 514.974C73.9817 515.469 73.389 515.777 72.6517 515.898L74.8917 520H73.5757L71.4617 515.94H69.1657V520H68.0317V510.2H72.0357C72.6237 510.2 73.151 510.317 73.6177 510.55C74.0844 510.783 74.4484 511.115 74.7097 511.544C74.9804 511.973 75.1157 512.482 75.1157 513.07ZM69.1657 514.918H71.9097C72.5537 514.918 73.0577 514.755 73.4217 514.428C73.7857 514.101 73.9677 513.649 73.9677 513.07C73.9677 512.491 73.7857 512.039 73.4217 511.712C73.0577 511.385 72.5537 511.222 71.9097 511.222H69.1657V514.918ZM77.695 510.2L80.481 518.95H80.621L83.407 510.2H84.597L81.419 520H79.683L76.505 510.2H77.695ZM92.6812 510.2V511.222H87.6692V514.568H92.2892V515.59H87.6692V518.978H92.7512V520H86.5352V510.2H92.6812ZM96.1895 510.2V520H95.0555V510.2H96.1895ZM100.089 510.2V518.978H105.157V520H98.9548V510.2H100.089ZM108.281 510.2V518.978H113.349V520H107.147V510.2H108.281ZM119.413 510.2L122.591 520H121.401L120.603 517.508H116.487L115.689 520H114.499L117.677 510.2H119.413ZM120.295 516.486L118.615 511.25H118.475L116.795 516.486H120.295ZM126.461 510.2L130.311 518.782H130.451V510.2H131.585V520H129.639L125.803 511.418H125.663V520H124.529V510.2H126.461ZM134.041 514.078C134.041 512.79 134.381 511.791 135.062 511.082C135.753 510.363 136.701 510.004 137.905 510.004C139.062 510.004 139.958 510.317 140.593 510.942C141.227 511.567 141.544 512.426 141.544 513.518V513.728H140.411V513.504C140.411 512.748 140.191 512.146 139.753 511.698C139.314 511.241 138.698 511.012 137.905 511.012C137.046 511.012 136.374 511.283 135.889 511.824C135.413 512.356 135.175 513.098 135.175 514.05V516.15C135.175 517.102 135.413 517.844 135.889 518.376C136.374 518.908 137.046 519.174 137.905 519.174C138.735 519.174 139.361 518.959 139.781 518.53C140.201 518.091 140.411 517.489 140.411 516.724V516.43H141.544V516.71C141.544 517.793 141.218 518.647 140.565 519.272C139.921 519.888 139.034 520.196 137.905 520.196C136.691 520.196 135.744 519.841 135.062 519.132C134.381 518.413 134.041 517.41 134.041 516.122V514.078ZM150.04 510.2V511.222H145.028V514.568H149.648V515.59H145.028V518.978H150.11V520H143.894V510.2H150.04ZM48.728 534.078C48.728 532.79 49.0687 531.791 49.75 531.082C50.4407 530.363 51.388 530.004 52.592 530.004C53.7493 530.004 54.6453 530.317 55.28 530.942C55.9147 531.567 56.232 532.426 56.232 533.518V533.728H55.098V533.504C55.098 532.748 54.8787 532.146 54.44 531.698C54.0013 531.241 53.3853 531.012 52.592 531.012C51.7333 531.012 51.0613 531.283 50.576 531.824C50.1 532.356 49.862 533.098 49.862 534.05V536.15C49.862 537.102 50.1 537.844 50.576 538.376C51.0613 538.908 51.7333 539.174 52.592 539.174C53.4227 539.174 54.048 538.959 54.468 538.53C54.888 538.091 55.098 537.489 55.098 536.724V536.43H56.232V536.71C56.232 537.793 55.9053 538.647 55.252 539.272C54.608 539.888 53.7213 540.196 52.592 540.196C51.3787 540.196 50.4313 539.841 49.75 539.132C49.0687 538.413 48.728 537.41 48.728 536.122V534.078ZM62.4506 530.2L65.6286 540H64.4386L63.6406 537.508H59.5246L58.7266 540H57.5366L60.7146 530.2H62.4506ZM63.3326 536.486L61.6526 531.25H61.5126L59.8326 536.486H63.3326ZM71.2909 530.2C71.8789 530.2 72.4062 530.317 72.8729 530.55C73.3395 530.783 73.7035 531.124 73.9649 531.572C74.2355 532.011 74.3709 532.524 74.3709 533.112C74.3709 533.7 74.2355 534.218 73.9649 534.666C73.6942 535.105 73.3255 535.445 72.8589 535.688C72.3922 535.921 71.8695 536.038 71.2909 536.038H68.7009V540H67.5669V530.2H71.2909ZM71.1649 535.002C71.8089 535.002 72.3129 534.839 72.6769 534.512C73.0409 534.176 73.2229 533.709 73.2229 533.112C73.2229 532.524 73.0409 532.062 72.6769 531.726C72.3129 531.39 71.8089 531.222 71.1649 531.222H68.7009V535.002H71.1649ZM77.604 530.2V540H76.47V530.2H77.604ZM87.2432 530.2V531.222H83.9812V540H82.8472V531.222H79.5712V530.2H87.2432ZM92.4577 530.2L95.6357 540H94.4457L93.6477 537.508H89.5317L88.7337 540H87.5437L90.7217 530.2H92.4577ZM93.3397 536.486L91.6597 531.25H91.5197L89.8397 536.486H93.3397ZM98.7079 530.2V538.978H103.776V540H97.5739V530.2H98.7079ZM106.9 530.2V540H105.766V530.2H106.9ZM112.871 530.004C113.898 530.004 114.733 530.265 115.377 530.788C116.031 531.311 116.357 532.057 116.357 533.028V533.49H115.223V533.028C115.223 532.347 115.009 531.843 114.579 531.516C114.159 531.18 113.59 531.012 112.871 531.012C112.199 531.012 111.663 531.157 111.261 531.446C110.869 531.735 110.673 532.137 110.673 532.65C110.673 533.154 110.832 533.532 111.149 533.784C111.476 534.027 111.999 534.232 112.717 534.4L113.473 534.582C114.435 534.806 115.167 535.123 115.671 535.534C116.185 535.935 116.441 536.537 116.441 537.34C116.441 537.9 116.292 538.399 115.993 538.838C115.704 539.267 115.293 539.603 114.761 539.846C114.229 540.079 113.609 540.196 112.899 540.196C111.789 540.196 110.893 539.897 110.211 539.3C109.53 538.703 109.189 537.839 109.189 536.71V536.612H110.323V536.71C110.323 537.531 110.552 538.152 111.009 538.572C111.476 538.983 112.106 539.188 112.899 539.188C113.655 539.188 114.248 539.02 114.677 538.684C115.107 538.348 115.321 537.905 115.321 537.354C115.321 536.85 115.139 536.472 114.775 536.22C114.421 535.959 113.875 535.744 113.137 535.576L112.395 535.394C111.453 535.17 110.739 534.853 110.253 534.442C109.777 534.031 109.539 533.439 109.539 532.664C109.539 532.123 109.679 531.651 109.959 531.25C110.239 530.849 110.631 530.541 111.135 530.326C111.639 530.111 112.218 530.004 112.871 530.004ZM120.803 530.2L123.799 538.838H123.939L126.935 530.2H128.923V540H127.803V531.404H127.663L124.681 540H123.057L120.075 531.404H119.935V540H118.815V530.2H120.803ZM50.114 560.752C50.114 561.545 50.324 562.147 50.744 562.558C51.1733 562.969 51.7847 563.174 52.578 563.174C53.362 563.174 53.9687 562.969 54.398 562.558C54.8273 562.147 55.042 561.545 55.042 560.752V554.2H56.176V560.724C56.176 561.844 55.854 562.703 55.21 563.3C54.566 563.897 53.6887 564.196 52.578 564.196C51.4673 564.196 50.59 563.897 49.946 563.3C49.302 562.703 48.98 561.844 48.98 560.724V554.2H50.114V560.752ZM60.8145 554.2L64.6645 562.782H64.8045V554.2H65.9385V564H63.9925L60.1565 555.418H60.0165V564H58.8825V554.2H60.8145ZM69.8356 554.2V564H68.7016V554.2H69.8356ZM73.7348 554.2V562.978H78.8028V564H72.6008V554.2H73.7348ZM84.867 554.2L88.045 564H86.855L86.057 561.508H81.941L81.143 564H79.953L83.131 554.2H84.867ZM85.749 560.486L84.069 555.25H83.929L82.249 560.486H85.749ZM96.0233 554.2V555.222H92.7613V564H91.6273V555.222H88.3513V554.2H96.0233ZM104.144 554.2V555.222H99.1317V558.568H103.752V559.59H99.1317V562.978H104.214V564H97.9977V554.2H104.144ZM113.602 557.07C113.602 557.835 113.373 558.47 112.916 558.974C112.468 559.469 111.875 559.777 111.138 559.898L113.378 564H112.062L109.948 559.94H107.652V564H106.518V554.2H110.522C111.11 554.2 111.637 554.317 112.104 554.55C112.571 554.783 112.935 555.115 113.196 555.544C113.467 555.973 113.602 556.482 113.602 557.07ZM107.652 558.918H110.396C111.04 558.918 111.544 558.755 111.908 558.428C112.272 558.101 112.454 557.649 112.454 557.07C112.454 556.491 112.272 556.039 111.908 555.712C111.544 555.385 111.04 555.222 110.396 555.222H107.652V558.918ZM119.837 554.2L123.015 564H121.825L121.027 561.508H116.911L116.113 564H114.923L118.101 554.2H119.837ZM120.719 560.486L119.039 555.25H118.899L117.219 560.486H120.719ZM126.087 554.2V562.978H131.155V564H124.953V554.2H126.087ZM134.279 554.2V562.978H139.347V564H133.145V554.2H134.279ZM139.886 554.2L142.602 558.988H142.742L145.444 554.2H146.76L143.232 560.234V564H142.098V560.234L138.57 554.2H139.886ZM153.587 555.46C153.587 553.647 154.087 552.24 155.087 551.24C156.101 550.227 157.474 549.72 159.207 549.72C160.887 549.72 162.194 550.173 163.127 551.08C164.061 551.973 164.527 553.193 164.527 554.74V555.06H162.547V554.72C162.547 553.747 162.254 552.967 161.667 552.38C161.094 551.78 160.274 551.48 159.207 551.48C158.074 551.48 157.181 551.833 156.527 552.54C155.887 553.233 155.567 554.193 155.567 555.42V558.58C155.567 559.807 155.887 560.773 156.527 561.48C157.181 562.173 158.074 562.52 159.207 562.52C160.287 562.52 161.114 562.227 161.687 561.64C162.261 561.053 162.547 560.273 162.547 559.3V558.84H164.527V559.28C164.527 560.813 164.054 562.033 163.107 562.94C162.161 563.833 160.861 564.28 159.207 564.28C157.461 564.28 156.087 563.78 155.087 562.78C154.087 561.767 153.587 560.353 153.587 558.54V555.46ZM169.626 550V562.22H176.606V564H167.646V550H169.626ZM185.51 550L189.83 564H187.77L186.73 560.6H181.21L180.17 564H178.13L182.45 550H185.51ZM186.23 558.8L184.07 551.72H183.87L181.71 558.8H186.23ZM194.379 550V564H192.399V550H194.379ZM201.526 550L205.386 561.98H205.586L209.426 550H212.846V564H210.906V552.06H210.706L206.886 564H204.086L200.246 552.06H200.046V564H198.106V550H201.526ZM221.167 549.72C222.661 549.72 223.874 550.1 224.807 550.86C225.754 551.62 226.227 552.707 226.227 554.12V554.66H224.267V554.12C224.267 553.213 223.987 552.547 223.427 552.12C222.881 551.68 222.127 551.46 221.167 551.46C220.274 551.46 219.574 551.647 219.067 552.02C218.561 552.38 218.307 552.9 218.307 553.58C218.307 554.22 218.521 554.707 218.947 555.04C219.387 555.36 220.094 555.633 221.067 555.86L221.927 556.06C223.381 556.393 224.487 556.867 225.247 557.48C226.007 558.08 226.387 558.96 226.387 560.12C226.387 560.947 226.174 561.673 225.747 562.3C225.334 562.927 224.741 563.413 223.967 563.76C223.194 564.107 222.294 564.28 221.267 564.28C219.654 564.28 218.354 563.853 217.367 563C216.381 562.147 215.887 560.933 215.887 559.36V559.18H217.847V559.36C217.847 560.413 218.147 561.207 218.747 561.74C219.361 562.273 220.201 562.54 221.267 562.54C222.267 562.54 223.047 562.327 223.607 561.9C224.167 561.46 224.447 560.88 224.447 560.16C224.447 559.493 224.207 559 223.727 558.68C223.247 558.347 222.494 558.06 221.467 557.82L220.607 557.62C219.194 557.3 218.127 556.84 217.407 556.24C216.701 555.64 216.347 554.767 216.347 553.62C216.347 552.42 216.787 551.473 217.667 550.78C218.547 550.073 219.714 549.72 221.167 549.72ZM50.17 574.2V578.568H54.818V574.2H55.952V584H54.818V579.604H50.17V584H49.036V574.2H50.17ZM59.7827 580.752C59.7827 581.545 59.9927 582.147 60.4127 582.558C60.8421 582.969 61.4534 583.174 62.2468 583.174C63.0308 583.174 63.6374 582.969 64.0668 582.558C64.4961 582.147 64.7108 581.545 64.7108 580.752V574.2H65.8448V580.724C65.8448 581.844 65.5228 582.703 64.8788 583.3C64.2348 583.897 63.3574 584.196 62.2468 584.196C61.1361 584.196 60.2587 583.897 59.6147 583.3C58.9707 582.703 58.6487 581.844 58.6487 580.724V574.2H59.7827V580.752ZM70.5392 574.2L73.5352 582.838H73.6752L76.6712 574.2H78.6592V584H77.5392V575.404H77.3992L74.4172 584H72.7932L69.8112 575.404H69.6712V584H68.5512V574.2H70.5392ZM85.5069 574.2L88.6849 584H87.4949L86.6969 581.508H82.5809L81.7829 584H80.5929L83.7709 574.2H85.5069ZM86.3889 580.486L84.7089 575.25H84.5689L82.8889 580.486H86.3889ZM92.5551 574.2L96.4051 582.782H96.5451V574.2H97.6791V584H95.7331L91.8971 575.418H91.7571V584H90.6231V574.2H92.5551ZM111.609 574.2V575.222H106.597V578.568H111.217V579.59H106.597V582.978H111.679V584H105.463V574.2H111.609ZM114.683 574.2L117.231 578.288H117.371L119.905 574.2H121.249L118.127 579.058L121.291 584H119.947L117.371 579.814H117.231L114.641 584H113.297L116.461 579.058L113.339 574.2H114.683ZM127.102 574.2C127.69 574.2 128.218 574.317 128.684 574.55C129.151 574.783 129.515 575.124 129.776 575.572C130.047 576.011 130.182 576.524 130.182 577.112C130.182 577.7 130.047 578.218 129.776 578.666C129.506 579.105 129.137 579.445 128.67 579.688C128.204 579.921 127.681 580.038 127.102 580.038H124.512V584H123.378V574.2H127.102ZM126.976 579.002C127.62 579.002 128.124 578.839 128.488 578.512C128.852 578.176 129.034 577.709 129.034 577.112C129.034 576.524 128.852 576.062 128.488 575.726C128.124 575.39 127.62 575.222 126.976 575.222H124.512V579.002H126.976ZM138.427 574.2V575.222H133.415V578.568H138.035V579.59H133.415V582.978H138.497V584H132.281V574.2H138.427ZM147.886 577.07C147.886 577.835 147.657 578.47 147.2 578.974C146.752 579.469 146.159 579.777 145.422 579.898L147.662 584H146.346L144.232 579.94H141.936V584H140.802V574.2H144.806C145.394 574.2 145.921 574.317 146.388 574.55C146.854 574.783 147.218 575.115 147.48 575.544C147.75 575.973 147.886 576.482 147.886 577.07ZM141.936 578.918H144.68C145.324 578.918 145.828 578.755 146.192 578.428C146.556 578.101 146.738 577.649 146.738 577.07C146.738 576.491 146.556 576.039 146.192 575.712C145.828 575.385 145.324 575.222 144.68 575.222H141.936V578.918ZM151.249 574.2V584H150.115V574.2H151.249ZM160.16 574.2V575.222H155.148V578.568H159.768V579.59H155.148V582.978H160.23V584H154.014V574.2H160.16ZM164.466 574.2L168.316 582.782H168.456V574.2H169.59V584H167.644L163.808 575.418H163.668V584H162.534V574.2H164.466ZM172.046 578.078C172.046 576.79 172.386 575.791 173.068 575.082C173.758 574.363 174.706 574.004 175.91 574.004C177.067 574.004 177.963 574.317 178.598 574.942C179.232 575.567 179.55 576.426 179.55 577.518V577.728H178.416V577.504C178.416 576.748 178.196 576.146 177.758 575.698C177.319 575.241 176.703 575.012 175.91 575.012C175.051 575.012 174.379 575.283 173.894 575.824C173.418 576.356 173.18 577.098 173.18 578.05V580.15C173.18 581.102 173.418 581.844 173.894 582.376C174.379 582.908 175.051 583.174 175.91 583.174C176.74 583.174 177.366 582.959 177.786 582.53C178.206 582.091 178.416 581.489 178.416 580.724V580.43H179.55V580.71C179.55 581.793 179.223 582.647 178.57 583.272C177.926 583.888 177.039 584.196 175.91 584.196C174.696 584.196 173.749 583.841 173.068 583.132C172.386 582.413 172.046 581.41 172.046 580.122V578.078ZM188.045 574.2V575.222H183.033V578.568H187.653V579.59H183.033V582.978H188.115V584H181.899V574.2H188.045ZM199.514 574.2L202.692 584H201.502L200.704 581.508H196.588L195.79 584H194.6L197.778 574.2H199.514ZM200.396 580.486L198.716 575.25H198.576L196.896 580.486H200.396ZM207.836 574.004C208.863 574.004 209.698 574.265 210.342 574.788C210.995 575.311 211.322 576.057 211.322 577.028V577.49H210.188V577.028C210.188 576.347 209.973 575.843 209.544 575.516C209.124 575.18 208.555 575.012 207.836 575.012C207.164 575.012 206.627 575.157 206.226 575.446C205.834 575.735 205.638 576.137 205.638 576.65C205.638 577.154 205.797 577.532 206.114 577.784C206.441 578.027 206.963 578.232 207.682 578.4L208.438 578.582C209.399 578.806 210.132 579.123 210.636 579.534C211.149 579.935 211.406 580.537 211.406 581.34C211.406 581.9 211.257 582.399 210.958 582.838C210.669 583.267 210.258 583.603 209.726 583.846C209.194 584.079 208.573 584.196 207.864 584.196C206.753 584.196 205.857 583.897 205.176 583.3C204.495 582.703 204.154 581.839 204.154 580.71V580.612H205.288V580.71C205.288 581.531 205.517 582.152 205.974 582.572C206.441 582.983 207.071 583.188 207.864 583.188C208.62 583.188 209.213 583.02 209.642 582.684C210.071 582.348 210.286 581.905 210.286 581.354C210.286 580.85 210.104 580.472 209.74 580.22C209.385 579.959 208.839 579.744 208.102 579.576L207.36 579.394C206.417 579.17 205.703 578.853 205.218 578.442C204.742 578.031 204.504 577.439 204.504 576.664C204.504 576.123 204.644 575.651 204.924 575.25C205.204 574.849 205.596 574.541 206.1 574.326C206.604 574.111 207.183 574.004 207.836 574.004ZM58.06 594V595.78H51.34V600.08H57.66V601.88H51.34V608H49.36V594H58.06ZM71.2655 598.2C71.2655 599.28 70.9588 600.187 70.3455 600.92C69.7455 601.64 68.9455 602.1 67.9455 602.3L71.0055 608H68.7455L65.8855 602.4H62.9455V608H60.9655V594H66.8455C67.6988 594 68.4588 594.173 69.1255 594.52C69.7921 594.853 70.3121 595.34 70.6855 595.98C71.0721 596.607 71.2655 597.347 71.2655 598.2ZM62.9455 600.64H66.6455C67.4721 600.64 68.1188 600.427 68.5855 600C69.0521 599.56 69.2855 598.96 69.2855 598.2C69.2855 597.453 69.0455 596.867 68.5655 596.44C68.0988 596 67.4588 595.78 66.6455 595.78H62.9455V600.64ZM83.2102 594V595.78H76.2502V600.06H82.6502V601.86H76.2502V606.22H83.3102V608H74.2702V594H83.2102ZM95.3234 594V595.78H88.3634V600.06H94.7634V601.86H88.3634V606.22H95.4234V608H86.3834V594H95.3234ZM115.715 598.2C115.715 599.28 115.408 600.187 114.795 600.92C114.195 601.64 113.395 602.1 112.395 602.3L115.455 608H113.195L110.335 602.4H107.395V608H105.415V594H111.295C112.148 594 112.908 594.173 113.575 594.52C114.241 594.853 114.761 595.34 115.135 595.98C115.521 596.607 115.715 597.347 115.715 598.2ZM107.395 600.64H111.095C111.921 600.64 112.568 600.427 113.035 600C113.501 599.56 113.735 598.96 113.735 598.2C113.735 597.453 113.495 596.867 113.015 596.44C112.548 596 111.908 595.78 111.095 595.78H107.395V600.64ZM124.842 594L129.162 608H127.102L126.062 604.6H120.542L119.502 608H117.462L121.782 594H124.842ZM125.562 602.8L123.402 595.72H123.202L121.042 602.8H125.562ZM132.42 594L134.44 606.02H134.64L137.3 594H140.38L143.04 606.02H143.24L145.24 594H147.24L144.78 608H141.6L138.94 595.96H138.74L136.08 608H132.88L130.42 594H132.42ZM52.78 618L56.64 629.98H56.84L60.68 618H64.1V632H62.16V620.06H61.96L58.14 632H55.34L51.5 620.06H51.3V632H49.36V618H52.78ZM74.0409 618L78.3609 632H76.3009L75.2609 628.6H69.7409L68.7009 632H66.6609L70.9809 618H74.0409ZM74.7609 626.8L72.6009 619.72H72.4009L70.2409 626.8H74.7609ZM89.6789 618V619.78H85.1589V632H83.1789V619.78H78.6589V618H89.6789ZM101.261 618V619.78H94.3009V624.06H100.701V625.86H94.3009V630.22H101.361V632H92.3209V618H101.261ZM114.734 622.2C114.734 623.28 114.428 624.187 113.814 624.92C113.214 625.64 112.414 626.1 111.414 626.3L114.474 632H112.214L109.354 626.4H106.414V632H104.434V618H110.314C111.168 618 111.928 618.173 112.594 618.52C113.261 618.853 113.781 619.34 114.154 619.98C114.541 620.607 114.734 621.347 114.734 622.2ZM106.414 624.64H110.114C110.941 624.64 111.588 624.427 112.054 624C112.521 623.56 112.754 622.96 112.754 622.2C112.754 621.453 112.514 620.867 112.034 620.44C111.568 620 110.928 619.78 110.114 619.78H106.414V624.64ZM119.719 618V632H117.739V618H119.719ZM129.666 618L133.986 632H131.926L130.886 628.6H125.366L124.326 632H122.286L126.606 618H129.666ZM130.386 626.8L128.226 619.72H128.026L125.866 626.8H130.386ZM138.535 618V630.22H145.515V632H136.555V618H138.535ZM158.902 622.2V623.222H154.03V626.568H158.622V627.604H154.03V632H152.896V622.2H158.902ZM160.753 625.98C160.753 624.701 161.094 623.721 161.775 623.04C162.466 622.349 163.404 622.004 164.589 622.004C165.774 622.004 166.708 622.349 167.389 623.04C168.08 623.721 168.425 624.701 168.425 625.98V628.22C168.425 629.499 168.08 630.483 167.389 631.174C166.708 631.855 165.774 632.196 164.589 632.196C163.404 632.196 162.466 631.855 161.775 631.174C161.094 630.483 160.753 629.499 160.753 628.22V625.98ZM161.887 628.276C161.887 629.181 162.125 629.891 162.601 630.404C163.077 630.917 163.74 631.174 164.589 631.174C165.438 631.174 166.096 630.917 166.563 630.404C167.039 629.891 167.277 629.181 167.277 628.276V625.924C167.277 625.019 167.039 624.309 166.563 623.796C166.087 623.273 165.429 623.012 164.589 623.012C163.74 623.012 163.077 623.273 162.601 623.796C162.125 624.309 161.887 625.019 161.887 625.924V628.276ZM177.978 625.07C177.978 625.835 177.749 626.47 177.292 626.974C176.844 627.469 176.251 627.777 175.514 627.898L177.754 632H176.438L174.324 627.94H172.028V632H170.894V622.2H174.898C175.486 622.2 176.013 622.317 176.48 622.55C176.946 622.783 177.31 623.115 177.572 623.544C177.842 623.973 177.978 624.482 177.978 625.07ZM172.028 626.918H174.772C175.416 626.918 175.92 626.755 176.284 626.428C176.648 626.101 176.83 625.649 176.83 625.07C176.83 624.491 176.648 624.039 176.284 623.712C175.92 623.385 175.416 623.222 174.772 623.222H172.028V626.918ZM55.91 642.2V643.222H52.648V652H51.514V643.222H48.238V642.2H55.91ZM64.9684 645.07C64.9684 645.835 64.7398 646.47 64.2824 646.974C63.8344 647.469 63.2418 647.777 62.5044 647.898L64.7444 652H63.4284L61.3144 647.94H59.0184V652H57.8844V642.2H61.8884C62.4764 642.2 63.0038 642.317 63.4704 642.55C63.9371 642.783 64.3011 643.115 64.5624 643.544C64.8331 643.973 64.9684 644.482 64.9684 645.07ZM59.0184 646.918H61.7624C62.4064 646.918 62.9104 646.755 63.2744 646.428C63.6384 646.101 63.8204 645.649 63.8204 645.07C63.8204 644.491 63.6384 644.039 63.2744 643.712C62.9104 643.385 62.4064 643.222 61.7624 643.222H59.0184V646.918ZM71.2034 642.2L74.3814 652H73.1914L72.3934 649.508H68.2774L67.4794 652H66.2894L69.4674 642.2H71.2034ZM72.0854 648.486L70.4054 643.25H70.2654L68.5854 648.486H72.0854ZM78.2516 642.2L82.1016 650.782H82.2416V642.2H83.3756V652H81.4296L77.5936 643.418H77.4536V652H76.3196V642.2H78.2516ZM89.3447 642.004C90.3714 642.004 91.2067 642.265 91.8507 642.788C92.5041 643.311 92.8307 644.057 92.8307 645.028V645.49H91.6967V645.028C91.6967 644.347 91.4821 643.843 91.0527 643.516C90.6327 643.18 90.0634 643.012 89.3447 643.012C88.6727 643.012 88.1361 643.157 87.7347 643.446C87.3427 643.735 87.1467 644.137 87.1467 644.65C87.1467 645.154 87.3054 645.532 87.6227 645.784C87.9494 646.027 88.4721 646.232 89.1907 646.4L89.9467 646.582C90.9081 646.806 91.6407 647.123 92.1447 647.534C92.6581 647.935 92.9147 648.537 92.9147 649.34C92.9147 649.9 92.7654 650.399 92.4667 650.838C92.1774 651.267 91.7667 651.603 91.2347 651.846C90.7027 652.079 90.0821 652.196 89.3727 652.196C88.2621 652.196 87.3661 651.897 86.6847 651.3C86.0034 650.703 85.6627 649.839 85.6627 648.71V648.612H86.7967V648.71C86.7967 649.531 87.0254 650.152 87.4827 650.572C87.9494 650.983 88.5794 651.188 89.3727 651.188C90.1287 651.188 90.7214 651.02 91.1507 650.684C91.5801 650.348 91.7947 649.905 91.7947 649.354C91.7947 648.85 91.6127 648.472 91.2487 648.22C90.8941 647.959 90.3481 647.744 89.6107 647.576L88.8687 647.394C87.9261 647.17 87.2121 646.853 86.7267 646.442C86.2507 646.031 86.0127 645.439 86.0127 644.664C86.0127 644.123 86.1527 643.651 86.4327 643.25C86.7127 642.849 87.1047 642.541 87.6087 642.326C88.1127 642.111 88.6914 642.004 89.3447 642.004ZM96.422 642.2V650.978H101.49V652H95.288V642.2H96.422ZM107.554 642.2L110.732 652H109.542L108.744 649.508H104.628L103.83 652H102.64L105.818 642.2H107.554ZM108.436 648.486L106.756 643.25H106.616L104.936 648.486H108.436ZM118.71 642.2V643.222H115.448V652H114.314V643.222H111.038V642.2H118.71ZM121.819 642.2V652H120.685V642.2H121.819ZM124.276 645.98C124.276 644.701 124.617 643.721 125.298 643.04C125.989 642.349 126.927 642.004 128.112 642.004C129.297 642.004 130.231 642.349 130.912 643.04C131.603 643.721 131.948 644.701 131.948 645.98V648.22C131.948 649.499 131.603 650.483 130.912 651.174C130.231 651.855 129.297 652.196 128.112 652.196C126.927 652.196 125.989 651.855 125.298 651.174C124.617 650.483 124.276 649.499 124.276 648.22V645.98ZM125.41 648.276C125.41 649.181 125.648 649.891 126.124 650.404C126.6 650.917 127.263 651.174 128.112 651.174C128.961 651.174 129.619 650.917 130.086 650.404C130.562 649.891 130.8 649.181 130.8 648.276V645.924C130.8 645.019 130.562 644.309 130.086 643.796C129.61 643.273 128.952 643.012 128.112 643.012C127.263 643.012 126.6 643.273 126.124 643.796C125.648 644.309 125.41 645.019 125.41 645.924V648.276ZM136.349 642.2L140.199 650.782H140.339V642.2H141.473V652H139.527L135.691 643.418H135.551V652H134.417V642.2H136.349ZM150.39 642.2V652H149.256V642.2H150.39ZM155.088 642.2L158.938 650.782H159.078V642.2H160.212V652H158.266L154.43 643.418H154.29V652H153.156V642.2H155.088ZM169.849 642.2V643.222H166.587V652H165.453V643.222H162.177V642.2H169.849ZM171.31 645.98C171.31 644.701 171.651 643.721 172.332 643.04C173.023 642.349 173.961 642.004 175.146 642.004C176.331 642.004 177.265 642.349 177.946 643.04C178.637 643.721 178.982 644.701 178.982 645.98V648.22C178.982 649.499 178.637 650.483 177.946 651.174C177.265 651.855 176.331 652.196 175.146 652.196C173.961 652.196 173.023 651.855 172.332 651.174C171.651 650.483 171.31 649.499 171.31 648.22V645.98ZM172.444 648.276C172.444 649.181 172.682 649.891 173.158 650.404C173.634 650.917 174.297 651.174 175.146 651.174C175.995 651.174 176.653 650.917 177.12 650.404C177.596 649.891 177.834 649.181 177.834 648.276V645.924C177.834 645.019 177.596 644.309 177.12 643.796C176.644 643.273 175.986 643.012 175.146 643.012C174.297 643.012 173.634 643.273 173.158 643.796C172.682 644.309 172.444 645.019 172.444 645.924V648.276ZM55.34 662C56.5533 662 57.54 662.333 58.3 663C59.0733 663.667 59.46 664.56 59.46 665.68C59.46 666.587 59.2267 667.293 58.76 667.8C58.3067 668.307 57.76 668.653 57.12 668.84V669.04C57.76 669.227 58.32 669.58 58.8 670.1C59.28 670.62 59.52 671.333 59.52 672.24C59.52 673.4 59.1333 674.32 58.36 675C57.5867 675.667 56.5867 676 55.36 676H49.36V662H55.34ZM55.16 668.06C55.8933 668.06 56.4733 667.867 56.9 667.48C57.34 667.08 57.56 666.553 57.56 665.9C57.56 665.273 57.34 664.767 56.9 664.38C56.46 663.98 55.8733 663.78 55.14 663.78H51.34V668.06H55.16ZM55.18 674.22C55.9267 674.22 56.5133 674.02 56.94 673.62C57.38 673.207 57.6 672.673 57.6 672.02C57.6 671.34 57.38 670.813 56.94 670.44C56.5133 670.053 55.9133 669.86 55.14 669.86H51.34V674.22H55.18ZM71.6438 662V663.78H64.6838V668.06H71.0838V669.86H64.6838V674.22H71.7438V676H62.7038V662H71.6438ZM76.797 662V668.08H82.957V662H84.937V676H82.957V669.88H76.797V676H74.817V662H76.797ZM94.8691 662L99.1891 676H97.1291L96.0891 672.6H90.5691L89.5291 676H87.4891L91.8091 662H94.8691ZM95.5891 670.8L93.4291 663.72H93.2291L91.0691 670.8H95.5891ZM101.74 662L105.44 674.28H105.64L109.34 662H111.4L107.08 676H104L99.7 662H101.74ZM115.949 662V676H113.969V662H115.949ZM119.196 667.38C119.196 665.567 119.69 664.173 120.676 663.2C121.676 662.213 123.043 661.72 124.776 661.72C126.51 661.72 127.87 662.213 128.856 663.2C129.856 664.173 130.356 665.567 130.356 667.38V670.62C130.356 672.433 129.856 673.833 128.856 674.82C127.87 675.793 126.51 676.28 124.776 676.28C123.043 676.28 121.676 675.793 120.676 674.82C119.69 673.833 119.196 672.433 119.196 670.62V667.38ZM121.176 670.7C121.176 671.887 121.496 672.82 122.136 673.5C122.776 674.18 123.656 674.52 124.776 674.52C125.896 674.52 126.776 674.18 127.416 673.5C128.056 672.82 128.376 671.887 128.376 670.7V667.3C128.376 666.113 128.056 665.18 127.416 664.5C126.776 663.82 125.896 663.48 124.776 663.48C123.656 663.48 122.776 663.82 122.136 664.5C121.496 665.18 121.176 666.113 121.176 667.3V670.7ZM143.906 666.2C143.906 667.28 143.599 668.187 142.986 668.92C142.386 669.64 141.586 670.1 140.586 670.3L143.646 676H141.386L138.526 670.4H135.586V676H133.606V662H139.486C140.339 662 141.099 662.173 141.766 662.52C142.433 662.853 142.953 663.34 143.326 663.98C143.713 664.607 143.906 665.347 143.906 666.2ZM135.586 668.64H139.286C140.113 668.64 140.759 668.427 141.226 668C141.693 667.56 141.926 666.96 141.926 666.2C141.926 665.453 141.686 664.867 141.206 664.44C140.739 664 140.099 663.78 139.286 663.78H135.586V668.64ZM153.033 662L157.353 676H155.293L154.253 672.6H148.733L147.693 676H145.653L149.973 662H153.033ZM153.753 670.8L151.593 663.72H151.393L149.233 670.8H153.753ZM161.903 662V674.22H168.883V676H159.923V662H161.903ZM53.76 686C55.64 686 57.0733 686.48 58.06 687.44C59.0467 688.387 59.54 689.807 59.54 691.7V694.3C59.54 696.193 59.0467 697.62 58.06 698.58C57.0733 699.527 55.64 700 53.76 700H49.36V686H53.76ZM53.78 698.22C56.3 698.22 57.56 696.933 57.56 694.36V691.64C57.56 689.067 56.3 687.78 53.78 687.78H51.34V698.22H53.78ZM68.7089 686L73.0289 700H70.9689L69.9289 696.6H64.4089L63.3689 700H61.3289L65.6489 686H68.7089ZM69.4289 694.8L67.2689 687.72H67.0689L64.9089 694.8H69.4289ZM84.3469 686V687.78H79.8269V700H77.8469V687.78H73.3269V686H84.3469ZM92.0175 686L96.3375 700H94.2775L93.2375 696.6H87.7175L86.6775 700H84.6375L88.9575 686H92.0175ZM92.7375 694.8L90.5775 687.72H90.3775L88.2175 694.8H92.7375ZM98.2889 699.23C98.2889 698.95 98.3775 698.721 98.5549 698.544C98.7415 698.357 98.9749 698.264 99.2549 698.264C99.5255 698.264 99.7542 698.357 99.9409 698.544C100.128 698.721 100.221 698.95 100.221 699.23C100.221 699.51 100.128 699.743 99.9409 699.93C99.7542 700.107 99.5255 700.196 99.2549 700.196C98.9749 700.196 98.7415 700.107 98.5549 699.93C98.3775 699.743 98.2889 699.51 98.2889 699.23Z" fill="black"/>
<rect width="171" height="68" transform="translate(30 249.5)" fill="white"/>
<path d="M55.328 272.66C55.328 273.524 55.0827 274.249 54.592 274.836C54.112 275.412 53.472 275.78 52.672 275.94L55.12 280.5H53.312L51.024 276.02H48.672V280.5H47.088V269.3H51.792C52.4747 269.3 53.0827 269.439 53.616 269.716C54.1493 269.983 54.5653 270.372 54.864 270.884C55.1733 271.385 55.328 271.977 55.328 272.66ZM48.672 274.612H51.632C52.2933 274.612 52.8107 274.441 53.184 274.1C53.5573 273.748 53.744 273.268 53.744 272.66C53.744 272.063 53.552 271.593 53.168 271.252C52.7947 270.9 52.2827 270.724 51.632 270.724H48.672V274.612ZM64.8838 269.3V270.724H59.3158V274.148H64.4358V275.588H59.3158V279.076H64.9638V280.5H57.7318V269.3H64.8838ZM70.9424 269.3C72.4464 269.3 73.593 269.684 74.3824 270.452C75.1717 271.209 75.5664 272.345 75.5664 273.86V275.94C75.5664 277.455 75.1717 278.596 74.3824 279.364C73.593 280.121 72.4464 280.5 70.9424 280.5H67.4224V269.3H70.9424ZM70.9584 279.076C72.9744 279.076 73.9824 278.047 73.9824 275.988V273.812C73.9824 271.753 72.9744 270.724 70.9584 270.724H69.0064V279.076H70.9584ZM79.6799 276.724C79.6799 277.567 79.9039 278.212 80.3519 278.66C80.8105 279.097 81.4612 279.316 82.3039 279.316C83.1465 279.316 83.7919 279.097 84.2399 278.66C84.6985 278.212 84.9279 277.567 84.9279 276.724V269.3H86.5119V276.692C86.5119 277.972 86.1332 278.964 85.3759 279.668C84.6292 280.372 83.6052 280.724 82.3039 280.724C81.0025 280.724 79.9732 280.372 79.2159 279.668C78.4692 278.964 78.0959 277.972 78.0959 276.692V269.3H79.6799V276.724ZM90.5486 269.3L93.2366 273.796H93.3966L96.0846 269.3H97.9246L94.4686 274.852L97.9726 280.5H96.1326L93.3966 275.908H93.2366L90.5006 280.5H88.6766L92.1806 274.852L88.7086 269.3H90.5486ZM107.124 272.436V269.3H108.532V272.436H110.644V269.3H112.052V272.436H113.956V273.764H112.052V276.036H113.956V277.364H112.052V280.5H110.644V277.364H108.532V280.5H107.124V277.364H105.22V276.036H107.124V273.764H105.22V272.436H107.124ZM108.532 276.036H110.644V273.764H108.532V276.036ZM120.918 269.3L120.902 280.5H119.318V270.996H119.126L117.142 274.212H115.414L118.47 269.3H120.918Z" fill="black"/>
<path d="M46.888 289.1V297.5H47.86V293.732H51.796V292.844H47.86V289.976H52.036V289.1H46.888ZM59.9584 291.56C59.9584 290.024 58.8184 289.1 57.3184 289.1H53.8864V297.5H54.8584V294.02H56.8264L58.6384 297.5H59.7664L57.8464 293.984C59.0704 293.78 59.9584 292.904 59.9584 291.56ZM54.8584 289.976H57.2104C58.3144 289.976 58.9744 290.564 58.9744 291.56C58.9744 292.556 58.3144 293.144 57.2104 293.144H54.8584V289.976ZM61.6052 292.34V294.26C61.6052 296.48 62.8892 297.668 64.8932 297.668C66.8973 297.668 68.1813 296.48 68.1813 294.26V292.34C68.1813 290.12 66.8973 288.932 64.8932 288.932C62.8892 288.932 61.6052 290.12 61.6052 292.34ZM62.5772 292.292C62.5772 290.744 63.4292 289.796 64.8932 289.796C66.3453 289.796 67.1972 290.744 67.1972 292.292V294.308C67.1972 295.856 66.3453 296.792 64.8932 296.792C63.4292 296.792 62.5772 295.856 62.5772 294.308V292.292ZM70.2974 289.1V297.5H71.2574V290.132H71.3774L73.9334 297.5H75.3254L77.8814 290.132H78.0014V297.5H78.9614V289.1H77.2574L74.6894 296.504H74.5694L72.0014 289.1H70.2974ZM88.3899 288.932C86.6979 288.932 85.5339 289.808 85.5339 291.212C85.5339 292.628 86.5059 293.204 87.9819 293.552L88.6179 293.708C89.7459 293.972 90.4899 294.308 90.4899 295.232C90.4899 296.156 89.7339 296.804 88.4139 296.804C87.1059 296.804 86.2059 296.144 86.2059 294.68V294.596H85.2339V294.68C85.2339 296.684 86.5899 297.668 88.4139 297.668C90.2499 297.668 91.4499 296.684 91.4499 295.22C91.4499 293.744 90.3579 293.192 88.9059 292.856L88.2579 292.7C87.1419 292.436 86.5059 292.124 86.5059 291.2C86.5059 290.3 87.2499 289.796 88.3899 289.796C89.5539 289.796 90.4059 290.3 90.4059 291.524V291.92H91.3779V291.524C91.3779 289.808 90.0819 288.932 88.3899 288.932ZM93.4841 289.1V297.5H98.8121V296.624H94.4561V293.72H98.4161V292.844H94.4561V289.976H98.7521V289.1H93.4841ZM100.787 289.1V297.5H101.747V290.132H101.867L104.423 297.5H105.815L108.371 290.132H108.491V297.5H109.451V289.1H107.747L105.179 296.504H105.059L102.491 289.1H100.787ZM111.829 289.1V297.5H112.801V289.1H111.829ZM115.171 289.1V297.5H116.143V290.144H116.263L119.551 297.5H121.219V289.1H120.247V296.456H120.127L116.827 289.1H115.171ZM125.591 289.1L122.867 297.5H123.887L124.571 295.364H128.099L128.783 297.5H129.803L127.079 289.1H125.591ZM124.835 294.488L126.275 290H126.395L127.835 294.488H124.835ZM131.465 289.1V297.5H136.781V296.624H132.437V289.1H131.465ZM142.106 289.1V289.976H144.914V297.5H145.886V289.976H148.682V289.1H142.106ZM149.934 292.34V294.26C149.934 296.48 151.218 297.668 153.222 297.668C155.226 297.668 156.51 296.48 156.51 294.26V292.34C156.51 290.12 155.226 288.932 153.222 288.932C151.218 288.932 149.934 290.12 149.934 292.34ZM150.906 292.292C150.906 290.744 151.758 289.796 153.222 289.796C154.674 289.796 155.526 290.744 155.526 292.292V294.308C155.526 295.856 154.674 296.792 153.222 296.792C151.758 296.792 150.906 295.856 150.906 294.308V292.292ZM158.626 289.1V297.5H159.598V294.104H161.818C163.306 294.104 164.458 293.156 164.458 291.596C164.458 290.036 163.318 289.1 161.818 289.1H158.626ZM159.598 289.976H161.71C162.814 289.976 163.474 290.588 163.474 291.596C163.474 292.616 162.814 293.216 161.71 293.216H159.598V289.976ZM166.258 289.1V297.5H167.23V289.1H166.258ZM169.336 294.176C169.336 296.396 170.584 297.668 172.648 297.668C174.592 297.668 175.768 296.528 175.768 294.68V294.44H174.796V294.692C174.796 295.964 174.112 296.792 172.648 296.792C171.184 296.792 170.308 295.832 170.308 294.2V292.4C170.308 290.768 171.172 289.796 172.648 289.796C174.04 289.796 174.796 290.66 174.796 291.932V292.124H175.768V291.944C175.768 290.096 174.664 288.932 172.648 288.932C170.608 288.932 169.336 290.204 169.336 292.424V294.176ZM180.53 288.932C178.838 288.932 177.674 289.808 177.674 291.212C177.674 292.628 178.646 293.204 180.122 293.552L180.758 293.708C181.886 293.972 182.63 294.308 182.63 295.232C182.63 296.156 181.874 296.804 180.554 296.804C179.246 296.804 178.346 296.144 178.346 294.68V294.596H177.374V294.68C177.374 296.684 178.73 297.668 180.554 297.668C182.39 297.668 183.59 296.684 183.59 295.22C183.59 293.744 182.498 293.192 181.046 292.856L180.398 292.7C179.282 292.436 178.646 292.124 178.646 291.2C178.646 290.3 179.39 289.796 180.53 289.796C181.694 289.796 182.546 290.3 182.546 291.524V291.92H183.518V291.524C183.518 289.808 182.222 288.932 180.53 288.932Z" fill="black"/>
<rect width="161" height="48" transform="translate(30 352.5)" fill="white"/>
<path d="M48.592 372.1L51.16 379.504H51.28L53.848 372.1H55.552V380.5H54.592V373.132H54.472L51.916 380.5H50.524L47.968 373.132H47.848V380.5H46.888V372.1H48.592ZM57.6654 375.34C57.6654 374.244 57.9574 373.404 58.5414 372.82C59.1334 372.228 59.9374 371.932 60.9534 371.932C61.9694 371.932 62.7694 372.228 63.3534 372.82C63.9454 373.404 64.2414 374.244 64.2414 375.34V377.26C64.2414 378.356 63.9454 379.2 63.3534 379.792C62.7694 380.376 61.9694 380.668 60.9534 380.668C59.9374 380.668 59.1334 380.376 58.5414 379.792C57.9574 379.2 57.6654 378.356 57.6654 377.26V375.34ZM58.6374 377.308C58.6374 378.084 58.8414 378.692 59.2494 379.132C59.6574 379.572 60.2254 379.792 60.9534 379.792C61.6814 379.792 62.2454 379.572 62.6454 379.132C63.0534 378.692 63.2574 378.084 63.2574 377.308V375.292C63.2574 374.516 63.0534 373.908 62.6454 373.468C62.2374 373.02 61.6734 372.796 60.9534 372.796C60.2254 372.796 59.6574 373.02 59.2494 373.468C58.8414 373.908 58.6374 374.516 58.6374 375.292V377.308ZM72.4295 374.56C72.4295 375.216 72.2335 375.76 71.8415 376.192C71.4575 376.616 70.9495 376.88 70.3175 376.984L72.2375 380.5H71.1095L69.2975 377.02H67.3295V380.5H66.3575V372.1H69.7895C70.2935 372.1 70.7455 372.2 71.1455 372.4C71.5455 372.6 71.8575 372.884 72.0815 373.252C72.3135 373.62 72.4295 374.056 72.4295 374.56ZM67.3295 376.144H69.6815C70.2335 376.144 70.6655 376.004 70.9775 375.724C71.2895 375.444 71.4455 375.056 71.4455 374.56C71.4455 374.064 71.2895 373.676 70.9775 373.396C70.6655 373.116 70.2335 372.976 69.6815 372.976H67.3295V376.144ZM79.6083 372.1V372.976H75.3123V375.844H79.2723V376.72H75.3123V379.624H79.6683V380.5H74.3403V372.1H79.6083ZM89.4386 372.1L92.1626 380.5H91.1426L90.4586 378.364H86.9306L86.2466 380.5H85.2266L87.9506 372.1H89.4386ZM90.1946 377.488L88.7546 373H88.6346L87.1946 377.488H90.1946ZM99.0011 372.1V372.976H96.2051V380.5H95.2331V372.976H92.4251V372.1H99.0011ZM108.237 372.1C108.757 372.1 109.217 372.208 109.617 372.424C110.025 372.64 110.341 372.948 110.565 373.348C110.797 373.74 110.913 374.196 110.913 374.716C110.913 375.236 110.797 375.692 110.565 376.084C110.333 376.476 110.013 376.78 109.605 376.996C109.197 377.212 108.741 377.32 108.237 377.32H106.257V380.5H104.865V372.1H108.237ZM108.093 376.06C108.533 376.06 108.881 375.94 109.137 375.7C109.393 375.46 109.521 375.132 109.521 374.716C109.521 374.3 109.393 373.972 109.137 373.732C108.881 373.484 108.533 373.36 108.093 373.36H106.257V376.06H108.093ZM118.749 374.68C118.749 375.32 118.573 375.86 118.221 376.3C117.877 376.74 117.417 377.032 116.841 377.176L118.617 380.5H117.045L115.425 377.26H113.853V380.5H112.461V372.1H116.073C116.593 372.1 117.053 372.208 117.453 372.424C117.861 372.632 118.177 372.932 118.401 373.324C118.633 373.716 118.749 374.168 118.749 374.68ZM113.853 376.012H115.929C116.369 376.012 116.717 375.892 116.973 375.652C117.229 375.412 117.357 375.088 117.357 374.68C117.357 374.272 117.229 373.952 116.973 373.72C116.717 373.48 116.369 373.36 115.929 373.36H113.853V376.012ZM124.333 372.1L126.805 380.5H125.389L124.825 378.544H121.705L121.141 380.5H119.713L122.185 372.1H124.333ZM124.477 377.284L123.325 373.264H123.205L122.041 377.284H124.477ZM129.283 372.1L131.155 375.352H131.275L133.135 372.1H134.719L132.211 376.264L134.755 380.5H133.171L131.275 377.176H131.155L129.259 380.5H127.663L130.207 376.264L127.699 372.1H129.283ZM137.696 372.1V380.5H136.304V372.1H137.696ZM142.57 371.932C143.49 371.932 144.23 372.164 144.79 372.628C145.358 373.092 145.642 373.756 145.642 374.62V374.884H144.274V374.62C144.274 374.116 144.122 373.748 143.818 373.516C143.522 373.276 143.106 373.156 142.57 373.156C142.074 373.156 141.69 373.256 141.418 373.456C141.154 373.648 141.022 373.924 141.022 374.284C141.022 374.628 141.142 374.892 141.382 375.076C141.63 375.26 142.03 375.416 142.582 375.544L142.978 375.64C143.898 375.84 144.594 376.128 145.066 376.504C145.546 376.872 145.786 377.412 145.786 378.124C145.786 378.628 145.658 379.072 145.402 379.456C145.146 379.84 144.778 380.14 144.298 380.356C143.826 380.564 143.278 380.668 142.654 380.668C142.014 380.668 141.446 380.556 140.95 380.332C140.462 380.1 140.078 379.764 139.798 379.324C139.526 378.884 139.39 378.356 139.39 377.74V377.632H140.758V377.74C140.758 378.3 140.922 378.724 141.25 379.012C141.586 379.3 142.054 379.444 142.654 379.444C143.214 379.444 143.646 379.328 143.95 379.096C144.262 378.864 144.418 378.552 144.418 378.16C144.418 377.8 144.282 377.528 144.01 377.344C143.738 377.16 143.302 377 142.702 376.864L142.306 376.78C141.41 376.58 140.742 376.3 140.302 375.94C139.87 375.572 139.654 375.036 139.654 374.332C139.654 373.588 139.918 373.004 140.446 372.58C140.974 372.148 141.682 371.932 142.57 371.932ZM147.331 379.624C147.331 379.328 147.427 379.084 147.619 378.892C147.819 378.692 148.071 378.592 148.375 378.592C148.671 378.592 148.915 378.692 149.107 378.892C149.307 379.084 149.407 379.328 149.407 379.624C149.407 379.928 149.307 380.18 149.107 380.38C148.915 380.572 148.671 380.668 148.375 380.668C148.071 380.668 147.819 380.572 147.619 380.38C147.427 380.18 147.331 379.928 147.331 379.624ZM153.71 372.1L156.158 379.084H156.278V372.1H157.658V380.5H155.282L152.846 373.516H152.726V380.5H151.334V372.1H153.71ZM160.602 372.1L162.642 375.94H162.762L164.802 372.1H166.362L163.398 377.452V380.5H162.006V377.452L159.03 372.1H160.602ZM167.128 375.34C167.128 374.26 167.432 373.424 168.04 372.832C168.648 372.232 169.48 371.932 170.536 371.932C171.568 371.932 172.368 372.204 172.936 372.748C173.512 373.292 173.8 374.028 173.8 374.956V375.16H172.42V374.932C172.42 374.42 172.256 374 171.928 373.672C171.6 373.336 171.136 373.168 170.536 373.168C169.904 373.168 169.408 373.36 169.048 373.744C168.696 374.128 168.52 374.652 168.52 375.316V377.284C168.52 377.948 168.7 378.472 169.06 378.856C169.42 379.24 169.912 379.432 170.536 379.432C171.144 379.432 171.608 379.268 171.928 378.94C172.256 378.612 172.42 378.192 172.42 377.68V377.368H173.8V377.656C173.8 378.264 173.668 378.796 173.404 379.252C173.148 379.7 172.776 380.048 172.288 380.296C171.8 380.544 171.216 380.668 170.536 380.668C169.48 380.668 168.648 380.372 168.04 379.78C167.432 379.18 167.128 378.34 167.128 377.26V375.34Z" fill="black"/>
<rect width="65" height="65" transform="translate(30 301)" fill="white"/>
<rect x="45" y="316" width="35" height="35" fill="black"/>
<path fill-rule="evenodd" clip-rule="evenodd" d="M79 317H49V347H79V317ZM65.3148 321.282C64.7073 321.128 64.0742 321.051 63.4154 321.051H54.7158V337.153H59.1551V331.137H63.4154C63.8999 331.137 64.3771 331.081 64.8467 330.969C65.3238 330.857 65.7748 330.697 66.1997 330.488C66.2263 330.475 66.2527 330.462 66.279 330.448C66.6734 330.247 67.0384 330.003 67.3738 329.717C67.4186 329.678 67.4625 329.64 67.5057 329.6C67.8082 329.325 68.0736 329.021 68.302 328.688C68.3355 328.64 68.3681 328.592 68.3998 328.544C68.6216 328.203 68.7977 327.833 68.9281 327.436C68.9468 327.378 68.9642 327.319 68.9805 327.261C69.0947 326.85 69.1518 326.416 69.1518 325.959C69.1518 325.908 69.1512 325.856 69.1499 325.806C69.1311 325.043 68.9715 324.374 68.671 323.801C68.6514 323.763 68.6314 323.724 68.611 323.687C68.3048 323.119 67.9036 322.647 67.4074 322.269C67.3412 322.218 67.2738 322.169 67.2051 322.121C66.724 321.785 66.1801 321.529 65.5735 321.352C65.4878 321.327 65.4016 321.304 65.3148 321.282ZM63.8627 323.522C64.392 324.111 64.6566 324.923 64.6566 325.959C64.6566 326.489 64.597 326.977 64.4777 327.424C64.3584 327.864 64.1721 328.248 63.9186 328.576C63.6651 328.904 63.3371 329.161 62.9346 329.348C62.5395 329.527 62.0587 329.616 61.4921 329.616H59.1551V322.627H61.4921C62.5507 322.627 63.3408 322.925 63.8627 323.522ZM68.4764 337.18L72.4483 342.878H69.4246L66.893 339.255L64.3077 342.878H62.2144L66.1058 338.119L62.2144 332.546H65.2381L67.6892 336.052L70.355 332.546H72.4483L68.4764 337.18Z" fill="white"/>
<rect x="45" y="316" width="35" height="35" stroke="black" stroke-width="2"/>
<rect width="57" height="56" transform="translate(238 724)" fill="white"/>
<path d="M254 750.5C253.172 750.5 252.5 751.172 252.5 752C252.5 752.828 253.172 753.5 254 753.5L254 750.5ZM280.061 753.061C280.646 752.475 280.646 751.525 280.061 750.939L270.515 741.393C269.929 740.808 268.979 740.808 268.393 741.393C267.808 741.979 267.808 742.929 268.393 743.515L276.879 752L268.393 760.485C267.808 761.071 267.808 762.021 268.393 762.607C268.979 763.192 269.929 763.192 270.515 762.607L280.061 753.061ZM254 753.5L279 753.5L279 750.5L254 750.5L254 753.5Z" fill="black"/>
<rect width="70" height="70" transform="translate(30 419)" fill="#EEEEEE"/>
<path d="M63.0731 460.844C63.0731 463.502 62.2314 465.672 60.5482 467.356C58.8649 469.039 56.6943 469.88 54.0365 469.88C51.3787 469.88 49.2082 469.039 47.5249 467.356C45.8416 465.672 45 463.457 45 460.711L45 452.206C45 447.688 46.1517 444.233 48.4551 441.841C50.8472 439.36 54.3023 438.12 58.8206 438.12L61.4784 438.12L61.4784 444.764L58.6877 444.764C56.5615 444.764 55.0111 445.251 54.0365 446.226C53.062 447.2 52.5747 448.751 52.5747 450.877L52.5747 452.206L54.1694 452.206C56.7386 452.206 58.8649 453.048 60.5482 454.731C62.2314 456.326 63.0731 458.363 63.0731 460.844ZM85 460.844C85 463.502 84.1141 465.672 82.3422 467.356C80.6589 469.039 78.4884 469.88 75.8306 469.88C73.2613 469.88 71.0908 469.039 69.3189 467.356C67.6357 465.584 66.794 463.369 66.794 460.711L66.794 452.206C66.794 447.688 67.99 444.233 70.3821 441.841C72.7741 439.36 76.2292 438.12 80.7475 438.12L83.4053 438.12L83.4053 444.764L80.4817 444.764C78.3555 444.764 76.8051 445.296 75.8306 446.359C74.856 447.333 74.3688 448.839 74.3688 450.877L74.3688 452.206L76.0963 452.206C78.6656 452.206 80.7918 453.048 82.4751 454.731C84.1584 456.326 85 458.363 85 460.844Z" fill="black"/>
</g>
<defs>
<clipPath id="clip0">
<rect width="306" height="792" fill="white"/>
</clipPath>
<clipPath id="clip1">
<rect width="580" height="760" fill="white" transform="translate(-290 16)"/>
</clipPath>
</defs>
</svg>
