<svg width="255" height="31" viewBox="0 0 255 31" fill="none" xmlns="http://www.w3.org/2000/svg">
<path d="M39.0452 0.934692L24.3467 0.934692C24.3467 3.34675 24.5729 9.75379 24.2714 12.6935C24.196 14.7287 21.7085 14.804 19.1457 14.804H18.392C16.4322 14.7287 14.7739 14.3518 14.7739 12.7689C14.397 9.82916 14.6985 3.34675 14.6231 0.934692L0 0.934692L0 30.5578H14.4724C14.6231 27.4674 14.4724 21.9648 14.9246 19.9297C15.3015 18.6483 16.206 18.2714 17.4121 18.1206C17.8643 18.1206 18.4673 18.1206 19.1457 18.1206C19.3719 18.1206 19.598 18.1206 19.8241 18.196H21.6332C21.6332 18.196 21.6332 18.1206 21.5578 18.1206C22.8392 18.196 23.6683 18.6483 24.0452 19.9297C24.5729 21.9648 24.3467 27.4674 24.5729 30.5578L39.0452 30.5578V0.934692Z" fill="black"/>
<path d="M84.3408 1.01007C82.2303 1.01007 82.0042 2.59298 80.8735 4.32665C79.2906 7.04022 77.2554 10.5829 75.974 11.7136C74.768 12.7689 73.6373 12.0905 72.5821 10.4322C70.5469 7.49248 68.4363 4.10052 66.778 1.2362L50.572 1.38695C53.7378 5.98494 56.6022 10.6583 59.6926 15.2563V15.3317C61.1248 17.9699 61.4263 18.8744 61.2755 20.7588V30.7839H76.8785V20.6834C77.1047 19.402 77.7831 18.3468 77.7831 18.3468C77.7831 18.3468 79.366 15.9347 80.3459 14.5779C82.9087 10.8844 85.773 6.73871 88.0343 3.34675C88.7127 2.66836 88.562 1.38695 87.5821 1.16082C87.2052 1.01007 87.0544 1.01007 86.6021 1.01007C86.6021 1.01007 85.0946 1.08545 84.3408 1.01007Z" fill="black"/>
<path d="M97.3863 30.9347H109.748C114.195 30.8593 121.582 30.8593 121.582 30.8593C130.175 30.4071 133.492 27.392 133.793 21.6633C134.095 17.9699 131.683 14.8794 129.271 14.0503C128.743 13.8241 128.291 13.598 127.839 13.4473C129.271 12.4674 130.477 11.1106 130.778 9.30153C131.155 4.77891 128.819 2.29148 124.296 1.53771C120.15 1.01007 113.668 1.31158 109.597 1.16082L97.914 1.16082V1.2362H97.2356C97.2356 11.0352 97.311 20.8342 97.3863 30.6332V30.9347ZM116.155 13.8995C112.612 13.598 112.462 10.4322 112.386 8.02012C112.462 7.86937 112.462 7.86937 112.462 7.71861C112.839 5.83419 113.366 4.47741 115.326 4.25128L116.004 4.10052C118.567 4.10052 119.924 5.1558 120.678 7.26635C121.582 9.82916 120.226 14.201 116.306 13.8995H116.155ZM116.08 27.5427C113.14 27.392 112.236 25.2814 112.16 22.3417C112.236 19.7035 114.12 17.593 116.381 17.2915C120.452 17.1407 121.356 21.3618 121.356 21.3618C121.959 24.2262 120.753 27.5427 116.683 27.6181C116.683 27.6181 116.683 27.5427 116.08 27.5427Z" fill="black"/>
<path d="M172.353 25.8091C171.6 24.7538 172.353 24.1508 172.73 23.8493C173.71 23.2463 174.238 22.7186 174.916 22.2664C176.65 20.5327 180.343 16.9146 179.363 10.7337C178.61 6.06032 173.032 1.08545 166.7 1.2362C158.409 1.2362 150.796 1.16082 142.504 1.08545V30.7086L151.625 30.7086L151.7 30.6332C151.7 30.6332 151.7 30.7086 151.625 30.7086H158.183L158.107 28.9749C158.559 25.3568 163.384 25.5829 163.384 25.5829C165.946 25.4322 167.755 26.8643 168.509 27.7689C168.66 27.995 169.414 28.7488 169.64 29.0503C170.017 29.5025 170.77 30.6332 170.77 30.6332H173.71C174.841 30.6332 176.574 30.8593 176.047 30.1055L172.353 25.8091ZM161.725 23.0955C159.012 22.8694 158.258 20.0804 158.258 18.3468C158.107 16.387 158.409 9.15077 158.409 9.15077C158.635 7.1156 159.69 5.38193 162.328 5.1558C165.72 5.30655 168.434 10.6583 168.208 13.4473C168.283 17.3669 165.343 22.9447 161.725 23.0955Z" fill="black"/>
<path d="M202.182 1.01007L187.634 1.01007V30.4824H202.182V1.01007Z" fill="black"/>
<path d="M217.698 1.16082C217.396 1.2362 217.019 1.2362 216.643 1.2362L213.024 1.2362V30.4824H221.391C229.155 30.2563 237.296 31.3116 244.532 28.0704C250.487 25.5076 255.311 19.3267 253.879 12.9196C252.597 6.43721 245.738 2.14072 239.105 1.38695C231.944 1.08545 224.859 1.2362 217.698 1.16082ZM215.738 1.16082H215.813C215.813 1.16082 215.813 1.16082 215.738 1.2362V1.16082ZM239.934 14.0503C240.236 18.1206 238.577 25.8091 233.075 26.4121C229.984 26.4875 228.175 23.2462 227.874 19.8543C227.723 15.5578 227.723 12.0151 227.949 10.4322C228.251 7.49248 228.326 4.85429 231.793 4.02514C234.281 3.57288 239.406 6.81409 239.934 14.0503Z" fill="black"/>
</svg>
