<svg width="314" height="31" viewBox="0 0 314 31" fill="none" xmlns="http://www.w3.org/2000/svg">
<path d="M14.475 1.30957H0V30.6346H14.475V1.30957Z" fill="black"/>
<path d="M29.9133 1.45957C29.6133 1.53457 29.2383 1.53457 28.8633 1.53457H25.2633V30.6346H33.5883C41.3133 30.4096 49.4133 31.4596 56.6133 28.2346C62.5383 25.6846 67.3383 19.5346 65.9133 13.1596C64.6383 6.70957 57.8133 2.43457 51.2133 1.68457C44.0883 1.38457 37.0383 1.53457 29.9133 1.45957ZM27.9633 1.45957H28.0383C28.0383 1.45957 28.0383 1.45957 27.9633 1.53457V1.45957ZM52.0383 14.2846C52.3383 18.3346 50.6883 25.9846 45.2133 26.5846C42.1383 26.6596 40.3383 23.4346 40.0383 20.0596C39.8883 15.7846 39.8883 12.2596 40.1133 10.6846C40.4133 7.75957 40.4883 5.13457 43.9383 4.30957C46.4133 3.85957 51.5133 7.08457 52.0383 14.2846Z" fill="black"/>
<path d="M71.9221 1.30957V7.60957H71.8471V23.0596H71.9221V30.7096H104.097C104.022 29.6596 104.172 29.5096 104.097 27.6346C102.522 27.6346 93.8971 27.5596 90.3721 27.4846C88.7221 27.4096 88.1221 26.7346 87.9721 25.6096V18.8596C88.0471 18.0346 88.7221 17.3596 89.5471 17.2846C90.8221 17.1346 92.1721 17.2096 93.4471 17.1346C96.8971 17.1346 100.422 17.0596 103.872 17.0596C103.947 16.0096 103.872 14.8096 103.872 13.6846C103.722 13.4596 103.197 13.6846 102.972 13.6096C98.6221 13.6096 94.2721 13.5346 89.9221 13.4596C89.0971 13.4596 88.1971 12.9346 88.0471 12.0346C87.9721 11.9596 87.9721 11.8096 87.9721 11.7346V7.90957C87.8971 6.03457 88.1971 4.60957 90.4471 4.53457C93.9721 4.45957 102.597 4.38457 104.172 4.38457C104.247 2.50957 104.097 2.35957 104.172 1.30957H71.9221Z" fill="black"/>
<path d="M147.274 0.93457H141.874V20.2096C141.724 20.8096 141.124 20.5096 140.749 20.2096C136.099 12.9346 131.149 4.98457 128.824 1.30957H113.524V30.2596L113.599 30.6346H118.924V13.3096C119.074 12.8596 119.449 11.8096 120.349 13.0096C122.899 17.5096 125.749 22.3096 131.299 30.7096L147.274 30.6346C147.199 30.5596 147.349 30.2596 147.274 30.1096V12.1096C147.199 11.7346 147.349 8.95957 147.274 8.88457V0.93457Z" fill="black"/>
<path d="M157.104 1.15957C157.104 2.28457 157.104 2.73457 157.029 4.45957C158.604 4.45957 161.679 4.38457 165.204 4.45957C166.929 4.53457 167.454 5.35957 167.604 6.55957V30.6346H169.479V30.7096H183.954V13.3846C184.029 13.3846 184.029 13.3846 184.104 13.3096L183.954 13.1596L184.029 12.1096C183.954 12.0346 183.954 12.0346 183.954 11.9596V6.63457C184.104 5.43457 184.704 4.60957 186.429 4.53457C189.954 4.45957 192.954 4.45957 194.529 4.53457C194.529 2.73457 194.454 2.28457 194.529 1.23457C189.429 1.23457 185.529 1.23457 181.704 1.23457C172.254 1.23457 167.154 1.15957 157.104 1.15957Z" fill="black"/>
<path d="M217.942 1.30957H203.467V30.6346H217.942V1.30957Z" fill="black"/>
<path d="M228.955 1.15957C228.955 2.28457 228.955 2.73457 228.88 4.45957C230.455 4.45957 233.53 4.38457 237.055 4.45957C238.78 4.53457 239.305 5.35957 239.455 6.55957V30.6346H241.33V30.7096H255.805V13.3846C255.88 13.3846 255.88 13.3846 255.955 13.3096L255.805 13.1596L255.88 12.1096C255.805 12.0346 255.805 12.0346 255.805 11.9596V6.63457C255.955 5.43457 256.555 4.60957 258.28 4.53457C261.805 4.45957 264.805 4.45957 266.38 4.53457C266.38 2.73457 266.305 2.28457 266.38 1.23457C261.28 1.23457 257.38 1.23457 253.555 1.23457C244.105 1.23457 239.005 1.15957 228.955 1.15957Z" fill="black"/>
<path d="M308.917 1.30957C306.817 1.30957 306.592 2.88457 305.467 4.60957C303.892 7.30957 301.867 10.8346 300.592 11.9596C299.392 13.0096 298.267 12.3346 297.217 10.6846C295.192 7.75957 293.092 4.38457 291.442 1.53457L275.317 1.68457C278.467 6.25957 281.317 10.9096 284.392 15.4846V15.5596C285.817 18.1846 286.117 19.0846 285.967 20.9596V30.9346H301.492V20.8846C301.717 19.6096 302.392 18.5596 302.392 18.5596C302.392 18.5596 303.967 16.1596 304.942 14.8096C307.492 11.1346 310.342 7.00957 312.592 3.63457C313.267 2.95957 313.117 1.68457 312.142 1.45957C311.767 1.30957 311.617 1.30957 311.167 1.30957C311.167 1.30957 309.667 1.38457 308.917 1.30957Z" fill="black"/>
</svg>
