<svg width="261" height="217" viewBox="0 0 261 217" fill="none" xmlns="http://www.w3.org/2000/svg">
<path d="M5.61548 188.736L5.61548 199.348C7.3569 199.348 11.9825 199.184 14.1049 199.402C15.5742 199.456 15.6286 201.252 15.6286 203.103L15.6286 203.647C15.5742 205.062 15.3021 206.259 14.1593 206.259C12.037 206.531 7.3569 206.313 5.61548 206.368L5.61548 216.925L27.0023 216.925L27.0023 206.477C24.7711 206.368 20.7985 206.477 19.3292 206.15C18.404 205.878 18.1319 205.225 18.0231 204.354C18.0231 204.028 18.0231 203.592 18.0231 203.103C18.0231 202.939 18.0231 202.776 18.0775 202.613L18.0775 201.307C18.0775 201.307 18.0231 201.307 18.0231 201.361C18.0775 200.436 18.404 199.837 19.3292 199.565C20.7985 199.184 24.7711 199.348 27.0023 199.184L27.0023 188.736L5.61548 188.736Z" fill="black"/>
<path d="M5.6699 156.034C5.6699 157.558 6.81271 157.721 8.06435 158.537C10.0234 159.68 12.5812 161.149 13.3975 162.075C14.1593 162.945 13.6695 163.762 12.4723 164.523C10.35 165.993 7.90109 167.516 5.83316 168.714L5.942 180.414C9.26158 178.128 12.6356 176.06 15.9552 173.829L16.0096 173.829C17.9143 172.795 18.5673 172.577 19.9278 172.686L27.1656 172.686L27.1656 161.422L19.8734 161.422C18.9482 161.258 18.1864 160.768 18.1864 160.768C18.1864 160.768 16.4449 159.626 15.4654 158.918C12.7988 157.068 9.80577 155 7.3569 153.367C6.86712 152.878 5.942 152.987 5.77874 153.694C5.6699 153.966 5.6699 154.075 5.6699 154.401C5.6699 154.401 5.72432 155.49 5.6699 156.034Z" fill="black"/>
<path d="M27.2744 146.616L27.2744 137.691C27.22 134.48 27.22 129.147 27.22 129.147C26.8935 122.943 24.7167 120.549 20.5808 120.331C17.9143 120.113 15.6831 121.855 15.0845 123.596C14.9212 123.977 14.7579 124.304 14.6491 124.63C13.9416 123.596 12.9621 122.726 11.656 122.508C8.39087 122.236 6.59503 123.923 6.05083 127.188C5.6699 130.181 5.88758 134.861 5.77874 137.8L5.77874 146.235L5.83316 146.235L5.83316 146.724C12.9077 146.724 19.9822 146.67 27.0567 146.616L27.2744 146.616ZM14.9756 133.065C14.7579 135.623 12.4723 135.732 10.7309 135.786C10.6221 135.732 10.6221 135.732 10.5132 135.732C9.15274 135.46 8.17319 135.079 8.00993 133.664L7.90109 133.174C7.90109 131.324 8.66296 130.344 10.1867 129.8C12.037 129.147 15.1933 130.127 14.9756 132.956L14.9756 133.065ZM24.8255 133.12C24.7167 135.242 23.1929 135.895 21.0706 135.949C19.1659 135.895 17.6422 134.535 17.4245 132.902C17.3156 129.963 20.3631 129.31 20.3631 129.31C22.4311 128.875 24.8255 129.746 24.8799 132.684C24.8799 132.684 24.8255 132.684 24.8255 133.12Z" fill="black"/>
<path d="M23.5739 92.4921C22.812 93.0363 22.3767 92.4921 22.159 92.22C21.7236 91.5126 21.3427 91.1317 21.0162 90.6419C19.7645 89.3902 17.1524 86.7237 12.69 87.4311C9.316 87.9753 5.72432 92.0024 5.83316 96.5736C5.83316 102.56 5.77874 108.056 5.72432 114.042L27.1111 114.042L27.1111 107.457L27.0567 107.403C27.0567 107.403 27.1111 107.403 27.1111 107.457L27.1111 102.723L25.8595 102.777C23.2474 102.451 23.4106 98.968 23.4106 98.968C23.3018 97.1178 24.3357 95.8117 24.9888 95.2675C25.152 95.1587 25.6962 94.6145 25.9139 94.4512C26.2404 94.1791 27.0567 93.6349 27.0567 93.6349L27.0567 91.5126C27.0567 90.6963 27.22 89.4446 26.6758 89.8256L23.5739 92.4921ZM21.6148 100.165C21.4515 102.124 19.438 102.669 18.1864 102.669C16.7715 102.777 11.5472 102.56 11.5472 102.56C10.0779 102.396 8.82622 101.635 8.66297 99.7299C8.7718 97.281 12.6356 95.3219 14.6491 95.4852C17.4789 95.4308 21.5059 97.5531 21.6148 100.165Z" fill="black"/>
<path d="M5.6699 70.9569L5.6699 81.4599L26.9479 81.4599L26.9479 70.9569L5.6699 70.9569Z" fill="black"/>
<path d="M5.77874 59.7551C5.83316 59.9727 5.83316 60.2448 5.83316 60.5169L5.83316 63.1291L26.9479 63.1291L26.9479 57.0885C26.7846 51.4833 27.5465 45.606 25.2065 40.3817C23.3562 36.0826 18.8938 32.5998 14.2682 33.6337C9.5881 34.5589 6.48619 39.511 5.942 44.2999C5.72432 49.4698 5.83316 54.5852 5.77874 59.7551ZM5.77874 61.1699L5.77874 61.1155C5.77874 61.1155 5.77874 61.1155 5.83316 61.1699L5.77874 61.1699ZM15.0845 43.7013C18.0231 43.4836 23.5739 44.6809 24.0092 48.6535C24.0637 50.8847 21.7236 52.1908 19.2747 52.4084C16.1728 52.5173 13.6151 52.5173 12.4723 52.354C10.35 52.1363 8.44529 52.0819 7.84667 49.5786C7.52016 47.7828 9.86019 44.0823 15.0845 43.7013Z" fill="black"/>
<path d="M43.7544 2.48615L33.2515 2.48615V23.7641H43.7544V2.48615Z" fill="black"/>
<path d="M54.9563 2.59499C54.7386 2.64941 54.4665 2.64941 54.1944 2.64941L51.5823 2.64941V23.7641H57.6229C63.2281 23.6009 69.1053 24.3627 74.3296 22.0227C78.6287 20.1725 82.1116 15.7101 81.0776 11.0844C80.1525 6.40434 75.2003 3.30244 70.4114 2.75824C65.2416 2.54057 60.1261 2.64941 54.9563 2.59499ZM53.5414 2.59499H53.5958C53.5958 2.59499 53.5958 2.59499 53.5414 2.64941V2.59499ZM71.01 11.9007C71.2277 14.8394 70.0305 20.3901 66.0579 20.8255C63.8267 20.8799 62.5206 18.5399 62.3029 16.091C62.1941 12.9891 62.1941 10.4314 62.3573 9.28857C62.575 7.16622 62.6294 5.26154 65.1327 4.66292C66.9286 4.33641 70.6291 6.67644 71.01 11.9007Z" fill="black"/>
<path d="M85.4375 2.48615V7.05738H85.3831V18.2678H85.4375V23.8186H108.783C108.729 23.0567 108.838 22.9478 108.783 21.5874C107.641 21.5874 101.382 21.5329 98.8247 21.4785C97.6275 21.4241 97.1921 20.9343 97.0833 20.118V15.2203C97.1377 14.6217 97.6275 14.1319 98.2261 14.0775C99.1512 13.9686 100.131 14.0231 101.056 13.9686C103.559 13.9686 106.117 13.9142 108.62 13.9142C108.675 13.1524 108.62 12.2816 108.62 11.4653C108.511 11.3021 108.13 11.4653 107.967 11.4109C104.811 11.4109 101.655 11.3565 98.4982 11.3021C97.8996 11.3021 97.2466 10.9212 97.1377 10.2681C97.0833 10.2137 97.0833 10.1049 97.0833 10.0504V7.27505C97.0289 5.91457 97.2466 4.8806 98.8791 4.82618C101.437 4.77176 107.695 4.71734 108.838 4.71734C108.892 3.35686 108.783 3.24802 108.838 2.48615L85.4375 2.48615Z" fill="black"/>
<path d="M140.112 2.21405H136.194V16.1998C136.085 16.6352 135.65 16.4175 135.378 16.1998C132.004 10.9212 128.412 5.1527 126.725 2.48615L115.623 2.48615V23.492L115.678 23.7641H119.542V11.1933C119.65 10.8667 119.922 10.1049 120.575 10.9756C122.426 14.2407 124.494 17.7236 128.521 23.8186L140.112 23.7641C140.058 23.7097 140.166 23.492 140.112 23.3832V10.3225C140.058 10.0504 140.166 8.03693 140.112 7.98251V2.21405Z" fill="black"/>
<path d="M147.245 2.37731C147.245 3.1936 147.245 3.52012 147.191 4.77176C148.334 4.77176 150.565 4.71734 153.123 4.77176C154.374 4.82618 154.755 5.42479 154.864 6.29551V23.7641H156.224V23.8186H166.727V11.2477C166.782 11.2477 166.782 11.2477 166.836 11.1933L166.727 11.0844L166.782 10.3225C166.727 10.2681 166.727 10.2681 166.727 10.2137V6.34992C166.836 5.47921 167.272 4.8806 168.523 4.82618C171.081 4.77176 173.258 4.77176 174.4 4.82618C174.4 3.52012 174.346 3.1936 174.4 2.43173C170.7 2.43173 167.87 2.43173 165.095 2.43173C158.238 2.43173 154.537 2.37731 147.245 2.37731Z" fill="black"/>
<path d="M191.388 2.48615L180.885 2.48615V23.7641H191.388V2.48615Z" fill="black"/>
<path d="M199.379 2.37731C199.379 3.1936 199.379 3.52012 199.325 4.77176C200.468 4.77176 202.699 4.71734 205.257 4.77176C206.508 4.82618 206.889 5.42479 206.998 6.29551V23.7641H208.359V23.8186H218.862V11.2477C218.916 11.2477 218.916 11.2477 218.97 11.1933L218.862 11.0844L218.916 10.3225C218.862 10.2681 218.862 10.2681 218.862 10.2137V6.34992C218.97 5.47921 219.406 4.8806 220.657 4.82618C223.215 4.77176 225.392 4.77176 226.535 4.82618C226.535 3.52012 226.48 3.1936 226.535 2.43173C222.834 2.43173 220.004 2.43173 217.229 2.43173C210.372 2.43173 206.672 2.37731 199.379 2.37731Z" fill="black"/>
<path d="M257.399 2.48615C255.876 2.48615 255.712 3.62896 254.896 4.8806C253.753 6.8397 252.284 9.39741 251.359 10.2137C250.488 10.9756 249.672 10.4858 248.91 9.28857C247.441 7.16622 245.917 4.71734 244.72 2.64941L233.02 2.75824C235.305 6.07783 237.373 9.45183 239.604 12.7714V12.8258C240.638 14.7305 240.856 15.3835 240.747 16.744V23.9818H252.012V16.6896C252.175 15.7645 252.665 15.0026 252.665 15.0026C252.665 15.0026 253.808 13.2612 254.515 12.2816C256.365 9.61509 258.433 6.62202 260.066 4.17315C260.556 3.68337 260.447 2.75824 259.739 2.59499C259.467 2.48615 259.359 2.48615 259.032 2.48615C259.032 2.48615 257.944 2.54057 257.399 2.48615Z" fill="black"/>
<path d="M7.71511 0.938538C3.97248 0.938535 0.938477 3.97254 0.938477 7.71517C0.938478 11.4578 3.97248 14.4918 7.71511 14.4918H9.32126C10.4415 14.4918 11.552 14.7001 12.5961 15.1062L14.2667 15.7559C14.9994 16.0408 15.7213 15.3189 15.4363 14.5863L15.1061 13.7371C14.7001 12.693 14.4917 11.5825 14.4917 10.4622L14.4917 7.71517C14.4917 3.97254 11.4577 0.938536 7.71511 0.938538Z" fill="black"/>
</svg>
