<svg width="237" height="217" viewBox="0 0 237 217" fill="none" xmlns="http://www.w3.org/2000/svg">
<path d="M225.68 172.804L225.68 175.61L219.281 175.61C219.125 175.61 218.927 175.631 218.686 175.673C218.431 175.716 218.19 175.808 217.963 175.95C217.722 176.092 217.524 176.297 217.368 176.566C217.198 176.836 217.113 177.197 217.113 177.651C217.113 178.288 217.318 178.806 217.729 179.202C218.14 179.585 218.658 179.776 219.281 179.776L225.68 179.776L225.68 182.604L219.281 182.604C219.125 182.604 218.927 182.625 218.686 182.668C218.431 182.71 218.19 182.802 217.963 182.944C217.722 183.071 217.524 183.27 217.368 183.539C217.198 183.808 217.113 184.177 217.113 184.645C217.113 185.268 217.318 185.778 217.729 186.175C218.14 186.558 218.658 186.749 219.281 186.749L225.68 186.749L225.68 189.577L214.732 189.577L214.732 186.877L215.795 186.877C215.384 186.537 215.058 186.133 214.817 185.665C214.576 185.183 214.456 184.645 214.456 184.049C214.456 183.369 214.59 182.753 214.86 182.2C215.129 181.633 215.512 181.158 216.008 180.776C215.526 180.379 215.15 179.904 214.881 179.351C214.597 178.784 214.456 178.147 214.456 177.438C214.456 176.701 214.576 176.049 214.817 175.482C215.044 174.901 215.37 174.412 215.795 174.015C216.22 173.618 216.73 173.321 217.326 173.122C217.907 172.91 218.559 172.804 219.281 172.804L225.68 172.804ZM214.456 165.9C214.456 165.134 214.604 164.419 214.902 163.752C215.186 163.086 215.589 162.505 216.114 162.009C216.624 161.499 217.233 161.102 217.942 160.819C218.637 160.521 219.395 160.372 220.217 160.372C221.039 160.372 221.797 160.521 222.491 160.819C223.186 161.102 223.788 161.499 224.298 162.009C224.809 162.505 225.212 163.086 225.51 163.752C225.794 164.419 225.935 165.134 225.935 165.9C225.935 166.665 225.794 167.381 225.51 168.047C225.212 168.713 224.809 169.294 224.298 169.79C223.788 170.286 223.186 170.683 222.491 170.98C221.797 171.264 221.039 171.405 220.217 171.405C219.395 171.405 218.637 171.264 217.942 170.98C217.233 170.683 216.624 170.286 216.114 169.79C215.589 169.294 215.186 168.713 214.902 168.047C214.604 167.381 214.456 166.665 214.456 165.9ZM223.363 165.9C223.363 165.531 223.292 165.184 223.15 164.858C222.995 164.532 222.782 164.248 222.513 164.008C222.229 163.752 221.896 163.554 221.514 163.412C221.131 163.271 220.706 163.2 220.238 163.2C219.77 163.2 219.338 163.271 218.941 163.412C218.544 163.554 218.204 163.752 217.921 164.008C217.637 164.248 217.418 164.532 217.262 164.858C217.106 165.184 217.028 165.531 217.028 165.9C217.028 166.268 217.106 166.622 217.262 166.962C217.418 167.288 217.637 167.572 217.921 167.813C218.204 168.054 218.544 168.245 218.941 168.387C219.338 168.529 219.77 168.599 220.238 168.599C220.706 168.599 221.131 168.529 221.514 168.387C221.896 168.245 222.229 168.054 222.513 167.813C222.782 167.572 222.995 167.288 223.15 166.962C223.292 166.622 223.363 166.268 223.363 165.9ZM225.68 148.285L225.68 150.963L224.511 150.963C224.964 151.403 225.312 151.906 225.553 152.473C225.794 153.026 225.914 153.642 225.914 154.322C225.914 155.031 225.772 155.704 225.489 156.342C225.191 156.965 224.787 157.518 224.277 158C223.767 158.468 223.165 158.843 222.47 159.127C221.776 159.396 221.025 159.531 220.217 159.531C219.409 159.531 218.658 159.396 217.963 159.127C217.255 158.843 216.645 158.468 216.135 158C215.625 157.518 215.228 156.965 214.945 156.342C214.647 155.704 214.498 155.031 214.498 154.322C214.498 153.685 214.612 153.096 214.838 152.558C215.051 152.005 215.363 151.516 215.774 151.091L209.864 151.091L209.864 148.285L225.68 148.285ZM220.238 151.091C219.799 151.091 219.388 151.169 219.005 151.325C218.622 151.467 218.289 151.665 218.006 151.92C217.722 152.175 217.503 152.473 217.347 152.813C217.177 153.153 217.092 153.514 217.092 153.897C217.092 154.28 217.177 154.641 217.347 154.981C217.503 155.321 217.722 155.619 218.006 155.874C218.275 156.129 218.608 156.335 219.005 156.491C219.388 156.632 219.799 156.703 220.238 156.703C220.677 156.703 221.088 156.632 221.471 156.491C221.839 156.335 222.165 156.129 222.449 155.874C222.718 155.619 222.931 155.321 223.087 154.981C223.243 154.641 223.32 154.28 223.32 153.897C223.32 153.514 223.243 153.153 223.087 152.813C222.917 152.473 222.697 152.175 222.428 151.92C222.144 151.665 221.818 151.467 221.45 151.325C221.067 151.169 220.663 151.091 220.238 151.091ZM225.68 143.235L225.68 146.041L214.732 146.041L214.732 143.235L225.68 143.235ZM213.839 144.659C213.839 145.056 213.697 145.396 213.414 145.679C213.131 145.963 212.79 146.105 212.394 146.105C211.983 146.105 211.635 145.963 211.352 145.679C211.054 145.396 210.906 145.056 210.906 144.659C210.906 144.248 211.054 143.901 211.352 143.617C211.635 143.32 211.983 143.171 212.394 143.171C212.79 143.171 213.131 143.32 213.414 143.617C213.697 143.901 213.839 144.248 213.839 144.659ZM225.68 123.892L225.68 126.57L224.511 126.57C224.964 127.009 225.312 127.513 225.553 128.079C225.794 128.632 225.914 129.249 225.914 129.929C225.914 130.638 225.772 131.311 225.489 131.949C225.191 132.572 224.787 133.125 224.277 133.607C223.767 134.074 223.165 134.45 222.47 134.733C221.776 135.003 221.025 135.137 220.217 135.137C219.409 135.137 218.658 135.003 217.963 134.733C217.255 134.45 216.645 134.074 216.135 133.607C215.625 133.125 215.228 132.572 214.945 131.949C214.647 131.311 214.498 130.638 214.498 129.929C214.498 129.291 214.612 128.703 214.838 128.165C215.051 127.612 215.363 127.123 215.774 126.698L209.864 126.698L209.864 123.892L225.68 123.892ZM220.238 126.698C219.799 126.698 219.388 126.776 219.005 126.932C218.622 127.073 218.289 127.272 218.006 127.527C217.722 127.782 217.503 128.079 217.347 128.42C217.177 128.76 217.092 129.121 217.092 129.504C217.092 129.886 217.177 130.248 217.347 130.588C217.503 130.928 217.722 131.226 218.006 131.481C218.275 131.736 218.608 131.941 219.005 132.097C219.388 132.239 219.799 132.31 220.238 132.31C220.677 132.31 221.088 132.239 221.471 132.097C221.839 131.941 222.165 131.736 222.449 131.481C222.718 131.226 222.931 130.928 223.087 130.588C223.243 130.248 223.32 129.886 223.32 129.504C223.32 129.121 223.243 128.76 223.087 128.42C222.917 128.079 222.697 127.782 222.428 127.527C222.144 127.272 221.818 127.073 221.45 126.932C221.067 126.776 220.663 126.698 220.238 126.698ZM223.767 112.187L223.916 112.294C224.553 112.776 225.05 113.392 225.404 114.143C225.758 114.894 225.935 115.759 225.935 116.737C225.935 117.502 225.786 118.225 225.489 118.905C225.191 119.585 224.787 120.181 224.277 120.691C223.753 121.201 223.143 121.605 222.449 121.903C221.754 122.2 221.01 122.349 220.217 122.349C219.423 122.349 218.679 122.2 217.985 121.903C217.276 121.605 216.667 121.201 216.156 120.691C215.632 120.181 215.221 119.585 214.923 118.905C214.612 118.225 214.456 117.502 214.456 116.737C214.456 115.929 214.612 115.171 214.923 114.462C215.221 113.739 215.667 113.123 216.263 112.613C216.844 112.102 217.559 111.72 218.41 111.465C219.26 111.21 220.224 111.132 221.301 111.231L221.301 119.5C221.981 119.316 222.513 118.983 222.895 118.501C223.278 118.005 223.469 117.424 223.469 116.758C223.469 116.333 223.391 115.929 223.235 115.546C223.065 115.149 222.796 114.831 222.428 114.59L223.767 112.187ZM219.005 114.016C218.367 114.186 217.864 114.519 217.496 115.015C217.113 115.497 216.922 116.078 216.922 116.758C216.922 117.396 217.113 117.956 217.496 118.437C217.864 118.919 218.367 119.259 219.005 119.458L219.005 114.016ZM225.68 106.821L225.68 109.627L209.864 109.627L209.864 106.821L225.68 106.821ZM223.767 95.1225L223.916 95.2288C224.553 95.7106 225.05 96.3271 225.404 97.0782C225.758 97.8294 225.935 98.6939 225.935 99.6718C225.935 100.437 225.786 101.16 225.489 101.84C225.191 102.52 224.787 103.116 224.277 103.626C223.753 104.136 223.143 104.54 222.449 104.838C221.754 105.135 221.01 105.284 220.217 105.284C219.423 105.284 218.679 105.135 217.985 104.838C217.276 104.54 216.667 104.136 216.156 103.626C215.632 103.116 215.221 102.52 214.923 101.84C214.612 101.16 214.456 100.437 214.456 99.6718C214.456 98.864 214.612 98.1057 214.923 97.3971C215.221 96.6743 215.667 96.0578 216.263 95.5476C216.844 95.0374 217.559 94.6548 218.41 94.3997C219.26 94.1446 220.224 94.0666 221.301 94.1658L221.301 102.435C221.981 102.251 222.513 101.918 222.895 101.436C223.278 100.94 223.469 100.359 223.469 99.693C223.469 99.2679 223.391 98.864 223.235 98.4813C223.065 98.0845 222.796 97.7656 222.428 97.5247L223.767 95.1225ZM219.005 96.9507C218.367 97.1208 217.864 97.4538 217.496 97.9498C217.113 98.4317 216.922 99.0128 216.922 99.693C216.922 100.331 217.113 100.891 217.496 101.372C217.864 101.854 218.367 102.194 219.005 102.393L219.005 96.9507ZM225.68 82.8472L225.68 85.6533L219.281 85.6533C219.125 85.6533 218.927 85.6746 218.686 85.7171C218.431 85.7596 218.19 85.8517 217.963 85.9934C217.722 86.121 217.524 86.3194 217.368 86.5887C217.198 86.8579 217.113 87.2264 217.113 87.6941C217.113 88.3319 217.318 88.8492 217.729 89.246C218.14 89.6286 218.658 89.82 219.281 89.82L225.68 89.82L225.68 92.6261L214.732 92.6261L214.732 89.9475L215.795 89.9475C215.384 89.5932 215.058 89.1822 214.817 88.7145C214.576 88.2468 214.456 87.7154 214.456 87.1201C214.456 86.4824 214.576 85.9013 214.817 85.3769C215.044 84.8384 215.37 84.3849 215.795 84.0164C216.206 83.6479 216.709 83.3645 217.304 83.166C217.9 82.9535 218.559 82.8472 219.281 82.8472L225.68 82.8472ZM225.68 77.9228L225.68 80.729L214.732 80.729L214.732 77.9228L225.68 77.9228ZM213.839 79.3472C213.839 79.744 213.697 80.0841 213.414 80.3676C213.131 80.651 212.79 80.7927 212.394 80.7927C211.983 80.7927 211.635 80.651 211.352 80.3676C211.054 80.0841 210.906 79.744 210.906 79.3472C210.906 78.9362 211.054 78.5889 211.352 78.3055C211.635 78.0079 211.983 77.8591 212.394 77.8591C212.79 77.8591 213.131 78.0079 213.414 78.3055C213.697 78.5889 213.839 78.9362 213.839 79.3472ZM225.659 70.6039C225.744 71.4117 225.694 72.1204 225.51 72.7298C225.326 73.3392 225.028 73.8494 224.617 74.2604C224.206 74.6714 223.703 74.9832 223.108 75.1958C222.498 75.4084 221.818 75.5146 221.067 75.5146L217.219 75.5146L217.219 76.8327L214.732 76.8327L214.732 75.5146L209.864 75.5146L209.864 72.7085L214.732 72.7085L214.732 70.7315L217.219 70.7315L217.219 72.7085L221.088 72.7085C221.854 72.7085 222.392 72.5385 222.704 72.1983C223.016 71.844 223.15 71.3125 223.108 70.6039L225.659 70.6039ZM225.68 66.567L225.68 69.3731L214.732 69.3731L214.732 66.567L225.68 66.567ZM213.839 67.9913C213.839 68.3881 213.697 68.7283 213.414 69.0117C213.131 69.2951 212.79 69.4369 212.394 69.4369C211.983 69.4369 211.635 69.2951 211.352 69.0117C211.054 68.7283 210.906 68.3881 210.906 67.9913C210.906 67.5803 211.054 67.2331 211.352 66.9496C211.635 66.652 211.983 66.5032 212.394 66.5032C212.79 66.5032 213.131 66.652 213.414 66.9496C213.697 67.2331 213.839 67.5803 213.839 67.9913ZM214.456 52.9637C214.456 52.1984 214.604 51.4827 214.902 50.8166C215.186 50.1505 215.589 49.5694 216.114 49.0734C216.624 48.5632 217.233 48.1663 217.942 47.8829C218.637 47.5853 219.395 47.4365 220.217 47.4365C221.039 47.4365 221.797 47.5853 222.491 47.8829C223.186 48.1663 223.788 48.5632 224.298 49.0734C224.809 49.5694 225.212 50.1505 225.51 50.8166C225.794 51.4827 225.935 52.1984 225.935 52.9637C225.935 53.729 225.794 54.4447 225.51 55.1108C225.212 55.7769 224.809 56.358 224.298 56.854C223.788 57.35 223.186 57.7468 222.491 58.0445C221.797 58.3279 221.039 58.4696 220.217 58.4696C219.395 58.4696 218.637 58.3279 217.942 58.0445C217.233 57.7468 216.624 57.35 216.114 56.854C215.589 56.358 215.186 55.7769 214.902 55.1108C214.604 54.4447 214.456 53.729 214.456 52.9637ZM223.363 52.9637C223.363 52.5952 223.292 52.248 223.15 51.922C222.995 51.596 222.782 51.3126 222.513 51.0717C222.229 50.8166 221.896 50.6182 221.514 50.4764C221.131 50.3347 220.706 50.2638 220.238 50.2638C219.77 50.2638 219.338 50.3347 218.941 50.4764C218.544 50.6182 218.204 50.8166 217.921 51.0717C217.637 51.3126 217.418 51.596 217.262 51.922C217.106 52.248 217.028 52.5952 217.028 52.9637C217.028 53.3322 217.106 53.6865 217.262 54.0266C217.418 54.3526 217.637 54.636 217.921 54.8769C218.204 55.1179 218.544 55.3092 218.941 55.4509C219.338 55.5926 219.77 55.6635 220.238 55.6635C220.706 55.6635 221.131 55.5926 221.514 55.4509C221.896 55.3092 222.229 55.1179 222.513 54.8769C222.782 54.636 222.995 54.3526 223.15 54.0266C223.292 53.6865 223.363 53.3322 223.363 52.9637ZM214.732 40.9613L217.219 40.9613L217.219 42.9383L225.68 42.9383L225.68 45.7444L217.219 45.7444L217.219 47.0624L214.732 47.0624L214.732 45.7444C214.023 45.7302 213.357 45.6169 212.734 45.4043C212.096 45.1917 211.557 44.8799 211.118 44.4689C210.665 44.0437 210.324 43.5335 210.098 42.9383C209.871 42.3289 209.8 41.6344 209.885 40.855L212.521 40.855C212.464 41.5352 212.627 42.0525 213.01 42.4068C213.393 42.7611 213.967 42.9383 214.732 42.9383L214.732 40.9613ZM214.732 34.7124L217.219 34.7124L217.219 36.6895L225.68 36.6895L225.68 39.4956L217.219 39.4956L217.219 40.8136L214.732 40.8136L214.732 39.4956C214.023 39.4814 213.357 39.368 212.734 39.1554C212.096 38.9429 211.557 38.6311 211.118 38.2201C210.665 37.7949 210.324 37.2847 210.098 36.6895C209.871 36.08 209.8 35.3856 209.885 34.6061L212.521 34.6061C212.464 35.2864 212.627 35.8037 213.01 36.158C213.393 36.5123 213.967 36.6895 214.732 36.6895L214.732 34.7124ZM225.68 30.5894L225.68 33.3955L214.732 33.3955L214.732 30.5894L225.68 30.5894ZM213.839 32.0137C213.839 32.4106 213.697 32.7507 213.414 33.0342C213.131 33.3176 212.79 33.4593 212.394 33.4593C211.983 33.4593 211.635 33.3176 211.352 33.0342C211.054 32.7507 210.906 32.4106 210.906 32.0137C210.906 31.6027 211.054 31.2555 211.352 30.9721C211.635 30.6745 211.983 30.5256 212.394 30.5256C212.79 30.5256 213.131 30.6745 213.414 30.9721C213.697 31.2555 213.839 31.6027 213.839 32.0137ZM222.661 18.296C223.71 18.707 224.518 19.3589 225.085 20.2518C225.652 21.1305 225.935 22.1722 225.935 23.3768C225.935 24.1988 225.786 24.957 225.489 25.6515C225.191 26.3459 224.787 26.9412 224.277 27.4372C223.753 27.9332 223.143 28.323 222.449 28.6064C221.754 28.8898 221.01 29.0316 220.217 29.0316C219.423 29.0316 218.679 28.8898 217.985 28.6064C217.276 28.323 216.667 27.9332 216.156 27.4372C215.632 26.9412 215.221 26.3459 214.923 25.6515C214.612 24.957 214.456 24.1988 214.456 23.3768C214.456 22.1722 214.753 21.1234 215.349 20.2305C215.93 19.3377 216.752 18.6928 217.815 18.296C217.857 18.4803 217.907 18.6999 217.963 18.955C218.006 19.196 218.055 19.444 218.112 19.6991C218.155 19.9542 218.204 20.2093 218.261 20.4644C218.303 20.7053 218.346 20.925 218.389 21.1234C218.02 21.3218 217.701 21.6265 217.432 22.0375C217.163 22.4343 217.028 22.8808 217.028 23.3768C217.028 23.7595 217.113 24.1209 217.283 24.461C217.453 24.8011 217.687 25.0987 217.985 25.3538C218.268 25.609 218.608 25.8144 219.005 25.9703C219.388 26.1121 219.799 26.1829 220.238 26.1829C220.663 26.1829 221.067 26.1121 221.45 25.9703C221.832 25.8144 222.173 25.609 222.47 25.3538C222.754 25.0987 222.98 24.8011 223.15 24.461C223.306 24.1209 223.384 23.7595 223.384 23.3768C223.384 22.8808 223.257 22.4343 223.002 22.0375C222.747 21.6265 222.435 21.3218 222.066 21.1234L222.661 18.296ZM225.68 13.8151L225.68 16.6213L214.732 16.6213L214.732 13.8151L225.68 13.8151ZM213.839 15.2395C213.839 15.6363 213.697 15.9764 213.414 16.2599C213.131 16.5433 212.79 16.685 212.394 16.685C211.983 16.685 211.635 16.5433 211.352 16.2599C211.054 15.9764 210.906 15.6363 210.906 15.2395C210.906 14.8285 211.054 14.4812 211.352 14.1978C211.635 13.9002 211.983 13.7514 212.394 13.7514C212.79 13.7514 213.131 13.9002 213.414 14.1978C213.697 14.4812 213.839 14.8285 213.839 15.2395ZM225.68 4.15778C225.425 4.27116 225.085 4.36328 224.66 4.43415C225.042 4.80263 225.347 5.26323 225.574 5.81595C225.786 6.36867 225.893 7.02768 225.893 7.79299C225.893 8.37406 225.822 8.93386 225.68 9.47241C225.524 9.99679 225.305 10.4645 225.021 10.8755C224.724 11.2865 224.355 11.6195 223.916 11.8746C223.462 12.1156 222.938 12.236 222.343 12.236C221.733 12.236 221.23 12.1156 220.833 11.8746C220.422 11.6337 220.096 11.3077 219.855 10.8967C219.6 10.4857 219.416 10.011 219.303 9.47241C219.175 8.93386 219.083 8.35988 219.026 7.75047C218.984 7.29696 218.934 6.87887 218.877 6.49622C218.821 6.11357 218.75 5.7876 218.665 5.51833C218.566 5.23488 218.445 5.01521 218.303 4.85932C218.162 4.70342 217.978 4.62547 217.751 4.62547C217.467 4.62547 217.226 4.80263 217.028 5.15694C216.815 5.49707 216.709 5.98602 216.709 6.62377C216.709 6.8647 216.737 7.11272 216.794 7.36782C216.851 7.62292 216.936 7.86385 217.049 8.09061C217.148 8.3032 217.283 8.49452 217.453 8.66459C217.609 8.82049 217.8 8.93386 218.027 9.00473C217.999 9.14645 217.956 9.33778 217.9 9.57871C217.843 9.80546 217.786 10.0464 217.729 10.3015C217.659 10.5566 217.595 10.8046 217.538 11.0455C217.467 11.2865 217.411 11.492 217.368 11.662C216.943 11.5203 216.553 11.3006 216.199 11.003C215.845 10.6912 215.54 10.3228 215.285 9.89758C215.015 9.47241 214.81 8.99055 214.668 8.452C214.527 7.91346 214.456 7.3253 214.456 6.68755C214.456 5.95059 214.527 5.31992 214.668 4.79554C214.81 4.27116 215.001 3.83182 215.242 3.47751C215.469 3.1232 215.724 2.83976 216.008 2.62717C216.291 2.41459 216.574 2.25869 216.858 2.15948C217.127 2.04611 217.382 1.97524 217.623 1.9469C217.864 1.91855 218.055 1.90438 218.197 1.90438L223.894 1.90438C224.164 1.90438 224.476 1.86895 224.83 1.79809C225.184 1.72723 225.468 1.65637 225.68 1.5855L225.68 4.15778ZM220.408 4.51918C220.606 4.8168 220.755 5.19237 220.854 5.64588C220.954 6.08522 221.039 6.59543 221.11 7.17649C221.18 7.87094 221.308 8.41657 221.492 8.8134C221.662 9.21023 221.953 9.40864 222.364 9.40864C222.676 9.40864 222.931 9.24566 223.129 8.91969C223.313 8.57956 223.406 8.12604 223.406 7.55915C223.406 7.13398 223.37 6.73715 223.299 6.36867C223.228 6.00019 223.115 5.68131 222.959 5.41204C222.789 5.12859 222.584 4.90892 222.343 4.75302C222.087 4.59713 221.783 4.51918 221.428 4.51918L220.408 4.51918Z" fill="black"/>
<path d="M13.694 206.639H10.3139L4.29773 196.138L4.29773 206.639H1.4916L1.4916 191.886H4.87171L10.8666 202.388V191.886H13.694V206.639ZM25.5911 206.639H22.9125V205.64C22.5724 206.037 22.1685 206.349 21.7008 206.576C21.2331 206.788 20.7087 206.895 20.1277 206.895C19.4758 206.895 18.8805 206.781 18.342 206.554C17.8176 206.314 17.3641 205.988 16.9814 205.577C16.6129 205.151 16.3224 204.648 16.1098 204.067C15.9114 203.472 15.8122 202.813 15.8122 202.09V195.691H18.6183V202.09C18.6183 202.246 18.6396 202.444 18.6821 202.685C18.7246 202.926 18.8167 203.167 18.9585 203.408C19.1002 203.635 19.3057 203.833 19.575 204.003C19.8442 204.159 20.2056 204.237 20.6591 204.237C21.2969 204.237 21.8071 204.032 22.1898 203.621C22.5866 203.21 22.785 202.7 22.785 202.09V195.691H25.5911V206.639ZM30.5797 206.639H27.7736V190.823H30.5797V206.639ZM35.6245 206.639H32.8183V190.823H35.6245V206.639ZM45.2611 206.639C45.1477 206.384 45.0556 206.044 44.9847 205.619C44.6162 206.002 44.1556 206.306 43.6029 206.533C43.0502 206.746 42.3912 206.852 41.6259 206.852C41.0448 206.852 40.485 206.781 39.9464 206.639C39.4221 206.484 38.9544 206.264 38.5434 205.98C38.1324 205.683 37.7993 205.314 37.5442 204.875C37.3033 204.421 37.1828 203.897 37.1828 203.302C37.1828 202.692 37.3033 202.189 37.5442 201.793C37.7851 201.382 38.1111 201.056 38.5221 200.815C38.9331 200.56 39.4079 200.375 39.9464 200.262C40.485 200.134 41.059 200.042 41.6684 199.986C42.1219 199.943 42.54 199.893 42.9226 199.837C43.3053 199.78 43.6312 199.709 43.9005 199.624C44.184 199.525 44.4036 199.404 44.5595 199.263C44.7154 199.121 44.7934 198.937 44.7934 198.71C44.7934 198.427 44.6162 198.186 44.2619 197.987C43.9218 197.775 43.4328 197.668 42.7951 197.668C42.5541 197.668 42.3061 197.697 42.051 197.753C41.7959 197.81 41.555 197.895 41.3282 198.009C41.1156 198.108 40.9243 198.242 40.7543 198.412C40.5984 198.568 40.485 198.76 40.4141 198.986C40.2724 198.958 40.0811 198.916 39.8401 198.859C39.6134 198.802 39.3724 198.745 39.1173 198.689C38.8622 198.618 38.6142 198.554 38.3733 198.497C38.1324 198.427 37.9269 198.37 37.7568 198.327C37.8985 197.902 38.1182 197.512 38.4158 197.158C38.7276 196.804 39.0961 196.499 39.5213 196.244C39.9464 195.975 40.4283 195.769 40.9668 195.628C41.5054 195.486 42.0935 195.415 42.7313 195.415C43.4683 195.415 44.0989 195.486 44.6233 195.628C45.1477 195.769 45.587 195.961 45.9413 196.202C46.2956 196.428 46.5791 196.683 46.7917 196.967C47.0043 197.25 47.1602 197.534 47.2594 197.817C47.3727 198.086 47.4436 198.342 47.4719 198.582C47.5003 198.823 47.5145 199.015 47.5145 199.156V204.854C47.5145 205.123 47.5499 205.435 47.6208 205.789C47.6916 206.143 47.7625 206.427 47.8333 206.639H45.2611ZM44.8997 201.367C44.602 201.566 44.2265 201.715 43.773 201.814C43.3336 201.913 42.8234 201.998 42.2423 202.069C41.5479 202.14 41.0023 202.267 40.6054 202.452C40.2086 202.622 40.0102 202.912 40.0102 203.323C40.0102 203.635 40.1732 203.89 40.4992 204.088C40.8393 204.273 41.2928 204.365 41.8597 204.365C42.2849 204.365 42.6817 204.329 43.0502 204.259C43.4187 204.188 43.7375 204.074 44.0068 203.918C44.2903 203.748 44.5099 203.543 44.6658 203.302C44.8217 203.047 44.8997 202.742 44.8997 202.388V201.367ZM73.0489 206.639H70.2428V200.241C70.2428 200.085 70.2215 199.886 70.179 199.645C70.1365 199.39 70.0444 199.149 69.9027 198.923C69.7609 198.682 69.5554 198.483 69.2862 198.327C69.0169 198.157 68.6555 198.072 68.202 198.072C67.5642 198.072 67.0469 198.278 66.6501 198.689C66.2675 199.1 66.0761 199.617 66.0761 200.241V206.639H63.2488V200.241C63.2488 200.085 63.2275 199.886 63.185 199.645C63.1425 199.39 63.0503 199.149 62.9086 198.923C62.7811 198.682 62.5827 198.483 62.3134 198.327C62.0441 198.157 61.6756 198.072 61.2079 198.072C60.5843 198.072 60.0741 198.278 59.6773 198.689C59.2947 199.1 59.1033 199.617 59.1033 200.241V206.639H56.276V195.691H58.9758V196.754C59.3159 196.343 59.7198 196.017 60.1875 195.776C60.6694 195.535 61.2079 195.415 61.8032 195.415C62.4834 195.415 63.0999 195.55 63.6527 195.819C64.2196 196.088 64.6943 196.471 65.077 196.967C65.4738 196.485 65.9486 196.109 66.5013 195.84C67.0682 195.557 67.706 195.415 68.4146 195.415C69.1515 195.415 69.8035 195.535 70.3704 195.776C70.9514 196.003 71.4404 196.329 71.8372 196.754C72.234 197.179 72.5316 197.69 72.73 198.285C72.9426 198.866 73.0489 199.518 73.0489 200.241V206.639ZM79.953 195.415C80.7183 195.415 81.434 195.564 82.1001 195.861C82.7662 196.145 83.3472 196.549 83.8433 197.073C84.3535 197.583 84.7503 198.193 85.0337 198.901C85.3314 199.596 85.4802 200.354 85.4802 201.176C85.4802 201.998 85.3314 202.756 85.0337 203.451C84.7503 204.145 84.3535 204.747 83.8433 205.258C83.3472 205.768 82.7662 206.172 82.1001 206.469C81.434 206.753 80.7183 206.895 79.953 206.895C79.1877 206.895 78.472 206.753 77.8059 206.469C77.1398 206.172 76.5587 205.768 76.0627 205.258C75.5666 204.747 75.1698 204.145 74.8722 203.451C74.5887 202.756 74.447 201.998 74.447 201.176C74.447 200.354 74.5887 199.596 74.8722 198.901C75.1698 198.193 75.5666 197.583 76.0627 197.073C76.5587 196.549 77.1398 196.145 77.8059 195.861C78.472 195.564 79.1877 195.415 79.953 195.415ZM79.953 204.322C80.3214 204.322 80.6687 204.251 80.9946 204.11C81.3206 203.954 81.604 203.741 81.845 203.472C82.1001 203.188 82.2985 202.855 82.4402 202.473C82.5819 202.09 82.6528 201.665 82.6528 201.197C82.6528 200.73 82.5819 200.297 82.4402 199.901C82.2985 199.504 82.1001 199.164 81.845 198.88C81.604 198.597 81.3206 198.377 80.9946 198.221C80.6687 198.065 80.3214 197.987 79.953 197.987C79.5845 197.987 79.2302 198.065 78.89 198.221C78.5641 198.377 78.2806 198.597 78.0397 198.88C77.7988 199.164 77.6074 199.504 77.4657 199.901C77.324 200.297 77.2531 200.73 77.2531 201.197C77.2531 201.665 77.324 202.09 77.4657 202.473C77.6074 202.855 77.7988 203.188 78.0397 203.472C78.2806 203.741 78.5641 203.954 78.89 204.11C79.2302 204.251 79.5845 204.322 79.953 204.322ZM89.8295 206.639H87.0234V190.823H89.8295V206.639ZM101.528 204.726L101.422 204.875C100.94 205.513 100.324 206.009 99.5724 206.363C98.8213 206.717 97.9568 206.895 96.9789 206.895C96.2136 206.895 95.4908 206.746 94.8105 206.448C94.1302 206.151 93.535 205.747 93.0248 205.236C92.5146 204.712 92.1107 204.103 91.8131 203.408C91.5154 202.714 91.3666 201.97 91.3666 201.176C91.3666 200.382 91.5154 199.638 91.8131 198.944C92.1107 198.235 92.5146 197.626 93.0248 197.116C93.535 196.591 94.1302 196.18 94.8105 195.883C95.4908 195.571 96.2136 195.415 96.9789 195.415C97.7867 195.415 98.5449 195.571 99.2535 195.883C99.9763 196.18 100.593 196.627 101.103 197.222C101.613 197.803 101.996 198.519 102.251 199.369C102.506 200.219 102.584 201.183 102.485 202.26H94.2153C94.3995 202.94 94.7326 203.472 95.2144 203.855C95.7104 204.237 96.2915 204.429 96.9576 204.429C97.3828 204.429 97.7867 204.351 98.1693 204.195C98.5662 204.025 98.8851 203.755 99.126 203.387L101.528 204.726ZM99.7 199.964C99.5299 199.327 99.1968 198.823 98.7008 198.455C98.219 198.072 97.6379 197.881 96.9576 197.881C96.3199 197.881 95.76 198.072 95.2782 198.455C94.7963 198.823 94.4562 199.327 94.2578 199.964H99.7ZM113.272 203.196C113.272 203.734 113.152 204.23 112.911 204.684C112.67 205.137 112.337 205.527 111.911 205.853C111.486 206.179 110.976 206.434 110.381 206.618C109.8 206.802 109.162 206.895 108.468 206.895C107.83 206.895 107.228 206.817 106.661 206.661C106.108 206.519 105.612 206.306 105.173 206.023C104.733 205.74 104.358 205.399 104.046 205.003C103.748 204.592 103.529 204.131 103.387 203.621L106.15 203.132C106.25 203.359 106.384 203.55 106.554 203.706C106.739 203.862 106.937 203.989 107.15 204.088C107.362 204.173 107.582 204.237 107.809 204.28C108.05 204.322 108.269 204.344 108.468 204.344C109.034 204.344 109.502 204.266 109.871 204.11C110.253 203.94 110.445 203.692 110.445 203.366C110.445 203.21 110.416 203.075 110.36 202.962C110.303 202.848 110.19 202.749 110.019 202.664C109.849 202.579 109.616 202.501 109.318 202.43C109.02 202.345 108.631 202.267 108.149 202.196C107.653 202.126 107.135 202.033 106.597 201.92C106.072 201.793 105.584 201.608 105.13 201.367C104.677 201.126 104.301 200.815 104.003 200.432C103.72 200.035 103.578 199.532 103.578 198.923C103.578 198.497 103.67 198.072 103.855 197.647C104.053 197.222 104.343 196.846 104.726 196.52C105.109 196.194 105.591 195.932 106.172 195.734C106.767 195.521 107.461 195.415 108.255 195.415C109.403 195.415 110.388 195.677 111.21 196.202C112.032 196.726 112.585 197.435 112.868 198.327L110.062 198.795C109.963 198.554 109.757 198.349 109.445 198.179C109.148 198.009 108.751 197.923 108.255 197.923C107.603 197.923 107.135 198.023 106.852 198.221C106.569 198.405 106.427 198.597 106.427 198.795C106.427 199.079 106.618 199.284 107.001 199.412C107.383 199.539 107.915 199.66 108.595 199.773C109.275 199.886 109.899 200.021 110.466 200.177C111.047 200.319 111.543 200.517 111.954 200.772C112.365 201.013 112.684 201.332 112.911 201.729C113.152 202.111 113.272 202.6 113.272 203.196ZM119.902 206.618C119.094 206.703 118.385 206.654 117.776 206.469C117.166 206.285 116.656 205.988 116.245 205.577C115.834 205.166 115.522 204.662 115.31 204.067C115.097 203.458 114.991 202.778 114.991 202.026V198.179H113.673V195.691H114.991V190.823H117.797V195.691H119.774V198.179H117.797V202.048C117.797 202.813 117.967 203.351 118.307 203.663C118.662 203.975 119.193 204.11 119.902 204.067V206.618ZM123.939 206.639H121.133V195.691H123.939V206.639ZM122.514 194.798C122.118 194.798 121.777 194.657 121.494 194.373C121.21 194.09 121.069 193.75 121.069 193.353C121.069 192.942 121.21 192.595 121.494 192.311C121.777 192.014 122.118 191.865 122.514 191.865C122.925 191.865 123.273 192.014 123.556 192.311C123.854 192.595 124.002 192.942 124.002 193.353C124.002 193.75 123.854 194.09 123.556 194.373C123.273 194.657 122.925 194.798 122.514 194.798ZM133.596 206.639C133.483 206.384 133.391 206.044 133.32 205.619C132.951 206.002 132.491 206.306 131.938 206.533C131.385 206.746 130.726 206.852 129.961 206.852C129.38 206.852 128.82 206.781 128.281 206.639C127.757 206.484 127.289 206.264 126.878 205.98C126.467 205.683 126.134 205.314 125.879 204.875C125.638 204.421 125.518 203.897 125.518 203.302C125.518 202.692 125.638 202.189 125.879 201.793C126.12 201.382 126.446 201.056 126.857 200.815C127.268 200.56 127.743 200.375 128.281 200.262C128.82 200.134 129.394 200.042 130.003 199.986C130.457 199.943 130.875 199.893 131.258 199.837C131.64 199.78 131.966 199.709 132.235 199.624C132.519 199.525 132.739 199.404 132.894 199.263C133.05 199.121 133.128 198.937 133.128 198.71C133.128 198.427 132.951 198.186 132.597 197.987C132.257 197.775 131.768 197.668 131.13 197.668C130.889 197.668 130.641 197.697 130.386 197.753C130.131 197.81 129.89 197.895 129.663 198.009C129.451 198.108 129.259 198.242 129.089 198.412C128.933 198.568 128.82 198.76 128.749 198.986C128.607 198.958 128.416 198.916 128.175 198.859C127.948 198.802 127.707 198.745 127.452 198.689C127.197 198.618 126.949 198.554 126.708 198.497C126.467 198.427 126.262 198.37 126.092 198.327C126.233 197.902 126.453 197.512 126.751 197.158C127.063 196.804 127.431 196.499 127.856 196.244C128.281 195.975 128.763 195.769 129.302 195.628C129.84 195.486 130.428 195.415 131.066 195.415C131.803 195.415 132.434 195.486 132.958 195.628C133.483 195.769 133.922 195.961 134.276 196.202C134.631 196.428 134.914 196.683 135.127 196.967C135.339 197.25 135.495 197.534 135.594 197.817C135.708 198.086 135.779 198.342 135.807 198.582C135.835 198.823 135.849 199.015 135.849 199.156V204.854C135.849 205.123 135.885 205.435 135.956 205.789C136.027 206.143 136.097 206.427 136.168 206.639H133.596ZM133.235 201.367C132.937 201.566 132.561 201.715 132.108 201.814C131.669 201.913 131.158 201.998 130.577 202.069C129.883 202.14 129.337 202.267 128.94 202.452C128.544 202.622 128.345 202.912 128.345 203.323C128.345 203.635 128.508 203.89 128.834 204.088C129.174 204.273 129.628 204.365 130.195 204.365C130.62 204.365 131.017 204.329 131.385 204.259C131.754 204.188 132.072 204.074 132.342 203.918C132.625 203.748 132.845 203.543 133.001 203.302C133.157 203.047 133.235 202.742 133.235 202.388V201.367ZM147.595 204.726L147.489 204.875C147.007 205.513 146.391 206.009 145.639 206.363C144.888 206.717 144.024 206.895 143.046 206.895C142.281 206.895 141.558 206.746 140.878 206.448C140.197 206.151 139.602 205.747 139.092 205.236C138.582 204.712 138.178 204.103 137.88 203.408C137.582 202.714 137.434 201.97 137.434 201.176C137.434 200.382 137.582 199.638 137.88 198.944C138.178 198.235 138.582 197.626 139.092 197.116C139.602 196.591 140.197 196.18 140.878 195.883C141.558 195.571 142.281 195.415 143.046 195.415C143.854 195.415 144.612 195.571 145.321 195.883C146.043 196.18 146.66 196.627 147.17 197.222C147.68 197.803 148.063 198.519 148.318 199.369C148.573 200.219 148.651 201.183 148.552 202.26H140.282C140.467 202.94 140.8 203.472 141.281 203.855C141.777 204.237 142.359 204.429 143.025 204.429C143.45 204.429 143.854 204.351 144.236 204.195C144.633 204.025 144.952 203.755 145.193 203.387L147.595 204.726ZM145.767 199.964C145.597 199.327 145.264 198.823 144.768 198.455C144.286 198.072 143.705 197.881 143.025 197.881C142.387 197.881 141.827 198.072 141.345 198.455C140.863 198.823 140.523 199.327 140.325 199.964H145.767ZM166.41 206.639H163.604V200.241C163.604 200.085 163.583 199.886 163.54 199.645C163.498 199.39 163.405 199.149 163.264 198.923C163.136 198.682 162.938 198.483 162.669 198.327C162.399 198.157 162.031 198.072 161.563 198.072C160.925 198.072 160.408 198.278 160.011 198.689C159.629 199.1 159.437 199.617 159.437 200.241V206.639H156.631V195.691H159.31V196.754C159.664 196.343 160.075 196.017 160.543 195.776C161.01 195.535 161.542 195.415 162.137 195.415C162.775 195.415 163.356 195.535 163.88 195.776C164.419 196.003 164.872 196.329 165.241 196.754C165.609 197.165 165.893 197.668 166.091 198.264C166.304 198.859 166.41 199.518 166.41 200.241V206.639ZM177.988 204.726L177.882 204.875C177.4 205.513 176.784 206.009 176.032 206.363C175.281 206.717 174.417 206.895 173.439 206.895C172.674 206.895 171.951 206.746 171.271 206.448C170.59 206.151 169.995 205.747 169.485 205.236C168.975 204.712 168.571 204.103 168.273 203.408C167.975 202.714 167.827 201.97 167.827 201.176C167.827 200.382 167.975 199.638 168.273 198.944C168.571 198.235 168.975 197.626 169.485 197.116C169.995 196.591 170.59 196.18 171.271 195.883C171.951 195.571 172.674 195.415 173.439 195.415C174.247 195.415 175.005 195.571 175.714 195.883C176.436 196.18 177.053 196.627 177.563 197.222C178.073 197.803 178.456 198.519 178.711 199.369C178.966 200.219 179.044 201.183 178.945 202.26H170.675C170.86 202.94 171.193 203.472 171.674 203.855C172.171 204.237 172.752 204.429 173.418 204.429C173.843 204.429 174.247 204.351 174.629 204.195C175.026 204.025 175.345 203.755 175.586 203.387L177.988 204.726ZM176.16 199.964C175.99 199.327 175.657 198.823 175.161 198.455C174.679 198.072 174.098 197.881 173.418 197.881C172.78 197.881 172.22 198.072 171.738 198.455C171.256 198.823 170.916 199.327 170.718 199.964H176.16ZM197.258 206.639H194.451V200.241C194.451 200.085 194.43 199.886 194.388 199.645C194.345 199.39 194.253 199.149 194.111 198.923C193.97 198.682 193.764 198.483 193.495 198.327C193.226 198.157 192.864 198.072 192.411 198.072C191.773 198.072 191.256 198.278 190.859 198.689C190.476 199.1 190.285 199.617 190.285 200.241V206.639H187.457V200.241C187.457 200.085 187.436 199.886 187.394 199.645C187.351 199.39 187.259 199.149 187.117 198.923C186.99 198.682 186.791 198.483 186.522 198.327C186.253 198.157 185.884 198.072 185.417 198.072C184.793 198.072 184.283 198.278 183.886 198.689C183.503 199.1 183.312 199.617 183.312 200.241V206.639H180.485V195.691H183.184V196.754C183.525 196.343 183.929 196.017 184.396 195.776C184.878 195.535 185.417 195.415 186.012 195.415C186.692 195.415 187.309 195.55 187.861 195.819C188.428 196.088 188.903 196.471 189.286 196.967C189.682 196.485 190.157 196.109 190.71 195.84C191.277 195.557 191.915 195.415 192.623 195.415C193.36 195.415 194.012 195.535 194.579 195.776C195.16 196.003 195.649 196.329 196.046 196.754C196.443 197.179 196.74 197.69 196.939 198.285C197.151 198.866 197.258 199.518 197.258 200.241V206.639ZM204.162 195.415C204.927 195.415 205.643 195.564 206.309 195.861C206.975 196.145 207.556 196.549 208.052 197.073C208.562 197.583 208.959 198.193 209.242 198.901C209.54 199.596 209.689 200.354 209.689 201.176C209.689 201.998 209.54 202.756 209.242 203.451C208.959 204.145 208.562 204.747 208.052 205.258C207.556 205.768 206.975 206.172 206.309 206.469C205.643 206.753 204.927 206.895 204.162 206.895C203.396 206.895 202.681 206.753 202.015 206.469C201.348 206.172 200.767 205.768 200.271 205.258C199.775 204.747 199.378 204.145 199.081 203.451C198.797 202.756 198.656 201.998 198.656 201.176C198.656 200.354 198.797 199.596 199.081 198.901C199.378 198.193 199.775 197.583 200.271 197.073C200.767 196.549 201.348 196.145 202.015 195.861C202.681 195.564 203.396 195.415 204.162 195.415ZM204.162 204.322C204.53 204.322 204.877 204.251 205.203 204.11C205.529 203.954 205.813 203.741 206.054 203.472C206.309 203.188 206.507 202.855 206.649 202.473C206.791 202.09 206.861 201.665 206.861 201.197C206.861 200.73 206.791 200.297 206.649 199.901C206.507 199.504 206.309 199.164 206.054 198.88C205.813 198.597 205.529 198.377 205.203 198.221C204.877 198.065 204.53 197.987 204.162 197.987C203.793 197.987 203.439 198.065 203.099 198.221C202.773 198.377 202.489 198.597 202.248 198.88C202.007 199.164 201.816 199.504 201.674 199.901C201.533 200.297 201.462 200.73 201.462 201.197C201.462 201.665 201.533 202.09 201.674 202.473C201.816 202.855 202.007 203.188 202.248 203.472C202.489 203.741 202.773 203.954 203.099 204.11C203.439 204.251 203.793 204.322 204.162 204.322Z" fill="black"/>
<path d="M229.37 217C233.112 217 236.146 213.966 236.146 210.223C236.146 206.481 233.112 203.447 229.37 203.447L227.764 203.447C226.643 203.447 225.533 203.238 224.489 202.832L222.818 202.183C222.086 201.898 221.364 202.62 221.649 203.352L221.979 204.201C222.385 205.246 222.593 206.356 222.593 207.476L222.593 210.223C222.593 213.966 225.627 217 229.37 217Z" fill="black"/>
</svg>
